<svg xmlns="http://www.w3.org/2000/svg" width="44" height="44" viewBox="0 0 44 44">
  <g id="Grupo_3590" data-name="Grupo 3590" transform="translate(-108.001 -1283)">
    <g id="Grupo_3463" data-name="Grupo 3463" transform="translate(-471.02 524.979)">
      <g id="Elipse_542" data-name="Elipse 542" transform="translate(579.021 758.021)" fill="#f3f7fa" stroke="#cea774" stroke-width="1">
        <circle cx="22" cy="22" r="22" stroke="none"/>
        <circle cx="22" cy="22" r="21.5" fill="none"/>
      </g>
      <circle id="Elipse_543" data-name="Elipse 543" cx="18" cy="18" r="18" transform="translate(583.021 762.021)" fill="#745f57"/>
    </g>
    <path id="Trazado_7454" data-name="Trazado 7454" d="M-6.6-14H-.24a8.938,8.938,0,0,1,4.03.87,6.514,6.514,0,0,1,2.72,2.45A6.891,6.891,0,0,1,7.48-7a6.891,6.891,0,0,1-.97,3.68A6.514,6.514,0,0,1,3.79-.87,8.938,8.938,0,0,1-.24,0H-6.6ZM-.4-2.66A4.7,4.7,0,0,0,2.95-3.83,4.132,4.132,0,0,0,4.2-7a4.132,4.132,0,0,0-1.25-3.17A4.7,4.7,0,0,0-.4-11.34H-3.36v8.68Z" transform="translate(130 1311)" fill="#fff"/>
  </g>
</svg>
