<svg xmlns="http://www.w3.org/2000/svg" width="44" height="44" viewBox="0 0 44 44">
  <g id="Grupo_3593" data-name="Grupo 3593" transform="translate(-108.001 -1552)">
    <g id="Grupo_3466" data-name="Grupo 3466" transform="translate(-471.02 793.979)">
      <g id="Elipse_542" data-name="Elipse 542" transform="translate(579.021 758.021)" fill="#f3f7fa" stroke="#cea774" stroke-width="1">
        <circle cx="22" cy="22" r="22" stroke="none"/>
        <circle cx="22" cy="22" r="21.5" fill="none"/>
      </g>
      <circle id="Elipse_543" data-name="Elipse 543" cx="18" cy="18" r="18" transform="translate(583.021 762.021)" fill="#745f57"/>
    </g>
    <path id="Trazado_7457" data-name="Trazado 7457" d="M3.41-7.22H6.37v5.68A8.457,8.457,0,0,1,3.73-.22,10.25,10.25,0,0,1,.71.24,8.184,8.184,0,0,1-3.21-.69,6.923,6.923,0,0,1-5.94-3.27,7.108,7.108,0,0,1-6.93-7a7.108,7.108,0,0,1,.99-3.73,6.889,6.889,0,0,1,2.75-2.58,8.344,8.344,0,0,1,3.96-.93,8.666,8.666,0,0,1,3.34.62,6.618,6.618,0,0,1,2.52,1.8L4.55-9.9A4.811,4.811,0,0,0,.93-11.48a4.941,4.941,0,0,0-2.38.56A4.017,4.017,0,0,0-3.07-9.34,4.65,4.65,0,0,0-3.65-7a4.61,4.61,0,0,0,.58,2.32A4.1,4.1,0,0,0-1.46-3.09a4.772,4.772,0,0,0,2.35.57,5.251,5.251,0,0,0,2.52-.6Z" transform="translate(130 1580)" fill="#fff"/>
  </g>
</svg>
