<svg xmlns="http://www.w3.org/2000/svg" width="163" height="167" viewBox="0 0 163 167">
  <g id="Grupo_3457" data-name="Grupo 3457" transform="translate(-625 -835)">
    <g id="Elipse_561" data-name="Elipse 561" transform="translate(625 839)" fill="#fff" stroke="#8d7a72" stroke-width="2" stroke-dasharray="6">
      <circle cx="81.5" cy="81.5" r="81.5" stroke="none"/>
      <circle cx="81.5" cy="81.5" r="80.5" fill="none"/>
    </g>
    <g id="Grupo_3444" data-name="Grupo 3444" transform="translate(274.185 567)">
      <g id="Grupo_3434" data-name="Grupo 3434">
        <path id="Trazado_3311" data-name="Trazado 3311" d="M427,349V338a11.032,11.032,0,0,1,11-11h0a11.032,11.032,0,0,1,11,11v11" fill="none" stroke="#a88b6a" stroke-linecap="round" stroke-linejoin="round" stroke-width="2"/>
        <path id="Trazado_3312" data-name="Trazado 3312" d="M450,341h2.141a10,10,0,0,1,9.716,7.637l6.241,25.654A3,3,0,0,1,465.183,378H410.817a3,3,0,0,1-2.915-3.709l6.24-25.654A10,10,0,0,1,423.859,341H426" fill="none" stroke="#a88b6a" stroke-linecap="round" stroke-linejoin="round" stroke-width="2"/>
        <line id="Línea_101" data-name="Línea 101" x2="14" transform="translate(431 341)" fill="none" stroke="#a88b6a" stroke-linecap="round" stroke-linejoin="round" stroke-width="2"/>
      </g>
      <g id="Grupo_3435" data-name="Grupo 3435">
        <path id="Trazado_3313" data-name="Trazado 3313" d="M424,354v-4a1,1,0,0,1,1-1h4a1,1,0,0,1,1,1v4" fill="none" stroke="#a88b6a" stroke-linecap="round" stroke-linejoin="round" stroke-width="2"/>
        <path id="Trazado_3314" data-name="Trazado 3314" d="M446,354v-4a1,1,0,0,1,1-1h4a1,1,0,0,1,1,1v4" fill="none" stroke="#a88b6a" stroke-linecap="round" stroke-linejoin="round" stroke-width="2"/>
        <path id="Trazado_3315" data-name="Trazado 3315" d="M429,353h-4l-1,10h6Z" fill="none" stroke="#a88b6a" stroke-linecap="round" stroke-linejoin="round" stroke-width="2"/>
        <path id="Trazado_3316" data-name="Trazado 3316" d="M451,353h-4l-1,10h6Z" fill="none" stroke="#a88b6a" stroke-linecap="round" stroke-linejoin="round" stroke-width="2"/>
      </g>
    </g>
    <g id="Grupo_3445" data-name="Grupo 3445" transform="translate(157 77)">
      <g id="Elipse_542" data-name="Elipse 542" transform="translate(579 758)" fill="#f3f7fa" stroke="#cea774" stroke-width="1">
        <circle cx="26" cy="26" r="26" stroke="none"/>
        <circle cx="26" cy="26" r="25.5" fill="none"/>
      </g>
      <circle id="Elipse_543" data-name="Elipse 543" cx="21" cy="21" r="21" transform="translate(584 763)" fill="#745f57"/>
    </g>
    <path id="Trazado_3457" data-name="Trazado 3457" d="M1.03.24A8.041,8.041,0,0,1-2.84-.69,6.941,6.941,0,0,1-5.56-3.27,7.108,7.108,0,0,1-6.55-7a7.108,7.108,0,0,1,.99-3.73,6.941,6.941,0,0,1,2.72-2.58,8.083,8.083,0,0,1,3.89-.93,8.159,8.159,0,0,1,3.29.64,6.59,6.59,0,0,1,2.47,1.84L4.73-9.84a4.472,4.472,0,0,0-3.52-1.64,4.674,4.674,0,0,0-2.32.57A4.052,4.052,0,0,0-2.7-9.32,4.674,4.674,0,0,0-3.27-7,4.674,4.674,0,0,0-2.7-4.68,4.052,4.052,0,0,0-1.11-3.09a4.674,4.674,0,0,0,2.32.57A4.451,4.451,0,0,0,4.73-4.18L6.81-2.26A6.483,6.483,0,0,1,4.33-.4,8.231,8.231,0,0,1,1.03.24Z" transform="translate(763 867)" fill="#fff"/>
    <g id="Grupo_3443" data-name="Grupo 3443" transform="translate(449 626)">
      <circle id="Elipse_556" data-name="Elipse 556" cx="16" cy="16" r="16" transform="translate(211 243)" stroke-width="2" stroke="#a88b6a" stroke-linecap="round" stroke-linejoin="round" fill="none"/>
      <path id="Trazado_3318" data-name="Trazado 3318" d="M222.293,248.73a11.28,11.28,0,1,1-6.231,7.446" fill="none" stroke="#a88b6a" stroke-linecap="round" stroke-linejoin="round" stroke-width="2"/>
      <g id="Grupo_3442" data-name="Grupo 3442">
        <circle id="Elipse_557" data-name="Elipse 557" cx="1.5" cy="1.5" r="1.5" transform="translate(222 254)" fill="none" stroke="#a88b6a" stroke-width="1"/>
        <circle id="Elipse_558" data-name="Elipse 558" cx="1.5" cy="1.5" r="1.5" transform="translate(229 254)" fill="none" stroke="#a88b6a" stroke-width="1"/>
        <circle id="Elipse_559" data-name="Elipse 559" cx="1.5" cy="1.5" r="1.5" transform="translate(229 261)" fill="none" stroke="#a88b6a" stroke-width="1"/>
        <circle id="Elipse_560" data-name="Elipse 560" cx="1.5" cy="1.5" r="1.5" transform="translate(222 261)" fill="none" stroke="#a88b6a" stroke-width="1"/>
      </g>
    </g>
  </g>
</svg>
