<svg xmlns="http://www.w3.org/2000/svg" width="373.77" height="246.31" viewBox="0 0 373.77 246.31">
  <g id="Grupo_3560" data-name="Grupo 3560" transform="translate(-757.23 -342.5)">
    <g id="Grupo_866" data-name="Grupo 866" transform="translate(-1010.663 -1503.181)" opacity="0.25">
      <ellipse id="Elipse_71" data-name="Elipse 71" cx="2" cy="2.051" rx="2" ry="2.051" transform="translate(1882.663 1997.181)" fill="#745f57"/>
      <ellipse id="Elipse_72" data-name="Elipse 72" cx="2" cy="2.051" rx="2" ry="2.051" transform="translate(1894.663 1997.181)" fill="#745f57"/>
      <ellipse id="Elipse_73" data-name="Elipse 73" cx="2" cy="2.051" rx="2" ry="2.051" transform="translate(1905.663 1997.181)" fill="#745f57"/>
      <ellipse id="Elipse_90" data-name="Elipse 90" cx="2" cy="2.051" rx="2" ry="2.051" transform="translate(1882.663 2009.489)" fill="#745f57"/>
      <ellipse id="Elipse_91" data-name="Elipse 91" cx="2" cy="2.051" rx="2" ry="2.051" transform="translate(1894.663 2009.489)" fill="#745f57"/>
      <ellipse id="Elipse_92" data-name="Elipse 92" cx="2" cy="2.051" rx="2" ry="2.051" transform="translate(1905.663 2009.489)" fill="#745f57"/>
      <ellipse id="Elipse_109" data-name="Elipse 109" cx="2" cy="2.051" rx="2" ry="2.051" transform="translate(1882.663 2021.796)" fill="#745f57"/>
      <ellipse id="Elipse_110" data-name="Elipse 110" cx="2" cy="2.051" rx="2" ry="2.051" transform="translate(1894.663 2021.796)" fill="#745f57"/>
      <ellipse id="Elipse_111" data-name="Elipse 111" cx="2" cy="2.051" rx="2" ry="2.051" transform="translate(1905.663 2021.796)" fill="#745f57"/>
      <ellipse id="Elipse_128" data-name="Elipse 128" cx="2" cy="2.051" rx="2" ry="2.051" transform="translate(1882.663 2033.078)" fill="#745f57"/>
      <ellipse id="Elipse_129" data-name="Elipse 129" cx="2" cy="2.051" rx="2" ry="2.051" transform="translate(1894.663 2033.078)" fill="#745f57"/>
      <ellipse id="Elipse_130" data-name="Elipse 130" cx="2" cy="2.051" rx="2" ry="2.051" transform="translate(1905.663 2033.078)" fill="#745f57"/>
      <ellipse id="Elipse_416" data-name="Elipse 416" cx="2.5" cy="2.051" rx="2.5" ry="2.051" transform="translate(1916.663 1997.181)" fill="#745f57"/>
      <ellipse id="Elipse_417" data-name="Elipse 417" cx="2" cy="2.051" rx="2" ry="2.051" transform="translate(1928.663 1997.181)" fill="#745f57"/>
      <ellipse id="Elipse_418" data-name="Elipse 418" cx="2" cy="2.051" rx="2" ry="2.051" transform="translate(1940.663 1997.181)" fill="#745f57"/>
      <ellipse id="Elipse_419" data-name="Elipse 419" cx="2" cy="2.051" rx="2" ry="2.051" transform="translate(1952.663 1997.181)" fill="#745f57"/>
      <ellipse id="Elipse_420" data-name="Elipse 420" cx="2" cy="2.051" rx="2" ry="2.051" transform="translate(1963.663 1997.181)" fill="#745f57"/>
      <ellipse id="Elipse_421" data-name="Elipse 421" cx="2.5" cy="2.051" rx="2.5" ry="2.051" transform="translate(1974.663 1997.181)" fill="#745f57"/>
      <ellipse id="Elipse_422" data-name="Elipse 422" cx="2" cy="2.051" rx="2" ry="2.051" transform="translate(1986.663 1997.181)" fill="#745f57"/>
      <ellipse id="Elipse_423" data-name="Elipse 423" cx="2" cy="2.051" rx="2" ry="2.051" transform="translate(1998.663 1997.181)" fill="#745f57"/>
      <ellipse id="Elipse_424" data-name="Elipse 424" cx="2" cy="2.051" rx="2" ry="2.051" transform="translate(2010.663 1997.181)" fill="#745f57"/>
      <ellipse id="Elipse_425" data-name="Elipse 425" cx="2" cy="2.051" rx="2" ry="2.051" transform="translate(2021.663 1997.181)" fill="#745f57"/>
      <ellipse id="Elipse_426" data-name="Elipse 426" cx="2" cy="2.051" rx="2" ry="2.051" transform="translate(2032.663 1997.181)" fill="#745f57"/>
      <ellipse id="Elipse_427" data-name="Elipse 427" cx="2" cy="2.051" rx="2" ry="2.051" transform="translate(2044.663 1997.181)" fill="#745f57"/>
      <ellipse id="Elipse_428" data-name="Elipse 428" cx="2" cy="2.051" rx="2" ry="2.051" transform="translate(2056.663 1997.181)" fill="#745f57"/>
      <ellipse id="Elipse_429" data-name="Elipse 429" cx="2" cy="2.051" rx="2" ry="2.051" transform="translate(2068.663 1997.181)" fill="#745f57"/>
      <ellipse id="Elipse_430" data-name="Elipse 430" cx="2" cy="2.051" rx="2" ry="2.051" transform="translate(2079.663 1997.181)" fill="#745f57"/>
      <ellipse id="Elipse_431" data-name="Elipse 431" cx="2" cy="2.051" rx="2" ry="2.051" transform="translate(2090.663 1997.181)" fill="#745f57"/>
      <ellipse id="Elipse_432" data-name="Elipse 432" cx="2" cy="2.051" rx="2" ry="2.051" transform="translate(2102.663 1997.181)" fill="#745f57"/>
      <ellipse id="Elipse_433" data-name="Elipse 433" cx="2" cy="2.051" rx="2" ry="2.051" transform="translate(2114.663 1997.181)" fill="#745f57"/>
      <ellipse id="Elipse_434" data-name="Elipse 434" cx="2" cy="2.051" rx="2" ry="2.051" transform="translate(2137.663 1997.181)" fill="#745f57"/>
      <ellipse id="Elipse_435" data-name="Elipse 435" cx="2.5" cy="2.051" rx="2.5" ry="2.051" transform="translate(2125.663 1997.181)" fill="#745f57"/>
      <ellipse id="Elipse_436" data-name="Elipse 436" cx="2.5" cy="2.051" rx="2.5" ry="2.051" transform="translate(1916.663 2009.489)" fill="#745f57"/>
      <ellipse id="Elipse_437" data-name="Elipse 437" cx="2" cy="2.051" rx="2" ry="2.051" transform="translate(1928.663 2009.489)" fill="#745f57"/>
      <ellipse id="Elipse_438" data-name="Elipse 438" cx="2" cy="2.051" rx="2" ry="2.051" transform="translate(1940.663 2009.489)" fill="#745f57"/>
      <ellipse id="Elipse_439" data-name="Elipse 439" cx="2" cy="2.051" rx="2" ry="2.051" transform="translate(1952.663 2009.489)" fill="#745f57"/>
      <ellipse id="Elipse_440" data-name="Elipse 440" cx="2" cy="2.051" rx="2" ry="2.051" transform="translate(1963.663 2009.489)" fill="#745f57"/>
      <ellipse id="Elipse_441" data-name="Elipse 441" cx="2.5" cy="2.051" rx="2.5" ry="2.051" transform="translate(1974.663 2009.489)" fill="#745f57"/>
      <ellipse id="Elipse_442" data-name="Elipse 442" cx="2" cy="2.051" rx="2" ry="2.051" transform="translate(1986.663 2009.489)" fill="#745f57"/>
      <ellipse id="Elipse_443" data-name="Elipse 443" cx="2" cy="2.051" rx="2" ry="2.051" transform="translate(1998.663 2009.489)" fill="#745f57"/>
      <ellipse id="Elipse_444" data-name="Elipse 444" cx="2" cy="2.051" rx="2" ry="2.051" transform="translate(2010.663 2009.489)" fill="#745f57"/>
      <ellipse id="Elipse_445" data-name="Elipse 445" cx="2" cy="2.051" rx="2" ry="2.051" transform="translate(2021.663 2009.489)" fill="#745f57"/>
      <ellipse id="Elipse_446" data-name="Elipse 446" cx="2" cy="2.051" rx="2" ry="2.051" transform="translate(2032.663 2009.489)" fill="#745f57"/>
      <ellipse id="Elipse_447" data-name="Elipse 447" cx="2" cy="2.051" rx="2" ry="2.051" transform="translate(2044.663 2009.489)" fill="#745f57"/>
      <ellipse id="Elipse_448" data-name="Elipse 448" cx="2" cy="2.051" rx="2" ry="2.051" transform="translate(2056.663 2009.489)" fill="#745f57"/>
      <ellipse id="Elipse_449" data-name="Elipse 449" cx="2" cy="2.051" rx="2" ry="2.051" transform="translate(2068.663 2009.489)" fill="#745f57"/>
      <ellipse id="Elipse_450" data-name="Elipse 450" cx="2" cy="2.051" rx="2" ry="2.051" transform="translate(2079.663 2009.489)" fill="#745f57"/>
      <ellipse id="Elipse_451" data-name="Elipse 451" cx="2" cy="2.051" rx="2" ry="2.051" transform="translate(2090.663 2009.489)" fill="#745f57"/>
      <ellipse id="Elipse_452" data-name="Elipse 452" cx="2" cy="2.051" rx="2" ry="2.051" transform="translate(2102.663 2009.489)" fill="#745f57"/>
      <ellipse id="Elipse_453" data-name="Elipse 453" cx="2" cy="2.051" rx="2" ry="2.051" transform="translate(2114.663 2009.489)" fill="#745f57"/>
      <ellipse id="Elipse_454" data-name="Elipse 454" cx="2" cy="2.051" rx="2" ry="2.051" transform="translate(2137.663 2009.489)" fill="#745f57"/>
      <ellipse id="Elipse_455" data-name="Elipse 455" cx="2.5" cy="2.051" rx="2.5" ry="2.051" transform="translate(2125.663 2009.489)" fill="#745f57"/>
      <ellipse id="Elipse_456" data-name="Elipse 456" cx="2.5" cy="2.051" rx="2.5" ry="2.051" transform="translate(1916.663 2021.796)" fill="#745f57"/>
      <ellipse id="Elipse_457" data-name="Elipse 457" cx="2" cy="2.051" rx="2" ry="2.051" transform="translate(1928.663 2021.796)" fill="#745f57"/>
      <ellipse id="Elipse_458" data-name="Elipse 458" cx="2" cy="2.051" rx="2" ry="2.051" transform="translate(1940.663 2021.796)" fill="#745f57"/>
      <ellipse id="Elipse_459" data-name="Elipse 459" cx="2" cy="2.051" rx="2" ry="2.051" transform="translate(1952.663 2021.796)" fill="#745f57"/>
      <ellipse id="Elipse_460" data-name="Elipse 460" cx="2" cy="2.051" rx="2" ry="2.051" transform="translate(1963.663 2021.796)" fill="#745f57"/>
      <ellipse id="Elipse_461" data-name="Elipse 461" cx="2.5" cy="2.051" rx="2.5" ry="2.051" transform="translate(1974.663 2021.796)" fill="#745f57"/>
      <ellipse id="Elipse_462" data-name="Elipse 462" cx="2" cy="2.051" rx="2" ry="2.051" transform="translate(1986.663 2021.796)" fill="#745f57"/>
      <ellipse id="Elipse_463" data-name="Elipse 463" cx="2" cy="2.051" rx="2" ry="2.051" transform="translate(1998.663 2021.796)" fill="#745f57"/>
      <ellipse id="Elipse_464" data-name="Elipse 464" cx="2" cy="2.051" rx="2" ry="2.051" transform="translate(2010.663 2021.796)" fill="#745f57"/>
      <ellipse id="Elipse_465" data-name="Elipse 465" cx="2" cy="2.051" rx="2" ry="2.051" transform="translate(2021.663 2021.796)" fill="#745f57"/>
      <ellipse id="Elipse_466" data-name="Elipse 466" cx="2" cy="2.051" rx="2" ry="2.051" transform="translate(2032.663 2021.796)" fill="#745f57"/>
      <ellipse id="Elipse_467" data-name="Elipse 467" cx="2" cy="2.051" rx="2" ry="2.051" transform="translate(2044.663 2021.796)" fill="#745f57"/>
      <ellipse id="Elipse_468" data-name="Elipse 468" cx="2" cy="2.051" rx="2" ry="2.051" transform="translate(2056.663 2021.796)" fill="#745f57"/>
      <ellipse id="Elipse_469" data-name="Elipse 469" cx="2" cy="2.051" rx="2" ry="2.051" transform="translate(2068.663 2021.796)" fill="#745f57"/>
      <ellipse id="Elipse_470" data-name="Elipse 470" cx="2" cy="2.051" rx="2" ry="2.051" transform="translate(2079.663 2021.796)" fill="#745f57"/>
      <ellipse id="Elipse_471" data-name="Elipse 471" cx="2" cy="2.051" rx="2" ry="2.051" transform="translate(2090.663 2021.796)" fill="#745f57"/>
      <ellipse id="Elipse_472" data-name="Elipse 472" cx="2" cy="2.051" rx="2" ry="2.051" transform="translate(2102.663 2021.796)" fill="#745f57"/>
      <ellipse id="Elipse_473" data-name="Elipse 473" cx="2" cy="2.051" rx="2" ry="2.051" transform="translate(2114.663 2021.796)" fill="#745f57"/>
      <ellipse id="Elipse_474" data-name="Elipse 474" cx="2" cy="2.051" rx="2" ry="2.051" transform="translate(2137.663 2021.796)" fill="#745f57"/>
      <ellipse id="Elipse_475" data-name="Elipse 475" cx="2.5" cy="2.051" rx="2.5" ry="2.051" transform="translate(2125.663 2021.796)" fill="#745f57"/>
      <ellipse id="Elipse_476" data-name="Elipse 476" cx="2.5" cy="2.051" rx="2.5" ry="2.051" transform="translate(1916.663 2033.078)" fill="#745f57"/>
      <ellipse id="Elipse_477" data-name="Elipse 477" cx="2" cy="2.051" rx="2" ry="2.051" transform="translate(1928.663 2033.078)" fill="#745f57"/>
      <ellipse id="Elipse_478" data-name="Elipse 478" cx="2" cy="2.051" rx="2" ry="2.051" transform="translate(1940.663 2033.078)" fill="#745f57"/>
      <ellipse id="Elipse_479" data-name="Elipse 479" cx="2" cy="2.051" rx="2" ry="2.051" transform="translate(1952.663 2033.078)" fill="#745f57"/>
      <ellipse id="Elipse_480" data-name="Elipse 480" cx="2" cy="2.051" rx="2" ry="2.051" transform="translate(1963.663 2033.078)" fill="#745f57"/>
      <ellipse id="Elipse_481" data-name="Elipse 481" cx="2.5" cy="2.051" rx="2.5" ry="2.051" transform="translate(1974.663 2033.078)" fill="#745f57"/>
      <ellipse id="Elipse_482" data-name="Elipse 482" cx="2" cy="2.051" rx="2" ry="2.051" transform="translate(1986.663 2033.078)" fill="#745f57"/>
      <ellipse id="Elipse_483" data-name="Elipse 483" cx="2" cy="2.051" rx="2" ry="2.051" transform="translate(1998.663 2033.078)" fill="#745f57"/>
      <ellipse id="Elipse_484" data-name="Elipse 484" cx="2" cy="2.051" rx="2" ry="2.051" transform="translate(2010.663 2033.078)" fill="#745f57"/>
      <ellipse id="Elipse_485" data-name="Elipse 485" cx="2" cy="2.051" rx="2" ry="2.051" transform="translate(2021.663 2033.078)" fill="#745f57"/>
      <ellipse id="Elipse_486" data-name="Elipse 486" cx="2" cy="2.051" rx="2" ry="2.051" transform="translate(2032.663 2033.078)" fill="#745f57"/>
      <ellipse id="Elipse_487" data-name="Elipse 487" cx="2" cy="2.051" rx="2" ry="2.051" transform="translate(2044.663 2033.078)" fill="#745f57"/>
      <ellipse id="Elipse_488" data-name="Elipse 488" cx="2" cy="2.051" rx="2" ry="2.051" transform="translate(2056.663 2033.078)" fill="#745f57"/>
      <ellipse id="Elipse_489" data-name="Elipse 489" cx="2" cy="2.051" rx="2" ry="2.051" transform="translate(2068.663 2033.078)" fill="#745f57"/>
      <ellipse id="Elipse_490" data-name="Elipse 490" cx="2" cy="2.051" rx="2" ry="2.051" transform="translate(2079.663 2033.078)" fill="#745f57"/>
      <ellipse id="Elipse_491" data-name="Elipse 491" cx="2" cy="2.051" rx="2" ry="2.051" transform="translate(2090.663 2033.078)" fill="#745f57"/>
      <ellipse id="Elipse_492" data-name="Elipse 492" cx="2" cy="2.051" rx="2" ry="2.051" transform="translate(2102.663 2033.078)" fill="#745f57"/>
      <ellipse id="Elipse_493" data-name="Elipse 493" cx="2" cy="2.051" rx="2" ry="2.051" transform="translate(2114.663 2033.078)" fill="#745f57"/>
      <ellipse id="Elipse_494" data-name="Elipse 494" cx="2" cy="2.051" rx="2" ry="2.051" transform="translate(2137.663 2033.078)" fill="#745f57"/>
      <ellipse id="Elipse_495" data-name="Elipse 495" cx="2.5" cy="2.051" rx="2.5" ry="2.051" transform="translate(2125.663 2033.078)" fill="#745f57"/>
    </g>
    <g id="Grupo_3549" data-name="Grupo 3549" transform="matrix(0.995, 0.105, -0.105, 0.995, 842.911, 310.695)" opacity="0.665">
      <g id="Grupo_3547" data-name="Grupo 3547" transform="translate(160.398 118.964)">
        <path id="Trazado_3383" data-name="Trazado 3383" d="M195.928,210.735s1.924-11.054,6.493-19.741c4.273-8.128,7.636-13.241,9.069-15.864,0,0,6.269-10.96,7.641-13.452,1.083-1.964-1.142-3.324-2.2-1.662-1.913,3-7.477,12.235-7.82,12.749a.447.447,0,1,1-.776-.445c.252-.562,7.185-15.624,8.614-18.967,1.229-2.871-2.345-4.613-3.6-2.171-2.194,4.276-9.192,18.211-9.493,18.8s-1.109.163-.706-.4,8.086-18.059,9.642-21.7c1.4-3.286-2.683-5.276-4.116-2.482-2.512,4.9-10.272,20.9-10.532,21.485s-1.047.463-.771-.322,5.645-16.059,6.72-19.292c.986-2.962-2.719-4.4-3.764-1.863-2.12,5.14-8.218,20.3-8.218,20.3a1.815,1.815,0,0,1-3.188.615c-.937-2.634-1.568-6.951-3.98-8.744-3.258-2.42-6.065-.231-4.488,2.375,1.363,2.252,2.157,17.56,2.069,17.915-2.764,10.955-10.355,21.314-10.355,21.314Z" transform="translate(-172.169 -144.072)" fill="#f37f00"/>
        <path id="Trazado_3384" data-name="Trazado 3384" d="M185.144,206.949c1.984-2.774,4.173-6.583,4-10.11a23.817,23.817,0,0,0-3.153-10.031q-.342-.617-.676-1.231c.561,5.076.854,11.181.8,11.4a61.714,61.714,0,0,1-6.149,14.647A16.176,16.176,0,0,0,185.144,206.949Z" transform="translate(-175.759 -163.183)" fill="#e6d8d7" style="mix-blend-mode: multiply;isolation: isolate"/>
        <path id="Trazado_3385" data-name="Trazado 3385" d="M176.37,233.879a73.739,73.739,0,0,1-4.2,6.656l23.759,11.553s.583-3.341,1.864-7.79Z" transform="translate(-172.169 -185.424)" fill="#fb9800"/>
        <path id="Trazado_3386" data-name="Trazado 3386" d="M202.421,205.622c4.273-8.128,7.636-13.241,9.069-15.864,0,0,6.269-10.96,7.641-13.452a2.372,2.372,0,0,0,.194-.465c-.863,1.116-1.724,2.237-2.556,3.378-2.217,3.04-4.28,6.241-6.4,9.35-2.293,3.367-3.966,7.03-6.012,10.535-1.88,3.218-5.96,8.934-7.93,14.523-1.441,4.088-4.628,5.386-9.358,4.89-4.472-.468-11.457-5.707-11.485-10-1.913,3.242-3.417,5.3-3.417,5.3l23.759,11.553S197.852,214.309,202.421,205.622Z" transform="translate(-172.169 -158.7)" fill="#fff" opacity="0.5" style="mix-blend-mode: soft-light;isolation: isolate"/>
      </g>
      <g id="Grupo_3548" data-name="Grupo 3548" transform="translate(146.606 89.544)">
        <path id="Trazado_3387" data-name="Trazado 3387" d="M181.9,156.837s-2.563-10.924-1.766-20.706c.745-9.154,1.833-15.177,2.124-18.149,0,0,1.469-12.543,1.754-15.373.226-2.232-2.354-2.609-2.676-.665-.585,3.512-2.083,14.188-2.2,14.8a.447.447,0,1,1-.888-.106c.011-.613.483-17.189.488-20.826,0-3.122-3.965-3.323-4.16-.585-.342,4.793-1.316,20.356-1.362,21.011s-.958.585-.8-.087.357-19.784.362-23.741c.005-3.573-4.536-3.8-4.76-.67-.391,5.49-1.256,23.249-1.265,23.894s-.781.836-.835.006-1.1-16.987-1.381-20.381c-.255-3.112-4.228-2.984-4.195-.238.065,5.559.4,21.895.4,21.895a1.815,1.815,0,0,1-2.692,1.816c-1.893-2.055-4.168-5.78-7.09-6.484-3.946-.949-5.671,2.166-3.2,3.945,2.136,1.538,8.87,15.308,8.927,15.67,1.752,11.162-1.17,23.668-1.17,23.668Z" transform="translate(-146.606 -89.544)" fill="#f37f00"/>
        <path id="Trazado_3388" data-name="Trazado 3388" d="M163.856,168.832c.739-3.328,1.257-7.692-.283-10.87a23.827,23.827,0,0,0-6.832-7.99q-.556-.435-1.1-.868c2.507,4.45,5.169,9.951,5.2,10.177a61.714,61.714,0,0,1,.085,15.885A16.159,16.159,0,0,0,163.856,168.832Z" transform="translate(-150.764 -116.969)" fill="#e6d8d7" style="mix-blend-mode: multiply;isolation: isolate"/>
        <path id="Trazado_3389" data-name="Trazado 3389" d="M164.369,197.434a73.536,73.536,0,0,1-1.255,7.769l26.386,1.313s-.773-3.3-1.338-7.9Z" transform="translate(-154.207 -139.223)" fill="#fb9800"/>
        <path id="Trazado_3390" data-name="Trazado 3390" d="M187.734,146.852c.745-9.154,1.833-15.177,2.124-18.149,0,0,1.469-12.543,1.754-15.373a2.39,2.39,0,0,0,0-.5c-.356,1.366-.71,2.733-1.027,4.11-.849,3.665-1.491,7.418-2.22,11.109-.789,4-.891,8.022-1.4,12.048-.467,3.7-1.98,10.556-1.6,16.468.278,4.328-2.146,6.771-6.691,8.169-4.3,1.323-12.777-.76-14.488-4.7-.488,3.731-1.067,6.213-1.067,6.213l26.386,1.313S186.937,156.634,187.734,146.852Z" transform="translate(-154.207 -100.265)" fill="#fff" opacity="0.5" style="mix-blend-mode: soft-light;isolation: isolate"/>
      </g>
    </g>
    <g id="Grupo_3546" data-name="Grupo 3546" transform="translate(806.559 146.886)">
      <path id="Trazado_3370" data-name="Trazado 3370" d="M66.868,200.3c-2.325,3.225-32.751,45.512-32.751,45.512l-1.676-12.07s27.5-31.89,32.223-36.614,13.812,5.136,13.812,5.136-2.9,7.193-5.508,6.3S68.032,198.686,66.868,200.3Z" transform="translate(0 0.146)" fill="#49838b"/>
      <path id="Trazado_3371" data-name="Trazado 3371" d="M32.441,220.71l8-3.8s1.334,15.339,5.684,27.153c-3.848.455-12.01-11.28-12.01-11.28Z" transform="translate(0 13.181)" fill="#569ca5"/>
      <path id="Trazado_3372" data-name="Trazado 3372" d="M38.106,223.972a2.165,2.165,0,1,1-2.163-2.163A2.162,2.162,0,0,1,38.106,223.972Z" transform="translate(0.827 16.215)" fill="#457c83"/>
      <path id="Trazado_3373" data-name="Trazado 3373" d="M114.352,200.063l32.753,45.512,1.677-12.067s-27.506-31.893-32.227-36.614-13.812,5.136-13.812,5.136,2.9,7.19,5.508,6.295S113.188,198.447,114.352,200.063Z" transform="translate(43.519)" fill="#49838b"/>
      <path id="Trazado_3374" data-name="Trazado 3374" d="M136.413,220.475l-8-3.8s-1.334,15.34-5.683,27.154c3.85.452,12.01-11.283,12.01-11.283Z" transform="translate(55.888 13.034)" fill="#569ca5"/>
      <path id="Trazado_3375" data-name="Trazado 3375" d="M172.213,250.128c-8.129,7.355-47.609,17.189-51.147,16.011s-3.643-7.176-7.012-14.95c-1.972-4.564-6.75-5.639-9.586,0-3.251,6.466-4.256,12.983-7.537,14.95s-43.081-9.91-50.363-16.011-9.442-32.254-9.442-32.254,16.26-3.149,69.773-3.149,74.5,3.149,74.5,3.149S179.986,243.094,172.213,250.128Z" transform="translate(2.901 11.83)" fill="#60afba"/>
      <path id="Trazado_3376" data-name="Trazado 3376" d="M88.218,214.725h-.631c-7.056,0-13.449.057-19.258.152,1.473,5.414,3.134,10.779,5.019,16.067,2.883,8.089,6.769,15.866,10.219,23.779.471-1.164.994-2.349,1.588-3.534,2.837-5.639,7.614-4.564,9.586,0,3.369,7.775,3.466,13.77,7.012,14.95,1.046.345,5.252-.269,10.846-1.5A224.727,224.727,0,0,1,88.218,214.725Z" transform="translate(22.215 11.83)" fill="#8bbebd"/>
      <path id="Trazado_3377" data-name="Trazado 3377" d="M51.977,215.413c-1.1.063-2.166.123-3.172.183,1.812,16.336,9.97,32.586,20.136,46.019,3.032.894,5.968,1.7,8.636,2.369A167.965,167.965,0,0,1,51.977,215.413Z" transform="translate(10.13 12.256)" fill="#8bbebd"/>
      <path id="Trazado_3378" data-name="Trazado 3378" d="M64.964,231.423a100.312,100.312,0,0,1-5.819-16.292c-2.268.089-4.373.188-6.366.282,6.122,17.816,15.3,35.33,27.242,49.874,3.779.767,6.47,1.052,7.222.6a5.832,5.832,0,0,0,1.671-1.6C79.608,254.352,70.6,243.679,64.964,231.423Z" transform="translate(12.59 12.081)" fill="#8bbebd"/>
      <path id="Trazado_3379" data-name="Trazado 3379" d="M115.595,229.074a151.311,151.311,0,0,1-9.85-13.987c-5.238-.139-10.974-.253-17.272-.319a158.518,158.518,0,0,0,11.437,19.02c6.157,8.871,12.585,17.806,20.32,25.364,6.632-2.127,12.847-4.512,16.9-6.8C129.075,245.34,121.833,236.9,115.595,229.074Z" transform="translate(34.685 11.857)" fill="#8bbebd"/>
      <path id="Trazado_3380" data-name="Trazado 3380" d="M89.213,236.608c-1.974-4.562-6.751-5.637-9.588,0-3.251,6.463-3.251,12.5,0,6.031,2.837-5.636,7.614-4.561,9.588,0C92.584,250.416,92.584,244.387,89.213,236.608Z" transform="translate(27.699 23.001)" fill="#272228"/>
      <path id="Trazado_3381" data-name="Trazado 3381" d="M37.127,218.153c51.41-7.5,131.941-2.207,144.27,0" transform="translate(2.901 11.551)" fill="none" stroke="#272228" stroke-linecap="round" stroke-linejoin="round" stroke-width="2.916"/>
      <path id="Trazado_3382" data-name="Trazado 3382" d="M127.168,223.734a2.163,2.163,0,1,0,2.163-2.163A2.167,2.167,0,0,0,127.168,223.734Z" transform="translate(58.638 16.068)" fill="#457c83"/>
    </g>
    <g id="Grupo_3551" data-name="Grupo 3551" transform="translate(633.974 139.245)">
      <path id="Trazado_3391" data-name="Trazado 3391" d="M161.123,312.461c-5.762-10.227-27.891-12.668-34.016-1.811-6.258,11.1,3.148,24.367,7.837,34.121,2.692,5.59,4.568,11.41,3.879,17.69-.73,6.721-3.841,12.913-6.462,19.051-3.886,9.118-8.851,24.73,5.251,27.526,15.378,3.044,21.76-12.188,24.289-24.282" transform="translate(0 9.308)" fill="none" stroke="#454545" stroke-miterlimit="10" stroke-width="3.562"/>
      <path id="Trazado_3392" data-name="Trazado 3392" d="M196.967,312.576c5.762-10.233,27.895-12.67,34.019-1.811,6.256,11.1-3.153,24.366-7.842,34.116-2.687,5.6-4.566,11.413-3.879,17.693.735,6.721,3.843,12.914,6.464,19.052,3.886,9.12,8.849,24.731-5.249,27.52C205.1,412.2,198.717,396.96,196.2,384.867" transform="translate(52.201 9.391)" fill="none" stroke="#454545" stroke-miterlimit="10" stroke-width="3.562"/>
      <path id="Trazado_3393" data-name="Trazado 3393" d="M230.49,301.866c-6.974-8.66-31.611-10.987-31.611-10.987s-24.645,2.214-31.646,10.848c-9.293,11.456-33.1,36.694-33.12,45.885S138.265,419,198.648,419c61,0,64.774-61.907,64.792-71.1S239.645,313.248,230.49,301.866Z" transform="translate(6.665 0)" fill="#80b0b7"/>
      <path id="Trazado_3394" data-name="Trazado 3394" d="M222.424,305.415c-6.02-7.485-27.3-9.489-27.3-9.489s-21.278,1.912-27.326,9.364c-8.028,9.893-28.585,31.686-28.6,39.629s3.954,61.64,55.726,61.64,55.927-53.456,55.948-61.4S230.333,315.237,222.424,305.415Z" transform="translate(10.401 3.702)" fill="#91c9d1"/>
      <path id="Trazado_3395" data-name="Trazado 3395" d="M183.683,308.485s18.638,1.449,28.737,6.471c-.522-.634-1.016-1.229-1.467-1.785-6.015-7.482-27.288-9.489-27.288-9.489s-21.282,1.912-27.331,9.364c-.471.586-.986,1.208-1.538,1.862C164.886,309.881,183.683,308.485,183.683,308.485Z" transform="translate(21.836 9.391)" fill="#80b0b7"/>
      <g id="Grupo_3550" data-name="Grupo 3550" transform="translate(167.369 350.562)">
        <path id="Trazado_3396" data-name="Trazado 3396" d="M183.534,331.771s-18.638-1.449-28.737-6.462c.522.626,1.012,1.226,1.463,1.78,6.019,7.482,27.3,9.487,27.3,9.487s21.275-1.91,27.328-9.366c.468-.582.986-1.208,1.538-1.862C202.325,330.376,183.534,331.771,183.534,331.771Z" transform="translate(-145.533 -325.309)" fill="#80b0b7"/>
        <path id="Trazado_3397" data-name="Trazado 3397" d="M183.534,350.4s-18.638-1.453-28.737-6.466c.522.629,1.012,1.222,1.463,1.784,6.019,7.478,27.3,9.48,27.3,9.48s21.275-1.91,27.328-9.362c.468-.582.986-1.208,1.538-1.862C202.325,349,183.534,350.4,183.534,350.4Z" transform="translate(-145.533 -311.648)" fill="#80b0b7"/>
        <path id="Trazado_3398" data-name="Trazado 3398" d="M187.43,341.085s-24.627-1.449-37.977-6.464c.692.626,1.345,1.226,1.931,1.78,7.958,7.483,36.07,9.491,36.07,9.491s28.122-1.915,36.115-9.371c.621-.576,1.307-1.2,2.035-1.858C212.265,339.693,187.43,341.085,187.43,341.085Z" transform="translate(-149.453 -318.479)" fill="#80b0b7"/>
      </g>
    </g>
    <g id="Grupo_3554" data-name="Grupo 3554" transform="translate(604.871 269.456)">
      <g id="Grupo_3552" data-name="Grupo 3552" transform="translate(299.957 206.879)">
        <path id="Trazado_3399" data-name="Trazado 3399" d="M420.305,275.444c-7.283-6.215-31.566-11.686-35.194-14.781-8.126-6.936-20.534-16.964-19.995-31.854.119-3.181.414-7.541.806-15.653h-67.54c.752,14.7,1.354,25.044,1.541,30.27.634,17.582-15.1,23.221-1.112,47.906,4.781,0,49.335,6.828,87.533,7.694,24.2.544,37.3-1.747,37.3-1.747S429.347,283.16,420.305,275.444Z" transform="translate(-292.997 -205.062)" fill="#814c28"/>
        <path id="Trazado_3400" data-name="Trazado 3400" d="M420.305,275.444a34.932,34.932,0,0,0-8.646-4.743,26.552,26.552,0,0,1-21.417,14.4c-12.234.962-25.717.282-37.949-.869-9.376-.883-19.324-2.591-27.016-8.434-10.422-7.917-24.558-25.7-14.514-39.112,4.735-6.329,11.648-9.306,18.831-12.089,4.379-1.694,15.9-5.855,20.437-11.444H298.383c.752,14.7,1.354,25.044,1.541,30.27.634,17.582-15.1,23.221-1.112,47.906,4.781,0,49.335,6.828,87.533,7.694,24.2.544,37.3-1.747,37.3-1.747S429.347,283.16,420.305,275.444Z" transform="translate(-292.997 -205.062)" fill="#7a4826"/>
        <path id="Trazado_3401" data-name="Trazado 3401" d="M357.129,212.425c0,1.89-2.106,2.2-3.427,3.427-10.648,4.223-55.423,7.444-55.423,7.444-1.888,0-3.438-8.981-3.438-10.872h0c0-1.894,1.55-5.546,3.438-5.546,0,0,29.467,3.518,55.423,4.4,1.118-.066,3.427-.745,3.427,1.149Z" transform="translate(-292.464 -206.879)" fill="#341e13"/>
        <path id="Trazado_3402" data-name="Trazado 3402" d="M356.527,210.681c-13.252,4.29-31.693,7.845-46.083,7.412-7.349-.22-11.4-2.778-14.95-9.03a7.527,7.527,0,0,0-.652,2.73c0,1.89,1.55,10.872,3.438,10.872,0,0,44.774-3.221,55.423-7.444,1.322-1.231,3.427-1.537,3.427-3.427A1.122,1.122,0,0,0,356.527,210.681Z" transform="translate(-292.464 -206.247)" fill="#29180d"/>
        <path id="Trazado_3403" data-name="Trazado 3403" d="M353.432,213.287c.705-4.224-14.541-7.289-15.469-1.841s-.224,15.484,1.411,21.586c2.387,8.928,4.455,17.127,12.275,24.6,5.818,5.564,15.67,9.805,23.1,5.765a11.125,11.125,0,0,1-2.539-1.39c-8.126-6.936-20.17-16.846-19.628-31.738C352.7,227.091,352.729,217.51,353.432,213.287Z" transform="translate(-280.101 -206.404)" fill="#6b3c1a"/>
        <path id="Trazado_3404" data-name="Trazado 3404" d="M344.945,208.575c-3.38-.277-6.571.468-6.981,2.87-.927,5.453-.224,15.484,1.411,21.586,2.387,8.928,4.455,17.127,12.275,24.6,5.39,5.154,14.24,9.158,21.425,6.511C346.028,263.05,337.024,231.837,344.945,208.575Z" transform="translate(-280.101 -206.404)" fill="#603717"/>
        <path id="Trazado_3405" data-name="Trazado 3405" d="M424.083,273.783s-.623,5.078-7.123,5.947-34.493,0-34.493,0l-84.96-5.947,2.232,11.89h32.2l3.518-4.566,47.255,4.566s29.239.267,33.128,0C424.808,285.053,424.083,273.783,424.083,273.783Z" transform="translate(-291.692 -187.512)" fill="#272228"/>
        <path id="Trazado_3406" data-name="Trazado 3406" d="M308.03,287.567h-8.444l-2.078-13.784,10.522,7.694Z" transform="translate(-291.692 -187.512)" fill="#272228"/>
        <rect id="Rectángulo_964" data-name="Rectángulo 964" width="8.447" height="6.09" transform="translate(19.856 93.965)" fill="#272228"/>
        <path id="Trazado_3407" data-name="Trazado 3407" d="M326.486,285.923h-8.447v-6.09l11.477-.37Z" transform="translate(-285.749 -185.868)" fill="#272228"/>
        <rect id="Rectángulo_965" data-name="Rectángulo 965" width="8.447" height="6.09" transform="translate(86.249 93.965)" fill="#272228"/>
        <rect id="Rectángulo_966" data-name="Rectángulo 966" width="9.855" height="6.09" transform="translate(100.327 93.965)" fill="#272228"/>
        <path id="Trazado_3408" data-name="Trazado 3408" d="M390.71,285.84h-8.445v-6.09s9.147,1.871,15.676,0A14.823,14.823,0,0,1,390.71,285.84Z" transform="translate(-267.157 -185.785)" fill="#272228"/>
        <path id="Trazado_3409" data-name="Trazado 3409" d="M338.6,222.582a4.309,4.309,0,1,1-4.307-4.309A4.311,4.311,0,0,1,338.6,222.582Z" transform="translate(-282.292 -203.581)" fill="#bababa"/>
        <path id="Trazado_3410" data-name="Trazado 3410" d="M335.909,222.089a2.112,2.112,0,1,1-2.111-2.111A2.111,2.111,0,0,1,335.909,222.089Z" transform="translate(-281.799 -203.087)" fill="#341e13"/>
        <path id="Trazado_3411" data-name="Trazado 3411" d="M341.94,234.107a4.308,4.308,0,1,1-4.309-4.312A4.307,4.307,0,0,1,341.94,234.107Z" transform="translate(-281.324 -200.245)" fill="#bababa"/>
        <path id="Trazado_3412" data-name="Trazado 3412" d="M339.25,233.613a2.111,2.111,0,1,1-2.112-2.113A2.111,2.111,0,0,1,339.25,233.613Z" transform="translate(-280.831 -199.752)" fill="#341e13"/>
        <path id="Trazado_3413" data-name="Trazado 3413" d="M346.169,245.369a4.309,4.309,0,1,1-4.309-4.308A4.31,4.31,0,0,1,346.169,245.369Z" transform="translate(-280.101 -196.984)" fill="#bababa"/>
        <path id="Trazado_3414" data-name="Trazado 3414" d="M343.479,244.876a2.112,2.112,0,1,1-2.113-2.11A2.114,2.114,0,0,1,343.479,244.876Z" transform="translate(-279.607 -196.491)" fill="#341e13"/>
        <path id="Trazado_3415" data-name="Trazado 3415" d="M352.964,252.6a4.311,4.311,0,1,1-4.309-4.307A4.306,4.306,0,0,1,352.964,252.6Z" transform="translate(-278.134 -194.89)" fill="#bababa"/>
        <path id="Trazado_3416" data-name="Trazado 3416" d="M350.274,252.109A2.112,2.112,0,1,1,348.161,250,2.111,2.111,0,0,1,350.274,252.109Z" transform="translate(-277.64 -194.397)" fill="#341e13"/>
        <path id="Trazado_3417" data-name="Trazado 3417" d="M333.324,221.615a42.889,42.889,0,0,0,20.352,0" transform="translate(-281.324 -202.613)" fill="none" stroke="#fff" stroke-linecap="round" stroke-linejoin="round" stroke-width="2.183"/>
        <path id="Trazado_3418" data-name="Trazado 3418" d="M336.453,233.139a67.307,67.307,0,0,0,18.075.745" transform="translate(-280.418 -199.277)" fill="none" stroke="#fff" stroke-linecap="round" stroke-linejoin="round" stroke-width="2.183"/>
        <path id="Trazado_3419" data-name="Trazado 3419" d="M341.213,245.369c6.237.071,13.038-1.052,17.956-4.308" transform="translate(-279.04 -196.984)" fill="none" stroke="#fff" stroke-linecap="round" stroke-linejoin="round" stroke-width="2.183"/>
        <path id="Trazado_3420" data-name="Trazado 3420" d="M348.177,253.3a36.937,36.937,0,0,0,14.712-7.256" transform="translate(-277.025 -195.543)" fill="none" stroke="#fff" stroke-linecap="round" stroke-linejoin="round" stroke-width="2.183"/>
      </g>
      <path id="Trazado_3421" data-name="Trazado 3421" d="M403.019,298.584c.957-4.793,1.289-12.48-4.571-17.476-.235-.2-.489-.4-.758-.6-.076-.058-.161-.113-.242-.169-.2-.143-.4-.286-.622-.431-.085-.057-.182-.115-.275-.17-.227-.144-.449-.282-.685-.426-.086-.049-.174-.1-.262-.15-.259-.151-.525-.3-.8-.447-.068-.041-.142-.076-.211-.113-.306-.161-.615-.322-.937-.484-.048-.026-.1-.048-.143-.074-.356-.174-.713-.347-1.083-.518a.755.755,0,0,0-.081-.037c-.4-.184-.8-.371-1.219-.552l-.005,0c-8.313-3.662-19.924-6.87-25.333-9.218h0c-.562-.246-1.059-.484-1.482-.709a.188.188,0,0,1-.045-.023c-.184-.1-.349-.2-.5-.294-.022-.018-.05-.031-.072-.046a4.264,4.264,0,0,1-.433-.317c-1.577-1.345-3.3-2.8-5.052-4.384a1.4,1.4,0,0,0-2-1.866c-1.372-1.32-2.735-2.718-4.027-4.2a1.4,1.4,0,0,0-1.683-2.244c-.035.019-.072.043-.106.064a35.755,35.755,0,0,1-4.376-7.182,1.4,1.4,0,0,0-.906-2.579c-.031,0-.068.005-.1.01a26.044,26.044,0,0,1-1.378-9.349c.031-.809.053-2.024.086-3.464.061-.017.125-.037.183-.053a1.4,1.4,0,0,0-.119-2.725,96.4,96.4,0,0,1,.7-10.744c.409-2.45-4.558-4.511-8.977-4.743l-.171-.01-.444-.009c-.071,0-.146,0-.219,0-.135,0-.272,0-.407.008l-.24.006-.383.026-.246.023c-.121.012-.245.027-.365.04l-.248.04c-.111.018-.227.035-.335.058-.085.015-.173.037-.254.058-.1.023-.206.045-.3.071-.174.048-.34.1-.5.156-.071.027-.138.055-.209.085-.093.035-.191.073-.285.116-.064.032-.128.068-.193.1-.085.045-.169.088-.249.138a1.833,1.833,0,0,0-.177.119,2.383,2.383,0,0,0-.219.159c-.053.044-.106.089-.159.137s-.126.12-.187.183c-.043.048-.088.1-.128.15a1.884,1.884,0,0,0-.156.22c-.036.05-.071.1-.1.152a.851.851,0,0,0-.058.113c-9.332-.386-18.94-1.075-27.334-1.789l10.165,42.434-34.858,1.38c-2.954,12.049-11.933,19.392-.272,39.966.423,0,1.158.053,2.171.152L276.958,297l2.077,13.787h8.445v-1.894H291v1.894h8.447v-1.894h3.986v1.894h8.45l3.028-6.465,42.484,4.108v2.357h8.445v-1.866l5.634.04v1.826h9.853V309c1.7,0,3.362,0,4.926,0v1.778h8.445a15.186,15.186,0,0,0,6.349-4.77,8.846,8.846,0,0,0,.881-1.32l0,0a16.078,16.078,0,0,0,1.6-7.694A5.827,5.827,0,0,1,403.019,298.584Z" transform="translate(0.633 1.727)" fill="#d9c3bd" style="mix-blend-mode: multiply;isolation: isolate"/>
      <g id="Grupo_3553" data-name="Grupo 3553" transform="translate(268.955 219.298)">
        <path id="Trazado_3422" data-name="Trazado 3422" d="M396.262,285.076c-7.28-6.218-31.564-11.689-35.191-14.784-8.126-6.934-20.536-16.964-20-31.854.119-3.181.411-7.538.806-15.653H274.34c.753,14.7,1.354,25.044,1.543,30.27.629,17.583-15.106,23.218-1.112,47.906,4.781,0,49.335,6.83,87.531,7.694,24.2.544,37.307-1.751,37.307-1.751S405.3,292.787,396.262,285.076Z" transform="translate(-268.955 -214.694)" fill="#814c28"/>
        <path id="Trazado_3423" data-name="Trazado 3423" d="M396.262,285.076a34.757,34.757,0,0,0-8.646-4.745,26.53,26.53,0,0,1-21.417,14.4c-12.234.965-25.717.285-37.947-.869-9.378-.883-19.327-2.592-27.016-8.434-10.424-7.916-24.561-25.7-14.517-39.112,4.732-6.326,11.648-9.309,18.834-12.089,4.379-1.694,15.894-5.853,20.434-11.444H274.34c.753,14.7,1.354,25.044,1.543,30.27.629,17.583-15.106,23.218-1.112,47.906,4.781,0,49.335,6.83,87.531,7.694,24.2.544,37.307-1.751,37.307-1.751S405.3,292.787,396.262,285.076Z" transform="translate(-268.955 -214.694)" fill="#7a4826"/>
        <path id="Trazado_3424" data-name="Trazado 3424" d="M333.088,222.051c0,1.9-2.106,2.2-3.43,3.433-10.648,4.22-55.42,7.444-55.42,7.444-1.89,0-3.439-8.981-3.439-10.877h0c0-1.889,1.549-5.541,3.439-5.541,0,0,29.464,3.515,55.42,4.4,1.118-.066,3.43-.745,3.43,1.144Z" transform="translate(-268.421 -216.51)" fill="#341e13"/>
        <path id="Trazado_3425" data-name="Trazado 3425" d="M332.486,220.311c-13.254,4.289-31.693,7.845-46.086,7.412-7.349-.219-11.4-2.778-14.95-9.034a7.608,7.608,0,0,0-.651,2.731c0,1.9,1.549,10.877,3.439,10.877,0,0,44.772-3.224,55.42-7.444,1.324-1.234,3.43-1.537,3.43-3.433A1.125,1.125,0,0,0,332.486,220.311Z" transform="translate(-268.421 -215.879)" fill="#29180d"/>
        <path id="Trazado_3426" data-name="Trazado 3426" d="M329.392,222.916c.7-4.224-14.544-7.287-15.471-1.839s-.224,15.484,1.411,21.581c2.389,8.931,4.455,17.128,12.275,24.6,5.821,5.562,15.672,9.8,23.1,5.763a10.991,10.991,0,0,1-2.536-1.39C340.048,264.7,328,254.787,328.543,239.9,328.658,236.72,328.686,227.142,329.392,222.916Z" transform="translate(-256.058 -216.035)" fill="#6b3c1a"/>
        <path id="Trazado_3427" data-name="Trazado 3427" d="M320.9,218.205c-3.38-.277-6.571.469-6.981,2.872-.927,5.449-.224,15.484,1.411,21.581,2.389,8.931,4.455,17.128,12.275,24.6,5.39,5.15,14.242,9.158,21.425,6.508C321.988,272.68,312.981,241.466,320.9,218.205Z" transform="translate(-256.058 -216.035)" fill="#603717"/>
        <path id="Trazado_3428" data-name="Trazado 3428" d="M400.037,283.412s-.62,5.078-7.12,5.943-34.493,0-34.493,0l-84.957-5.943L275.7,295.3h32.2l3.518-4.566,47.258,4.566s29.236.267,33.128,0C400.764,294.685,400.037,283.412,400.037,283.412Z" transform="translate(-267.649 -197.144)" fill="#272228"/>
        <path id="Trazado_3429" data-name="Trazado 3429" d="M283.986,297.2h-8.444l-2.075-13.786,10.52,7.694Z" transform="translate(-267.649 -197.144)" fill="#272228"/>
        <rect id="Rectángulo_967" data-name="Rectángulo 967" width="8.444" height="6.092" transform="translate(19.858 93.962)" fill="#272228"/>
        <path id="Trazado_3430" data-name="Trazado 3430" d="M302.442,295.554H294v-6.092l11.474-.37Z" transform="translate(-261.706 -195.5)" fill="#272228"/>
        <rect id="Rectángulo_968" data-name="Rectángulo 968" width="8.444" height="6.092" transform="translate(86.251 93.962)" fill="#272228"/>
        <rect id="Rectángulo_969" data-name="Rectángulo 969" width="9.852" height="6.092" transform="translate(100.329 93.962)" fill="#272228"/>
        <path id="Trazado_3431" data-name="Trazado 3431" d="M366.669,295.472h-8.447v-6.093s9.15,1.871,15.679,0A14.83,14.83,0,0,1,366.669,295.472Z" transform="translate(-243.114 -195.416)" fill="#272228"/>
        <path id="Trazado_3432" data-name="Trazado 3432" d="M314.558,232.214a4.311,4.311,0,1,1-4.309-4.312A4.309,4.309,0,0,1,314.558,232.214Z" transform="translate(-258.25 -213.212)" fill="#bababa"/>
        <path id="Trazado_3433" data-name="Trazado 3433" d="M311.866,231.721a2.112,2.112,0,1,1-2.111-2.116A2.114,2.114,0,0,1,311.866,231.721Z" transform="translate(-257.756 -212.719)" fill="#341e13"/>
        <path id="Trazado_3434" data-name="Trazado 3434" d="M317.9,243.733a4.309,4.309,0,1,1-4.309-4.307A4.31,4.31,0,0,1,317.9,243.733Z" transform="translate(-257.282 -209.876)" fill="#bababa"/>
        <path id="Trazado_3435" data-name="Trazado 3435" d="M315.206,243.24a2.11,2.11,0,1,1-2.11-2.111A2.109,2.109,0,0,1,315.206,243.24Z" transform="translate(-256.788 -209.383)" fill="#341e13"/>
        <path id="Trazado_3436" data-name="Trazado 3436" d="M322.128,255a4.309,4.309,0,1,1-4.309-4.312A4.312,4.312,0,0,1,322.128,255Z" transform="translate(-256.058 -206.616)" fill="#bababa"/>
        <path id="Trazado_3437" data-name="Trazado 3437" d="M319.436,254.507a2.112,2.112,0,1,1-2.111-2.112A2.113,2.113,0,0,1,319.436,254.507Z" transform="translate(-255.564 -206.122)" fill="#341e13"/>
        <path id="Trazado_3438" data-name="Trazado 3438" d="M328.923,262.234a4.311,4.311,0,1,1-4.312-4.312A4.309,4.309,0,0,1,328.923,262.234Z" transform="translate(-254.091 -204.522)" fill="#bababa"/>
        <path id="Trazado_3439" data-name="Trazado 3439" d="M326.229,261.74a2.111,2.111,0,1,1-2.111-2.113A2.108,2.108,0,0,1,326.229,261.74Z" transform="translate(-253.598 -204.029)" fill="#341e13"/>
        <path id="Trazado_3440" data-name="Trazado 3440" d="M309.281,231.246a42.939,42.939,0,0,0,20.352,0" transform="translate(-257.282 -212.244)" fill="none" stroke="#fff" stroke-linecap="round" stroke-linejoin="round" stroke-width="2.183"/>
        <path id="Trazado_3441" data-name="Trazado 3441" d="M312.412,242.766a67.2,67.2,0,0,0,18.075.748" transform="translate(-256.375 -208.91)" fill="none" stroke="#fff" stroke-linecap="round" stroke-linejoin="round" stroke-width="2.183"/>
        <path id="Trazado_3442" data-name="Trazado 3442" d="M317.172,255c6.235.068,13.038-1.055,17.953-4.312" transform="translate(-254.997 -206.616)" fill="none" stroke="#fff" stroke-linecap="round" stroke-linejoin="round" stroke-width="2.183"/>
        <path id="Trazado_3443" data-name="Trazado 3443" d="M324.134,262.928a37.022,37.022,0,0,0,14.712-7.256" transform="translate(-252.982 -205.174)" fill="none" stroke="#fff" stroke-linecap="round" stroke-linejoin="round" stroke-width="2.183"/>
      </g>
    </g>
  </g>
</svg>
