<svg xmlns="http://www.w3.org/2000/svg" width="163" height="167" viewBox="0 0 163 167">
  <g id="Grupo_3540" data-name="Grupo 3540" transform="translate(-747 -2365)">
    <g id="Elipse_565" data-name="Elipse 565" transform="translate(747 2369)" fill="#fff" stroke="#8d7a72" stroke-width="2" stroke-dasharray="6">
      <circle cx="81.5" cy="81.5" r="81.5" stroke="none"/>
      <circle cx="81.5" cy="81.5" r="80.5" fill="none"/>
    </g>
    <g id="Grupo_3496" data-name="Grupo 3496" transform="translate(279 1607)">
      <g id="Elipse_542" data-name="Elipse 542" transform="translate(579 758)" fill="#f3f7fa" stroke="#cea774" stroke-width="1">
        <circle cx="26" cy="26" r="26" stroke="none"/>
        <circle cx="26" cy="26" r="25.5" fill="none"/>
      </g>
      <circle id="Elipse_543" data-name="Elipse 543" cx="21" cy="21" r="21" transform="translate(584 763)" fill="#745f57"/>
    </g>
    <path id="Trazado_3464" data-name="Trazado 3464" d="M5.79-2.6V0H-5.05V-14H5.53v2.6H-1.83v3.04h6.5v2.52h-6.5V-2.6Z" transform="translate(885 2397)" fill="#fff"/>
    <g id="Grupo_3503" data-name="Grupo 3503" transform="translate(518.437 2391.358)">
      <g id="Grupo_3498" data-name="Grupo 3498">
        <path id="Trazado_3347" data-name="Trazado 3347" d="M327.769,102.641H287.564a1,1,0,0,1-.991-1.136l2.285-16.734a42.011,42.011,0,0,0-.276-10.844c-1.27-7.872-1.468-30.952-1.476-31.931V22.635a4.678,4.678,0,0,1,5.133-4.655,4.8,4.8,0,0,1,4.219,4.813V41.762a1.142,1.142,0,0,0,.607.177.718.718,0,0,0,.412-.113V18.558a4.677,4.677,0,0,1,5.131-4.655,4.8,4.8,0,0,1,4.221,4.813V41.9c0-.036.132.034.413.034a1.139,1.139,0,0,0,.6-.144V16.316a4.675,4.675,0,0,1,5.132-4.653,4.8,4.8,0,0,1,4.22,4.812V41.844a1.849,1.849,0,0,0,.683.095,2.378,2.378,0,0,0,.335-.019V21.371a4.677,4.677,0,0,1,5.132-4.654,4.8,4.8,0,0,1,4.22,4.812V51.377a1.183,1.183,0,0,0,.467,1.1,1.872,1.872,0,0,0,1.77-.353l6.377-4.555a5.538,5.538,0,1,1,6.21,9.171l-6.611,4.452-.559-.829.559.829a23.564,23.564,0,0,0-10.567,21.857q.062.6.154,1.2l3.381,17.195a1,1,0,0,1-.981,1.193Zm-39.059-2h37.843L323.4,84.6c-.073-.475-.128-.908-.172-1.342a25.557,25.557,0,0,1,11.439-23.721l6.61-4.452a3.537,3.537,0,1,0-3.952-5.868l-6.378,4.555a3.753,3.753,0,0,1-3.842.478,3.051,3.051,0,0,1-1.534-2.808V21.529a2.784,2.784,0,0,0-2.41-2.821,2.641,2.641,0,0,0-2.065.683,2.681,2.681,0,0,0-.877,1.98V41.9c0,1.349-.785,2.034-2.335,2.034-2.554,0-2.683-1.694-2.683-2.034V16.475a2.782,2.782,0,0,0-2.409-2.821,2.639,2.639,0,0,0-2.066.682,2.678,2.678,0,0,0-.877,1.98V41.9c0,1.16-1.12,2.034-2.6,2.034a2.164,2.164,0,0,1-2.413-2.034V18.716a2.783,2.783,0,0,0-2.411-2.821,2.64,2.64,0,0,0-2.065.682,2.681,2.681,0,0,0-.876,1.981V41.9a2.224,2.224,0,0,1-2.412,2.034c-1.258,0-2.607-.817-2.607-2.034V22.793a2.783,2.783,0,0,0-2.409-2.821,2.646,2.646,0,0,0-2.066.682,2.682,2.682,0,0,0-.877,1.981V41.988c0,.23.2,23.9,1.452,31.626a44.114,44.114,0,0,1,.286,11.4Z" fill="#a88b6a"/>
      </g>
      <g id="Grupo_3499" data-name="Grupo 3499">
        <path id="Trazado_3348" data-name="Trazado 3348" d="M326.588,96.634H293.8a1,1,0,0,1,0-2h32.785a1,1,0,0,1,0,2Z" fill="#a88b6a"/>
      </g>
      <g id="Grupo_3500" data-name="Grupo 3500">
        <path id="Trazado_3349" data-name="Trazado 3349" d="M306.655,59.33a1,1,0,0,1-.986-.844,26.788,26.788,0,0,1,0-6.4,1,1,0,0,1,1.984.248,25.3,25.3,0,0,0,0,5.835,1,1,0,0,1-.831,1.144A.944.944,0,0,1,306.655,59.33Z" fill="#a88b6a"/>
      </g>
      <g id="Grupo_3501" data-name="Grupo 3501">
        <path id="Trazado_3350" data-name="Trazado 3350" d="M316.742,59.33a1,1,0,0,1-.986-.844,26.871,26.871,0,0,1-.005-6.4,1,1,0,0,1,1.985.248,25.241,25.241,0,0,0-.005,5.835,1,1,0,0,1-.831,1.144A.944.944,0,0,1,316.742,59.33Z" fill="#a88b6a"/>
      </g>
      <g id="Grupo_3502" data-name="Grupo 3502">
        <path id="Trazado_3351" data-name="Trazado 3351" d="M296.569,59.33a1,1,0,0,1-.987-.844,26.9,26.9,0,0,1,0-6.4,1,1,0,0,1,1.984.248,25.326,25.326,0,0,0,0,5.835,1,1,0,0,1-.831,1.144A.944.944,0,0,1,296.569,59.33Z" fill="#a88b6a"/>
      </g>
    </g>
  </g>
</svg>
