<svg xmlns="http://www.w3.org/2000/svg" width="163" height="167" viewBox="0 0 163 167">
  <g id="Grupo_3538" data-name="Grupo 3538" transform="translate(-160 -2363)">
    <g id="Elipse_554" data-name="Elipse 554" transform="translate(160 2367)" fill="#fff" stroke="#8d7a72" stroke-width="2" stroke-dasharray="6">
      <circle cx="81.5" cy="81.5" r="81.5" stroke="none"/>
      <circle cx="81.5" cy="81.5" r="80.5" fill="none"/>
    </g>
    <g id="Grupo_3432" data-name="Grupo 3432" transform="translate(-308 1605)">
      <g id="Elipse_542" data-name="Elipse 542" transform="translate(579 758)" fill="#f3f7fa" stroke="#cea774" stroke-width="1">
        <circle cx="26" cy="26" r="26" stroke="none"/>
        <circle cx="26" cy="26" r="25.5" fill="none"/>
      </g>
      <circle id="Elipse_543" data-name="Elipse 543" cx="21" cy="21" r="21" transform="translate(584 763)" fill="#745f57"/>
    </g>
    <path id="Trazado_3461" data-name="Trazado 3461" d="M1.03.24A8.041,8.041,0,0,1-2.84-.69,6.941,6.941,0,0,1-5.56-3.27,7.108,7.108,0,0,1-6.55-7a7.108,7.108,0,0,1,.99-3.73,6.941,6.941,0,0,1,2.72-2.58,8.083,8.083,0,0,1,3.89-.93,8.159,8.159,0,0,1,3.29.64,6.59,6.59,0,0,1,2.47,1.84L4.73-9.84a4.472,4.472,0,0,0-3.52-1.64,4.674,4.674,0,0,0-2.32.57A4.052,4.052,0,0,0-2.7-9.32,4.674,4.674,0,0,0-3.27-7,4.674,4.674,0,0,0-2.7-4.68,4.052,4.052,0,0,0-1.11-3.09a4.674,4.674,0,0,0,2.32.57A4.451,4.451,0,0,0,4.73-4.18L6.81-2.26A6.483,6.483,0,0,1,4.33-.4,8.231,8.231,0,0,1,1.03.24Z" transform="translate(298 2395)" fill="#fff"/>
    <g id="Grupo_3488" data-name="Grupo 3488" transform="translate(-68.156 2020.25)">
      <g id="Grupo_3474" data-name="Grupo 3474">
        <path id="Trazado_3330" data-name="Trazado 3330" d="M335.007,427.512a11.38,11.38,0,0,1-5.779-1.351,1,1,0,0,1,1.02-1.721c3.167,1.878,9.415,1.044,13.043-.875,1.541-.817,1.983-1.51,2-1.792a1,1,0,0,1,2,.125c-.077,1.228-1.136,2.415-3.061,3.434A21.327,21.327,0,0,1,335.007,427.512Z" fill="#a88b6a"/>
      </g>
      <g id="Grupo_3475" data-name="Grupo 3475">
        <path id="Trazado_3331" data-name="Trazado 3331" d="M332.817,468.833H286.628a1,1,0,0,1-1-1.072l3.08-42.533a.993.993,0,0,1,.346-.685c9.129-7.852,7.753-25.348,7.738-25.524a1,1,0,0,1,1-1.085h23.865a1,1,0,0,1,1,1.085c-.015.175-1.378,17.683,7.739,25.524a1,1,0,0,1,.346.685l3.079,42.533a1,1,0,0,1-1,1.072Zm-45.114-2h44.039L328.77,425.78c-8.313-7.5-8.349-21.774-8.176-25.846H298.851c.173,4.072.137,18.347-8.176,25.846Z" fill="#a88b6a"/>
      </g>
      <g id="Grupo_3476" data-name="Grupo 3476">
        <path id="Trazado_3332" data-name="Trazado 3332" d="M284.438,427.512a21.327,21.327,0,0,1-9.22-2.181c-1.925-1.018-2.983-2.206-3.06-3.433a1,1,0,0,1,2-.125c.018.282.459.975,2,1.791,3.629,1.92,9.878,2.753,13.044.876a1,1,0,0,1,1.019,1.721A11.375,11.375,0,0,1,284.438,427.512Z" fill="#a88b6a"/>
      </g>
      <g id="Grupo_3477" data-name="Grupo 3477">
        <path id="Trazado_3333" data-name="Trazado 3333" d="M318.906,399.934a1,1,0,0,1-1-.962c0-.066-.249-6.658,0-11.276a1,1,0,0,1,2,.108c-.245,4.525,0,11.027,0,11.092a1,1,0,0,1-.962,1.037Z" fill="#a88b6a"/>
      </g>
      <g id="Grupo_3478" data-name="Grupo 3478">
        <path id="Trazado_3334" data-name="Trazado 3334" d="M300.375,399.934h-.038a1,1,0,0,1-.962-1.037c0-.065.246-6.567,0-11.092a1,1,0,0,1,2-.108c.25,4.618,0,11.21,0,11.276A1,1,0,0,1,300.375,399.934Z" fill="#a88b6a"/>
      </g>
      <g id="Grupo_3479" data-name="Grupo 3479">
        <path id="Trazado_3335" data-name="Trazado 3335" d="M310.125,422.836c-6.724,0-8.5-7.277-8.5-11.125a1,1,0,0,1,1-1h15a1,1,0,0,1,1,1C318.625,415.559,316.849,422.836,310.125,422.836Zm-6.447-10.125c.211,2.38,1.257,8.125,6.447,8.125s6.236-5.745,6.447-8.125Z" fill="#a88b6a"/>
      </g>
      <g id="Grupo_3480" data-name="Grupo 3480">
        <path id="Trazado_3336" data-name="Trazado 3336" d="M305.666,431.167h-8.625a1,1,0,0,1,0-2h8.625a1,1,0,0,1,0,2Z" fill="#a88b6a"/>
      </g>
      <g id="Grupo_3481" data-name="Grupo 3481">
        <path id="Trazado_3337" data-name="Trazado 3337" d="M323.166,431.167h-8.375a1,1,0,0,1,0-2h8.375a1,1,0,0,1,0,2Z" fill="#a88b6a"/>
      </g>
      <g id="Grupo_3487" data-name="Grupo 3487">
        <g id="Grupo_3482" data-name="Grupo 3482">
          <path id="Trazado_3338" data-name="Trazado 3338" d="M295.347,438.934a1,1,0,0,1-1-1v-3a1,1,0,0,1,2,0v3A1,1,0,0,1,295.347,438.934Z" fill="#a88b6a"/>
        </g>
        <g id="Grupo_3483" data-name="Grupo 3483">
          <path id="Trazado_3339" data-name="Trazado 3339" d="M298.347,447.667h-3a1,1,0,0,1-1-1v-3a1,1,0,0,1,2,0v2h2a1,1,0,1,1,0,2Z" fill="#a88b6a"/>
        </g>
        <g id="Grupo_3484" data-name="Grupo 3484">
          <path id="Trazado_3340" data-name="Trazado 3340" d="M313.619,447.667h-7.636a1,1,0,0,1,0-2h7.636a1,1,0,0,1,0,2Z" fill="#a88b6a"/>
        </g>
        <g id="Grupo_3485" data-name="Grupo 3485">
          <path id="Trazado_3341" data-name="Trazado 3341" d="M324.255,447.667h-3a1,1,0,0,1,0-2h2v-2a1,1,0,0,1,2,0v3A1,1,0,0,1,324.255,447.667Z" fill="#a88b6a"/>
        </g>
        <g id="Grupo_3486" data-name="Grupo 3486">
          <path id="Trazado_3342" data-name="Trazado 3342" d="M324.255,438.934a1,1,0,0,1-1-1v-3a1,1,0,0,1,2,0v3A1,1,0,0,1,324.255,438.934Z" fill="#a88b6a"/>
        </g>
      </g>
    </g>
  </g>
</svg>
