<svg xmlns="http://www.w3.org/2000/svg" width="163" height="167" viewBox="0 0 163 167">
  <g id="Grupo_3539" data-name="Grupo 3539" transform="translate(-465 -2363)">
    <g id="Elipse_564" data-name="Elipse 564" transform="translate(465 2367)" fill="#fff" stroke="#8d7a72" stroke-width="2" stroke-dasharray="6">
      <circle cx="81.5" cy="81.5" r="81.5" stroke="none"/>
      <circle cx="81.5" cy="81.5" r="80.5" fill="none"/>
    </g>
    <g id="Grupo_3489" data-name="Grupo 3489" transform="translate(-3 1605)">
      <g id="Elipse_542" data-name="Elipse 542" transform="translate(579 758)" fill="#f3f7fa" stroke="#cea774" stroke-width="1">
        <circle cx="26" cy="26" r="26" stroke="none"/>
        <circle cx="26" cy="26" r="25.5" fill="none"/>
      </g>
      <circle id="Elipse_543" data-name="Elipse 543" cx="21" cy="21" r="21" transform="translate(584 763)" fill="#745f57"/>
    </g>
    <path id="Trazado_3462" data-name="Trazado 3462" d="M-6.6-14H-.24a8.938,8.938,0,0,1,4.03.87,6.514,6.514,0,0,1,2.72,2.45A6.891,6.891,0,0,1,7.48-7a6.891,6.891,0,0,1-.97,3.68A6.514,6.514,0,0,1,3.79-.87,8.938,8.938,0,0,1-.24,0H-6.6ZM-.4-2.66A4.7,4.7,0,0,0,2.95-3.83,4.132,4.132,0,0,0,4.2-7a4.132,4.132,0,0,0-1.25-3.17A4.7,4.7,0,0,0-.4-11.34H-3.36v8.68Z" transform="translate(603 2395)" fill="#fff"/>
    <g id="Grupo_3495" data-name="Grupo 3495" transform="translate(110.104 2268.191)">
      <g id="Grupo_3491" data-name="Grupo 3491">
        <path id="Trazado_3343" data-name="Trazado 3343" d="M463.439,208.725a35.736,35.736,0,0,1-8.941-1.041c-.437-.129-.865-.277-1.287-.445a15.352,15.352,0,0,1-2.423-1.227,18.887,18.887,0,0,1-8.009-11.384,5.505,5.505,0,0,0-5.05-4.431h-3.161a5.5,5.5,0,0,0-5.049,4.43,19.653,19.653,0,0,1-4.815,8.79,17.149,17.149,0,0,1-2.066,1.824q-.552.411-1.128.77a15.415,15.415,0,0,1-2.424,1.228q-.631.252-1.286.445c-.669.2-6.818,1.881-16.74.2a11.589,11.589,0,0,1-3.215-1.168,15.7,15.7,0,0,1-1.459-.831,16.629,16.629,0,0,1-2.644-2.113c-.4-.4-.8-.82-1.17-1.261a19.085,19.085,0,0,1-2-2.88,21.255,21.255,0,0,1-2.678-10.791c.008-.521.041-1.066.1-1.714l.048-.439c.061-.519.136-1.032.233-1.535l.025-.14c.1-.522.235-1.036.378-1.543q.07-.244.145-.486c.126-.4.262-.8.411-1.195l.156-.413c.17-.42.356-.829.552-1.232.094-.193.193-.385.294-.577.143-.271.293-.535.446-.8.174-.3.354-.583.541-.867.16-.24.32-.478.488-.709s.331-.441.5-.657c.119-.15.243-.3.368-.443.36-.424.743-.836,1.137-1.221l.215-.215c.227-.215,4.35-3.874,4.82-4.291l17.495-17.5a3.655,3.655,0,0,1,2.567-1.064h9.587a2.18,2.18,0,0,1,1.541,3.723l-1.621,1.621a3.145,3.145,0,0,1-3,.815l-4.252-1.11a1.626,1.626,0,0,0-1.715.6l-9.528,12.663h52.634l-9.529-12.663a1.623,1.623,0,0,0-1.714-.6l-4.252,1.11a3.143,3.143,0,0,1-3-.815l-1.622-1.622a2.18,2.18,0,0,1,1.542-3.722h9.587a3.6,3.6,0,0,1,2.566,1.064l17.539,17.538c.426.376,4.55,4.035,4.775,4.249l.218.217c.392.383.775.795,1.137,1.222.123.144.246.291.367.442.172.215.341.433.5.657s.328.468.487.708q.282.426.541.868c.154.259.3.522.446.793.1.194.2.386.3.581.194.4.379.81.55,1.229l.157.412q.222.591.41,1.2c.05.16.1.323.144.486.145.508.276,1.022.38,1.549,0,.012.019.1.021.113.1.525.175,1.037.237,1.555l.047.44h0c.062.644.1,1.189.1,1.713a21.246,21.246,0,0,1-2.678,10.792,17.836,17.836,0,0,1-5.81,6.254,15.618,15.618,0,0,1-1.458.831,14.406,14.406,0,0,1-3.156,1.156A34.994,34.994,0,0,1,463.439,208.725ZM434.568,188.2h3.161a7.5,7.5,0,0,1,6.988,5.935,16.875,16.875,0,0,0,7.128,10.182,13.358,13.358,0,0,0,2.107,1.067q.546.218,1.112.385a35.916,35.916,0,0,0,15.78.161,12.442,12.442,0,0,0,2.715-1,14.077,14.077,0,0,0,1.272-.724,15.856,15.856,0,0,0,5.149-5.556,19.239,19.239,0,0,0,2.419-9.776c-.007-.525-.045-1.041-.093-1.553l-.044-.4c-.055-.462-.122-.926-.21-1.382l.96-.314-.981.194c-.1-.479-.215-.941-.344-1.4-.042-.147-.085-.292-.129-.437-.115-.367-.238-.727-.372-1.08l-.14-.372c-.152-.375-.319-.742-.495-1.1-.087-.179-.176-.351-.266-.523-.127-.24-.262-.477-.4-.712-.157-.267-.318-.525-.486-.778-.141-.214-.284-.427-.434-.633s-.3-.4-.452-.589c-.107-.134-.216-.263-.327-.393-.325-.382-.666-.749-1.015-1.091l-.194-.194c-.171-.162-2.946-2.627-4.769-4.244l-17.582-17.579a1.641,1.641,0,0,0-1.152-.478h-9.587a.18.18,0,0,0-.128.308l1.622,1.622a1.136,1.136,0,0,0,1.084.294l4.252-1.111a3.62,3.62,0,0,1,3.818,1.331l10.734,14.264a1,1,0,0,1-.8,1.6H407.828a1,1,0,0,1-.8-1.6l10.734-14.264a3.616,3.616,0,0,1,3.818-1.331l4.251,1.111a1.133,1.133,0,0,0,1.085-.295l1.621-1.621a.18.18,0,0,0-.127-.308h-9.587a1.64,1.64,0,0,0-1.153.478l-17.539,17.538c-1.865,1.658-4.64,4.123-4.814,4.287l-.192.192c-.35.343-.691.71-1.013,1.089-.111.131-.221.261-.328.395-.154.192-.3.386-.45.586s-.295.422-.437.636q-.252.381-.485.777c-.138.235-.273.472-.4.715-.09.17-.179.342-.264.518-.177.364-.344.732-.5,1.109l-.14.37q-.2.531-.37,1.078c-.045.145-.089.291-.131.439-.129.457-.248.92-.343,1.395l-.021.124c-.088.455-.156.919-.211,1.388l-.043.4c-.049.511-.086,1.028-.094,1.553a19.249,19.249,0,0,0,2.419,9.776,17.025,17.025,0,0,0,1.785,2.576c.331.392.68.769,1.038,1.119a14.713,14.713,0,0,0,2.327,1.861,13.874,13.874,0,0,0,1.272.724,9.807,9.807,0,0,0,2.655.985c9.637,1.63,15.59-.076,15.839-.149.376-.111.748-.239,1.112-.385a13.457,13.457,0,0,0,2.108-1.067q.506-.315.988-.676a14.94,14.94,0,0,0,1.824-1.61,17.627,17.627,0,0,0,4.316-7.9A7.493,7.493,0,0,1,434.568,188.2Z" fill="#a88b6a"/>
      </g>
      <g id="Grupo_3492" data-name="Grupo 3492">
        <path id="Trazado_3344" data-name="Trazado 3344" d="M463.651,203.688h-2.488a14.888,14.888,0,0,1-13.546-8.794c-.25-.556-.5-1.145-.764-1.748a39.126,39.126,0,0,0-2.718-5.528,4.059,4.059,0,0,0-3.378-1.868l-4.618-.047-4.6.047a4.062,4.062,0,0,0-3.378,1.868,39.154,39.154,0,0,0-2.717,5.526c-.26.6-.513,1.193-.764,1.751a14.889,14.889,0,0,1-13.546,8.793h-2.49a14.9,14.9,0,0,1-14.864-15.213c.143-7.825,6.731-13.725,15.324-13.725h54.086c8.594,0,15.183,5.9,15.326,13.725a14.9,14.9,0,0,1-14.866,15.213ZM436.139,183.7l4.639.047a6.053,6.053,0,0,1,5.037,2.784,41.057,41.057,0,0,1,2.875,5.821c.256.593.505,1.172.751,1.719a12.885,12.885,0,0,0,11.722,7.614h2.488a12.741,12.741,0,0,0,9.159-3.85,12.87,12.87,0,0,0,3.707-9.327c-.123-6.705-5.851-11.761-13.326-11.761H409.105c-7.473,0-13.2,5.056-13.324,11.761a12.877,12.877,0,0,0,3.706,9.328,12.745,12.745,0,0,0,9.158,3.849h2.49a12.884,12.884,0,0,0,11.721-7.613c.246-.549.5-1.128.752-1.722a41.185,41.185,0,0,1,2.873-5.819,6.058,6.058,0,0,1,5.038-2.784Z" fill="#a88b6a"/>
      </g>
      <g id="Grupo_3493" data-name="Grupo 3493">
        <path id="Trazado_3345" data-name="Trazado 3345" d="M407.828,172.118h-8.4a1,1,0,1,1,0-2h8.4a1,1,0,0,1,0,2Z" fill="#a88b6a"/>
      </g>
      <g id="Grupo_3494" data-name="Grupo 3494">
        <path id="Trazado_3346" data-name="Trazado 3346" d="M472.872,172.118h-8.4a1,1,0,0,1,0-2h8.4a1,1,0,0,1,0,2Z" fill="#a88b6a"/>
      </g>
    </g>
  </g>
</svg>
