<svg xmlns="http://www.w3.org/2000/svg" width="163" height="167" viewBox="0 0 163 167">
  <g id="Grupo_3541" data-name="Grupo 3541" transform="translate(-785 -2660)">
    <g id="Elipse_567" data-name="Elipse 567" transform="translate(785 2664)" fill="#fff" stroke="#8d7a72" stroke-width="2" stroke-dasharray="6">
      <circle cx="81.5" cy="81.5" r="81.5" stroke="none"/>
      <circle cx="81.5" cy="81.5" r="80.5" fill="none"/>
    </g>
    <g id="Grupo_3521" data-name="Grupo 3521" transform="translate(317 1902)">
      <g id="Elipse_542" data-name="Elipse 542" transform="translate(579 758)" fill="#f3f7fa" stroke="#cea774" stroke-width="1">
        <circle cx="26" cy="26" r="26" stroke="none"/>
        <circle cx="26" cy="26" r="25.5" fill="none"/>
      </g>
      <circle id="Elipse_543" data-name="Elipse 543" cx="21" cy="21" r="21" transform="translate(584 763)" fill="#745f57"/>
    </g>
    <path id="Trazado_3460" data-name="Trazado 3460" d="M4.29-7.28A3.692,3.692,0,0,1,6.17-6.01a3.5,3.5,0,0,1,.68,2.19A3.235,3.235,0,0,1,5.42-.99,7.311,7.311,0,0,1,1.25,0H-5.99V-14H.85a6.7,6.7,0,0,1,3.93.98,3.1,3.1,0,0,1,1.37,2.66,3.414,3.414,0,0,1-.49,1.82A3.432,3.432,0,0,1,4.29-7.28Zm-7.06-4.28v3.3H.45a3.251,3.251,0,0,0,1.82-.42,1.4,1.4,0,0,0,.62-1.24,1.376,1.376,0,0,0-.62-1.23,3.314,3.314,0,0,0-1.82-.41ZM1.01-2.44a3.59,3.59,0,0,0,1.93-.42,1.438,1.438,0,0,0,.65-1.3q0-1.74-2.58-1.74H-2.77v3.46Z" transform="translate(923 2692)" fill="#fff"/>
    <g id="Grupo_3520" data-name="Grupo 3520" transform="translate(808.329 2701.267)">
      <g id="Grupo_3517" data-name="Grupo 3517">
        <path id="Trazado_3362" data-name="Trazado 3362" d="M47.517,24.357a1,1,0,0,1-.473-1.881c.7-.374,1.421-.728,2.151-1.053l.1-.046a32.446,32.446,0,0,1,10.244-2.64,1,1,0,0,1,.176,1.992A30.415,30.415,0,0,0,50.1,23.207l-.5-.871.406.914c-.685.305-1.365.638-2.02.988A.989.989,0,0,1,47.517,24.357Z" fill="#a88b6a"/>
      </g>
      <g id="Grupo_3518" data-name="Grupo 3518">
        <path id="Trazado_3363" data-name="Trazado 3363" d="M77,24.156a1,1,0,0,1-.459-.112,30.9,30.9,0,0,0-3.643-1.6.9.9,0,0,1-.219-.05,30.459,30.459,0,0,0-7.515-1.66,1,1,0,1,1,.181-1.992,32.474,32.474,0,0,1,7.748,1.677.97.97,0,0,1,.22.05,32.671,32.671,0,0,1,4.148,1.8A1,1,0,0,1,77,24.156Z" fill="#a88b6a"/>
      </g>
      <g id="Grupo_3519" data-name="Grupo 3519">
        <path id="Trazado_3364" data-name="Trazado 3364" d="M78.18,69.607H46.622a13.417,13.417,0,0,1-8.271-2.876l-.135-.1-4.57-3.7a9.852,9.852,0,0,0-3.817-1.9L27.4,60.422a3.6,3.6,0,0,1-2.73-3.5,3.611,3.611,0,0,1,1.049-2.542,1,1,0,0,1,.36-.232,10.374,10.374,0,0,0,.736-.822c.144-.174.262-.311.324-.374q1.046-1.056,2.1-2.1l.1-.1a1.762,1.762,0,0,0,.2-.218,1.754,1.754,0,0,0,.044-.4,31.917,31.917,0,0,1,.634-5.068A33.479,33.479,0,0,1,41.957,25.842,1,1,0,0,1,43.213,27.4,31.472,31.472,0,0,0,32.173,45.47a29.967,29.967,0,0,0-.6,4.74,2.876,2.876,0,0,1-.257,1.23,2.815,2.815,0,0,1-.572.733l-.1.1Q29.6,53.313,28.56,54.362c-.04.044-.115.135-.206.245a5.6,5.6,0,0,1-1.342,1.328,1.6,1.6,0,0,0-.31.676,1.647,1.647,0,0,0-.031.314,1.6,1.6,0,0,0,1.216,1.556l2.428.607a12.091,12.091,0,0,1,1.236.382A11.85,11.85,0,0,1,34.9,61.378l4.686,3.783a11.4,11.4,0,0,0,7.032,2.446H78.18A11.393,11.393,0,0,0,85.3,65.1a1.015,1.015,0,0,1,.286-.161l4.4-3.559a11.961,11.961,0,0,1,4.59-2.29L97,58.481a1.6,1.6,0,0,0,.748-2.688c-1.534-1.542-3.863-3.882-4.087-4.1a1,1,0,0,1-.33-.727A30.794,30.794,0,0,0,81.6,27.323a1,1,0,1,1,1.245-1.565A32.8,32.8,0,0,1,95.325,50.566c.617.573,1.717,1.679,3.843,3.817a3.6,3.6,0,0,1-1.681,6.039l-2.428.607a9.947,9.947,0,0,0-3.818,1.9l-4.573,3.7c-.016.013-.1.075-.116.087a1.089,1.089,0,0,1-.248.131A13.41,13.41,0,0,1,78.18,69.607ZM26.425,54.088h0Zm0,0h0Z" fill="#a88b6a"/>
      </g>
    </g>
  </g>
</svg>
