<svg xmlns="http://www.w3.org/2000/svg" width="163" height="167" viewBox="0 0 163 167">
  <g id="Grupo_3455" data-name="Grupo 3455" transform="translate(-386 -835)">
    <g id="Elipse_555" data-name="Elipse 555" transform="translate(386 839)" fill="#fff" stroke="#8d7a72" stroke-width="2" stroke-dasharray="6">
      <circle cx="81.5" cy="81.5" r="81.5" stroke="none"/>
      <circle cx="81.5" cy="81.5" r="80.5" fill="none"/>
    </g>
    <g id="Grupo_3440" data-name="Grupo 3440" transform="translate(35.185 567)">
      <g id="Grupo_3434" data-name="Grupo 3434">
        <path id="Trazado_3311" data-name="Trazado 3311" d="M427,349V338a11.032,11.032,0,0,1,11-11h0a11.032,11.032,0,0,1,11,11v11" fill="none" stroke="#a88b6a" stroke-linecap="round" stroke-linejoin="round" stroke-width="2"/>
        <path id="Trazado_3312" data-name="Trazado 3312" d="M450,341h2.141a10,10,0,0,1,9.716,7.637l6.241,25.654A3,3,0,0,1,465.183,378H410.817a3,3,0,0,1-2.915-3.709l6.24-25.654A10,10,0,0,1,423.859,341H426" fill="none" stroke="#a88b6a" stroke-linecap="round" stroke-linejoin="round" stroke-width="2"/>
        <line id="Línea_101" data-name="Línea 101" x2="14" transform="translate(431 341)" fill="none" stroke="#a88b6a" stroke-linecap="round" stroke-linejoin="round" stroke-width="2"/>
      </g>
      <g id="Grupo_3435" data-name="Grupo 3435">
        <path id="Trazado_3313" data-name="Trazado 3313" d="M424,354v-4a1,1,0,0,1,1-1h4a1,1,0,0,1,1,1v4" fill="none" stroke="#a88b6a" stroke-linecap="round" stroke-linejoin="round" stroke-width="2"/>
        <path id="Trazado_3314" data-name="Trazado 3314" d="M446,354v-4a1,1,0,0,1,1-1h4a1,1,0,0,1,1,1v4" fill="none" stroke="#a88b6a" stroke-linecap="round" stroke-linejoin="round" stroke-width="2"/>
        <path id="Trazado_3315" data-name="Trazado 3315" d="M429,353h-4l-1,10h6Z" fill="none" stroke="#a88b6a" stroke-linecap="round" stroke-linejoin="round" stroke-width="2"/>
        <path id="Trazado_3316" data-name="Trazado 3316" d="M451,353h-4l-1,10h6Z" fill="none" stroke="#a88b6a" stroke-linecap="round" stroke-linejoin="round" stroke-width="2"/>
      </g>
    </g>
    <g id="Grupo_3441" data-name="Grupo 3441" transform="translate(-82 77)">
      <g id="Elipse_542" data-name="Elipse 542" transform="translate(579 758)" fill="#f3f7fa" stroke="#cea774" stroke-width="1">
        <circle cx="26" cy="26" r="26" stroke="none"/>
        <circle cx="26" cy="26" r="25.5" fill="none"/>
      </g>
      <circle id="Elipse_543" data-name="Elipse 543" cx="21" cy="21" r="21" transform="translate(584 763)" fill="#745f57"/>
    </g>
    <path id="Trazado_3456" data-name="Trazado 3456" d="M4.29-7.28A3.692,3.692,0,0,1,6.17-6.01a3.5,3.5,0,0,1,.68,2.19A3.235,3.235,0,0,1,5.42-.99,7.311,7.311,0,0,1,1.25,0H-5.99V-14H.85a6.7,6.7,0,0,1,3.93.98,3.1,3.1,0,0,1,1.37,2.66,3.414,3.414,0,0,1-.49,1.82A3.432,3.432,0,0,1,4.29-7.28Zm-7.06-4.28v3.3H.45a3.251,3.251,0,0,0,1.82-.42,1.4,1.4,0,0,0,.62-1.24,1.376,1.376,0,0,0-.62-1.23,3.314,3.314,0,0,0-1.82-.41ZM1.01-2.44a3.59,3.59,0,0,0,1.93-.42,1.438,1.438,0,0,0,.65-1.3q0-1.74-2.58-1.74H-2.77v3.46Z" transform="translate(524 867)" fill="#fff"/>
    <g id="starch" transform="translate(64.664 545.701)">
      <path id="Trazado_3327" data-name="Trazado 3327" d="M523.683,324.018l-2.166,9.385a7.043,7.043,0,0,0,1.762,6.441l7.447,7.819,1.711-16.256a3.008,3.008,0,0,0-2.155-3.211,25.1,25.1,0,0,1-5.506-2.331,2.044,2.044,0,0,1,.467-3.732,54.137,54.137,0,0,1,22.035,0,2.044,2.044,0,0,1,.467,3.732,25.1,25.1,0,0,1-5.506,2.331,3.008,3.008,0,0,0-2.155,3.211l1.711,16.256,7.446-7.819A7.042,7.042,0,0,0,551,333.4l-2.166-9.385" transform="translate(-167.05 5)" fill="none" stroke="#a88b6a" stroke-linecap="round" stroke-linejoin="round" stroke-width="2"/>
      <g id="Grupo_3459" data-name="Grupo 3459" transform="translate(365.184 334.755)">
        <ellipse id="Elipse_563" data-name="Elipse 563" cx="1.006" cy="1.006" rx="1.006" ry="1.006" transform="translate(3.02 2.816)" fill="none" stroke="#a88b6a" stroke-width="1"/>
        <line id="Línea_113" data-name="Línea 113" x2="4.025" transform="translate(2.014 3.822)" fill="none" stroke="#a88b6a" stroke-linecap="round" stroke-linejoin="round" stroke-width="2"/>
        <path id="Trazado_3328" data-name="Trazado 3328" d="M551.047,352.4a27.314,27.314,0,0,1-4.023.3,29.358,29.358,0,0,1-4.026-.276" transform="translate(-542.997 -345.359)" fill="none" stroke="#a88b6a" stroke-linecap="round" stroke-linejoin="round" stroke-width="2"/>
        <path id="Trazado_3329" data-name="Trazado 3329" d="M551.041,338.4a21.242,21.242,0,0,1-3.543.3,22.82,22.82,0,0,1-3.546-.276" transform="translate(-543.472 -338.402)" fill="none" stroke="#a88b6a" stroke-linecap="round" stroke-linejoin="round" stroke-width="2"/>
      </g>
    </g>
  </g>
</svg>
