<svg xmlns="http://www.w3.org/2000/svg" width="190.371" height="226.304" viewBox="0 0 190.371 226.304">
  <g id="Grupo_1200" data-name="Grupo 1200" transform="translate(-761.968 -1349.491)">
    <g id="Grupo_1103" data-name="Grupo 1103" transform="translate(780.651 1350)" opacity="0.76">
      <path id="Trazado_1891" data-name="Trazado 1891" d="M357.774,449.694l-17.206-100.3H203.952L187.1,449.753a16.625,16.625,0,0,0,.327,7.071c2.845,10.763,16.242,19.119,32.686,19.119H324.774C344.715,475.943,360.169,463.649,357.774,449.694Zm-138.8-79.432a6.641,6.641,0,1,1,6.326-6.632A6.485,6.485,0,0,1,218.971,370.262Zm109.19,0a6.641,6.641,0,1,1,6.327-6.632A6.485,6.485,0,0,1,328.161,370.262Z" transform="translate(-186.864 -250.648)" fill="none" stroke="#c18b52" stroke-miterlimit="10" stroke-width="1"/>
      <path id="Trazado_1892" data-name="Trazado 1892" d="M357.821,449.694l-17.206-100.3H319.192c6.065,34.54,13.479,88.21,3.295,98.843-14.209,14.829-87.645,23.535-135.015,8.587,2.845,10.763,16.242,19.119,32.686,19.119H324.82C344.762,475.943,360.215,463.649,357.821,449.694Zm-29.613-79.432a6.641,6.641,0,1,1,6.327-6.632A6.485,6.485,0,0,1,328.208,370.262Z" transform="translate(-186.911 -250.648)" fill="#cea774" stroke="#c18b52" stroke-miterlimit="10" stroke-width="1" opacity="0.35" style="mix-blend-mode: multiply;isolation: isolate"/>
      <path id="Trazado_1893" data-name="Trazado 1893" d="M302.1,372.6H254.465a5.071,5.071,0,0,1-5.071-5.071h0a5.071,5.071,0,0,1,5.071-5.072H302.1a5.07,5.07,0,0,1,5.071,5.072h0A5.07,5.07,0,0,1,302.1,372.6Z" transform="translate(-191.673 -251.654)" fill="none" stroke="#c18b52" stroke-miterlimit="10" stroke-width="1" opacity="0.35" style="mix-blend-mode: multiply;isolation: isolate"/>
      <path id="Trazado_1894" data-name="Trazado 1894" d="M304.609,365.874v1.982c0,1.884-2.168,3.412-4.842,3.412H254.235a6.28,6.28,0,0,1-2.6-.538,3.336,3.336,0,0,1-2.238-2.874v-1.982c0-1.883,2.166-3.411,4.842-3.411h45.532C302.441,362.463,304.609,363.991,304.609,365.874Z" transform="translate(-191.673 -251.654)" fill="#cea774" stroke="#c18b52" stroke-miterlimit="10" stroke-width="1"/>
      <path id="Trazado_1895" data-name="Trazado 1895" d="M268.022,362.463l-10.144,8.8h-3.457a6.28,6.28,0,0,1-2.6-.538l9.522-8.266Z" transform="translate(-191.86 -251.654)" fill="none" stroke="#c18b52" stroke-miterlimit="10" stroke-width="1" style="mix-blend-mode: overlay;isolation: isolate"/>
      <path id="Trazado_1896" data-name="Trazado 1896" d="M274.324,362.463l-10.141,8.8h-4.542l10.144-8.8Z" transform="translate(-192.461 -251.654)" fill="none" stroke="#c18b52" stroke-miterlimit="10" stroke-width="1" style="mix-blend-mode: overlay;isolation: isolate"/>
      <path id="Trazado_1897" data-name="Trazado 1897" d="M279.591,362.463l-10.145,8.8H266.4l10.145-8.8Z" transform="translate(-192.981 -251.654)" fill="none" stroke="#c18b52" stroke-miterlimit="10" stroke-width="1" style="mix-blend-mode: overlay;isolation: isolate"/>
      <path id="Trazado_1898" data-name="Trazado 1898" d="M215.823,358.7c.013-.014.029-.027.042-.042h-.051C215.819,358.676,215.82,358.691,215.823,358.7Z" transform="translate(-189.091 -251.361)" fill="none" stroke="#c18b52" stroke-miterlimit="10" stroke-width="1"/>
      <path id="Trazado_1899" data-name="Trazado 1899" d="M217.3,349h-1.9a22.769,22.769,0,0,1,.914-4.681,9.409,9.409,0,0,0,1.3,2.471C217.486,347.492,217.375,348.23,217.3,349Z" transform="translate(-189.059 -250.258)" fill="none" stroke="#c18b52" stroke-miterlimit="10" stroke-width="1"/>
      <path id="Trazado_1900" data-name="Trazado 1900" d="M227.462,351.561a28.02,28.02,0,0,1-.6,5.915c-.122.559-.263,1.091-.418,1.6-.084.273-.174.538-.265.793-.4,1.062-1.593,4.3-4.789,4.3s-4.4-3.237-4.79-4.3c-.127-.354-.249-.728-.36-1.113a6.5,6.5,0,0,1,1.548-1.494c.726,3.331,2.068,5.568,3.6,5.568,1.5,0,2.823-2.149,3.556-5.367.1-.452.194-.926.273-1.419a28.08,28.08,0,0,0,.344-4.481,27.649,27.649,0,0,0-.466-5.18,17.8,17.8,0,0,0-.649-2.478c-.759-2.217-1.848-3.606-3.058-3.606s-2.3,1.388-3.059,3.606a14.421,14.421,0,0,1-.763-2.664,4.343,4.343,0,0,1,7.643,0,9.954,9.954,0,0,1,.968,2.02c.079.211.151.428.222.654A25.7,25.7,0,0,1,227.462,351.561Z" transform="translate(-189.123 -249.846)" fill="none" stroke="#c18b52" stroke-miterlimit="10" stroke-width="1"/>
      <path id="Trazado_1901" data-name="Trazado 1901" d="M227.385,336.306a20.144,20.144,0,0,1-1.06,6.559c-.071-.225-.143-.442-.222-.654a9.95,9.95,0,0,0-.968-2.02,20.752,20.752,0,0,0,.353-3.885c0-5.319-1.866-9.631-4.173-9.631s-4.175,4.312-4.175,9.631a20.828,20.828,0,0,0,.353,3.885,14.427,14.427,0,0,0,.763,2.664c.759,1.9,1.848,3.082,3.059,3.082s2.3-1.185,3.058-3.082a17.792,17.792,0,0,1,.649,2.478,4.51,4.51,0,0,1-7.416,0,9.41,9.41,0,0,1-1.3-2.471,20.114,20.114,0,0,1-1.059-6.556c0-4.074,1.278-10.969,6.072-10.969S227.385,332.232,227.385,336.306Z" transform="translate(-189.046 -248.798)" fill="none" stroke="#c18b52" stroke-miterlimit="10" stroke-width="1"/>
      <path id="Trazado_1902" data-name="Trazado 1902" d="M345.775,358.719l-.043-.041h.051C345.779,358.691,345.778,358.7,345.775,358.719Z" transform="translate(-199.082 -251.362)" fill="none" stroke="#c18b52" stroke-miterlimit="10" stroke-width="1"/>
      <path id="Trazado_1903" data-name="Trazado 1903" d="M344.118,349.019h1.9a22.643,22.643,0,0,0-.914-4.682,9.377,9.377,0,0,1-1.305,2.472C343.931,347.507,344.043,348.245,344.118,349.019Z" transform="translate(-198.934 -250.26)" fill="none" stroke="#c18b52" stroke-miterlimit="10" stroke-width="1"/>
      <path id="Trazado_1904" data-name="Trazado 1904" d="M333.2,351.576a27.957,27.957,0,0,0,.6,5.915c.121.559.262,1.091.417,1.6.084.273.174.537.265.791.4,1.063,1.594,4.3,4.789,4.3s4.4-3.237,4.79-4.3c.129-.353.249-.727.36-1.112a6.444,6.444,0,0,0-1.548-1.494c-.726,3.331-2.068,5.568-3.6,5.568-1.5,0-2.823-2.149-3.556-5.367q-.152-.678-.273-1.418a28.222,28.222,0,0,1-.344-4.482,27.621,27.621,0,0,1,.466-5.179,17.682,17.682,0,0,1,.649-2.478c.759-2.218,1.849-3.606,3.058-3.606s2.3,1.388,3.06,3.606a14.456,14.456,0,0,0,.762-2.665,4.344,4.344,0,0,0-7.643,0,9.976,9.976,0,0,0-.968,2.02c-.079.211-.15.428-.223.654A25.736,25.736,0,0,0,333.2,351.576Z" transform="translate(-198.119 -249.847)" fill="none" stroke="#c18b52" stroke-miterlimit="10" stroke-width="1"/>
      <path id="Trazado_1905" data-name="Trazado 1905" d="M333.26,336.306a20.143,20.143,0,0,0,1.06,6.559c.071-.225.143-.442.223-.654a9.889,9.889,0,0,1,.967-2.02,20.828,20.828,0,0,1-.353-3.885c0-5.319,1.867-9.631,4.174-9.631s4.174,4.312,4.174,9.631a20.825,20.825,0,0,1-.353,3.885,14.353,14.353,0,0,1-.762,2.664c-.759,1.9-1.848,3.082-3.059,3.082s-2.3-1.185-3.058-3.082a17.923,17.923,0,0,0-.649,2.478,4.509,4.509,0,0,0,7.415,0,9.413,9.413,0,0,0,1.306-2.471,20.162,20.162,0,0,0,1.058-6.556c0-4.074-1.279-10.969-6.072-10.969S333.26,332.232,333.26,336.306Z" transform="translate(-198.123 -248.798)" fill="none" stroke="#c18b52" stroke-miterlimit="10" stroke-width="1"/>
      <path id="Trazado_1906" data-name="Trazado 1906" d="M217.773,325.7l-.167-.006c2.593-12.489,5.194-25.012,9.811-37.207,6.385-16.861,16.133-33.931,32.757-41.9,10.168-4.877,30.848-8.56,47.614,7.545a57.91,57.91,0,0,1,8.665,10.835c11.582,18.467,16.2,39.917,17.819,59.962l-7.254.131c-.662-11.031-1.331-22.091-3.8-32.995s-6.787-21.7-14.368-31.361c-8.924-11.377-25.907-20.407-44.21-12.805-8.095,3.364-13.886,8.92-18.451,14.71-15.079,19.124-18.814,41.56-21.112,63.38Z" transform="translate(-189.228 -242.421)" fill="#e6d8c4" stroke="#c18b52" stroke-miterlimit="10" stroke-width="1"/>
    </g>
    <ellipse id="Elipse_512" data-name="Elipse 512" cx="25.156" cy="25.156" rx="25.156" ry="25.156" transform="translate(764.039 1485.873)" fill="none" stroke="#c69f91" stroke-linecap="round" stroke-miterlimit="10" stroke-width="4.143"/>
    <path id="Trazado_1928" data-name="Trazado 1928" d="M480.767,347.863l10.259,9.931L522.2,327.139" transform="translate(298.473 1155.222)" fill="none" stroke="#ed6562" stroke-linecap="round" stroke-miterlimit="10" stroke-width="3.107"/>
  </g>
</svg>
