<svg xmlns="http://www.w3.org/2000/svg" width="163" height="167" viewBox="0 0 163 167">
  <g id="Grupo_3542" data-name="Grupo 3542" transform="translate(-465 -2660)">
    <g id="Elipse_566" data-name="Elipse 566" transform="translate(465 2664)" fill="#fff" stroke="#8d7a72" stroke-width="2" stroke-dasharray="6">
      <circle cx="81.5" cy="81.5" r="81.5" stroke="none"/>
      <circle cx="81.5" cy="81.5" r="80.5" fill="none"/>
    </g>
    <g id="Grupo_3504" data-name="Grupo 3504" transform="translate(-3 1902)">
      <g id="Elipse_542" data-name="Elipse 542" transform="translate(579 758)" fill="#f3f7fa" stroke="#cea774" stroke-width="1">
        <circle cx="26" cy="26" r="26" stroke="none"/>
        <circle cx="26" cy="26" r="25.5" fill="none"/>
      </g>
      <circle id="Elipse_543" data-name="Elipse 543" cx="21" cy="21" r="21" transform="translate(584 763)" fill="#745f57"/>
    </g>
    <path id="Trazado_3463" data-name="Trazado 3463" d="M-1.49-11.4v3.7H4.99v2.6H-1.49V0H-4.73V-14H5.85v2.6Z" transform="translate(603 2692)" fill="#fff"/>
    <g id="Grupo_3516" data-name="Grupo 3516" transform="translate(481.252 2568.167)">
      <g id="Grupo_3506" data-name="Grupo 3506">
        <path id="Trazado_3352" data-name="Trazado 3352" d="M59.314,208.315H27.748c-4.411,0-8-4.036-8-9,0-4.658,3.08-8.482,7.184-8.947a.656.656,0,0,1,.075-.013l17.044-2.251c4.573-.505,7.9-2.354,9.9-5.5a1,1,0,0,1,1.687,1.074c-2.345,3.68-6.162,5.837-11.347,6.41l-16.91,2.233a1.222,1.222,0,0,1-.137.023c-3.082.3-5.5,3.361-5.5,6.969,0,3.859,2.691,7,6,7H59.314a1,1,0,0,1,0,2Z" fill="#a88b6a"/>
      </g>
      <g id="Grupo_3507" data-name="Grupo 3507">
        <path id="Trazado_3353" data-name="Trazado 3353" d="M56.467,180.876a1,1,0,0,1-.924-1.38,32.21,32.21,0,0,0,1.732-5.947,1,1,0,1,1,1.962.388,34.18,34.18,0,0,1-1.844,6.318A1,1,0,0,1,56.467,180.876Z" fill="#a88b6a"/>
      </g>
      <g id="Grupo_3508" data-name="Grupo 3508">
        <path id="Trazado_3354" data-name="Trazado 3354" d="M58.834,171.057a.963.963,0,0,1-.119-.007,1,1,0,0,1-.875-1.11c.219-1.841.351-3.784.394-5.776a.97.97,0,0,1,1.022-.978,1,1,0,0,1,.978,1.022c-.044,2.055-.182,4.063-.408,5.967A1,1,0,0,1,58.834,171.057Z" fill="#a88b6a"/>
      </g>
      <g id="Grupo_3509" data-name="Grupo 3509">
        <path id="Trazado_3355" data-name="Trazado 3355" d="M93.168,208.315H79.783a1,1,0,0,1,0-2H91.858a84.293,84.293,0,0,1-2.524-18.327c-.235-10.062.753-28.835,1.01-33.481H60.469l-.161,6.047a1,1,0,0,1-2-.053l.187-7.021a1,1,0,0,1,1-.973H91.4a1,1,0,0,1,1,1.059c-.013.228-1.333,22.975-1.067,34.375a81.53,81.53,0,0,0,2.793,19.088,1,1,0,0,1-.958,1.286Z" fill="#a88b6a"/>
      </g>
      <g id="Grupo_3510" data-name="Grupo 3510">
        <path id="Trazado_3356" data-name="Trazado 3356" d="M27.745,208.315c-4.409,0-8-4.035-8-8.994,0-4.56,3.035-8.4,7.06-8.933l4.759-.631a6.954,6.954,0,0,1,5.55,1.74,8.883,8.883,0,0,1,2.92,6.723V202.4a1,1,0,0,1-2,0V198.22A6.887,6.887,0,0,0,35.8,193a4.98,4.98,0,0,0-3.968-1.261l-4.76.63c-3.034.4-5.322,3.39-5.322,6.951,0,3.857,2.69,6.994,6,6.994a1,1,0,0,1,0,2Z" fill="#a88b6a"/>
      </g>
      <g id="Grupo_3511" data-name="Grupo 3511">
        <path id="Trazado_3357" data-name="Trazado 3357" d="M92.971,216.269H87.317a2.141,2.141,0,0,1-2.059-2.21.265.265,0,0,0-.082-.215l-.986.005a.418.418,0,0,0-.059.21,2.141,2.141,0,0,1-2.059,2.21H77.721a3.66,3.66,0,0,1-2.738-1.281A3.954,3.954,0,0,0,72,213.56H69.271a8.156,8.156,0,0,0-5.088,2.232,2.111,2.111,0,0,1-1.327.477H50.966a2.141,2.141,0,0,1-2.059-2.21.265.265,0,0,0-.082-.215l-1.591.005a.418.418,0,0,0-.059.21,2.141,2.141,0,0,1-2.059,2.21H35.734a2.141,2.141,0,0,1-2.059-2.21.265.265,0,0,0-.082-.215l-1.692.005a.418.418,0,0,0-.059.21,2.141,2.141,0,0,1-2.059,2.21h-4.64a4.234,4.234,0,0,1-3.074-1.353,5.278,5.278,0,0,1-1.4-3.883,4.8,4.8,0,0,1,4.671-4.718H59.314a13.365,13.365,0,0,1,8.711-2.708h5.309a9.039,9.039,0,0,1,5.862,2.229,1.878,1.878,0,0,0,1.235.479H93.168a3.217,3.217,0,0,1,2.392.98,5.681,5.681,0,0,1,1.189,4.257C96.554,215.81,94.042,216.269,92.971,216.269Zm-8.781-4.42H85.2a2.141,2.141,0,0,1,2.059,2.21.263.263,0,0,0,.082.215l5.631-.005c.408,0,1.651,0,1.78-2.809a3.967,3.967,0,0,0-.637-2.783,1.218,1.218,0,0,0-.946-.362H80.431a3.907,3.907,0,0,1-2.538-.961,7.032,7.032,0,0,0-4.559-1.747H68.025a11.315,11.315,0,0,0-7.383,2.225,2.07,2.07,0,0,1-1.328.483H25.34a2.845,2.845,0,0,0-2.673,2.809,3.265,3.265,0,0,0,.849,2.41,2.252,2.252,0,0,0,1.627.735h4.64a.413.413,0,0,0,.059-.21,2.141,2.141,0,0,1,2.059-2.21h1.715a2.14,2.14,0,0,1,2.059,2.21.263.263,0,0,0,.082.215l9.359-.005a.413.413,0,0,0,.059-.21,2.141,2.141,0,0,1,2.059-2.21h1.614a2.141,2.141,0,0,1,2.059,2.21.259.259,0,0,0,.082.214l11.867,0c2.284-1.832,4.361-2.709,6.415-2.709H72a6.007,6.007,0,0,1,4.49,2.111,1.641,1.641,0,0,0,1.233.6h4.351a.413.413,0,0,0,.059-.21A2.141,2.141,0,0,1,84.19,211.849Z" fill="#a88b6a"/>
      </g>
      <g id="Grupo_3512" data-name="Grupo 3512">
        <path id="Trazado_3358" data-name="Trazado 3358" d="M64.526,164.767H58.045a2.087,2.087,0,0,1-2.084-2.084v-.83a2.086,2.086,0,0,1,2.084-2.083h6.481a2.085,2.085,0,0,1,2.083,2.083v.83A2.086,2.086,0,0,1,64.526,164.767Zm-6.481-3a.084.084,0,0,0-.084.083v.83a.085.085,0,0,0,.084.084h6.481a.084.084,0,0,0,.083-.084v-.83a.083.083,0,0,0-.083-.083Z" fill="#a88b6a"/>
      </g>
      <g id="Grupo_3513" data-name="Grupo 3513">
        <path id="Trazado_3359" data-name="Trazado 3359" d="M62.937,174.449H56.456a2.085,2.085,0,0,1-2.083-2.083v-.83a2.086,2.086,0,0,1,2.083-2.084h6.481a2.086,2.086,0,0,1,2.083,2.084v.83A2.085,2.085,0,0,1,62.937,174.449Zm-6.481-3a.084.084,0,0,0-.083.084v.83a.083.083,0,0,0,.083.083h6.481a.083.083,0,0,0,.083-.083v-.83a.084.084,0,0,0-.083-.084Z" fill="#a88b6a"/>
      </g>
      <g id="Grupo_3514" data-name="Grupo 3514">
        <path id="Trazado_3360" data-name="Trazado 3360" d="M60.484,183.873H54a2.086,2.086,0,0,1-2.083-2.083v-.831A2.085,2.085,0,0,1,54,178.876h6.481a2.085,2.085,0,0,1,2.083,2.083v.831A2.085,2.085,0,0,1,60.484,183.873Zm-6.481-3a.083.083,0,0,0-.083.083v.831a.084.084,0,0,0,.083.083h6.481a.083.083,0,0,0,.083-.083v-.831a.083.083,0,0,0-.083-.083Z" fill="#a88b6a"/>
      </g>
      <g id="Grupo_3515" data-name="Grupo 3515">
        <path id="Trazado_3361" data-name="Trazado 3361" d="M91.042,154.507H60.179a4.14,4.14,0,0,1-4.135-4.135v-2.4a4.141,4.141,0,0,1,4.135-4.136H91.041a4.141,4.141,0,0,1,4.136,4.136v2.4A4.14,4.14,0,0,1,91.042,154.507Zm-30.863-8.674a2.139,2.139,0,0,0-2.135,2.136v2.4a2.138,2.138,0,0,0,2.135,2.135H91.042a2.138,2.138,0,0,0,2.135-2.135v-2.4a2.139,2.139,0,0,0-2.136-2.136Z" fill="#a88b6a"/>
      </g>
    </g>
  </g>
</svg>
