<svg xmlns="http://www.w3.org/2000/svg" width="44" height="44" viewBox="0 0 44 44">
  <g id="Grupo_3589" data-name="Grupo 3589" transform="translate(-108.001 -1228)">
    <g id="Grupo_3462" data-name="Grupo 3462" transform="translate(-471.02 469.979)">
      <g id="Elipse_542" data-name="Elipse 542" transform="translate(579.021 758.021)" fill="#f3f7fa" stroke="#cea774" stroke-width="1">
        <circle cx="22" cy="22" r="22" stroke="none"/>
        <circle cx="22" cy="22" r="21.5" fill="none"/>
      </g>
      <circle id="Elipse_543" data-name="Elipse 543" cx="18" cy="18" r="18" transform="translate(583.021 762.021)" fill="#745f57"/>
    </g>
    <path id="Trazado_7453" data-name="Trazado 7453" d="M1.03.24A8.041,8.041,0,0,1-2.84-.69,6.941,6.941,0,0,1-5.56-3.27,7.108,7.108,0,0,1-6.55-7a7.108,7.108,0,0,1,.99-3.73,6.941,6.941,0,0,1,2.72-2.58,8.083,8.083,0,0,1,3.89-.93,8.159,8.159,0,0,1,3.29.64,6.59,6.59,0,0,1,2.47,1.84L4.73-9.84a4.472,4.472,0,0,0-3.52-1.64,4.674,4.674,0,0,0-2.32.57A4.052,4.052,0,0,0-2.7-9.32,4.674,4.674,0,0,0-3.27-7,4.674,4.674,0,0,0-2.7-4.68,4.052,4.052,0,0,0-1.11-3.09a4.674,4.674,0,0,0,2.32.57A4.451,4.451,0,0,0,4.73-4.18L6.81-2.26A6.483,6.483,0,0,1,4.33-.4,8.231,8.231,0,0,1,1.03.24Z" transform="translate(130 1256)" fill="#fff"/>
  </g>
</svg>
