<svg xmlns="http://www.w3.org/2000/svg" width="44" height="44" viewBox="0 0 44 44">
  <g id="Grupo_3596" data-name="Grupo 3596" transform="translate(-108.001 -1746)">
    <g id="Grupo_3469" data-name="Grupo 3469" transform="translate(-471.02 987.979)">
      <g id="Elipse_542" data-name="Elipse 542" transform="translate(579.021 758.021)" fill="#f3f7fa" stroke="#cea774" stroke-width="1">
        <circle cx="22" cy="22" r="22" stroke="none"/>
        <circle cx="22" cy="22" r="21.5" fill="none"/>
      </g>
      <circle id="Elipse_543" data-name="Elipse 543" cx="18" cy="18" r="18" transform="translate(583.021 762.021)" fill="#745f57"/>
    </g>
    <path id="Trazado_7459" data-name="Trazado 7459" d="M-1.17.24A6.343,6.343,0,0,1-3.78-.29,4.989,4.989,0,0,1-5.73-1.8l1.8-2.16a3.235,3.235,0,0,0,2.6,1.54Q.65-2.42.65-4.74V-11.4H-4.27V-14H3.87v9.08A5.281,5.281,0,0,1,2.59-1.05,5.073,5.073,0,0,1-1.17.24Z" transform="translate(130 1774)" fill="#fff"/>
  </g>
</svg>
