<svg id="Grupo_3545" data-name="Grupo 3545" xmlns="http://www.w3.org/2000/svg" width="235.298" height="188.318" viewBox="0 0 235.298 188.318">
  <g id="Grupo_3046" data-name="Grupo 3046">
    <g id="Grupo_3045" data-name="Grupo 3045">
      <path id="Trazado_2350" data-name="Trazado 2350" d="M205.992,140.359,291.667,90.9,174.029,146l.869,1.474Z" transform="translate(-174.017 -89.215)" fill="#9c480c"/>
      <path id="Trazado_2351" data-name="Trazado 2351" d="M267.949,140.381,182.275,90.917l117.635,54.8V147.7Z" transform="translate(-64.625 -88.927)" fill="#d9af6a"/>
      <g id="Grupo_3044" data-name="Grupo 3044" transform="translate(31.986 49.473)">
        <g id="Grupo_3043" data-name="Grupo 3043">
          <g id="Grupo_3042" data-name="Grupo 3042">
            <path id="Trazado_2352" data-name="Trazado 2352" d="M261.933,233.09,176.27,183.633V94.245L261.933,143.7Z" transform="translate(-176.27 -94.245)" fill="#b76f3f"/>
            <path id="Trazado_2353" data-name="Trazado 2353" d="M176.27,94.245v89.388l85.663,49.457-83.178-50.866Z" transform="translate(-176.27 -94.245)" fill="#a45823"/>
            <path id="Trazado_2354" data-name="Trazado 2354" d="M178.793,185.378V95.7l13.6,7.854V194Z" transform="translate(-142.805 -74.923)" fill="#9c480c"/>
            <path id="Trazado_2355" data-name="Trazado 2355" d="M178.712,185.34V95.664l13.6,7.855v90.445Z" transform="translate(-143.879 -75.427)" fill="#b3a4ad"/>
            <path id="Trazado_2356" data-name="Trazado 2356" d="M182.275,233.09l85.662-49.457V94.245L182.275,143.7Z" transform="translate(-96.611 -94.245)" fill="#d9af6a"/>
            <path id="Trazado_2357" data-name="Trazado 2357" d="M182.275,151.4l85.662-49.457V100.4l-85.662,49.458Z" transform="translate(-96.611 -12.552)" fill="#b58847"/>
            <path id="Trazado_2358" data-name="Trazado 2358" d="M182.631,134.857l24.4-14.1V100.366l-23.943,12.805-.455,1.3Z" transform="translate(-91.889 -13.048)" fill="#9c480c"/>
            <path id="Trazado_2359" data-name="Trazado 2359" d="M199.63,184.927V95.57l-14.676,8.474V193.4Z" transform="translate(-61.061 -76.672)" fill="#9c480c"/>
            <path id="Trazado_2360" data-name="Trazado 2360" d="M199.668,185.568V95.547l-14.674,8.473v90.02Z" transform="translate(-60.543 -76.981)" fill="#d6d6d6"/>
            <g id="Grupo_3041" data-name="Grupo 3041" transform="translate(5.891 8.998)">
              <g id="Grupo_3038" data-name="Grupo 3038">
                <path id="Trazado_2361" data-name="Trazado 2361" d="M196.57,135.663l-19.887-11.5V94.876l19.887,11.5Zm-18.061-12.554,16.235,9.373V107.43l-16.235-9.387Z" transform="translate(-176.683 -94.876)" fill="#8c4320"/>
              </g>
              <g id="Grupo_3040" data-name="Grupo 3040" transform="translate(2.855 10.37)">
                <g id="Grupo_3039" data-name="Grupo 3039" transform="translate(3.298 8.105)">
                  <path id="Trazado_2362" data-name="Trazado 2362" d="M177.114,104.2l6.765,3.906v-8.026l-6.765-3.9Z" transform="translate(-177.114 -96.171)" fill="#8c4320"/>
                </g>
                <path id="Trazado_2363" data-name="Trazado 2363" d="M176.883,101.864l13.363,7.717L183.564,95.6Z" transform="translate(-176.883 -95.603)" fill="#8c4320"/>
              </g>
            </g>
          </g>
          <path id="Trazado_2364" data-name="Trazado 2364" d="M183.161,114.764l24.4-14.1-.5-.387-24.4,14.1Z" transform="translate(-91.465 -14.254)" fill="#fefefe"/>
          <path id="Trazado_2365" data-name="Trazado 2365" d="M183.161,122.038V101.65l-.5-.387v20.388Z" transform="translate(-91.465 -1.14)" fill="#8b8b8b"/>
          <path id="Trazado_2366" data-name="Trazado 2366" d="M182.7,134.792l24.4-14.1V100.3l-24.4,14.1Z" transform="translate(-91.003 -13.894)" fill="#d6d6d6"/>
          <path id="Trazado_2367" data-name="Trazado 2367" d="M182.793,114.335l21.67-12.526v-1.292l-21.67,12.526Z" transform="translate(-89.734 -11.049)" fill="#6f6f6f"/>
          <path id="Trazado_2368" data-name="Trazado 2368" d="M183.422,109.53l12.7-7.319v-1.294l-12.7,7.32Z" transform="translate(-81.395 -5.726)" fill="#8e8e8e"/>
          <path id="Trazado_2369" data-name="Trazado 2369" d="M182.8,116.238l6.62-3.825V101.447l-6.62,3.825Z" transform="translate(-89.656 1.293)" fill="#8e8e8e"/>
          <path id="Trazado_2370" data-name="Trazado 2370" d="M183.422,109.727l12.7-7.319v-1.294l-12.7,7.32Z" transform="translate(-81.395 -3.115)" fill="#8e8e8e"/>
          <path id="Trazado_2371" data-name="Trazado 2371" d="M183.422,109.924l12.7-7.32v-1.293l-12.7,7.32Z" transform="translate(-81.395 -0.503)" fill="#8e8e8e"/>
          <path id="Trazado_2372" data-name="Trazado 2372" d="M183.422,110.121l12.7-7.32v-1.293l-12.7,7.32Z" transform="translate(-81.395 2.108)" fill="#8e8e8e"/>
        </g>
      </g>
      <path id="Trazado_2373" data-name="Trazado 2373" d="M291.694,90.777,267.8,104.572l-12,6.932-49.79,28.748-31.985,7.32L258.477,98.8l1.233-.7,8.584-1.972Z" transform="translate(-174.028 -90.777)" fill="#d9af6a"/>
      <path id="Trazado_2374" data-name="Trazado 2374" d="M299.907,147.572l-31.985-7.32-23.927-13.828-24.138-13.934-37.58-21.712,31.949,7.32,8.727,5.032,27.975,16.151Z" transform="translate(-64.609 -90.777)" fill="#e8c583"/>
      <path id="Trazado_2375" data-name="Trazado 2375" d="M261.944,189.708l-85.675-49.465,85.675-49.464,85.675,49.464Z" transform="translate(-144.294 -90.769)" fill="#efd995"/>
      <path id="Trazado_2376" data-name="Trazado 2376" d="M333.51,136.307l-72.443,41.827-5.922,3.425-5.922-3.425-72.443-41.827,78.365-45.233Z" transform="translate(-137.503 -86.837)" fill="#9f5939"/>
      <path id="Trazado_2377" data-name="Trazado 2377" d="M261.264,148.054,175.589,98.59l-.775-1.7,106.428,11.7v2.855Z" transform="translate(-163.593 -9.657)" fill="#d9af6a"/>
      <path id="Trazado_2378" data-name="Trazado 2378" d="M260.488,181.473l-85.673-49.465,20.753-37.763,85.674,49.465Z" transform="translate(-163.593 -44.773)" fill="#e5bc71"/>
      <path id="Trazado_2379" data-name="Trazado 2379" d="M267.949,107.837l-69.311,39.118-16.364-30.267V106l85.662-8.7Z" transform="translate(-64.625 -4.216)" fill="#d69985" style="mix-blend-mode: multiply;isolation: isolate"/>
      <path id="Trazado_2380" data-name="Trazado 2380" d="M202.075,147.362,287.751,97.9l.951-1.006-106.428,11.7v2.855Z" transform="translate(-64.625 -9.657)" fill="#b76f3f"/>
      <path id="Trazado_2381" data-name="Trazado 2381" d="M203.028,181.473,288.7,132.008,267.949,94.245l-85.675,49.465Z" transform="translate(-64.625 -44.773)" fill="#fde697"/>
      <path id="Trazado_2382" data-name="Trazado 2382" d="M260.488,146.358,174.815,96.892l.775,1.7,85.674,49.464Z" transform="translate(-163.593 -9.657)" fill="#9c480c"/>
      <path id="Trazado_2383" data-name="Trazado 2383" d="M255.146,91.074v90.487l-78.365-45.243Z" transform="translate(-137.497 -86.845)" fill="#d19f66"/>
      <path id="Trazado_2384" data-name="Trazado 2384" d="M193.7,100.346l-5.922,3.425-5.922-3.425,5.922-3.408Z" transform="translate(-70.139 -9.049)" fill="#b76f3f"/>
      <path id="Trazado_2385" data-name="Trazado 2385" d="M287.992,94.245,223,131.79,209.629,139.5l-20.619-11.928-.107-.071-8.691-5,6.687-3.659,22.766-12.422,23.047-3.589Z" transform="translate(-91.997 -44.771)" fill="#b59fa6" style="mix-blend-mode: multiply;isolation: isolate"/>
    </g>
  </g>
</svg>
