<svg xmlns="http://www.w3.org/2000/svg" width="465.247" height="337.224" viewBox="0 0 465.247 337.224">
  <g id="Grupo_2911" data-name="Grupo 2911" transform="translate(-675 -335.776)">
    <path id="Trazado_3159" data-name="Trazado 3159" d="M3213-674l465.247-197.573V-674Z" transform="translate(-2538 1347)" fill="rgba(116,95,87,0.18)"/>
    <g id="Grupo_866" data-name="Grupo 866" transform="translate(-1006.663 -1647.181)" opacity="0.25">
      <ellipse id="Elipse_73" data-name="Elipse 73" cx="2" cy="2.051" rx="2" ry="2.051" transform="translate(1905.663 1997.181)" fill="#745f57"/>
      <ellipse id="Elipse_90" data-name="Elipse 90" cx="2" cy="2.051" rx="2" ry="2.051" transform="translate(1882.663 2009.489)" fill="#745f57"/>
      <ellipse id="Elipse_91" data-name="Elipse 91" cx="2" cy="2.051" rx="2" ry="2.051" transform="translate(1894.663 2009.489)" fill="#745f57"/>
      <ellipse id="Elipse_92" data-name="Elipse 92" cx="2" cy="2.051" rx="2" ry="2.051" transform="translate(1905.663 2009.489)" fill="#745f57"/>
      <ellipse id="Elipse_109" data-name="Elipse 109" cx="2" cy="2.051" rx="2" ry="2.051" transform="translate(1882.663 2021.796)" fill="#745f57"/>
      <ellipse id="Elipse_110" data-name="Elipse 110" cx="2" cy="2.051" rx="2" ry="2.051" transform="translate(1894.663 2021.796)" fill="#745f57"/>
      <ellipse id="Elipse_111" data-name="Elipse 111" cx="2" cy="2.051" rx="2" ry="2.051" transform="translate(1905.663 2021.796)" fill="#745f57"/>
      <ellipse id="Elipse_130" data-name="Elipse 130" cx="2" cy="2.051" rx="2" ry="2.051" transform="translate(1905.663 2033.078)" fill="#745f57"/>
      <ellipse id="Elipse_418" data-name="Elipse 418" cx="2" cy="2.051" rx="2" ry="2.051" transform="translate(1940.663 1997.181)" fill="#745f57"/>
      <ellipse id="Elipse_419" data-name="Elipse 419" cx="2" cy="2.051" rx="2" ry="2.051" transform="translate(1952.663 1997.181)" fill="#745f57"/>
      <ellipse id="Elipse_420" data-name="Elipse 420" cx="2" cy="2.051" rx="2" ry="2.051" transform="translate(1963.663 1997.181)" fill="#745f57"/>
      <ellipse id="Elipse_421" data-name="Elipse 421" cx="2.5" cy="2.051" rx="2.5" ry="2.051" transform="translate(1974.663 1997.181)" fill="#745f57"/>
      <ellipse id="Elipse_422" data-name="Elipse 422" cx="2" cy="2.051" rx="2" ry="2.051" transform="translate(1986.663 1997.181)" fill="#745f57"/>
      <ellipse id="Elipse_423" data-name="Elipse 423" cx="2" cy="2.051" rx="2" ry="2.051" transform="translate(1998.663 1997.181)" fill="#745f57"/>
      <ellipse id="Elipse_424" data-name="Elipse 424" cx="2" cy="2.051" rx="2" ry="2.051" transform="translate(2010.663 1997.181)" fill="#745f57"/>
      <ellipse id="Elipse_425" data-name="Elipse 425" cx="2" cy="2.051" rx="2" ry="2.051" transform="translate(2021.663 1997.181)" fill="#745f57"/>
      <ellipse id="Elipse_426" data-name="Elipse 426" cx="2" cy="2.051" rx="2" ry="2.051" transform="translate(2032.663 1997.181)" fill="#745f57"/>
      <ellipse id="Elipse_427" data-name="Elipse 427" cx="2" cy="2.051" rx="2" ry="2.051" transform="translate(2044.663 1997.181)" fill="#745f57"/>
      <ellipse id="Elipse_428" data-name="Elipse 428" cx="2" cy="2.051" rx="2" ry="2.051" transform="translate(2056.663 1997.181)" fill="#745f57"/>
      <ellipse id="Elipse_429" data-name="Elipse 429" cx="2" cy="2.051" rx="2" ry="2.051" transform="translate(2068.663 1997.181)" fill="#745f57"/>
      <ellipse id="Elipse_430" data-name="Elipse 430" cx="2" cy="2.051" rx="2" ry="2.051" transform="translate(2079.663 1997.181)" fill="#745f57"/>
      <ellipse id="Elipse_431" data-name="Elipse 431" cx="2" cy="2.051" rx="2" ry="2.051" transform="translate(2090.663 1997.181)" fill="#745f57"/>
      <ellipse id="Elipse_432" data-name="Elipse 432" cx="2" cy="2.051" rx="2" ry="2.051" transform="translate(2102.663 1997.181)" fill="#745f57"/>
      <ellipse id="Elipse_433" data-name="Elipse 433" cx="2" cy="2.051" rx="2" ry="2.051" transform="translate(2114.663 1997.181)" fill="#745f57"/>
      <ellipse id="Elipse_434" data-name="Elipse 434" cx="2" cy="2.051" rx="2" ry="2.051" transform="translate(2137.663 1997.181)" fill="#745f57"/>
      <ellipse id="Elipse_435" data-name="Elipse 435" cx="2.5" cy="2.051" rx="2.5" ry="2.051" transform="translate(2125.663 1997.181)" fill="#745f57"/>
      <ellipse id="Elipse_436" data-name="Elipse 436" cx="2.5" cy="2.051" rx="2.5" ry="2.051" transform="translate(1916.663 2009.489)" fill="#745f57"/>
      <ellipse id="Elipse_438" data-name="Elipse 438" cx="2" cy="2.051" rx="2" ry="2.051" transform="translate(1940.663 2009.489)" fill="#745f57"/>
      <ellipse id="Elipse_439" data-name="Elipse 439" cx="2" cy="2.051" rx="2" ry="2.051" transform="translate(1952.663 2009.489)" fill="#745f57"/>
      <ellipse id="Elipse_440" data-name="Elipse 440" cx="2" cy="2.051" rx="2" ry="2.051" transform="translate(1963.663 2009.489)" fill="#745f57"/>
      <ellipse id="Elipse_441" data-name="Elipse 441" cx="2.5" cy="2.051" rx="2.5" ry="2.051" transform="translate(1974.663 2009.489)" fill="#745f57"/>
      <ellipse id="Elipse_442" data-name="Elipse 442" cx="2" cy="2.051" rx="2" ry="2.051" transform="translate(1986.663 2009.489)" fill="#745f57"/>
      <ellipse id="Elipse_443" data-name="Elipse 443" cx="2" cy="2.051" rx="2" ry="2.051" transform="translate(1998.663 2009.489)" fill="#745f57"/>
      <ellipse id="Elipse_444" data-name="Elipse 444" cx="2" cy="2.051" rx="2" ry="2.051" transform="translate(2010.663 2009.489)" fill="#745f57"/>
      <ellipse id="Elipse_445" data-name="Elipse 445" cx="2" cy="2.051" rx="2" ry="2.051" transform="translate(2021.663 2009.489)" fill="#745f57"/>
      <ellipse id="Elipse_446" data-name="Elipse 446" cx="2" cy="2.051" rx="2" ry="2.051" transform="translate(2032.663 2009.489)" fill="#745f57"/>
      <ellipse id="Elipse_447" data-name="Elipse 447" cx="2" cy="2.051" rx="2" ry="2.051" transform="translate(2044.663 2009.489)" fill="#745f57"/>
      <ellipse id="Elipse_448" data-name="Elipse 448" cx="2" cy="2.051" rx="2" ry="2.051" transform="translate(2056.663 2009.489)" fill="#745f57"/>
      <ellipse id="Elipse_449" data-name="Elipse 449" cx="2" cy="2.051" rx="2" ry="2.051" transform="translate(2068.663 2009.489)" fill="#745f57"/>
      <ellipse id="Elipse_450" data-name="Elipse 450" cx="2" cy="2.051" rx="2" ry="2.051" transform="translate(2079.663 2009.489)" fill="#745f57"/>
      <ellipse id="Elipse_451" data-name="Elipse 451" cx="2" cy="2.051" rx="2" ry="2.051" transform="translate(2090.663 2009.489)" fill="#745f57"/>
      <ellipse id="Elipse_452" data-name="Elipse 452" cx="2" cy="2.051" rx="2" ry="2.051" transform="translate(2102.663 2009.489)" fill="#745f57"/>
      <ellipse id="Elipse_453" data-name="Elipse 453" cx="2" cy="2.051" rx="2" ry="2.051" transform="translate(2114.663 2009.489)" fill="#745f57"/>
      <ellipse id="Elipse_454" data-name="Elipse 454" cx="2" cy="2.051" rx="2" ry="2.051" transform="translate(2137.663 2009.489)" fill="#745f57"/>
      <ellipse id="Elipse_455" data-name="Elipse 455" cx="2.5" cy="2.051" rx="2.5" ry="2.051" transform="translate(2125.663 2009.489)" fill="#745f57"/>
      <ellipse id="Elipse_456" data-name="Elipse 456" cx="2.5" cy="2.051" rx="2.5" ry="2.051" transform="translate(1916.663 2021.796)" fill="#745f57"/>
      <ellipse id="Elipse_458" data-name="Elipse 458" cx="2" cy="2.051" rx="2" ry="2.051" transform="translate(1940.663 2021.796)" fill="#745f57"/>
      <ellipse id="Elipse_459" data-name="Elipse 459" cx="2" cy="2.051" rx="2" ry="2.051" transform="translate(1952.663 2021.796)" fill="#745f57"/>
      <ellipse id="Elipse_460" data-name="Elipse 460" cx="2" cy="2.051" rx="2" ry="2.051" transform="translate(1963.663 2021.796)" fill="#745f57"/>
      <ellipse id="Elipse_461" data-name="Elipse 461" cx="2.5" cy="2.051" rx="2.5" ry="2.051" transform="translate(1974.663 2021.796)" fill="#745f57"/>
      <ellipse id="Elipse_462" data-name="Elipse 462" cx="2" cy="2.051" rx="2" ry="2.051" transform="translate(1986.663 2021.796)" fill="#745f57"/>
      <ellipse id="Elipse_463" data-name="Elipse 463" cx="2" cy="2.051" rx="2" ry="2.051" transform="translate(1998.663 2021.796)" fill="#745f57"/>
      <ellipse id="Elipse_464" data-name="Elipse 464" cx="2" cy="2.051" rx="2" ry="2.051" transform="translate(2010.663 2021.796)" fill="#745f57"/>
      <ellipse id="Elipse_465" data-name="Elipse 465" cx="2" cy="2.051" rx="2" ry="2.051" transform="translate(2021.663 2021.796)" fill="#745f57"/>
      <ellipse id="Elipse_466" data-name="Elipse 466" cx="2" cy="2.051" rx="2" ry="2.051" transform="translate(2032.663 2021.796)" fill="#745f57"/>
      <ellipse id="Elipse_467" data-name="Elipse 467" cx="2" cy="2.051" rx="2" ry="2.051" transform="translate(2044.663 2021.796)" fill="#745f57"/>
      <ellipse id="Elipse_468" data-name="Elipse 468" cx="2" cy="2.051" rx="2" ry="2.051" transform="translate(2056.663 2021.796)" fill="#745f57"/>
      <ellipse id="Elipse_469" data-name="Elipse 469" cx="2" cy="2.051" rx="2" ry="2.051" transform="translate(2068.663 2021.796)" fill="#745f57"/>
      <ellipse id="Elipse_470" data-name="Elipse 470" cx="2" cy="2.051" rx="2" ry="2.051" transform="translate(2079.663 2021.796)" fill="#745f57"/>
      <ellipse id="Elipse_471" data-name="Elipse 471" cx="2" cy="2.051" rx="2" ry="2.051" transform="translate(2090.663 2021.796)" fill="#745f57"/>
      <ellipse id="Elipse_472" data-name="Elipse 472" cx="2" cy="2.051" rx="2" ry="2.051" transform="translate(2102.663 2021.796)" fill="#745f57"/>
      <ellipse id="Elipse_473" data-name="Elipse 473" cx="2" cy="2.051" rx="2" ry="2.051" transform="translate(2114.663 2021.796)" fill="#745f57"/>
      <ellipse id="Elipse_474" data-name="Elipse 474" cx="2" cy="2.051" rx="2" ry="2.051" transform="translate(2137.663 2021.796)" fill="#745f57"/>
      <ellipse id="Elipse_475" data-name="Elipse 475" cx="2.5" cy="2.051" rx="2.5" ry="2.051" transform="translate(2125.663 2021.796)" fill="#745f57"/>
      <ellipse id="Elipse_478" data-name="Elipse 478" cx="2" cy="2.051" rx="2" ry="2.051" transform="translate(1940.663 2033.078)" fill="#745f57"/>
      <ellipse id="Elipse_479" data-name="Elipse 479" cx="2" cy="2.051" rx="2" ry="2.051" transform="translate(1952.663 2033.078)" fill="#745f57"/>
      <ellipse id="Elipse_480" data-name="Elipse 480" cx="2" cy="2.051" rx="2" ry="2.051" transform="translate(1963.663 2033.078)" fill="#745f57"/>
      <ellipse id="Elipse_481" data-name="Elipse 481" cx="2.5" cy="2.051" rx="2.5" ry="2.051" transform="translate(1974.663 2033.078)" fill="#745f57"/>
      <ellipse id="Elipse_482" data-name="Elipse 482" cx="2" cy="2.051" rx="2" ry="2.051" transform="translate(1986.663 2033.078)" fill="#745f57"/>
      <ellipse id="Elipse_483" data-name="Elipse 483" cx="2" cy="2.051" rx="2" ry="2.051" transform="translate(1998.663 2033.078)" fill="#745f57"/>
      <ellipse id="Elipse_484" data-name="Elipse 484" cx="2" cy="2.051" rx="2" ry="2.051" transform="translate(2010.663 2033.078)" fill="#745f57"/>
      <ellipse id="Elipse_485" data-name="Elipse 485" cx="2" cy="2.051" rx="2" ry="2.051" transform="translate(2021.663 2033.078)" fill="#745f57"/>
      <ellipse id="Elipse_486" data-name="Elipse 486" cx="2" cy="2.051" rx="2" ry="2.051" transform="translate(2032.663 2033.078)" fill="#745f57"/>
      <ellipse id="Elipse_487" data-name="Elipse 487" cx="2" cy="2.051" rx="2" ry="2.051" transform="translate(2044.663 2033.078)" fill="#745f57"/>
      <ellipse id="Elipse_488" data-name="Elipse 488" cx="2" cy="2.051" rx="2" ry="2.051" transform="translate(2056.663 2033.078)" fill="#745f57"/>
      <ellipse id="Elipse_489" data-name="Elipse 489" cx="2" cy="2.051" rx="2" ry="2.051" transform="translate(2068.663 2033.078)" fill="#745f57"/>
      <ellipse id="Elipse_490" data-name="Elipse 490" cx="2" cy="2.051" rx="2" ry="2.051" transform="translate(2079.663 2033.078)" fill="#745f57"/>
      <ellipse id="Elipse_491" data-name="Elipse 491" cx="2" cy="2.051" rx="2" ry="2.051" transform="translate(2090.663 2033.078)" fill="#745f57"/>
      <ellipse id="Elipse_492" data-name="Elipse 492" cx="2" cy="2.051" rx="2" ry="2.051" transform="translate(2102.663 2033.078)" fill="#745f57"/>
      <ellipse id="Elipse_493" data-name="Elipse 493" cx="2" cy="2.051" rx="2" ry="2.051" transform="translate(2114.663 2033.078)" fill="#745f57"/>
      <ellipse id="Elipse_494" data-name="Elipse 494" cx="2" cy="2.051" rx="2" ry="2.051" transform="translate(2137.663 2033.078)" fill="#745f57"/>
      <ellipse id="Elipse_495" data-name="Elipse 495" cx="2.5" cy="2.051" rx="2.5" ry="2.051" transform="translate(2125.663 2033.078)" fill="#745f57"/>
    </g>
    <g id="Grupo_2632" data-name="Grupo 2632" transform="translate(530.711 103.328)">
      <path id="Trazado_3128" data-name="Trazado 3128" d="M466.888,364.344h-152a12.675,12.675,0,0,0-12.674,12.676v69.833a12.675,12.675,0,0,0,12.674,12.676h41a12.676,12.676,0,0,0,12.675-12.676V432.867a9.47,9.47,0,0,1,9.47-9.469h79.383a9.47,9.47,0,0,1,9.47,9.469v57.985a9.47,9.47,0,0,1-9.47,9.47H306.808a9.47,9.47,0,0,0-9.47,9.468v17.193a9.47,9.47,0,0,0,9.47,9.47H531.751a12.675,12.675,0,0,0,12.675-12.676V377.02a12.676,12.676,0,0,0-12.675-12.676Z" transform="translate(0 -11.22)" fill="#ad9d89"/>
      <path id="Trazado_3129" data-name="Trazado 3129" d="M357.71,517.29h-22.8a5.086,5.086,0,0,1-5.086-5.086v-4.456H362.8V512.2A5.086,5.086,0,0,1,357.71,517.29Z" transform="translate(-10.924 -59.439)" fill="#ccb18d"/>
      <rect id="Rectángulo_766" data-name="Rectángulo 766" width="8.322" height="18.43" transform="translate(331.226 457.851)" fill="#94958f"/>
      <rect id="Rectángulo_767" data-name="Rectángulo 767" width="8.322" height="4.735" transform="translate(331.226 457.851)" fill="#6f706b"/>
      <rect id="Rectángulo_768" data-name="Rectángulo 768" width="3.769" height="5.973" transform="translate(333.503 476.281)" fill="#656471"/>
      <path id="Trazado_3130" data-name="Trazado 3130" d="M534.539,631.023h-216.8a4.768,4.768,0,0,1-4.768-4.768v-2.613H539.307v2.613A4.768,4.768,0,0,1,534.539,631.023Z" transform="translate(-5.256 -98.408)" fill="#797a73"/>
      <path id="Trazado_3131" data-name="Trazado 3131" d="M615.775,333.25v19.871h-4.581V333.25a2.267,2.267,0,0,1,2.262-2.273h.047A2.268,2.268,0,0,1,615.775,333.25Z" transform="translate(-105.533 0)" fill="#94958f"/>
      <path id="Trazado_3132" data-name="Trazado 3132" d="M409.262,357.165V360.6H394.495v-3.438a3.934,3.934,0,0,1,3.94-3.939h6.887A3.934,3.934,0,0,1,409.262,357.165Z" transform="translate(-32.669 -7.481)" fill="#ccb18d"/>
      <path id="Trazado_3133" data-name="Trazado 3133" d="M379.336,435.5h0V364.344h-3.828V435.5h-8.993V364.344h-3.828v87.414h3.828V439.327h12.821Z" transform="translate(-21.973 -11.22)" fill="#e3dac6"/>
      <path id="Rectángulo_769" data-name="Rectángulo 769" d="M3.092,0H21.967a3.092,3.092,0,0,1,3.092,3.092V5.92A3.089,3.089,0,0,1,21.97,9.009H3.091A3.091,3.091,0,0,1,0,5.918V3.092A3.092,3.092,0,0,1,3.092,0Z" transform="translate(370.619 376.922)" fill="#e3dac6"/>
      <g id="Grupo_2631" data-name="Grupo 2631" transform="translate(380.089 363.956)">
        <path id="Trazado_3134" data-name="Trazado 3134" d="M428.128,393.628V383.69a3.028,3.028,0,0,0-3.028-3.028h-.062a3.028,3.028,0,0,0-3.029,3.028v9.938Z" transform="translate(-422.01 -380.662)" fill="#745f57"/>
        <path id="Trazado_3135" data-name="Trazado 3135" d="M422.01,413.769v14.478a3.028,3.028,0,0,0,3.029,3.028h.062a3.028,3.028,0,0,0,3.028-3.028V413.769Z" transform="translate(-422.01 -391.794)" fill="#745f57"/>
      </g>
      <path id="Rectángulo_770" data-name="Rectángulo 770" d="M7.317,0h41.5A7.318,7.318,0,0,1,56.14,7.318V27.842a7.317,7.317,0,0,1-7.317,7.317H7.317A7.317,7.317,0,0,1,0,27.842V7.317A7.317,7.317,0,0,1,7.317,0Z" transform="translate(412.141 368.277)" fill="#ccb18d"/>
      <path id="Trazado_3136" data-name="Trazado 3136" d="M691.543,393.977v36.131a4.754,4.754,0,0,1-4.755,4.766H669.6V389.221h17.191A4.752,4.752,0,0,1,691.543,393.977Z" transform="translate(-125.171 -19.584)" fill="#745f57"/>
      <path id="Trazado_3137" data-name="Trazado 3137" d="M691.543,423.6v18.065a4.754,4.754,0,0,1-4.755,4.766H669.6V423.6Z" transform="translate(-125.171 -31.146)" fill="#ccb18d"/>
      <path id="Trazado_3138" data-name="Trazado 3138" d="M621.777,414.109c0,.175,0,.36-.011.535a18.747,18.747,0,1,1,0-1.061C621.777,413.759,621.777,413.933,621.777,414.109Z" transform="translate(-96.488 -21.651)" fill="#745f57"/>
      <path id="Trazado_3139" data-name="Trazado 3139" d="M616.7,419.332a8.448,8.448,0,1,1-8.449-8.448A8.448,8.448,0,0,1,616.7,419.332Z" transform="translate(-101.703 -26.869)" fill="#cea774"/>
      <path id="Trazado_3140" data-name="Trazado 3140" d="M620.2,499.876a15.54,15.54,0,1,1-15.541-15.54A15.541,15.541,0,0,1,620.2,499.876Z" transform="translate(-98.11 -51.567)" fill="#745f57"/>
      <path id="Trazado_3141" data-name="Trazado 3141" d="M616.7,503.468a8.448,8.448,0,1,1-8.449-8.448A8.448,8.448,0,0,1,616.7,503.468Z" transform="translate(-101.703 -55.159)" fill="#e3dac6"/>
      <path id="Trazado_3142" data-name="Trazado 3142" d="M391.013,562.182v64.279h-44.7V588.6H329.823V562.182Z" transform="translate(-10.923 -77.742)" fill="#725f57"/>
      <path id="Trazado_3143" data-name="Trazado 3143" d="M637.878,423.338c0,.175,0,.36-.011.535h-5.688v-1.061h5.688C637.878,422.987,637.878,423.161,637.878,423.338Z" transform="translate(-112.589 -30.879)" fill="#e2e2e2"/>
      <path id="Trazado_3144" data-name="Trazado 3144" d="M630.267,441.341c-.123.124-.255.256-.388.37l-4.022-4.021.75-.75,4.023,4.023C630.514,441.094,630.39,441.218,630.267,441.341Z" transform="translate(-110.464 -35.63)" fill="#d6d6d6"/>
      <path id="Trazado_3145" data-name="Trazado 3145" d="M612.267,448.96c-.176,0-.362,0-.536-.011v-5.687h1.06v5.687C612.616,448.96,612.442,448.96,612.267,448.96Z" transform="translate(-105.714 -37.756)" fill="#d6d6d6"/>
      <path id="Trazado_3146" data-name="Trazado 3146" d="M592.382,441.349c-.123-.124-.255-.256-.37-.386l4.022-4.023.75.75-4.022,4.021C592.63,441.6,592.507,441.473,592.382,441.349Z" transform="translate(-99.083 -35.63)" fill="#d6d6d6"/>
      <path id="Trazado_3147" data-name="Trazado 3147" d="M584.294,423.349c0-.176,0-.362.011-.537h5.688v1.061h-5.688C584.294,423.7,584.294,423.524,584.294,423.349Z" transform="translate(-96.488 -30.879)" fill="#d6d6d6"/>
      <path id="Trazado_3148" data-name="Trazado 3148" d="M592.374,403.464c.124-.124.256-.256.387-.37l4.022,4.021-.75.751-4.022-4.022C592.127,403.713,592.251,403.589,592.374,403.464Z" transform="translate(-99.083 -24.249)" fill="#d6d6d6"/>
      <path id="Trazado_3149" data-name="Trazado 3149" d="M612.255,395.376c.175,0,.361,0,.536.011v5.688h-1.06v-5.688C611.906,395.376,612.08,395.376,612.255,395.376Z" transform="translate(-105.714 -21.654)" fill="#d6d6d6"/>
      <path id="Trazado_3150" data-name="Trazado 3150" d="M630.258,403.456c.124.123.256.257.372.388l-4.023,4.022-.75-.751,4.022-4.021C630.011,403.209,630.136,403.333,630.258,403.456Z" transform="translate(-110.464 -24.249)" fill="#d6d6d6"/>
      <rect id="Rectángulo_771" data-name="Rectángulo 771" width="1.36" height="64.279" transform="translate(372.902 484.44)" fill="#e3dac6"/>
      <rect id="Rectángulo_772" data-name="Rectángulo 772" width="1.36" height="64.279" transform="translate(361.247 484.44)" fill="#e3dac6"/>
      <rect id="Rectángulo_773" data-name="Rectángulo 773" width="1.36" height="64.279" transform="translate(349.592 484.44)" fill="#e3dac6"/>
      <rect id="Rectángulo_774" data-name="Rectángulo 774" width="1.36" height="64.279" transform="translate(337.937 484.44)" fill="#e3dac6"/>
      <rect id="Rectángulo_775" data-name="Rectángulo 775" width="1.363" height="26.423" transform="translate(326.278 484.44)" fill="#e3dac6"/>
      <rect id="Rectángulo_776" data-name="Rectángulo 776" width="44.697" height="1.363" transform="translate(335.393 539.208)" fill="#e3dac6"/>
      <rect id="Rectángulo_777" data-name="Rectángulo 777" width="44.697" height="1.364" transform="translate(335.393 527.553)" fill="#e3dac6"/>
      <rect id="Rectángulo_778" data-name="Rectángulo 778" width="44.697" height="1.364" transform="translate(335.393 515.898)" fill="#e3dac6"/>
      <rect id="Rectángulo_779" data-name="Rectángulo 779" width="61.189" height="1.364" transform="translate(318.9 504.243)" fill="#e3dac6"/>
      <rect id="Rectángulo_780" data-name="Rectángulo 780" width="61.189" height="1.364" transform="translate(318.9 492.587)" fill="#e3dac6"/>
      <path id="Trazado_3151" data-name="Trazado 3151" d="M616.92,333.25v19.871H614.6V330.977h.047A2.268,2.268,0,0,1,616.92,333.25Z" transform="translate(-106.679 0)" fill="#6f706b"/>
      <path id="Trazado_3152" data-name="Trazado 3152" d="M413,357.165V360.6h-7.378v-7.376h3.438A3.934,3.934,0,0,1,413,357.165Z" transform="translate(-36.412 -7.481)" fill="#745f57"/>
      <rect id="Rectángulo_781" data-name="Rectángulo 781" width="32.969" height="2.86" transform="translate(318.903 447.993)" fill="#745f57"/>
    </g>
    <g id="Grupo_2633" data-name="Grupo 2633" transform="translate(1000.546 1083.152) rotate(180)">
      <path id="Trazado_3153" data-name="Trazado 3153" d="M250.536,596.4v14.821a2.73,2.73,0,0,1-2.739,2.739H229.131a2.731,2.731,0,0,1-2.738-2.739V596.4Z" fill="#7b5a00"/>
      <rect id="Rectángulo_782" data-name="Rectángulo 782" width="7.024" height="65.19" transform="translate(234.952 613.966)" fill="#dadadd"/>
      <rect id="Rectángulo_783" data-name="Rectángulo 783" width="3.465" height="65.19" transform="translate(238.493 613.966)" fill="#6d6d6f"/>
      <path id="Trazado_3154" data-name="Trazado 3154" d="M246.366,689.033h-15.8l4.389-9.877h7.024Z" fill="#a3a3a6"/>
      <path id="Trazado_3155" data-name="Trazado 3155" d="M242.634,715.152h-8.34a3.733,3.733,0,0,1-3.732-3.732V689.033h15.8V711.42A3.732,3.732,0,0,1,242.634,715.152Z" fill="#8b8b8b"/>
      <path id="Trazado_3156" data-name="Trazado 3156" d="M238.464,504a25.08,25.08,0,0,0-25.081,25.08c0,42.943,13.01,67.325,13.01,67.325h24.143s13.01-24.382,13.01-67.325A25.081,25.081,0,0,0,238.464,504Z" fill="#b88700"/>
      <path id="Trazado_3157" data-name="Trazado 3157" d="M238.546,505.1c-.027,0-.053.006-.082.006s-.054-.006-.082-.006c-7.327,0-13.454,9.533-13.454,21.4,0,37.2,10.244,69.907,10.244,69.907h6.584S252,563.7,252,526.5C252,514.632,245.873,505.1,238.546,505.1Z" fill="#f5b400"/>
      <path id="Trazado_3158" data-name="Trazado 3158" d="M238.473,596.4v17.56h-9.342a2.731,2.731,0,0,1-2.738-2.739V596.4Z" fill="#cf9800"/>
    </g>
    <g id="Grupo_2634" data-name="Grupo 2634" transform="translate(1265.402 245.023) rotate(90)">
      <path id="Trazado_3160" data-name="Trazado 3160" d="M151.355,379.2v97.839a2.1,2.1,0,0,1-2.1,2.1H134.582a1.975,1.975,0,0,1-.744-.148,2.071,2.071,0,0,1-1.353-1.949V379.2Z" transform="translate(-16.818 -14.153)" fill="#eb984e"/>
      <path id="Trazado_3161" data-name="Trazado 3161" d="M153.927,351.094H100.889a1.4,1.4,0,0,0-1.185.657l-8.737,13.977a1.4,1.4,0,0,0,1.186,2.139h61.774a1.4,1.4,0,0,0,1.4-1.4V352.492A1.4,1.4,0,0,0,153.927,351.094Z" transform="translate(0 -2.828)" fill="#333"/>
      <path id="Trazado_3162" data-name="Trazado 3162" d="M151.355,346.174v2.1h-18.87v-2.1a2.09,2.09,0,0,1,2.1-2.1h14.676A2.1,2.1,0,0,1,151.355,346.174Z" transform="translate(-16.818)" fill="#eb984e"/>
      <path id="Trazado_3163" data-name="Trazado 3163" d="M137.549,401.786a18.669,18.669,0,0,0,.136,3.7,9.221,9.221,0,0,1,.388,3.145c-.482,2.233-4.319.7-5.588-.545V379.2h7.4a15.614,15.614,0,0,1,.933,3.365,59.007,59.007,0,0,1,.137,6.415C140.956,393.526,137.822,397.2,137.549,401.786Z" transform="translate(-16.818 -14.153)" fill="#c98242"/>
      <path id="Trazado_3164" data-name="Trazado 3164" d="M137.287,387.54a26.4,26.4,0,0,1-2.076,5.126c-1.176,1.764-1.017,3.7-2.726,4.309V379.2h4.686a4.589,4.589,0,0,1,.378,2.044C137.549,383.3,137.787,385.631,137.287,387.54Z" transform="translate(-16.818 -14.153)" fill="#a86e38"/>
      <path id="Trazado_3165" data-name="Trazado 3165" d="M157.777,379.2v29.237c-.032.042-.053.094-.084.136-.451.755-1.236,1.73-1.646,2.442-.952,1.655-1.678,6.112-3.691,6.532-2.337.482-3.2-2.4-3.565-4.163-.9-4.318-.031-10.011,1.206-13.921,1.205-3.816.513-8.355.524-12.454.01-2.159-.241-4.34-.136-6.541.021-.429.063-.86.105-1.268Z" transform="translate(-23.24 -14.153)" fill="#c98242"/>
      <path id="Trazado_3166" data-name="Trazado 3166" d="M142.266,465.762c-.866,3.094-3.057,1.9-4.434.073-1.528-2.031-3.756-3.079-5.347-5.651V434.648c.252.073,3.239,1.02,3.984,1.74,1.932,1.864,2.338,4.011,3.3,6a20.838,20.838,0,0,1,2.37,8.532c.388,3.452-.091,5.221.126,7.685C142.528,461.576,142.866,463.614,142.266,465.762Z" transform="translate(-16.818 -36.499)" fill="#c98242"/>
      <path id="Trazado_3167" data-name="Trazado 3167" d="M136.637,459.717c-2.15-.14-2.307-3.2-3.386-4.853a7.209,7.209,0,0,0-.766-.975V441.268a7.253,7.253,0,0,1,3.261,2.83,30.744,30.744,0,0,1,1.436,4.592C137.612,450.262,139.711,459.92,136.637,459.717Z" transform="translate(-16.818 -39.167)" fill="#a86e38"/>
      <path id="Trazado_3168" data-name="Trazado 3168" d="M159.575,443.884v24.635c-.671,1.657-1.395,3.313-1.982,4.947-.439,1.248-.8,2.506-2.012,3.156-1.531.818-2.359-.377-2.611-1.95-.408-2.662.693-4.875,1.415-7.243,1.457-4.8-.618-10.273.807-15.044a35.511,35.511,0,0,1,2.632-5.881A21.1,21.1,0,0,1,159.575,443.884Z" transform="translate(-25.037 -40.221)" fill="#c98242"/>
      <path id="Trazado_3169" data-name="Trazado 3169" d="M159.781,501.584v24.772a2.1,2.1,0,0,1-2.1,2.1h-4.246v-1.174c0-2.4-.242-4.918.4-7.213,1.237-4.424,2.621-8.964,3.91-13.335A33,33,0,0,1,159.781,501.584Z" transform="translate(-25.244 -63.474)" fill="#c98242"/>
      <path id="Trazado_3170" data-name="Trazado 3170" d="M161.673,520.6v13.419a2.1,2.1,0,0,1-2.1,2.1h-1.31c-.367-1.353-.053-3.313-.042-4.593C158.224,527.519,159.964,524.07,161.673,520.6Z" transform="translate(-27.136 -71.137)" fill="#a86e38"/>
      <path id="Trazado_3171" data-name="Trazado 3171" d="M142.3,514.418a24.5,24.5,0,0,1-1.017,7.738h-6.7a1.974,1.974,0,0,1-.744-.148,2.071,2.071,0,0,1-1.353-1.949v-34.1a6.691,6.691,0,0,1,1.667,1.079c1.737,1.967,2.159,3.613,3.4,5.347,1.048,1.467,2.661,3.177,3.239,3.993a10.586,10.586,0,0,1,1.866,5.61C142.921,504.814,142.264,512.37,142.3,514.418Z" transform="translate(-16.818 -57.176)" fill="#c98242"/>
      <path id="Trazado_3172" data-name="Trazado 3172" d="M138.6,515.67a19.918,19.918,0,0,1-.891,7.212,6.06,6.06,0,0,1-1.509,3.272h-1.614a1.974,1.974,0,0,1-.744-.148,2.071,2.071,0,0,1-1.353-1.949V495.877c1.93.493,3.3,3.5,3.785,4.916.886,2.6,1.945,4.8,2.327,7.276C139.034,510.908,138.423,513.19,138.6,515.67Z" transform="translate(-16.818 -61.174)" fill="#a86e38"/>
      <path id="Trazado_3173" data-name="Trazado 3173" d="M135.19,517.735c.175,2.833.393,5.017-.524,7.275a11.016,11.016,0,0,0-.786,3.2c-.051.587,0,1.228-.042,1.824a2.071,2.071,0,0,1-1.353-1.949V505.868C134.666,507.29,135,514.7,135.19,517.735Z" transform="translate(-16.818 -65.2)" fill="#c98242"/>
      <path id="Trazado_3174" data-name="Trazado 3174" d="M140.578,344.077a2.852,2.852,0,0,1-.42.629c-1.236,1.415-2.413,1.191-4.361,2.537-.384.266-.765.692-1.236,1.029h-2.076v-2.1a2.09,2.09,0,0,1,2.1-2.1Z" transform="translate(-16.818)" fill="#c98242"/>
      <path id="Trazado_3175" data-name="Trazado 3175" d="M136.552,344.077a5.208,5.208,0,0,1-1.079,1.656c-.709.721-.971.819-2.463.964-.167.017-.346.01-.525.01v-.534a2.09,2.09,0,0,1,2.1-2.1Z" transform="translate(-16.818)" fill="#a86e38"/>
      <path id="Trazado_3176" data-name="Trazado 3176" d="M148.8,349.524h-7.15a7.819,7.819,0,0,1,2.17-1.206c1.417-.563,2.964-1.7,4.309-.8C148.73,347.921,148.664,348.841,148.8,349.524Z" transform="translate(-20.512 -1.253)" fill="#c98242"/>
      <path id="Trazado_3177" data-name="Trazado 3177" d="M160.208,346.174v2.1h-4.288c-.22-.619-.345-1.354-.513-1.847-.293-.807-.671-1.572-.954-2.347h3.659A2.1,2.1,0,0,1,160.208,346.174Z" transform="translate(-25.67)" fill="#c98242"/>
      <path id="Trazado_3178" data-name="Trazado 3178" d="M161.552,346.174v.712a4.5,4.5,0,0,1-2.883-1.152,3.008,3.008,0,0,1-.881-1.656h1.667A2.1,2.1,0,0,1,161.552,346.174Z" transform="translate(-27.015)" fill="#a86e38"/>
      <path id="Trazado_3179" data-name="Trazado 3179" d="M160.237,379.2v19.068a5.529,5.529,0,0,0-.189.546c-.513,1.666-.733,3.25-1.96,4.581-.629.681-1.7,2.359-3.14,1.5-.586-.348-.393-2.924-.393-3.605a19.971,19.971,0,0,1,.136-3.271,32.412,32.412,0,0,1,.521-3.386c.655-2.419.346-4.275.263-6.541a23.154,23.154,0,0,1,.39-6.709c.168-.771.21-1.489.4-2.181Z" transform="translate(-25.7 -14.153)" fill="#a86e38"/>
    </g>
  </g>
</svg>
