<svg xmlns="http://www.w3.org/2000/svg" width="136" height="136" viewBox="0 0 136 136">
  <g id="Grupo_2626" data-name="Grupo 2626" transform="translate(-127 -1508)">
    <circle id="Elipse_503" data-name="Elipse 503" cx="68" cy="68" r="68" transform="translate(127 1508)" fill="#745f57"/>
    <circle id="Elipse_504" data-name="Elipse 504" cx="64" cy="64" r="64" transform="translate(131 1512)" fill="#e3dac6"/>
    <g id="Grupo_2610" data-name="Grupo 2610" transform="translate(-217.442 1325.945)">
      <path id="Trazado_3121" data-name="Trazado 3121" d="M405.255,235.99V224.541c-15.107,0-22.9,3.418-22.9,7.633,0,5.268,9.724,7.633,22.9,7.633s24.806-5.009,24.806-11.449c0-8.43-14.723-13.357-30.531-13.357C382.668,215,369,222.688,369,232.173s13.668,17.173,30.531,17.173h57.245v30.531H399.531C382.668,279.878,369,272.19,369,262.7V232.173" transform="translate(0)" fill="none" stroke="#745f57" stroke-miterlimit="10" stroke-width="3"/>
      <line id="Línea_159" data-name="Línea 159" y2="9.614" transform="translate(382.363 232.113)" fill="none" stroke="#745f57" stroke-miterlimit="10" stroke-width="3"/>
      <line id="Línea_160" data-name="Línea 160" y2="17.305" transform="translate(430.049 228.267)" fill="none" stroke="#745f57" stroke-miterlimit="10" stroke-width="3"/>
      <line id="Línea_161" data-name="Línea 161" y2="13.267" transform="translate(441.585 266.531)" fill="none" stroke="#745f57" stroke-miterlimit="10" stroke-width="3"/>
      <line id="Línea_162" data-name="Línea 162" y2="13.267" transform="translate(426.203 266.531)" fill="none" stroke="#745f57" stroke-miterlimit="10" stroke-width="3"/>
      <line id="Línea_163" data-name="Línea 163" y2="13.267" transform="translate(411.013 266.531)" fill="none" stroke="#745f57" stroke-miterlimit="10" stroke-width="3"/>
      <line id="Línea_164" data-name="Línea 164" y2="15.19" transform="translate(395.631 264.608)" fill="none" stroke="#745f57" stroke-miterlimit="10" stroke-width="3"/>
      <line id="Línea_165" data-name="Línea 165" y2="13.46" transform="translate(380.441 260.762)" fill="none" stroke="#745f57" stroke-miterlimit="10" stroke-width="3"/>
    </g>
  </g>
</svg>
