<svg xmlns="http://www.w3.org/2000/svg" width="136" height="136" viewBox="0 0 136 136">
  <g id="Grupo_2628" data-name="Grupo 2628" transform="translate(-127 -1899)">
    <circle id="Elipse_507" data-name="Elipse 507" cx="68" cy="68" r="68" transform="translate(127 1899)" fill="#745f57"/>
    <circle id="Elipse_508" data-name="Elipse 508" cx="64" cy="64" r="64" transform="translate(131 1903)" fill="#e3dac6"/>
    <g id="_7" data-name="7" transform="translate(-2125.583 670.94)">
      <g id="Grupo_2585" data-name="Grupo 2585" transform="translate(2317.118 1260.968)">
        <g id="Grupo_2584" data-name="Grupo 2584" transform="translate(0 0)">
          <circle id="Elipse_498" data-name="Elipse 498" cx="2.312" cy="2.312" r="2.312" transform="matrix(0.924, -0.383, 0.383, 0.924, 0, 1.769)" fill="#745f57"/>
        </g>
      </g>
      <g id="Grupo_2587" data-name="Grupo 2587" transform="translate(2321.733 1297.824)">
        <g id="Grupo_2586" data-name="Grupo 2586" transform="translate(0 0)">
          <path id="Trazado_3109" data-name="Trazado 3109" d="M2486.444,1565.335h-9.356a1.208,1.208,0,0,1,0-2.415h9.356a1.208,1.208,0,1,1,0,2.415Z" transform="translate(-2475.88 -1562.92)" fill="#745f57"/>
        </g>
      </g>
      <g id="Grupo_2589" data-name="Grupo 2589" transform="translate(2339.012 1297.824)">
        <g id="Grupo_2588" data-name="Grupo 2588" transform="translate(0 0)">
          <path id="Trazado_3110" data-name="Trazado 3110" d="M2585.328,1565.335h-8.09a1.208,1.208,0,1,1,0-2.415h8.09a1.208,1.208,0,1,1,0,2.415Z" transform="translate(-2576.03 -1562.92)" fill="#745f57"/>
        </g>
      </g>
      <g id="Grupo_2591" data-name="Grupo 2591" transform="translate(2290.382 1297.824)">
        <g id="Grupo_2590" data-name="Grupo 2590" transform="translate(0 0)">
          <path id="Trazado_3111" data-name="Trazado 3111" d="M2303.914,1565.335h-8.537a1.208,1.208,0,0,1,0-2.415h8.537a1.208,1.208,0,1,1,0,2.415Z" transform="translate(-2294.17 -1562.92)" fill="#745f57"/>
        </g>
      </g>
      <g id="Grupo_2593" data-name="Grupo 2593" transform="translate(2306.842 1297.824)">
        <g id="Grupo_2592" data-name="Grupo 2592" transform="translate(0 0)">
          <path id="Trazado_3112" data-name="Trazado 3112" d="M2400.064,1565.335h-9.286a1.208,1.208,0,1,1,0-2.415h9.286a1.208,1.208,0,0,1,0,2.415Z" transform="translate(-2389.57 -1562.92)" fill="#745f57"/>
        </g>
      </g>
      <g id="Grupo_2595" data-name="Grupo 2595" transform="translate(2322.356 1266.603)">
        <g id="Grupo_2594" data-name="Grupo 2594" transform="translate(0 0)">
          <path id="Trazado_3113" data-name="Trazado 3113" d="M2501.606,1451a1.207,1.207,0,0,1-1.142-.815l-20.909-60.8a1.208,1.208,0,0,1,.716-1.523,9.07,9.07,0,0,0,5.225-5.139,1.208,1.208,0,0,1,2.265.052L2498.5,1414l8.922,25.942a8.638,8.638,0,0,1-5.328,10.966l-.036.013-.055.019A1.213,1.213,0,0,1,2501.606,1451Zm-19.406-61.351,20.12,58.508a6.226,6.226,0,0,0,2.812-7.436l-8.922-25.942-9.852-28.655A11.506,11.506,0,0,1,2482.2,1389.651Z" transform="translate(-2479.489 -1381.96)" fill="#745f57"/>
        </g>
      </g>
      <g id="Grupo_2597" data-name="Grupo 2597" transform="translate(2343.32 1333.177)">
        <g id="Grupo_2596" data-name="Grupo 2596" transform="translate(0 0)">
          <path id="Trazado_3114" data-name="Trazado 3114" d="M2602.208,1778.845a1.208,1.208,0,0,1-1.208-1.208v-8.6a1.208,1.208,0,0,1,2.416,0v8.6A1.208,1.208,0,0,1,2602.208,1778.845Z" transform="translate(-2601 -1767.828)" fill="#745f57"/>
        </g>
      </g>
      <g id="Grupo_2599" data-name="Grupo 2599" transform="translate(2289.593 1267.177)">
        <g id="Grupo_2598" data-name="Grupo 2598" transform="translate(0)">
          <path id="Trazado_3115" data-name="Trazado 3115" d="M2295.876,1453.758a1.208,1.208,0,0,1-.382-.062l-.057-.019-.049-.017a8.648,8.648,0,0,1-5.325-10.966l8.922-25.942,10.538-30.647a1.208,1.208,0,0,1,2.236-.12,9.083,9.083,0,0,0,5.354,4.757,1.207,1.207,0,0,1,.763,1.539l-8.685,25.255-12.174,35.405A1.209,1.209,0,0,1,2295.876,1453.758Zm15.108-64.473-9.714,28.253-8.922,25.942a6.233,6.233,0,0,0,2.813,7.436l11.747-34.163,8.309-24.162A11.527,11.527,0,0,1,2310.984,1389.284Z" transform="translate(-2289.593 -1385.29)" fill="#745f57"/>
        </g>
      </g>
      <g id="Grupo_2601" data-name="Grupo 2601" transform="translate(2315.396 1242.55)">
        <g id="Grupo_2600" data-name="Grupo 2600" transform="translate(0)">
          <path id="Trazado_3116" data-name="Trazado 3116" d="M2447.05,1255.557a1.208,1.208,0,0,1-1.207-1.208v-8.021a1.364,1.364,0,0,0-1.363-1.363h-1.55a1.365,1.365,0,0,0-1.365,1.363v8.021a1.208,1.208,0,0,1-2.416,0v-8.021a3.784,3.784,0,0,1,3.78-3.778h1.55a3.783,3.783,0,0,1,3.779,3.778v8.021A1.208,1.208,0,0,1,2447.05,1255.557Z" transform="translate(-2439.15 -1242.55)" fill="#745f57"/>
        </g>
      </g>
      <g id="Grupo_2603" data-name="Grupo 2603" transform="translate(2315.527 1272.427)">
        <g id="Grupo_2602" data-name="Grupo 2602" transform="translate(0 0)">
          <path id="Trazado_3117" data-name="Trazado 3117" d="M2444.333,1418.79a11.465,11.465,0,0,1-3.594-.575,1.208,1.208,0,1,1,.756-2.294,9.092,9.092,0,0,0,6.024-.124,1.208,1.208,0,0,1,.854,2.259A11.39,11.39,0,0,1,2444.333,1418.79Z" transform="translate(-2439.908 -1415.718)" fill="#745f57"/>
        </g>
      </g>
      <g id="Grupo_2605" data-name="Grupo 2605" transform="translate(2308.493 1252.583)">
        <g id="Grupo_2604" data-name="Grupo 2604" transform="translate(0)">
          <path id="Trazado_3118" data-name="Trazado 3118" d="M2401.313,1317.71a1.208,1.208,0,0,1-1.094-.694,11.336,11.336,0,0,1-1.079-4.858,11.457,11.457,0,1,1,22.115,4.214,1.208,1.208,0,1,1-2.246-.887,9.043,9.043,0,1,0-16.6.5,1.208,1.208,0,0,1-1.092,1.722Z" transform="translate(-2399.14 -1300.7)" fill="#745f57"/>
        </g>
      </g>
      <g id="Grupo_2607" data-name="Grupo 2607" transform="translate(2294.612 1333.177)">
        <g id="Grupo_2606" data-name="Grupo 2606" transform="translate(0 0)">
          <path id="Trazado_3119" data-name="Trazado 3119" d="M2319.89,1778.845a1.208,1.208,0,0,1-1.208-1.208v-8.6a1.208,1.208,0,0,1,2.416,0v8.6A1.208,1.208,0,0,1,2319.89,1778.845Z" transform="translate(-2318.682 -1767.828)" fill="#745f57"/>
        </g>
      </g>
      <g id="Grupo_2609" data-name="Grupo 2609" transform="translate(2316.128 1289.946)">
        <g id="Grupo_2608" data-name="Grupo 2608" transform="translate(0)">
          <path id="Trazado_3120" data-name="Trazado 3120" d="M2447.4,1535.429a4.015,4.015,0,0,1-4.01-4.01v-10.148a4.01,4.01,0,1,1,8.021,0v10.148A4.015,4.015,0,0,1,2447.4,1535.429Zm0-15.754a1.6,1.6,0,0,0-1.595,1.6v10.148a1.6,1.6,0,1,0,3.19,0v-10.148A1.6,1.6,0,0,0,2447.4,1519.675Z" transform="translate(-2443.393 -1517.26)" fill="#745f57"/>
        </g>
      </g>
    </g>
  </g>
</svg>
