<svg xmlns="http://www.w3.org/2000/svg" width="275.5" height="590.718" viewBox="0 0 275.5 590.718">
  <g id="Grupo_2908" data-name="Grupo 2908" transform="translate(-771.902 -1415)">
    <g id="Grupo_2907" data-name="Grupo 2907" transform="translate(840.861 1731.18)">
      <path id="Trazado_3814" data-name="Trazado 3814" d="M524.086,227.269l-1.812-14.556,16.469,3.829,2.351,19.334s-6.605,3.763-12.935,2.227S524.086,227.269,524.086,227.269Z" transform="translate(-480.624 13.789)" fill="#d8e2ea"/>
      <g id="Grupo_2905" data-name="Grupo 2905" transform="translate(0 238.443)">
        <path id="Trazado_3183" data-name="Trazado 3183" d="M574.825,242.581a3.756,3.756,0,0,1-.025,1.409c-.333,1.18-1.65,1.624-2.779,1.888-1.945.451-57.091,3.48-60.225.47a8.379,8.379,0,0,1-2.608-4.987,5.715,5.715,0,0,1,1.954-5.14c1.957-1.478,4.632-1.012,6.97-1.589,1.282-.317,27.161-15.3,33.925-14.952,2.065.1,4.841,3.623,6.84,4.175s5.1,1.234,6.212-.622c.955-1.612,1.037-3.614,2.332-4.927,1.368-1.383,2.811-1.412,3.982.171s1.428,3.7,1.644,5.695C573.616,229.485,574.254,237.267,574.825,242.581Z" transform="translate(-509.146 -214.738)" fill="#977c72"/>
        <path id="Trazado_3184" data-name="Trazado 3184" d="M509.542,226.592l64.544-1.041a57.455,57.455,0,0,1,.8,5.695l-53.6,1.612S511.5,231.487,509.542,226.592Z" transform="translate(-508.286 -196.763)" fill="#d8e2ea"/>
        <path id="Trazado_3185" data-name="Trazado 3185" d="M531.342,224.06s4.689-7.227,6.513-7.583c0,0,6.361,3.338,7.586,5.882,0,0,2.116,4.518-25.454,16.9l-.552.247s-6.564-.99-5.463-6.888Z" transform="translate(-498.932 -216.477)" fill="#977c72"/>
        <path id="Trazado_3186" data-name="Trazado 3186" d="M525.044,226.559a.571.571,0,0,0,.235-.06.638.638,0,0,0,.27-.825c-2.363-5.247-5.238-6.812-5.359-6.878a.563.563,0,0,0-.774.279.645.645,0,0,0,.264.828c.025.013,2.656,1.479,4.825,6.3A.576.576,0,0,0,525.044,226.559Z" transform="translate(-486.961 -211.581)" fill="#eaeaea"/>
        <path id="Trazado_3187" data-name="Trazado 3187" d="M523.6,227.374a.586.586,0,0,0,.238-.06.638.638,0,0,0,.27-.825c-2.364-5.247-5.238-6.812-5.358-6.878a.563.563,0,0,0-.774.279.641.641,0,0,0,.26.828c.025.016,2.656,1.479,4.829,6.3A.575.575,0,0,0,523.6,227.374Z" transform="translate(-490.089 -209.807)" fill="#eaeaea"/>
        <path id="Trazado_3188" data-name="Trazado 3188" d="M522.165,228.189a.512.512,0,0,0,.235-.057.643.643,0,0,0,.273-.828c-2.363-5.247-5.238-6.811-5.362-6.875a.557.557,0,0,0-.771.276.643.643,0,0,0,.26.831c.026.013,2.656,1.475,4.826,6.3A.58.58,0,0,0,522.165,228.189Z" transform="translate(-493.215 -208.033)" fill="#eaeaea"/>
      </g>
      <path id="Trazado_3815" data-name="Trazado 3815" d="M546.288,227.269l-1.808-14.556,16.466,3.829,2.351,19.334s-6.605,3.763-12.935,2.227S546.288,227.269,546.288,227.269Z" transform="translate(-432.379 13.789)" fill="#d8e2ea"/>
      <g id="Grupo_2906" data-name="Grupo 2906" transform="translate(70.448 238.443)">
        <path id="Trazado_3190" data-name="Trazado 3190" d="M597.033,242.581A3.751,3.751,0,0,1,597,243.99c-.333,1.18-1.65,1.624-2.779,1.888-1.945.451-57.091,3.48-60.226.47a8.378,8.378,0,0,1-2.608-4.987,5.716,5.716,0,0,1,1.954-5.14c1.957-1.478,4.632-1.012,6.97-1.589,1.281-.317,27.16-15.3,33.928-14.952,2.062.1,4.838,3.623,6.837,4.175s5.1,1.234,6.212-.622c.958-1.612,1.037-3.614,2.332-4.927,1.367-1.383,2.811-1.412,3.982.171s1.427,3.7,1.643,5.695C595.821,229.485,596.459,237.267,597.033,242.581Z" transform="translate(-531.351 -214.738)" fill="#977c72"/>
        <path id="Trazado_3191" data-name="Trazado 3191" d="M531.747,226.592l64.547-1.041s.989,5.692.8,5.695l-53.6,1.612S533.708,231.487,531.747,226.592Z" transform="translate(-530.491 -196.763)" fill="#d8e2ea"/>
        <path id="Trazado_3192" data-name="Trazado 3192" d="M553.55,224.06s4.686-7.227,6.51-7.583c0,0,6.361,3.338,7.586,5.882,0,0,2.116,4.518-25.454,16.9l-.552.247s-6.564-.99-5.463-6.888Z" transform="translate(-521.137 -216.477)" fill="#977c72"/>
        <path id="Trazado_3193" data-name="Trazado 3193" d="M547.249,226.559a.572.572,0,0,0,.235-.06.635.635,0,0,0,.27-.825c-2.36-5.247-5.238-6.812-5.358-6.878a.563.563,0,0,0-.774.279.644.644,0,0,0,.264.828c.025.013,2.655,1.479,4.825,6.3A.579.579,0,0,0,547.249,226.559Z" transform="translate(-509.166 -211.581)" fill="#eaeaea"/>
        <path id="Trazado_3194" data-name="Trazado 3194" d="M545.807,227.374a.585.585,0,0,0,.238-.06.638.638,0,0,0,.27-.825c-2.364-5.247-5.238-6.812-5.359-6.878a.563.563,0,0,0-.774.279.645.645,0,0,0,.26.828c.026.016,2.656,1.479,4.829,6.3A.574.574,0,0,0,545.807,227.374Z" transform="translate(-512.292 -209.807)" fill="#eaeaea"/>
        <path id="Trazado_3195" data-name="Trazado 3195" d="M544.37,228.189a.536.536,0,0,0,.238-.057.645.645,0,0,0,.27-.828c-2.364-5.247-5.238-6.811-5.359-6.875a.559.559,0,0,0-.774.276.643.643,0,0,0,.26.831c.026.013,2.656,1.475,4.829,6.3A.573.573,0,0,0,544.37,228.189Z" transform="translate(-515.42 -208.033)" fill="#eaeaea"/>
      </g>
      <path id="Trazado_3816" data-name="Trazado 3816" d="M528.257,141.32S500.97,282.333,530.611,375.3h25.3s-21.012-45.67-15.19-132.9l6.3-54.372s8.785-9.575,27.31,4.312c0,0,.333,82.307,26.732,182.964h27s-27.694-93.519-28.585-232.453Z" transform="translate(-492.522 -141.32)" fill="#596a8e"/>
    </g>
    <g id="Grupo_2901" data-name="Grupo 2901" transform="translate(771.902 1415)">
      <path id="Trazado_3753" data-name="Trazado 3753" d="M193.636,101.09c3.667,5.613,8.274,11.572,10.713,16.583-1.416,2.809-7.78,3.246-9.814,5.453-4.1-2.307-9.806-4.361-12.234-4.638-8.177-.931-24.463-12.242-24.463-12.242l6.171-1.46,3.386-7.118,2.456-3.527-12.081-11.8s-4.229-3.74-2.123-5.445,4.7,1.184,4.7,1.184l22.594,19.143s-5.457-7.367-5.73-11.768,4.827-3.663,5.673-.136C183.389,87.388,188.453,93.158,193.636,101.09Z" transform="translate(-140.148 88.937)" fill="#d6a48a"/>
      <path id="Trazado_3754" data-name="Trazado 3754" d="M215.915,100.892c-3.667,5.613-8.273,11.572-10.713,16.583,1.416,2.809,7.78,3.242,9.818,5.453,4.093-2.307,9.8-4.361,12.23-4.638,8.177-.931,24.463-12.242,24.463-12.242l-6.171-1.464-3.386-7.114L239.7,93.938l12.081-11.8s4.229-3.74,2.127-5.449-4.7,1.184-4.7,1.184L226.612,97.016s5.453-7.363,5.726-11.764-4.823-3.663-5.673-.14C226.166,87.186,221.1,92.959,215.915,100.892Z" transform="translate(10.899 88.333)" fill="#d6a48a"/>
      <path id="Trazado_3755" data-name="Trazado 3755" d="M214.384,81.613a15.052,15.052,0,0,1-4.073,14.966,9.34,9.34,0,0,0,4.073-14.966Z" transform="translate(26.289 104.787)" fill="#1a1a1a" opacity="0.49"/>
      <path id="Trazado_3757" data-name="Trazado 3757" d="M271.879,70.75H173.792V252.263l101.612.315Z" transform="translate(-83.719 72.064)" fill="#f4564b"/>
      <path id="Trazado_3758" data-name="Trazado 3758" d="M189.353,71.318l5.834,223.524s25.691-6.853,37.11-1.143l-6.4-223.235Z" transform="translate(-36.844 71.199)" fill="#d8e2ea"/>
      <rect id="Rectángulo_1026" data-name="Rectángulo 1026" width="16.994" height="36.301" transform="translate(126.168 108.032)" fill="#d1a48b"/>
      <path id="Trazado_3759" data-name="Trazado 3759" d="M181.842,70.717l27.6.237s-.706,8.49-10.143,9.2S182.316,75.672,181.842,70.717Z" transform="translate(-59.469 71.965)" fill="#d1a48b"/>
      <path id="Trazado_3760" data-name="Trazado 3760" d="M210.438,71.913l-.979,223.36s-25.691-6.853-37.11-1.143L175.2,70.32Z" transform="translate(-88.066 70.769)" fill="#d8e2ea"/>
      <path id="Trazado_3761" data-name="Trazado 3761" d="M193.293,71.483l-13.825-1.021,8.85,35.4-10.277-.285,15.13,76.791Z" transform="translate(-70.92 71.198)" fill="#e3f2fc"/>
      <path id="Trazado_3762" data-name="Trazado 3762" d="M189.214,71.033l14.975-.57-8.936,34.777,10.263-.6-12.74,77.224Z" transform="translate(-37.262 71.198)" fill="#e3f2fc"/>
      <path id="Trazado_3763" data-name="Trazado 3763" d="M264.639,50.085a12.967,12.967,0,0,0,7.278,1.176,22.334,22.334,0,0,1-8.7,8.743,4.361,4.361,0,0,0,4.265,2.046c-3.41,6.388-9.14,12.029-16.286,13.217-4.4.73-8.875-.269-13.265-1.051a139.221,139.221,0,0,0-19.986-2.1c-5.934-.193-12.591.293-16.607,4.67A18.731,18.731,0,0,0,197.75,83.5c-5.922,17.237-3.234,36.44-8.6,53.858a131.171,131.171,0,0,1-11.086-47.707,19.01,19.01,0,0,0-1.1,9.064,144.348,144.348,0,0,1-.092-36.48c.4-3.2.935-6.472,2.556-9.256s4.566-5.015,7.788-4.911c-.329-3.342,1.7-6.588,4.442-8.526s6.1-2.781,9.409-3.35a72.446,72.446,0,0,1,34.518,2.484c3.744,1.216,7.395,2.744,11.223,3.671a74.706,74.706,0,0,0,11.692,1.557l13.173,1.047A55.736,55.736,0,0,1,264.639,50.085Z" transform="translate(-77.808 -35.156)" fill="#443c37"/>
      <path id="Trazado_3764" data-name="Trazado 3764" d="M188.706,117s-1.228,19.171,9.525,23.689,31.288,11.684,43.807,9.577,11.1-11.186,11.1-11.186l.381-31.4s5.248-22.381,5.052-33.363-1.789-19.452-7.852-27.545c-4.394-5.866-35.369-13.157-49.071-6.945s-14.244,22.935-14.469,27.962S189.135,106,189.135,106s-9.626-11.6-14.224,3.394C171,122.158,188.706,117,188.706,117Z" transform="translate(-82.046 -28.239)" fill="#e6b89c"/>
      <path id="Trazado_3765" data-name="Trazado 3765" d="M192.579,53.762a4.394,4.394,0,1,0-4.317,4.474A4.4,4.4,0,0,0,192.579,53.762Z" transform="translate(-53.599 7.894)" fill="#1a1a1a"/>
      <path id="Trazado_3766" data-name="Trazado 3766" d="M193.938,75.728a9.121,9.121,0,0,1-6.051-2.01.471.471,0,0,1-.064-.662.476.476,0,0,1,.666-.06,8.824,8.824,0,0,0,8.988,1.027c1.693-.774,2.72-1.99,2.748-3.254.08-3.467-5.9-4.422-5.966-4.434a.464.464,0,0,1-.357-.273.483.483,0,0,1,.032-.449c6.556-10.147,2.026-14.782,1.83-14.974a.472.472,0,0,1,.658-.678c.213.209,5.124,5.14-1.324,15.58,1.749.393,6.151,1.733,6.071,5.248-.036,1.637-1.272,3.166-3.3,4.089A9.989,9.989,0,0,1,193.938,75.728Z" transform="translate(-41.774 9.044)" fill="#1a1a1a" opacity="0.49"/>
      <path id="Trazado_3767" data-name="Trazado 3767" d="M184.718,51.991s9.3,2.877,16.322-.935c0,0,1.071-2.769-.774-4.69s-9.184,1.773-15.415,2.078C180.067,48.673,184.718,51.991,184.718,51.991Z" transform="translate(-56.916 -3.054)" fill="#443c37"/>
      <path id="Trazado_3768" data-name="Trazado 3768" d="M203.747,53.458s-10.123-1.059-11.712-2.119-1.18-3.707.409-4.59c0,0,9.77,2.411,10.95,3.94A2.4,2.4,0,0,1,203.747,53.458Z" transform="translate(-31.797 -0.236)" fill="#443c37"/>
      <path id="Trazado_3770" data-name="Trazado 3770" d="M191.556,51.872a6.072,6.072,0,0,1-3.78,2.476,3.492,3.492,0,0,1-3.768-2.018,5.113,5.113,0,0,0,3.8.851A12.43,12.43,0,0,0,191.556,51.872Z" transform="translate(-52.942 15.197)" fill="#1a1a1a" opacity="0.49"/>
      <path id="Trazado_3771" data-name="Trazado 3771" d="M191.259,52.394c1.312,1.882,4.016,2.323,6.215,1.669a4.256,4.256,0,0,1-4.586.991A3.651,3.651,0,0,1,191.259,52.394Z" transform="translate(-31.102 16.769)" fill="#1a1a1a" opacity="0.49"/>
      <path id="Trazado_3772" data-name="Trazado 3772" d="M175.471,58.079a3.438,3.438,0,0,1,2.7-3.246,4.911,4.911,0,0,1,5.076,1.693,4.673,4.673,0,0,1,.169,5.308c-.048-1.613-.261-3.515-1.661-4.321a4.319,4.319,0,0,0-1.364-.441,4.979,4.979,0,0,0-3.166.189C176.638,57.562,176.121,58.075,175.471,58.079Z" transform="translate(-78.681 23.634)" fill="#1a1a1a" opacity="0.49"/>
      <path id="Trazado_3773" data-name="Trazado 3773" d="M190.153,54.43a3.785,3.785,0,0,1,2.616.012,1.383,1.383,0,0,1,.883.75,1.074,1.074,0,0,1-.381,1.131,2.137,2.137,0,0,1-1.184.409,4.254,4.254,0,0,1-1.958-.3,1.663,1.663,0,0,1-.73-.514.754.754,0,0,1-.056-.847c.273-.389.911-.329,1.212-.694l.409.341" transform="translate(-37.194 22.217)" fill="#fff" opacity="0.43"/>
      <path id="Trazado_3774" data-name="Trazado 3774" d="M187.28,51.05a1.294,1.294,0,1,0-1.268,1.316A1.295,1.295,0,0,0,187.28,51.05Z" transform="translate(-50.884 8.889)" fill="#fff" opacity="0.43"/>
      <g id="Grupo_2897" data-name="Grupo 2897" transform="translate(123.533 82.758)">
        <path id="Trazado_3775" data-name="Trazado 3775" d="M182.72,60.375a.974.974,0,0,1-.108,0,.543.543,0,0,1-.478-.6c.221-1.946.883-3.2,1.978-3.727a3.935,3.935,0,0,1,3.463.409.539.539,0,0,1-.578.911,2.9,2.9,0,0,0-2.419-.345c-.919.441-1.252,1.81-1.372,2.873A.538.538,0,0,1,182.72,60.375Z" transform="translate(-182.131 -55.782)" fill="#1a1a1a" opacity="0.49"/>
        <g id="Grupo_2896" data-name="Grupo 2896" transform="translate(4.536 4.015)">
          <path id="Trazado_3776" data-name="Trazado 3776" d="M183.263,56.783s19.311,12.406,36.544,3.92c0,0-6.163,13-3.9,16.483C215.907,77.186,183.086,82.61,183.263,56.783Z" transform="translate(-183.262 -56.783)" fill="#333"/>
          <path id="Trazado_3777" data-name="Trazado 3777" d="M212.025,70.987s-2.837-5.8-3.178-5.661c0,0-17.137-2.472-21.4-6.508a30.945,30.945,0,0,0-3.479,2.58S188.674,72.905,212.025,70.987Z" transform="translate(-181.125 -50.653)" fill="#e6e6e6"/>
          <path id="Trazado_3778" data-name="Trazado 3778" d="M213.43,62.153s-2.411,8.723-2.849,8.542c0,0-22,.867-27.035-13.61C183.546,57.085,198.969,66.45,213.43,62.153Z" transform="translate(-182.406 -55.873)" fill="#fff"/>
        </g>
      </g>
      <path id="Trazado_3779" data-name="Trazado 3779" d="M199.98,54.353a4.394,4.394,0,1,0-4.313,4.47A4.4,4.4,0,0,0,199.98,54.353Z" transform="translate(-31.304 9.663)" fill="#1a1a1a"/>
      <path id="Trazado_3780" data-name="Trazado 3780" d="M194.685,51.637a1.3,1.3,0,1,0-1.272,1.316A1.3,1.3,0,0,0,194.685,51.637Z" transform="translate(-28.59 10.657)" fill="#fff" opacity="0.43"/>
      <path id="Trazado_3781" data-name="Trazado 3781" d="M254.027,63.5a41.351,41.351,0,0,0-2.953-15.736c-1.023-2.556-2.383-5.1-4.614-6.725a15.822,15.822,0,0,0-5.87-2.3c-9.385-2.119-19.107-2.078-28.728-2.022-5.585.032-11.239.068-16.643,1.493a17.819,17.819,0,0,0-6.616,3.057,24.232,24.232,0,0,0-4.686,5.6l-6.083,8.972c-.786,1.156-1.605,2.576-1.079,3.876a1.016,1.016,0,0,1,1.388.494q.879,14.162,1.757,28.319c.473,7.607.983,15.371,3.9,22.413q6.043-25.675,10.276-51.727a80.055,80.055,0,0,1-1.087,16.15q3.5-9.991,6.271-20.214,15.877,3.142,31.617,6.941c-4.522-1-9.581-2.5-11.652-6.64Q236.623,59.47,254.027,63.5Z" transform="translate(-75.301 -30.516)" fill="#443c37"/>
      <g id="Grupo_2900" data-name="Grupo 2900" transform="translate(0 121.244)">
        <path id="Trazado_3783" data-name="Trazado 3783" d="M354.472,287.056l42.054,7.716s-10.131-46.864,5.994-71.685S426.843,196.8,426.843,196.8l-.405-34.2s-8.225-1.272-24.933-25.707-7.684-71.52-7.684-71.52l-41.861,8.707c-69.149,92.95-104.787,10.356-104.787,10.356l-34.755-7.8c.758,64.3-61.076,81-61.076,81l.225,19.151.144,12.314.225,19.155s62.212,15.231,62.97,79.537l34.562-8.619S283.153,195.759,354.472,287.056Z" transform="translate(-151.343 -65.374)" fill="#866f66"/>
        <g id="Grupo_2898" data-name="Grupo 2898" transform="translate(159.655 108.276)">
          <path id="Trazado_3784" data-name="Trazado 3784" d="M208.036,107.753a1.093,1.093,0,0,1,.293-.762,2.935,2.935,0,0,0,2.624-.935,1.084,1.084,0,0,1,.979,1.212q-.108,1.053-.2,2.167l-.241,2.921L209.745,110a11.867,11.867,0,0,0-1.36-1.452A1.1,1.1,0,0,1,208.036,107.753Z" transform="translate(-140.219 -51.122)" fill="#fff"/>
          <path id="Trazado_3785" data-name="Trazado 3785" d="M199.251,113.717a1.093,1.093,0,0,1,.425-.883,36.83,36.83,0,0,1,4.085-2.769,1.1,1.1,0,1,1,1.115,1.9,35.351,35.351,0,0,0-3.848,2.608,1.1,1.1,0,0,1-1.545-.189A1.128,1.128,0,0,1,199.251,113.717Zm8.241-4.843a1.094,1.094,0,0,1,.67-1.027,39.3,39.3,0,0,1,4.642-1.641,1.1,1.1,0,0,1,1.36.754,1.111,1.111,0,0,1-.754,1.364,37.1,37.1,0,0,0-4.386,1.549,1.1,1.1,0,0,1-1.444-.582A1.013,1.013,0,0,1,207.492,108.874Zm9.192-2.624a1.1,1.1,0,0,1,.943-1.1,26.7,26.7,0,0,1,3.535-.281c.493-.008.979,0,1.452.024a1.074,1.074,0,0,1,1.047,1.152,1.1,1.1,0,0,1-1.152,1.047c-.429-.02-.871-.028-1.32-.02a25.06,25.06,0,0,0-3.246.257,1.1,1.1,0,0,1-1.252-.935C216.689,106.346,216.685,106.3,216.685,106.25Zm9.5.494a1.16,1.16,0,0,1,.04-.3,1.1,1.1,0,0,1,1.352-.77,21.423,21.423,0,0,1,4.674,1.882,1.1,1.1,0,1,1-1.059,1.934A19.362,19.362,0,0,0,227,107.791,1.107,1.107,0,0,1,226.186,106.744Z" transform="translate(-166.683 -54.683)" fill="#fff"/>
          <path id="Trazado_3786" data-name="Trazado 3786" d="M197.747,108.646a1.1,1.1,0,0,1,2.074-.538c.092.177.181.341.261.493.128-.14.261-.285.413-.441a1.1,1.1,0,0,1,1.6,1.517,18.5,18.5,0,0,0-1.344,1.553l-1.083,1.485-.8-1.653c-.008-.016-.353-.73-.987-1.91A1.093,1.093,0,0,1,197.747,108.646Z" transform="translate(-171.213 -46.662)" fill="#fff"/>
          <path id="Trazado_3787" data-name="Trazado 3787" d="M193.426,103.458a1.082,1.082,0,0,1,.156-.578,1.1,1.1,0,0,1,1.513-.377,28.437,28.437,0,0,1,3.828,2.8,1.1,1.1,0,0,1-1.436,1.673,26.471,26.471,0,0,0-3.527-2.584A1.09,1.09,0,0,1,193.426,103.458Zm6.949,5.862a1.1,1.1,0,0,1,1.91-.762c1,1.087,2.018,2.279,3.013,3.547a1.1,1.1,0,0,1-1.733,1.36c-.959-1.22-1.934-2.367-2.9-3.406A1.109,1.109,0,0,1,200.376,109.32Zm5.649,7.158a1.1,1.1,0,0,1,2.01-.638c.935,1.364,1.773,2.68,2.508,3.884a1.1,1.1,0,0,1-1.886,1.144c-.71-1.172-1.529-2.452-2.439-3.78A1.1,1.1,0,0,1,206.025,116.478Z" transform="translate(-184.23 -62.278)" fill="#fff"/>
          <path id="Trazado_3788" data-name="Trazado 3788" d="M191.739,102.344a1.1,1.1,0,0,1,2.183-.233l.289,1.4a15.443,15.443,0,0,1,1.537.361,1.1,1.1,0,0,1-.614,2.115,11.808,11.808,0,0,0-1.974-.4l-.79-.092-.606-2.937A1.332,1.332,0,0,1,191.739,102.344Z" transform="translate(-189.312 -65.63)" fill="#fff"/>
          <path id="Trazado_3789" data-name="Trazado 3789" d="M191.424,100.806a1.1,1.1,0,0,1,2.183-.233l.63,3.094a1.1,1.1,0,1,1-2.159.437l-.63-3.09A.954.954,0,0,1,191.424,100.806Z" transform="translate(-190.26 -70.275)" fill="#fff"/>
          <path id="Trazado_3790" data-name="Trazado 3790" d="M191.134,99.866l.381-.413a5.627,5.627,0,0,1,2.447-1.256,1.1,1.1,0,0,1,.662,2.1,7.585,7.585,0,0,0-1.067.413l.289,1.424a1.1,1.1,0,0,1-2.159.441Z" transform="translate(-191.134 -74.932)" fill="#fff"/>
          <path id="Trazado_3791" data-name="Trazado 3791" d="M192.659,110.164a1.1,1.1,0,0,1,.975-1.107c1.276-.148,2.7-.245,4.237-.285A1.1,1.1,0,0,1,199,109.839a1.118,1.118,0,0,1-1.071,1.132c-1.472.044-2.833.132-4.044.277a1.1,1.1,0,0,1-1.22-.971Zm8.29-.273v-.044a1.1,1.1,0,0,1,1.131-1.071c1.284.032,2.676.1,4.189.2a1.055,1.055,0,0,1,1.027,1.172,1.1,1.1,0,0,1-1.172,1.027c-1.481-.1-2.845-.16-4.1-.193A1.1,1.1,0,0,1,200.949,109.891Zm8.285.526c0-.036,0-.076.008-.116a1.1,1.1,0,0,1,1.2-.991c1.308.124,2.692.269,4.153.441a1.1,1.1,0,0,1-.257,2.191c-1.445-.173-2.813-.317-4.1-.441A1.1,1.1,0,0,1,209.234,110.417Zm8.245.971a1.166,1.166,0,0,1,.012-.165,1.1,1.1,0,0,1,1.24-.939c1.324.181,2.7.381,4.129.606a1.1,1.1,0,1,1-.337,2.175c-1.42-.221-2.785-.417-4.093-.6A1.106,1.106,0,0,1,217.479,111.388Zm8.2,1.268a1.63,1.63,0,0,1,.016-.2,1.1,1.1,0,0,1,1.272-.9q1.462.247,3,.522c.345.06.678.1,1,.128a1.1,1.1,0,0,1-.173,2.2c-.393-.032-.8-.084-1.22-.161q-1.523-.271-2.977-.518A1.1,1.1,0,0,1,225.681,112.656Zm8.169.112a1.1,1.1,0,0,1,.71-1.039,8.81,8.81,0,0,0,3.045-2.03,1.1,1.1,0,0,1,1.553,1.561,10.949,10.949,0,0,1-3.812,2.528,1.1,1.1,0,0,1-1.42-.638A1.149,1.149,0,0,1,233.85,112.768Zm5.91-5.593a1.083,1.083,0,0,1,.144-.558,24.514,24.514,0,0,0,1.661-3.6,1.1,1.1,0,1,1,2.066.766,26.353,26.353,0,0,1-1.818,3.932,1.1,1.1,0,0,1-2.054-.538Zm2.965-7.732a1.155,1.155,0,0,1,.036-.285c.325-1.272.606-2.612.835-3.98a1.107,1.107,0,0,1,1.272-.9,1.123,1.123,0,0,1,.9,1.272c-.241,1.428-.538,2.825-.875,4.153a1.1,1.1,0,0,1-2.171-.257Z" transform="translate(-186.54 -86.635)" fill="#fff"/>
          <path id="Trazado_3792" data-name="Trazado 3792" d="M205.49,96.708c0-.04,0-.08,0-.12.132-1.3.161-2.111.164-2.127l.02-.534.429-.313a8.934,8.934,0,0,1,2.259-1.119,1.1,1.1,0,1,1,.714,2.082,7.479,7.479,0,0,0-1.256.558c-.024.389-.068.959-.136,1.669a1.1,1.1,0,0,1-2.2-.1Z" transform="translate(-147.889 -92.137)" fill="#fff"/>
          <path id="Trazado_3793" data-name="Trazado 3793" d="M207.072,93.476a1.024,1.024,0,0,1,.02-.245,1.1,1.1,0,0,1,1.308-.847,9.451,9.451,0,0,1,4.245,2.183,1.1,1.1,0,0,1-1.436,1.669,7.311,7.311,0,0,0-3.266-1.7A1.1,1.1,0,0,1,207.072,93.476Zm6.151,50.616a1.025,1.025,0,0,1,.016-.189c.241-1.513.514-2.925.8-4.257a1.1,1.1,0,1,1,2.155.469c-.285,1.3-.546,2.668-.786,4.137a1.1,1.1,0,0,1-2.187-.16Zm.325-45.408a1.1,1.1,0,0,1,2.034-.6,27.228,27.228,0,0,1,2.026,3.964,1.1,1.1,0,1,1-2.03.851,25.17,25.17,0,0,0-1.858-3.639A1.113,1.113,0,0,1,213.548,98.684Zm1.481,37.062a1.288,1.288,0,0,1,.036-.3c.4-1.46.8-2.829,1.188-4.137a1.1,1.1,0,0,1,2.111.63c-.385,1.292-.782,2.636-1.168,4.081a1.1,1.1,0,0,1-2.167-.273Zm1.89-29.234a1.1,1.1,0,0,1,2.159-.333c.433,1.448.807,2.869,1.1,4.221a1.1,1.1,0,0,1-2.155.465c-.281-1.292-.638-2.656-1.059-4.048A1.008,1.008,0,0,1,216.918,106.512Zm.481,21.025a.97.97,0,0,1,.04-.3c.421-1.565.722-2.857.939-4.069a1.1,1.1,0,1,1,2.167.389c-.229,1.28-.538,2.632-.983,4.257a1.1,1.1,0,0,1-2.163-.277Zm1.284-12.675a1.1,1.1,0,0,1,2.2-.124,32.224,32.224,0,0,1,.148,4.422,1.1,1.1,0,0,1-1.144,1.059,1.069,1.069,0,0,1-1.059-1.144,29.543,29.543,0,0,0-.136-4.113Z" transform="translate(-143.127 -92.36)" fill="#fff"/>
        </g>
        <g id="Grupo_2899" data-name="Grupo 2899" transform="translate(50.852 44.477)">
          <path id="Trazado_3794" data-name="Trazado 3794" d="M172.94,80.652a1.1,1.1,0,0,1,.4-.867c.546-.449,1.1-.915,1.665-1.4l2.223-1.922-.409,2.913a12.1,12.1,0,0,0-.048,1.986,1.132,1.132,0,0,1-1.051,1.148,2.955,2.955,0,0,0-2.528-1.172A1.1,1.1,0,0,1,172.94,80.652Z" transform="translate(-137.138 -76.459)" fill="#fff"/>
          <path id="Trazado_3795" data-name="Trazado 3795" d="M173.551,79.705a1.1,1.1,0,0,1,2.155-.333,19.189,19.189,0,0,0,1.81,4.145,1.1,1.1,0,0,1-1.9,1.111A21.542,21.542,0,0,1,173.6,80.01,1,1,0,0,1,173.551,79.705Zm4.771,8.213a1.1,1.1,0,0,1,1.91-.762,23.9,23.9,0,0,0,3.427,3.033,1.1,1.1,0,0,1-1.308,1.777,26.832,26.832,0,0,1-3.736-3.31A1.109,1.109,0,0,1,178.322,87.918Zm7.635,5.714a1.105,1.105,0,0,1,1.629-.979,37.5,37.5,0,0,0,4.217,1.962,1.1,1.1,0,1,1-.8,2.05,38.792,38.792,0,0,1-4.466-2.078A1.1,1.1,0,0,1,185.957,93.632Zm8.907,3.479a1.141,1.141,0,0,1,.032-.281,1.1,1.1,0,0,1,1.336-.8,35.381,35.381,0,0,0,4.57.831,1.081,1.081,0,0,1,.967,1.22,1.1,1.1,0,0,1-1.22.967,36.237,36.237,0,0,1-4.851-.883A1.1,1.1,0,0,1,194.865,97.111Z" transform="translate(-135.297 -70.039)" fill="#fff"/>
          <path id="Trazado_3796" data-name="Trazado 3796" d="M181.24,84.661a1.105,1.105,0,0,1,1.063-1.115,18.52,18.52,0,0,0,2.05-.169l1.814-.3-.59,1.741c0,.012-.261.762-.634,2.05a1.1,1.1,0,1,1-2.114-.61c.056-.193.108-.373.156-.538-.185.008-.389.02-.6.028a1.106,1.106,0,0,1-1.144-1.063Z" transform="translate(-112.135 -56.526)" fill="#fff"/>
          <path id="Trazado_3797" data-name="Trazado 3797" d="M180.867,99.411v-.044c.04-1.473.152-3.033.329-4.638a1.1,1.1,0,0,1,1.216-.975,1.073,1.073,0,0,1,.975,1.216c-.172,1.545-.277,3.045-.317,4.458a1.1,1.1,0,0,1-2.2-.016Zm.112,4.554a1.1,1.1,0,0,1,2.2-.108,26.808,26.808,0,0,0,.7,4.317,1.1,1.1,0,1,1-2.131.546,28.489,28.489,0,0,1-.77-4.674Zm.867-13.614a1.174,1.174,0,0,1,.016-.2c.285-1.629.61-3.154.927-4.526a1.1,1.1,0,0,1,2.147.5c-.313,1.336-.626,2.825-.9,4.41a1.1,1.1,0,0,1-2.187-.177Z" transform="translate(-113.259 -51.428)" fill="#fff"/>
          <path id="Trazado_3798" data-name="Trazado 3798" d="M181.534,96.243a1.093,1.093,0,0,1,.173-.61l.778-1.2c-.3-.421-.582-.871-.847-1.332a1.1,1.1,0,1,1,1.918-1.083,11.926,11.926,0,0,0,1.131,1.669l.5.622-1.629,2.52a1.1,1.1,0,0,1-2.026-.586Z" transform="translate(-111.366 -31.279)" fill="#fff"/>
          <path id="Trazado_3799" data-name="Trazado 3799" d="M180.65,96.8a1.131,1.131,0,0,1,.177-.61l1.713-2.648a1.1,1.1,0,1,1,1.854,1.2l-1.713,2.648a1.1,1.1,0,0,1-2.03-.586Z" transform="translate(-113.912 -26.532)" fill="#fff"/>
          <path id="Trazado_3800" data-name="Trazado 3800" d="M179.409,96.619a1.158,1.158,0,0,1,.12-.51,1.1,1.1,0,0,1,1.481-.482,7.668,7.668,0,0,0,1.051.449l.79-1.22a1.1,1.1,0,0,1,1.85,1.2l-1.5,2.323-.562.032a5.724,5.724,0,0,1-2.624-.819A1.107,1.107,0,0,1,179.409,96.619Z" transform="translate(-117.651 -22.551)" fill="#fff"/>
          <path id="Trazado_3801" data-name="Trazado 3801" d="M166.905,93.729a1.1,1.1,0,0,1,.457-.907c1.192-.863,2.379-1.653,3.527-2.351a1.1,1.1,0,1,1,1.143,1.882c-1.1.666-2.235,1.424-3.382,2.255a1.1,1.1,0,0,1-1.537-.249A1.068,1.068,0,0,1,166.905,93.729Zm7.106-4.273a1.114,1.114,0,0,1,.634-1.015,27.279,27.279,0,0,1,4.048-1.533,1.1,1.1,0,0,1,.6,2.123,24.184,24.184,0,0,0-3.715,1.408,1.1,1.1,0,0,1-1.465-.53A1.15,1.15,0,0,1,174.011,89.455Zm7.973-2.11h0a1.106,1.106,0,0,1,1.091-1.115,10.932,10.932,0,0,1,4.5.867,1.1,1.1,0,0,1-.879,2.018,8.767,8.767,0,0,0-3.6-.682A1.1,1.1,0,0,1,181.983,87.345Zm7.343,3.238a1.1,1.1,0,0,1,1.93-.734,11.58,11.58,0,0,1,.758.959q.9,1.264,1.765,2.46a1.1,1.1,0,0,1-1.786,1.292c-.582-.8-1.172-1.625-1.773-2.476-.2-.281-.409-.546-.626-.794A1.092,1.092,0,0,1,189.326,90.583Zm4.923,6.689a1.1,1.1,0,0,1,1.982-.674q1.288,1.721,2.5,3.29a1.1,1.1,0,0,1-1.745,1.348q-1.216-1.583-2.52-3.318A1.087,1.087,0,0,1,194.249,97.271Zm5.08,6.564a1.1,1.1,0,0,1,1.958-.7q1.366,1.7,2.62,3.182a1.1,1.1,0,1,1-1.681,1.42q-1.276-1.5-2.656-3.222A1.087,1.087,0,0,1,199.329,103.836Zm5.353,6.336a1.087,1.087,0,0,1,.369-.831,1.1,1.1,0,0,1,1.553.084c.991,1.107,1.926,2.106,2.8,3.013a1.1,1.1,0,1,1-1.585,1.529c-.891-.923-1.842-1.942-2.853-3.073A1.1,1.1,0,0,1,204.681,110.171Zm5.786,5.954a1.1,1.1,0,0,1,1.85-.819c1.079,1,2.115,1.886,3.077,2.636a1.1,1.1,0,0,1-1.352,1.737c-1.015-.786-2.1-1.717-3.222-2.76A1.088,1.088,0,0,1,210.467,116.125Z" transform="translate(-155.317 -47.029)" fill="#fff"/>
          <path id="Trazado_3802" data-name="Trazado 3802" d="M165.147,90.34a1.1,1.1,0,0,1,1.577-1.007,8.08,8.08,0,0,0,1.284.481c.293-.261.722-.638,1.268-1.1a1.1,1.1,0,0,1,1.416,1.689c-1.007.843-1.593,1.4-1.6,1.408l-.389.365-.53-.076a9.057,9.057,0,0,1-2.4-.782A1.108,1.108,0,0,1,165.147,90.34Z" transform="translate(-160.613 -40.298)" fill="#fff"/>
          <path id="Trazado_3803" data-name="Trazado 3803" d="M164.017,115.422a1.1,1.1,0,0,1,2.2-.1,7.311,7.311,0,0,0,1.144,3.5,1.1,1.1,0,0,1-1.838,1.22,9.5,9.5,0,0,1-1.5-4.538Zm.341-4.245a1.043,1.043,0,0,1,.028-.245,26.534,26.534,0,0,1,1.328-4.253,1.1,1.1,0,0,1,2.046.823,24.714,24.714,0,0,0-1.224,3.9,1.1,1.1,0,0,1-2.179-.221Zm3.081-7.948a1.053,1.053,0,0,1,.124-.522c.706-1.36,1.436-2.632,2.163-3.784a1.1,1.1,0,1,1,1.862,1.176c-.694,1.1-1.392,2.323-2.074,3.627a1.1,1.1,0,0,1-2.074-.5Zm4.578-7.19a1.086,1.086,0,0,1,.241-.7,31.073,31.073,0,0,1,2.985-3.258,1.1,1.1,0,0,1,1.513,1.6,29.228,29.228,0,0,0-2.777,3.029,1.1,1.1,0,0,1-1.962-.674ZM178.2,90.2a1.1,1.1,0,0,1,.461-.911c1.063-.754,2.231-1.5,3.679-2.351a1.1,1.1,0,1,1,1.111,1.9c-1.388.814-2.5,1.529-3.511,2.243A1.1,1.1,0,0,1,178.2,90.2Zm7.319-4.39a1.1,1.1,0,0,1,.566-.975c1.18-.654,2.407-1.336,3.691-2.094a1.1,1.1,0,1,1,1.115,1.9c-1.3.762-2.548,1.456-3.74,2.118a1.1,1.1,0,0,1-1.633-.951Zm7.343-4.353a1.1,1.1,0,0,1,.5-.939c1.107-.722,2.259-1.517,3.459-2.4a1.1,1.1,0,1,1,1.3,1.773c-1.232.911-2.415,1.725-3.555,2.476a1.1,1.1,0,0,1-1.705-.907Z" transform="translate(-164.017 -72.129)" fill="#fff"/>
        </g>
        <path id="Trazado_3804" data-name="Trazado 3804" d="M184.778,119.3a1.1,1.1,0,0,1,2.163-.3l1.16,4.249a1.094,1.094,0,0,1-.77,1.356,1.106,1.106,0,0,1-1.352-.774l-1.16-4.249A.972.972,0,0,1,184.778,119.3Zm2.319,8.5a1.1,1.1,0,0,1,2.163-.3l1.075,3.928,3.479-.277a1.1,1.1,0,0,1,.177,2.2l-4.39.349a1.1,1.1,0,0,1-1.188-1.011.326.326,0,0,1,0-.088,1,1,0,0,1-.112-.269l-1.16-4.253A.942.942,0,0,1,187.1,127.8Zm1.151-10.934a1.1,1.1,0,0,1,.542-.963c1.1-.65,2.415-1.4,3.872-2.195a1.1,1.1,0,0,1,1.051,1.938c-1.428.774-2.72,1.513-3.8,2.155a1.1,1.1,0,0,1-1.509-.389A1.09,1.09,0,0,1,188.249,116.87Zm7.756-4.2a1.09,1.09,0,0,1,.618-1c1.312-.646,2.672-1.276,4.057-1.866a1.1,1.1,0,0,1,.867,2.026c-1.348.578-2.676,1.192-3.96,1.818a1.094,1.094,0,0,1-1.581-.975Zm1.192,19.243a1.1,1.1,0,0,1,1.011-1.111l4.394-.349a1.1,1.1,0,0,1,.177,2.2l-4.394.349a1.1,1.1,0,0,1-1.184-1.011Zm6.929-22.674a1.1,1.1,0,0,1,.746-1.055c1.123-.385,2.239-.722,3.33-1a6.926,6.926,0,0,0,.831-.273,1.1,1.1,0,0,1,.818,2.05,8.961,8.961,0,0,1-1.111.357c-1.035.261-2.09.582-3.158.943a1.1,1.1,0,0,1-1.4-.686A1.019,1.019,0,0,1,204.126,109.242Zm1.854,21.976a1.1,1.1,0,0,1,1.011-1.111l4.394-.349a1.1,1.1,0,0,1,1.188,1.011,1.081,1.081,0,0,1-1.011,1.184l-4.394.353a1.1,1.1,0,0,1-1.184-1.011Zm5.914-25.8a1.088,1.088,0,0,1,.3-.766,17.976,17.976,0,0,0,2.419-3.362,1.1,1.1,0,0,1,1.914,1.1,20.4,20.4,0,0,1-2.728,3.772,1.1,1.1,0,0,1-1.9-.742Zm2.869,25.1a1.107,1.107,0,0,1,1.015-1.111l4.39-.349a1.1,1.1,0,1,1,.177,2.195l-4.389.353a1.1,1.1,0,0,1-1.188-1.011Zm1.613-32.636a1.071,1.071,0,0,1,.08-.429c.5-1.236.987-2.6,1.436-4.069a1.1,1.1,0,0,1,2.107.646c-.469,1.525-.975,2.957-1.5,4.253a1.1,1.1,0,0,1-2.123-.4ZM219,89.461a1.022,1.022,0,0,1,.028-.269c.381-1.625.67-3.094.879-4.265a1.1,1.1,0,0,1,2.171.385c-.213,1.2-.51,2.712-.9,4.386A1.1,1.1,0,0,1,219,89.461Zm2.736-7.84a1.1,1.1,0,0,1,.614-1l3.948-1.954a1.1,1.1,0,0,1,.979,1.974l-3.948,1.954a1.1,1.1,0,0,1-1.477-.5A1.128,1.128,0,0,1,221.732,81.621Zm1.818,48.2a1.1,1.1,0,0,1,1.015-1.107l4.39-.349a1.1,1.1,0,1,1,.177,2.195l-4.39.349a1.1,1.1,0,0,1-1.188-1.011Zm4.081-47.1a1.1,1.1,0,0,1,2.115-.453,29.676,29.676,0,0,0,1.962,3.748,1.1,1.1,0,1,1-1.87,1.16,32.03,32.03,0,0,1-2.114-4.028A1.16,1.16,0,0,1,227.63,82.721Zm4.7,46.4a1.1,1.1,0,0,1,1.015-1.107l4.394-.349a1.1,1.1,0,1,1,.173,2.195l-4.394.349a1.1,1.1,0,0,1-1.184-1.011Zm-.088-38.952a1.117,1.117,0,0,1,.393-.859,1.105,1.105,0,0,1,1.553.136,33.063,33.063,0,0,0,2.945,3.065,1.1,1.1,0,1,1-1.489,1.625,34.435,34.435,0,0,1-3.142-3.274A1.09,1.09,0,0,1,232.244,90.168Zm6.464,5.938a1.068,1.068,0,0,1,.209-.654,1.1,1.1,0,0,1,1.537-.253,42.578,42.578,0,0,0,3.611,2.327,1.1,1.1,0,1,1-1.1,1.906c-1.332-.77-2.612-1.593-3.8-2.443A1.109,1.109,0,0,1,238.708,96.106Zm2.412,32.315a1.1,1.1,0,0,1,1.011-1.107l4.394-.349a1.1,1.1,0,0,1,.176,2.195l-4.393.349a1.1,1.1,0,0,1-1.188-1.011Zm5.2-27.89a1.025,1.025,0,0,1,.1-.481,1.108,1.108,0,0,1,1.468-.53c1.26.594,2.6,1.168,3.98,1.705a1.1,1.1,0,0,1-.8,2.054c-1.428-.558-2.817-1.147-4.125-1.765A1.1,1.1,0,0,1,246.319,100.532Zm3.583,27.192a1.107,1.107,0,0,1,1.015-1.111l4.389-.349a1.1,1.1,0,0,1,1.188,1.011,1.127,1.127,0,0,1-1.011,1.188l-4.389.349a1.1,1.1,0,0,1-1.188-1.011Zm4.622-23.974a1.176,1.176,0,0,1,.052-.353,1.1,1.1,0,0,1,1.388-.71c1.388.453,2.785.871,4.177,1.252a1.1,1.1,0,0,1-.59,2.127q-2.137-.6-4.265-1.284A1.092,1.092,0,0,1,254.525,103.749Zm4.161,23.276a1.107,1.107,0,0,1,1.015-1.111l4.393-.349a1.1,1.1,0,0,1,.177,2.2l-4.394.349a1.1,1.1,0,0,1-1.188-1.011Zm4.333-20.912a1.256,1.256,0,0,1,.028-.273,1.1,1.1,0,0,1,1.328-.814c1.441.345,2.873.662,4.281.959a1.116,1.116,0,0,1,.847,1.308,1.1,1.1,0,0,1-1.3.847q-2.143-.451-4.333-.971A1.1,1.1,0,0,1,263.019,106.113Zm4.454,20.214a1.1,1.1,0,0,1,1.011-1.111l4.394-.349a1.1,1.1,0,0,1,.177,2.2l-4.393.349a1.1,1.1,0,0,1-1.184-1.011Zm4.177-18.377a1.062,1.062,0,0,1,.02-.225,1.1,1.1,0,0,1,1.288-.871l4.333.823a1.1,1.1,0,0,1-.409,2.167l-4.341-.827A1.1,1.1,0,0,1,271.649,107.95Zm4.606,17.678a1.107,1.107,0,0,1,1.015-1.111l4.389-.349a1.1,1.1,0,0,1,1.188,1.011,1.091,1.091,0,0,1-1.011,1.188l-4.39.349a1.1,1.1,0,0,1-1.188-1.011Zm4.061-16.013a1.176,1.176,0,0,1,.024-.233,1.1,1.1,0,0,1,1.3-.859c1.565.317,3.029.638,4.353.975a1.12,1.12,0,0,1,.8,1.34,1.1,1.1,0,0,1-1.34.794c-1.3-.329-2.72-.642-4.253-.951A1.1,1.1,0,0,1,280.316,109.616Zm4.723,15.315a1.1,1.1,0,0,1,1.015-1.111l4.394-.349a1.1,1.1,0,0,1,1.184,1.011,1.112,1.112,0,0,1-1.007,1.184l-4.394.349A1.1,1.1,0,0,1,285.043,125Zm3.772-13a1.106,1.106,0,0,1,1.6-1,7.845,7.845,0,0,1,3.455,3.639,1.1,1.1,0,1,1-1.966.987,5.69,5.69,0,0,0-2.476-2.656A1.112,1.112,0,0,1,288.81,111.935Zm4.221,7.359a1.1,1.1,0,0,1,2.191-.177,25.089,25.089,0,0,1,.269,3.407c0,.481,0,.891-.016,1.2a1.1,1.1,0,1,1-2.2-.088c.008-.277.016-.646.012-1.087a22.537,22.537,0,0,0-.245-3.1A1.027,1.027,0,0,1,293.031,119.293Z" transform="translate(-50.625 -25.681)" fill="#fff"/>
        <path id="Trazado_3805" data-name="Trazado 3805" d="M158.181,102.312a1.043,1.043,0,0,1,.012-.161,8.561,8.561,0,0,1,2.03-4.526,1.1,1.1,0,0,1,1.673,1.44,6.278,6.278,0,0,0-1.521,3.374,1.1,1.1,0,0,1-2.195-.128Zm.329,4.357a1.1,1.1,0,0,1,2.171-.285,17.437,17.437,0,0,0,1.517,3.84,1.1,1.1,0,0,1-1.946,1.031,19.7,19.7,0,0,1-1.709-4.329A1.129,1.129,0,0,1,158.51,106.67Zm3.988,7.792a1.1,1.1,0,0,1,1.982-.674,42.681,42.681,0,0,0,2.76,3.286,1.1,1.1,0,1,1-1.613,1.5,44.008,44.008,0,0,1-2.909-3.467A1.111,1.111,0,0,1,162.5,114.462Zm.971-18.714a1.1,1.1,0,0,1,.61-1,22.674,22.674,0,0,1,4.349-1.581,1.1,1.1,0,0,1,.558,2.135,20.341,20.341,0,0,0-3.924,1.416,1.1,1.1,0,0,1-1.477-.494A1.022,1.022,0,0,1,163.469,95.748Zm4.987,25.2a1.11,1.11,0,0,1,.293-.762,1.1,1.1,0,0,1,1.557-.056c1.051.975,2.151,1.926,3.278,2.853a1.1,1.1,0,1,1-1.4,1.7c-1.16-.955-2.291-1.934-3.374-2.941A1.088,1.088,0,0,1,168.457,120.946Zm3.475-27.525a1.1,1.1,0,0,1,.955-1.1c1.4-.185,2.9-.321,4.478-.4a1.1,1.1,0,0,1,1.156,1.043,1.12,1.12,0,0,1-1.043,1.156c-1.513.08-2.957.209-4.3.389a1.1,1.1,0,0,1-1.24-.947A.78.78,0,0,1,171.931,93.421Zm3.33,33.142a1.1,1.1,0,0,1,.217-.67,1.107,1.107,0,0,1,1.545-.229c1.18.883,2.371,1.729,3.555,2.536a1.1,1.1,0,0,1-1.244,1.822c-1.2-.827-2.423-1.689-3.631-2.588A1.11,1.11,0,0,1,175.262,126.563Zm5.461-33.624v-.02a1.105,1.105,0,0,1,1.111-1.1c1.473.012,2.965.06,4.458.14a1.1,1.1,0,0,1-.12,2.2c-1.461-.08-2.917-.128-4.353-.14A1.1,1.1,0,0,1,180.722,92.939Zm1.818,38.6a1.083,1.083,0,0,1,.169-.6,1.1,1.1,0,0,1,1.521-.345c1.3.819,2.552,1.577,3.739,2.267a1.1,1.1,0,1,1-1.107,1.906c-1.2-.7-2.488-1.473-3.808-2.307A1.105,1.105,0,0,1,182.54,131.542Zm6.986-38.133a1.127,1.127,0,0,1,0-.116,1.1,1.1,0,0,1,1.2-1q2.245.211,4.422.5a1.1,1.1,0,0,1-.285,2.187c-1.42-.189-2.873-.353-4.341-.49A1.1,1.1,0,0,1,189.525,93.409Zm.65,42.563a1.072,1.072,0,0,1,.128-.526,1.1,1.1,0,0,1,1.489-.461c.806.425,1.541.794,2.187,1.107.538.257,1.1.5,1.689.738a1.1,1.1,0,1,1-.818,2.046c-.634-.257-1.244-.522-1.826-.8-.666-.317-1.428-.7-2.259-1.139A1.1,1.1,0,0,1,190.175,135.972Zm8.161,3.3a1.074,1.074,0,0,1,.04-.317,1.1,1.1,0,0,1,1.364-.754c1.344.385,2.76.738,4.209,1.059a1.1,1.1,0,1,1-.477,2.151c-1.493-.329-2.949-.694-4.341-1.091A1.1,1.1,0,0,1,198.337,139.274Zm-.072-44.726a1.7,1.7,0,0,1,.016-.2,1.1,1.1,0,0,1,1.268-.9c1.537.253,3,.53,4.373.811a1.1,1.1,0,0,1-.441,2.159c-1.348-.277-2.789-.546-4.293-.8A1.1,1.1,0,0,1,198.264,94.548Zm8.671,46.656a1.2,1.2,0,0,1,.016-.2,1.1,1.1,0,0,1,1.276-.891c1.444.253,2.9.485,4.321.694a1.1,1.1,0,0,1-.317,2.179c-1.448-.213-2.921-.445-4.385-.706A1.1,1.1,0,0,1,206.935,141.2Zm-.044-44.85a1.183,1.183,0,0,1,.036-.309,1.107,1.107,0,0,1,1.36-.766,29.026,29.026,0,0,1,4.293,1.577,1.1,1.1,0,0,1-.923,2,26.289,26.289,0,0,0-3.964-1.457A1.1,1.1,0,0,1,206.891,96.354ZM214.868,100a1.066,1.066,0,0,1,.176-.61,1.1,1.1,0,0,1,1.521-.329,43.1,43.1,0,0,1,3.659,2.648,1.1,1.1,0,0,1-1.38,1.721,40.9,40.9,0,0,0-3.471-2.516A1.1,1.1,0,0,1,214.868,100Zm.794,42.495a1,1,0,0,1,.008-.152,1.1,1.1,0,0,1,1.228-.955c1.529.193,3,.357,4.365.51a1.093,1.093,0,0,1,.975,1.216,1.106,1.106,0,0,1-1.216.975c-1.376-.152-2.857-.321-4.4-.514A1.1,1.1,0,0,1,215.662,142.492Zm6.127-37.058a1.1,1.1,0,0,1,1.834-.835l1.356,1.216q.963.867,1.926,1.717a1.1,1.1,0,0,1-1.457,1.653q-.969-.855-1.942-1.733l-1.348-1.208A1.1,1.1,0,0,1,221.789,105.434Zm2.64,38.045a.778.778,0,0,1,0-.136,1.1,1.1,0,0,1,1.216-.975l1.14.128a29.98,29.98,0,0,1,3.342.618,1.1,1.1,0,1,1-.5,2.143,28.268,28.268,0,0,0-3.1-.57l-1.123-.128A1.093,1.093,0,0,1,224.429,143.479Zm4.032-32.291a1.1,1.1,0,0,1,1.769-.887,30.457,30.457,0,0,0,3.531,2.355,1.1,1.1,0,1,1-1.083,1.922,33.016,33.016,0,0,1-3.784-2.528A1.1,1.1,0,0,1,228.461,111.188Zm4.57,34.173a1.169,1.169,0,0,1,.048-.333,1.1,1.1,0,0,1,1.372-.734c1.4.421,2.825.891,4.233,1.368a1.1,1.1,0,1,1-.71,2.086c-1.384-.469-2.793-.931-4.161-1.348A1.1,1.1,0,0,1,233.031,145.361Zm3.114-29.968a1.163,1.163,0,0,1,.052-.345,1.1,1.1,0,0,1,1.384-.714,18.1,18.1,0,0,0,2.1.53q.969.187,2.046.365a1.1,1.1,0,0,1-.365,2.175c-.734-.124-1.436-.249-2.094-.377a20.288,20.288,0,0,1-2.359-.594A1.1,1.1,0,0,1,236.145,115.393Zm5.248,32.793a1.017,1.017,0,0,1,.064-.389,1.108,1.108,0,0,1,1.412-.662c1.2.433,2.335.855,3.354,1.228l.794.293a1.1,1.1,0,0,1-.758,2.066l-.8-.293c-1.015-.373-2.143-.79-3.342-1.22A1.1,1.1,0,0,1,241.393,148.186ZM244.8,117.03a1.026,1.026,0,0,1,.016-.189,1.093,1.093,0,0,1,1.26-.911c1.408.225,2.873.465,4.373.738a1.1,1.1,0,0,1-.393,2.171c-1.485-.269-2.941-.51-4.329-.734A1.1,1.1,0,0,1,244.8,117.03Zm4.927,34.029a.973.973,0,0,1,.02-.213,1.1,1.1,0,0,1,1.284-.883c.189.036.461.1.8.173.8.177,2.018.449,3.491.678a1.1,1.1,0,0,1-.337,2.175c-1.533-.237-2.8-.518-3.635-.706-.309-.068-.554-.12-.726-.152A1.109,1.109,0,0,1,249.731,151.058Zm3.744-32.42a1.143,1.143,0,0,1,.028-.257,1.1,1.1,0,0,1,1.316-.835c1.452.329,2.909.69,4.337,1.107a1.1,1.1,0,1,1-.61,2.115c-1.388-.4-2.8-.754-4.209-1.071A1.1,1.1,0,0,1,253.474,118.639Zm4.971,33.684v-.044a1.1,1.1,0,0,1,1.127-1.071c.329.008.658.008,1,0a22.35,22.35,0,0,0,3.2-.257,1.1,1.1,0,1,1,.345,2.175,23.848,23.848,0,0,1-3.519.285c-.365.008-.722,0-1.075,0A1.1,1.1,0,0,1,258.446,152.322Zm3.483-31.192a1.069,1.069,0,0,1,.072-.413,1.1,1.1,0,0,1,1.428-.626,34.988,34.988,0,0,1,4.129,1.918,1.1,1.1,0,0,1-1.067,1.93,32.392,32.392,0,0,0-3.864-1.8A1.1,1.1,0,0,1,261.928,121.13Zm5.128,29.687a1.1,1.1,0,0,1,.642-1.015,11.181,11.181,0,0,0,3.29-2.259,1.1,1.1,0,0,1,1.557,1.557,13.36,13.36,0,0,1-3.928,2.7,1.1,1.1,0,0,1-1.46-.542A1.176,1.176,0,0,1,267.056,150.818Zm2.5-25.35a1.08,1.08,0,0,1,.261-.726,1.1,1.1,0,0,1,1.553-.124A16.629,16.629,0,0,1,274.5,128.1a1.1,1.1,0,1,1-1.83,1.22,14.767,14.767,0,0,0-2.728-3.025A1.094,1.094,0,0,1,269.552,125.468Zm3.6,19.263a1.129,1.129,0,0,1,.1-.477,16.348,16.348,0,0,0,1.22-3.924,1.1,1.1,0,1,1,2.163.4,18.35,18.35,0,0,1-1.388,4.458,1.1,1.1,0,0,1-1.46.534A1.11,1.11,0,0,1,273.151,144.731Zm1.143-12.025a1.1,1.1,0,0,1,2.167-.3,16.552,16.552,0,0,1,.554,4.117v.538a1.1,1.1,0,0,1-2.2-.032v-.481a14.046,14.046,0,0,0-.477-3.563A.961.961,0,0,1,274.294,132.706Z" transform="translate(-130.745 14.303)" fill="#fff"/>
      </g>
      <path id="Trazado_3806" data-name="Trazado 3806" d="M229.6,81.558v0a2.257,2.257,0,0,0-2.957-1.164l-13.758,5.982a2.252,2.252,0,0,0-1.164,2.953h0a2.254,2.254,0,0,0,2.953,1.164l13.758-5.978A2.253,2.253,0,0,0,229.6,81.558Z" transform="translate(29.986 100.549)" fill="#ddb39e"/>
      <path id="Trazado_3807" data-name="Trazado 3807" d="M229.291,82.879h0a2.252,2.252,0,0,0-2.925-1.232l-12.743,5.2a2.25,2.25,0,0,0-1.228,2.929h0A2.245,2.245,0,0,0,215.32,91l12.739-5.2A2.25,2.25,0,0,0,229.291,82.879Z" transform="translate(32.065 104.392)" fill="#ddb39e"/>
      <path id="Trazado_3808" data-name="Trazado 3808" d="M167.509,80.192a32.44,32.44,0,0,0-10.167,16.635c.016-4.65,2.736-8.807,5.377-12.631C163.938,82.431,165.391,80.521,167.509,80.192Z" transform="translate(-133.272 100.507)" fill="#1a1a1a" opacity="0.49"/>
      <path id="Trazado_3809" data-name="Trazado 3809" d="M156.646,81.756h0a2.25,2.25,0,0,1,2.953-1.164l13.758,5.978a2.251,2.251,0,0,1,1.164,2.953h0a2.251,2.251,0,0,1-2.953,1.164L157.81,84.709A2.251,2.251,0,0,1,156.646,81.756Z" transform="translate(-135.926 101.153)" fill="#ddb39e"/>
      <path id="Trazado_3810" data-name="Trazado 3810" d="M156.189,83.079h0a2.256,2.256,0,0,1,2.929-1.232l12.739,5.2a2.25,2.25,0,0,1,1.232,2.925h0A2.255,2.255,0,0,1,170.16,91.2l-12.739-5.2A2.256,2.256,0,0,1,156.189,83.079Z" transform="translate(-137.242 104.995)" fill="#ddb39e"/>
      <path id="Trazado_3811" data-name="Trazado 3811" d="M155.915,84.377h0a2.257,2.257,0,0,1,2.909-1.28l10.813,4.2a2.255,2.255,0,0,1,1.28,2.9h0a2.249,2.249,0,0,1-2.9,1.28l-10.817-4.2A2.251,2.251,0,0,1,155.915,84.377Z" transform="translate(-138.024 108.804)" fill="#ddb39e"/>
    </g>
  </g>
</svg>
