<svg xmlns="http://www.w3.org/2000/svg" width="136" height="136" viewBox="0 0 136 136">
  <g id="Grupo_2630" data-name="Grupo 2630" transform="translate(-142 -2038)">
    <g id="Grupo_2629" data-name="Grupo 2629" transform="translate(15 -65)">
      <circle id="Elipse_509" data-name="Elipse 509" cx="68" cy="68" r="68" transform="translate(127 2103)" fill="#745f57"/>
      <circle id="Elipse_510" data-name="Elipse 510" cx="64" cy="64" r="64" transform="translate(131 2107)" fill="#e3dac6"/>
      <g id="Grupo_2613" data-name="Grupo 2613" transform="translate(-753.927 1871.427)">
        <path id="Trazado_3124" data-name="Trazado 3124" d="M970.96,272.246,907.581,313.68l1.5,14.136,29.171,10.015,58.377-48.594-.309-11.928Z" transform="translate(0 0)" fill="none" stroke="#745f57" stroke-miterlimit="10" stroke-width="3"/>
        <path id="Trazado_3125" data-name="Trazado 3125" d="M907.581,313.709l29.252,8.652,58.776-45.03" transform="translate(0 -0.028)" fill="none" stroke="#745f57" stroke-miterlimit="10" stroke-width="3"/>
        <line id="Línea_180" data-name="Línea 180" x1="1.419" y1="15.499" transform="translate(936.832 322.332)" fill="none" stroke="#745f57" stroke-miterlimit="10" stroke-width="3"/>
      </g>
      <circle id="Elipse_512" data-name="Elipse 512" cx="1" cy="1" r="1" transform="translate(170 2180)" fill="#745f57"/>
      <circle id="Elipse_513" data-name="Elipse 513" cx="1" cy="1" r="1" transform="translate(183 2181)" fill="#745f57"/>
      <circle id="Elipse_514" data-name="Elipse 514" cx="1" cy="1" r="1" transform="translate(182 2172)" fill="#745f57"/>
      <circle id="Elipse_517" data-name="Elipse 517" cx="1" cy="1" r="1" transform="translate(191 2174)" fill="#745f57"/>
      <circle id="Elipse_520" data-name="Elipse 520" cx="1" cy="1" r="1" transform="translate(196 2162)" fill="#745f57"/>
    </g>
    <circle id="Elipse_511" data-name="Elipse 511" cx="1" cy="1" r="1" transform="translate(225 2091)" fill="#745f57"/>
    <circle id="Elipse_515" data-name="Elipse 515" cx="1" cy="1" r="1" transform="translate(214 2106)" fill="#745f57"/>
    <circle id="Elipse_516" data-name="Elipse 516" cx="1" cy="1" r="1" transform="translate(231 2085)" fill="#745f57"/>
    <circle id="Elipse_518" data-name="Elipse 518" cx="1" cy="1" r="1" transform="translate(227 2098)" fill="#745f57"/>
    <circle id="Elipse_519" data-name="Elipse 519" cx="1" cy="1" r="1" transform="translate(242 2087)" fill="#745f57"/>
  </g>
</svg>
