<svg xmlns="http://www.w3.org/2000/svg" width="136" height="136" viewBox="0 0 136 136">
  <g id="Grupo_2627" data-name="Grupo 2627" transform="translate(-127 -1715)">
    <circle id="Elipse_505" data-name="Elipse 505" cx="68" cy="68" r="68" transform="translate(127 1715)" fill="#745f57"/>
    <circle id="Elipse_506" data-name="Elipse 506" cx="64" cy="64" r="64" transform="translate(131 1719)" fill="#e3dac6"/>
    <path id="Trazado_3126" data-name="Trazado 3126" d="M272.982,405.441c-11.843,2.216-4.261,4.479-4.261,4.479s6.7.947.435,3.5c-6.7,2.726-21.957,7.207-34.3,3.057,0,0-5.354-2.623.326-5.242s-13-5.135-16.494-.11,8.083,4.7,0,9.174-14.311-2.747-14.311-2.747-1.8-2.057,2.241-1.732,12.18-8.061.709-12.33c0,0-19.881-4.71-28.949,4.357S182.31,426.2,182.31,426.2s15.841,11.8,57.9,3.932,41.842-19.991,41.842-19.991S283.431,403.488,272.982,405.441Zm-77.6,18.753c-13.328-4.37-8.446-11.652-8.446-11.652,2.4-3.351,11.653-4.079,9.83-.8a6.592,6.592,0,0,0-.144,6.189,14.541,14.541,0,0,0,9.177,6.264C212.424,425.8,208.711,428.564,195.381,424.195Z" transform="matrix(0.966, 0.259, -0.259, 0.966, 81.936, 1320.139)" fill="none" stroke="#745f57" stroke-miterlimit="10" stroke-width="3"/>
  </g>
</svg>
