<svg xmlns="http://www.w3.org/2000/svg" width="269.311" height="305.148" viewBox="0 0 269.311 305.148">
  <g id="Grupo_2921" data-name="Grupo 2921" transform="translate(9.459)">
    <path id="Trazado_1886" data-name="Trazado 1886" d="M667.412,450.092c-85.054,1.5-172.808-.168-259.833-1.177,11.21-2.327,33.251-2.146,52.308-1.784,77.4,1.466,120.008,1.752,197.4,3.219-54.612-1.166-74.44-1.15-129.052-2.316" transform="translate(-407.579 -146.464)" fill="none" stroke="#d3c0be" stroke-miterlimit="10" stroke-width="2.051" opacity="0.2"/>
    <g id="Grupo_1101" data-name="Grupo 1101" transform="translate(17.863 0)">
      <g id="Grupo_1100" data-name="Grupo 1100">
        <g id="Grupo_1093" data-name="Grupo 1093" transform="translate(0 20.347)">
          <rect id="Rectángulo_718" data-name="Rectángulo 718" width="220.642" height="281.108" fill="#977c72"/>
          <rect id="Rectángulo_719" data-name="Rectángulo 719" width="199.742" height="254.48" rx="11.936" transform="translate(10.45 13.314)" fill="#f9f8f4"/>
        </g>
        <path id="Trazado_1887" data-name="Trazado 1887" d="M575.514,137.614H564.62a6.838,6.838,0,0,1-6.838-6.838v-.967a6.838,6.838,0,0,0-6.838-6.838H534.425a6.838,6.838,0,0,0-6.838,6.838v.967a6.838,6.838,0,0,1-6.838,6.838H509.855a6.839,6.839,0,0,0-6.839,6.838v12.374a6.838,6.838,0,0,0,6.839,6.838h65.659a6.838,6.838,0,0,0,6.838-6.838V144.452A6.838,6.838,0,0,0,575.514,137.614Zm-32.83-2.578a3.894,3.894,0,1,1,3.894-3.895A3.894,3.894,0,0,1,542.684,135.036Z" transform="translate(-432.363 -122.97)" fill="#745f57"/>
        <g id="Grupo_1095" data-name="Grupo 1095" transform="translate(38.169 70.507)">
          <ellipse id="Elipse_500" data-name="Elipse 500" cx="19.608" cy="19.608" rx="19.608" ry="19.608" fill="none" stroke="#ffd072" stroke-miterlimit="10" stroke-width="4.143"/>
          <g id="Grupo_1094" data-name="Grupo 1094" transform="translate(56.894 10.537)">
            <line id="Línea_53" data-name="Línea 53" x2="81.186" fill="none" stroke="#c69f91" stroke-linecap="round" stroke-miterlimit="10" stroke-width="4.143"/>
            <line id="Línea_54" data-name="Línea 54" x2="63.895" transform="translate(0 14.51)" fill="none" stroke="#c69f91" stroke-linecap="round" stroke-miterlimit="10" stroke-width="4.143"/>
          </g>
        </g>
        <g id="Grupo_1097" data-name="Grupo 1097" transform="translate(38.169 131.303)">
          <ellipse id="Elipse_501" data-name="Elipse 501" cx="19.608" cy="19.608" rx="19.608" ry="19.608" fill="none" stroke="#c69f91" stroke-linecap="round" stroke-miterlimit="10" stroke-width="4.143"/>
          <g id="Grupo_1096" data-name="Grupo 1096" transform="translate(56.894 10.537)">
            <line id="Línea_55" data-name="Línea 55" x2="81.186" fill="none" stroke="#c69f91" stroke-linecap="round" stroke-miterlimit="10" stroke-width="4.143"/>
            <line id="Línea_56" data-name="Línea 56" x2="63.895" transform="translate(0 14.51)" fill="none" stroke="#c69f91" stroke-linecap="round" stroke-miterlimit="10" stroke-width="4.143"/>
          </g>
        </g>
        <g id="Grupo_1099" data-name="Grupo 1099" transform="translate(38.169 192.1)">
          <ellipse id="Elipse_502" data-name="Elipse 502" cx="19.608" cy="19.608" rx="19.608" ry="19.608" fill="none" stroke="#c69f91" stroke-linecap="round" stroke-miterlimit="10" stroke-width="4.143"/>
          <g id="Grupo_1098" data-name="Grupo 1098" transform="translate(56.894 10.537)">
            <line id="Línea_57" data-name="Línea 57" x2="81.186" fill="none" stroke="#c69f91" stroke-linecap="round" stroke-miterlimit="10" stroke-width="4.143"/>
            <line id="Línea_58" data-name="Línea 58" x2="63.895" transform="translate(0 14.51)" fill="none" stroke="#c69f91" stroke-linecap="round" stroke-miterlimit="10" stroke-width="4.143"/>
          </g>
        </g>
      </g>
      <path id="Trazado_1888" data-name="Trazado 1888" d="M480.767,215.333l8,7.741,24.3-23.894" transform="translate(-430.75 -128.497)" fill="none" stroke="#ed6562" stroke-linecap="round" stroke-miterlimit="10" stroke-width="3.107"/>
      <path id="Trazado_1889" data-name="Trazado 1889" d="M480.767,278.795l8,7.741,24.3-23.894" transform="translate(-430.75 -133.1)" fill="none" stroke="#ed6562" stroke-linecap="round" stroke-miterlimit="10" stroke-width="3.107"/>
      <path id="Trazado_1890" data-name="Trazado 1890" d="M480.767,343.292l8,7.741,24.3-23.894" transform="translate(-430.75 -137.777)" fill="none" stroke="#ed6562" stroke-linecap="round" stroke-miterlimit="10" stroke-width="3.107"/>
    </g>
  </g>
</svg>
