<svg xmlns="http://www.w3.org/2000/svg" width="163" height="167" viewBox="0 0 163 167">
  <g id="Grupo_3458" data-name="Grupo 3458" transform="translate(-819 -835)">
    <g id="Elipse_562" data-name="Elipse 562" transform="translate(819 839)" fill="#fff" stroke="#8d7a72" stroke-width="2" stroke-dasharray="6">
      <circle cx="81.5" cy="81.5" r="81.5" stroke="none"/>
      <circle cx="81.5" cy="81.5" r="80.5" fill="none"/>
    </g>
    <g id="Grupo_3447" data-name="Grupo 3447" transform="translate(468.185 567)">
      <g id="Grupo_3434" data-name="Grupo 3434">
        <path id="Trazado_3311" data-name="Trazado 3311" d="M427,349V338a11.032,11.032,0,0,1,11-11h0a11.032,11.032,0,0,1,11,11v11" fill="none" stroke="#a88b6a" stroke-linecap="round" stroke-linejoin="round" stroke-width="2"/>
        <path id="Trazado_3312" data-name="Trazado 3312" d="M450,341h2.141a10,10,0,0,1,9.716,7.637l6.241,25.654A3,3,0,0,1,465.183,378H410.817a3,3,0,0,1-2.915-3.709l6.24-25.654A10,10,0,0,1,423.859,341H426" fill="none" stroke="#a88b6a" stroke-linecap="round" stroke-linejoin="round" stroke-width="2"/>
        <line id="Línea_101" data-name="Línea 101" x2="14" transform="translate(431 341)" fill="none" stroke="#a88b6a" stroke-linecap="round" stroke-linejoin="round" stroke-width="2"/>
      </g>
      <g id="Grupo_3435" data-name="Grupo 3435">
        <path id="Trazado_3313" data-name="Trazado 3313" d="M424,354v-4a1,1,0,0,1,1-1h4a1,1,0,0,1,1,1v4" fill="none" stroke="#a88b6a" stroke-linecap="round" stroke-linejoin="round" stroke-width="2"/>
        <path id="Trazado_3314" data-name="Trazado 3314" d="M446,354v-4a1,1,0,0,1,1-1h4a1,1,0,0,1,1,1v4" fill="none" stroke="#a88b6a" stroke-linecap="round" stroke-linejoin="round" stroke-width="2"/>
        <path id="Trazado_3315" data-name="Trazado 3315" d="M429,353h-4l-1,10h6Z" fill="none" stroke="#a88b6a" stroke-linecap="round" stroke-linejoin="round" stroke-width="2"/>
        <path id="Trazado_3316" data-name="Trazado 3316" d="M451,353h-4l-1,10h6Z" fill="none" stroke="#a88b6a" stroke-linecap="round" stroke-linejoin="round" stroke-width="2"/>
      </g>
    </g>
    <g id="Grupo_3448" data-name="Grupo 3448" transform="translate(351 77)">
      <g id="Elipse_542" data-name="Elipse 542" transform="translate(579 758)" fill="#f3f7fa" stroke="#cea774" stroke-width="1">
        <circle cx="26" cy="26" r="26" stroke="none"/>
        <circle cx="26" cy="26" r="25.5" fill="none"/>
      </g>
      <circle id="Elipse_543" data-name="Elipse 543" cx="21" cy="21" r="21" transform="translate(584 763)" fill="#745f57"/>
    </g>
    <path id="Trazado_3458" data-name="Trazado 3458" d="M-6.6-14H-.24a8.938,8.938,0,0,1,4.03.87,6.514,6.514,0,0,1,2.72,2.45A6.891,6.891,0,0,1,7.48-7a6.891,6.891,0,0,1-.97,3.68A6.514,6.514,0,0,1,3.79-.87,8.938,8.938,0,0,1-.24,0H-6.6ZM-.4-2.66A4.7,4.7,0,0,0,2.95-3.83,4.132,4.132,0,0,0,4.2-7a4.132,4.132,0,0,0-1.25-3.17A4.7,4.7,0,0,0-.4-11.34H-3.36v8.68Z" transform="translate(957 867)" fill="#fff"/>
    <g id="Grupo_3454" data-name="Grupo 3454" transform="translate(441.185 550)">
      <path id="Trazado_3325" data-name="Trazado 3325" d="M438.876,328.847l4.74,1.461-4.74,1.461a12.263,12.263,0,0,0-8.107,8.107l-1.461,4.74-1.461-4.74a12.267,12.267,0,0,0-8.107-8.107L415,330.308l4.74-1.461a12.267,12.267,0,0,0,8.107-8.107l1.461-4.74,1.461,4.74A12.263,12.263,0,0,0,438.876,328.847Z" transform="translate(5.22 0)" fill="none" stroke="#977c72" stroke-linecap="round" stroke-linejoin="round" stroke-width="2"/>
      <g id="Grupo_3453" data-name="Grupo 3453" transform="translate(410 346.66)">
        <line id="Línea_107" data-name="Línea 107" y2="2.044" transform="translate(6.132)" fill="none" stroke="#977c72" stroke-linecap="round" stroke-linejoin="round" stroke-width="2"/>
        <line id="Línea_108" data-name="Línea 108" x1="2.044" transform="translate(0 6.132)" fill="none" stroke="#977c72" stroke-linecap="round" stroke-linejoin="round" stroke-width="2"/>
        <line id="Línea_109" data-name="Línea 109" x2="2.044" transform="translate(10.22 6.132)" fill="none" stroke="#977c72" stroke-linecap="round" stroke-linejoin="round" stroke-width="2"/>
        <line id="Línea_110" data-name="Línea 110" y2="2.044" transform="translate(6.132 10.22)" fill="none" stroke="#977c72" stroke-linecap="round" stroke-linejoin="round" stroke-width="2"/>
      </g>
    </g>
  </g>
</svg>
