<svg xmlns="http://www.w3.org/2000/svg" width="460.229" height="448.182" viewBox="0 0 460.229 448.182">
  <g id="Grupo_3557" data-name="Grupo 3557" transform="translate(-41.406 -508)">
    <path id="Trazado_3145" data-name="Trazado 3145" d="M7395.406-771.354l460.229,39.505-35.307,352.031H7489.438Z" transform="translate(-7354 1336)" fill="#fffefd"/>
    <g id="Grupo_3278" data-name="Grupo 3278" transform="translate(-87.014 487.979)" opacity="0.871">
      <g id="Grupo_3193" data-name="Grupo 3193" transform="translate(153.014 27.569)">
        <g id="Grupo_3191" data-name="Grupo 3191" transform="translate(0 2.599)">
          <path id="Trazado_2935" data-name="Trazado 2935" d="M486.588,305.37a3.668,3.668,0,0,0-1.989-1.513,6.868,6.868,0,0,0-3.794.042,11.445,11.445,0,0,0-3.48,1.51,4.381,4.381,0,0,0-2.008,2.445,3.072,3.072,0,0,0,.414,2.586,3.527,3.527,0,0,0,2.485,1.607,4.816,4.816,0,0,0,3.523-.763,3.274,3.274,0,0,0,1.624-2.383,2.859,2.859,0,0,0-.441-1.984,2.975,2.975,0,0,0-.817-.834,6.029,6.029,0,0,0-1.343-.652,6.394,6.394,0,0,1,3.353-.36,2.133,2.133,0,0,1,1.433.894,1.372,1.372,0,0,1,.2,1.061,2.375,2.375,0,0,1-.86,1.222l.849,1.055a3.156,3.156,0,0,0,1.3-1.874A2.7,2.7,0,0,0,486.588,305.37Zm-5.8,1.122a2.054,2.054,0,0,1,.983.767,1.8,1.8,0,0,1,.211,1.515,2.507,2.507,0,0,1-1.143,1.439,3.846,3.846,0,0,1-1.052.453,3.3,3.3,0,0,1-1.267.126,2.9,2.9,0,0,1-1.089-.306,1.929,1.929,0,0,1-.723-.645,1.888,1.888,0,0,1-.289-.973,1.993,1.993,0,0,1,.309-1.1,2.781,2.781,0,0,1,.884-.908,3.539,3.539,0,0,1,1.613-.55A3.262,3.262,0,0,1,480.79,306.493Z" transform="translate(-248.749 -114.436)" fill="#21409a"/>
          <path id="Trazado_2936" data-name="Trazado 2936" d="M477.641,299.05a4.4,4.4,0,0,0,2.008-2.384,2.823,2.823,0,0,0-.345-2.41,3.406,3.406,0,0,0-1.953-1.441,7.276,7.276,0,0,0-3.917.13,12.191,12.191,0,0,0-3.531,1.565,4.134,4.134,0,0,0-1.91,2.307,2.87,2.87,0,0,0,.384,2.407,3.071,3.071,0,0,0,.879.906,4.326,4.326,0,0,0,1.255.541,6,6,0,0,0,1.806.157,11.984,11.984,0,0,0,5.324-1.778Zm-6.118.514a2.983,2.983,0,0,1-1.36-.243,2.066,2.066,0,0,1-.828-.734,1.589,1.589,0,0,1-.225-1.362,2.744,2.744,0,0,1,1.252-1.389,14.869,14.869,0,0,1,3.076-1.413,6.909,6.909,0,0,1,3.413-.462,2.021,2.021,0,0,1,1.458.858,1.56,1.56,0,0,1,.085,1.655,3.285,3.285,0,0,1-1.207,1.212,12.585,12.585,0,0,1-2.531,1.169A10.079,10.079,0,0,1,471.523,299.565Z" transform="translate(-246.576 -111.165)" fill="#21409a"/>
          <path id="Trazado_2937" data-name="Trazado 2937" d="M399.2,365.824l-10.186,6.186.567.609a4.426,4.426,0,0,1,.973-.084,10.6,10.6,0,0,1,1.949.322,11.627,11.627,0,0,1,2.258.78l1.134-.691a9.111,9.111,0,0,0-3.379-1.421l7.667-4.647Z" transform="translate(-223.142 -132.922)" fill="#21409a"/>
          <path id="Trazado_2938" data-name="Trazado 2938" d="M390.673,361.922a4.4,4.4,0,0,0,1.567-2.695,2.823,2.823,0,0,0-.757-2.314,3.408,3.408,0,0,0-2.172-1.084,7.28,7.28,0,0,0-3.835.808,12.079,12.079,0,0,0-3.209,2.15,4.133,4.133,0,0,0-1.482,2.6,2.865,2.865,0,0,0,.793,2.3,3.1,3.1,0,0,0,1.025.744,4.326,4.326,0,0,0,1.329.313,5.906,5.906,0,0,0,1.8-.156,11.984,11.984,0,0,0,4.936-2.669Zm-5.936,1.563a2.982,2.982,0,0,1-1.382,0,2.057,2.057,0,0,1-.943-.58,1.586,1.586,0,0,1-.457-1.3,2.741,2.741,0,0,1,.993-1.584,14.831,14.831,0,0,1,2.785-1.924,6.915,6.915,0,0,1,3.282-1.044,2.015,2.015,0,0,1,1.583.593,1.562,1.562,0,0,1,.371,1.617,3.278,3.278,0,0,1-.978,1.4,12.487,12.487,0,0,1-2.291,1.587A10.063,10.063,0,0,1,384.738,363.485Z" transform="translate(-220.691 -129.944)" fill="#21409a"/>
          <path id="Trazado_2939" data-name="Trazado 2939" d="M381.624,352.272a4.323,4.323,0,0,0,1.547-2.763,3.123,3.123,0,0,0-.869-2.48,3.513,3.513,0,0,0-2.726-1.139,4.835,4.835,0,0,0-3.35,1.372,3.369,3.369,0,0,0-1.188,2.292,2.893,2.893,0,0,0,.833,2.214,3.028,3.028,0,0,0,.992.7,4.768,4.768,0,0,0,1.366.365,8.412,8.412,0,0,1-1.715.724,3.982,3.982,0,0,1-1.843.193,2.123,2.123,0,0,1-1.247-.6,1.411,1.411,0,0,1-.4-1.041,2.253,2.253,0,0,1,.631-1.323l-1-.886a3.2,3.2,0,0,0-.964,2.073,2.653,2.653,0,0,0,.784,1.925,3.619,3.619,0,0,0,1.533,1,4.885,4.885,0,0,0,2.016.155,8.18,8.18,0,0,0,2.532-.755A11.494,11.494,0,0,0,381.624,352.272Zm-4.708-1.069a1.841,1.841,0,0,1-.494-1.463,2.427,2.427,0,0,1,.846-1.587,3.642,3.642,0,0,1,1.5-.823,3.169,3.169,0,0,1,1.6-.1,2.048,2.048,0,0,1,1.077.556,1.824,1.824,0,0,1,.452,1.464,2.36,2.36,0,0,1-.791,1.574,3.491,3.491,0,0,1-2.3,1.035A2.349,2.349,0,0,1,376.916,351.2Z" transform="translate(-217.992 -126.998)" fill="#21409a"/>
          <path id="Trazado_2940" data-name="Trazado 2940" d="M523.142,454.225a3.4,3.4,0,0,1-.431-1.982,2.037,2.037,0,0,1,.784-1.332,1.912,1.912,0,0,1,1.449-.415,1.848,1.848,0,0,1,1.29.73,2.138,2.138,0,0,1,.4.812,4.474,4.474,0,0,1,.063,1.5,17.646,17.646,0,0,1-.4,2q-.557,2.324-.685,3.225a5.85,5.85,0,0,0,0,1.7,6.17,6.17,0,0,0,.587,1.761l5.5-4.28-.592-1.215-4.13,3.211a5.028,5.028,0,0,1-.008-1.288,16.887,16.887,0,0,1,.4-2.073,22.093,22.093,0,0,0,.747-3.924,3.629,3.629,0,0,0-.721-2.279,3.205,3.205,0,0,0-1.271-.973,2.791,2.791,0,0,0-1.676-.172,3.9,3.9,0,0,0-1.68.782,3.6,3.6,0,0,0-1.418,2.238,3.845,3.845,0,0,0,.552,2.678Z" transform="translate(-262.447 -157.689)" fill="#21409a"/>
          <path id="Trazado_2941" data-name="Trazado 2941" d="M533.344,446.01a2.687,2.687,0,0,1-.351-1.743,2.026,2.026,0,0,1,.755-1.3,1.81,1.81,0,0,1,1.391-.384,1.847,1.847,0,0,1,1.264.734,1.915,1.915,0,0,1,.383,1.577,2.748,2.748,0,0,1-1.132,1.644,2.614,2.614,0,0,1-.335.219l.543,1.1c.172-.16.288-.261.346-.309a2.153,2.153,0,0,1,1.579-.515,1.891,1.891,0,0,1,1.333.765,2.4,2.4,0,0,1,.463,1.863,2.537,2.537,0,0,1-.987,1.738,1.961,1.961,0,0,1-1.455.46,2.934,2.934,0,0,1-1.638-.954l-1,1a3.422,3.422,0,0,0,2.317,1.2,3.657,3.657,0,0,0,2.57-.872A3.874,3.874,0,0,0,540.9,449.6a3.692,3.692,0,0,0-.743-2.873,2.545,2.545,0,0,0-1.076-.831,2.829,2.829,0,0,0-1.411-.145,3.55,3.55,0,0,0,.439-1.794,2.725,2.725,0,0,0-.61-1.569,2.87,2.87,0,0,0-2.014-1.142,3.181,3.181,0,0,0-2.37.741,3.688,3.688,0,0,0-1.378,2.072,3.922,3.922,0,0,0,.307,2.59Z" transform="translate(-265.521 -155.329)" fill="#21409a"/>
          <path id="Trazado_2942" data-name="Trazado 2942" d="M456.762,315.712l.008-.006c-1.032-1.6-103.552-160.507-119.589-184.611-10-15.038-32.26-58.385-32.483-58.822h0a.752.752,0,0,0-.188-.234.742.742,0,0,0-1.044.1c-13.283,16.142-22.492,15.728-33.909,9.562-16.211-8.755-29.644-21-43.864-33.962-4.618-4.21-9.4-8.564-14.3-12.817l-.538-.467L153.441,95.644l-.427.456.376.5c.16.212,8.417,11.133,17.957,23.386a.709.709,0,0,0,.052.067c9.021,11.587,19.177,24.348,24.716,30.371C207.5,162.8,392.876,361.936,394.747,363.945a.739.739,0,0,0,1.048.037c.006-.006.01-.016.016-.023.022-.013.044-.02.065-.035L456.6,316.692A.734.734,0,0,0,456.762,315.712ZM173.077,119.8l61.559-30.543,1,1.264-61.505,30.637Zm62.916-31.217,23.088-11.455q.742.491,1.491.974L237,89.841Zm-59.66-15.165c5.709,7.2,11.483,15.384,14.347,19.521L169.516,80.68Zm-7.859,8.375L195.556,97.47l-1.8-2.666c-.082-.124-8.326-12.329-16.4-22.482l33.6-35.81c4.7,4.092,9.292,8.274,13.734,12.325,10.906,9.94,21.356,19.456,32.967,27.337L235.05,87.392,204.012,48.347a.741.741,0,0,0-1.16.921l30.841,38.8L172.147,118.6c-8.262-10.621-15.494-20.149-17.2-22.4Zm6.593,40.556L236.583,91.7l21.235,26.713-2.79,2.218,13.364,9.894-6.624-15.251-2.79,2.218L237.939,91.027l24.019-11.965c.024-.013.039-.033.061-.047,2.228,1.392,4.5,2.731,6.832,3.993,11.587,6.258,21.538,6.9,35.037-9.069,3.386,6.567,22.857,44.141,32.059,57.976,15.547,23.368,112.434,173.521,119.21,184.023l-59.787,46.5C385.035,351.339,208.312,161.5,197.205,149.42,192.2,143.976,183.386,132.978,175.067,122.345Z" transform="translate(-153.014 -34.458)" fill="#21409a"/>
        </g>
        <g id="Grupo_3192" data-name="Grupo 3192" transform="translate(253.175)">
          <path id="Trazado_2943" data-name="Trazado 2943" d="M645.694,90.355c-13.567-20.218-16.083-58.515-16.107-58.9l-.043-.7H527.33V94.888h11.509c-.017,5.658-.03,9.224-.03,9.333-.729,7.973-9.48,12.6-24.643,13.023a.731.731,0,0,0-.614.383.74.74,0,0,0-.314.756c.093.48,9.356,48.1,10.692,66.111,2.115,28.52,18.372,212.7,18.927,218.988a.7.7,0,0,0-.021.1.741.741,0,0,0,.741.741l76.963-.006c.024,0,.045-.012.068-.014s.027.01.041.011l.058,0a.741.741,0,0,0,.738-.683l24.372-312.81.02-.256ZM538.828,93.119a.735.735,0,0,0-.139.287h-9.878V32.242h10q.01,1.43.018,2.927Zm81.194,309.717-75.735.006c-1.1-12.4-16.8-190.465-18.879-218.457-1.262-16.993-9.519-60.093-10.6-65.684,21.065-.751,25.012-9.288,25.478-14.409,0-.122.014-3.4.03-8.656l4.069,4.327-2.6,2.441,14.139,8.751-7.866-14.648-2.6,2.441-3.818-4.06h7.119V81.711a.741.741,0,0,0-1.482,0v11.7h-6.963c.042-14.323.089-39.827-.012-58.214v-2.95h51.623a.729.729,0,0,0-.038.188v6.695l-.948-1.4a.741.741,0,0,0-1.227.832l1.711,2.521v.281l-1.711,2.52a.742.742,0,0,0,.2,1.029.726.726,0,0,0,.415.128.742.742,0,0,0,.614-.325l.948-1.4v64.359h-3.563l4.3,16.06,4.3-16.06h-3.563V53a.7.7,0,0,0,.014-.072V43.967l.507.747a.74.74,0,0,0,.614.325.733.733,0,0,0,.415-.128.741.741,0,0,0,.2-1.029l-1.266-1.865h4.992a3.148,3.148,0,1,0-.112-1.482h-4.955l1.341-1.976a.741.741,0,0,0-1.226-.832l-.507.748V35.341a.6.6,0,0,0-.014-.072V32.431a.729.729,0,0,0-.039-.188h34.819c.411,5.312,3.514,39.65,16.163,58.723ZM600.167,41.058a1.677,1.677,0,1,1,1.677,1.676A1.679,1.679,0,0,1,600.167,41.058Z" transform="translate(-513.224 -30.76)" fill="#21409a"/>
          <path id="Trazado_2944" data-name="Trazado 2944" d="M660.405,435.887a11.482,11.482,0,0,0-3.675-.945,4.383,4.383,0,0,0-3.084.7,3.072,3.072,0,0,0-1.262,2.3,3.518,3.518,0,0,0,.976,2.794,4.81,4.81,0,0,0,3.249,1.558,3.265,3.265,0,0,0,2.746-.883,2.852,2.852,0,0,0,.869-1.835,2.984,2.984,0,0,0-.134-1.161,6.078,6.078,0,0,0-.659-1.339,6.39,6.39,0,0,1,2.865,1.775,2.118,2.118,0,0,1,.583,1.584,1.385,1.385,0,0,1-.493.961,2.377,2.377,0,0,1-1.43.437l.023,1.353a3.149,3.149,0,0,0,2.177-.68,2.7,2.7,0,0,0,.91-1.9,3.663,3.663,0,0,0-.641-2.414A6.875,6.875,0,0,0,660.405,435.887Zm-2.061,4.573a2.518,2.518,0,0,1-1.785.434,3.941,3.941,0,0,1-1.109-.288,3.338,3.338,0,0,1-1.077-.679,2.859,2.859,0,0,1-.672-.912,1.9,1.9,0,0,1-.175-.952,1.853,1.853,0,0,1,.37-.943,1.977,1.977,0,0,1,.92-.683,2.794,2.794,0,0,1,1.255-.174,3.548,3.548,0,0,1,1.612.557,3.252,3.252,0,0,1,1.12,1.1,2.062,2.062,0,0,1,.305,1.211A1.8,1.8,0,0,1,658.344,440.46Z" transform="translate(-554.571 -150.854)" fill="#21409a"/>
          <path id="Trazado_2945" data-name="Trazado 2945" d="M655.261,421.061l-1.29-.377-.618,7.393,1.288.386.484-5.774a16.788,16.788,0,0,0,3.138,2.934,22.751,22.751,0,0,0,3.776,2.257,15.148,15.148,0,0,0,2.745,1.041l.125-1.493a21.81,21.81,0,0,1-5.667-2.725A15.233,15.233,0,0,1,655.261,421.061Z" transform="translate(-554.863 -146.624)" fill="#21409a"/>
          <path id="Trazado_2946" data-name="Trazado 2946" d="M562.01,433.483a6.85,6.85,0,0,0-3.373-1.739,11.379,11.379,0,0,0-3.783-.3,4.37,4.37,0,0,0-2.917,1.219,3.071,3.071,0,0,0-.845,2.479,3.523,3.523,0,0,0,1.443,2.584,4.812,4.812,0,0,0,3.471.974,3.274,3.274,0,0,0,2.553-1.345,2.854,2.854,0,0,0,.538-1.959,3.008,3.008,0,0,0-.332-1.12,6.177,6.177,0,0,0-.881-1.205,6.393,6.393,0,0,1,3.129,1.253,2.129,2.129,0,0,1,.849,1.459,1.374,1.374,0,0,1-.32,1.03,2.352,2.352,0,0,1-1.333.678l.257,1.331a3.141,3.141,0,0,0,2.026-1.047,2.7,2.7,0,0,0,.569-2.029A3.659,3.659,0,0,0,562.01,433.483Zm-4.089,1.683a1.8,1.8,0,0,1-.523,1.437,2.519,2.519,0,0,1-1.684.739,3.938,3.938,0,0,1-1.142-.092,3.4,3.4,0,0,1-1.178-.483,2.9,2.9,0,0,1-.819-.781,1.917,1.917,0,0,1-.337-.91,1.857,1.857,0,0,1,.2-.993,1.978,1.978,0,0,1,.789-.831,2.794,2.794,0,0,1,1.205-.388,3.533,3.533,0,0,1,1.684.269,3.254,3.254,0,0,1,1.295.894A2.069,2.069,0,0,1,557.921,435.166Z" transform="translate(-524.472 -149.809)" fill="#21409a"/>
          <path id="Trazado_2947" data-name="Trazado 2947" d="M552.605,425.072a11.925,11.925,0,0,0,5.535.923,4.4,4.4,0,0,0,2.89-1.165,2.825,2.825,0,0,0,.823-2.291,3.418,3.418,0,0,0-1.049-2.189,7.276,7.276,0,0,0-3.522-1.718,12.21,12.21,0,0,0-3.854-.272,4.134,4.134,0,0,0-2.769,1.147,2.872,2.872,0,0,0-.786,2.3,3.1,3.1,0,0,0,.353,1.214,4.316,4.316,0,0,0,.856,1.063A5.937,5.937,0,0,0,552.605,425.072Zm-1.149-4.682a2.738,2.738,0,0,1,1.756-.642,14.814,14.814,0,0,1,3.38.193,6.907,6.907,0,0,1,3.232,1.19,2.016,2.016,0,0,1,.887,1.439,1.565,1.565,0,0,1-.7,1.506,3.3,3.3,0,0,1-1.634.5,12.536,12.536,0,0,1-2.783-.153,10.114,10.114,0,0,1-3.1-.841,3.019,3.019,0,0,1-1.087-.851,2.068,2.068,0,0,1-.388-1.037A1.585,1.585,0,0,1,551.456,420.39Z" transform="translate(-524.11 -145.919)" fill="#21409a"/>
          <path id="Trazado_2948" data-name="Trazado 2948" d="M611.459,536.193a3.912,3.912,0,0,0-1.806-.414,3.591,3.591,0,0,0-2.493.9,3.843,3.843,0,0,0-1.208,2.452l1.411.208a3.392,3.392,0,0,1,.877-1.832,2.049,2.049,0,0,1,1.436-.569,1.916,1.916,0,0,1,1.4.562,1.848,1.848,0,0,1,.571,1.368,2.115,2.115,0,0,1-.183.885,4.459,4.459,0,0,1-.869,1.221,18.045,18.045,0,0,1-1.548,1.331q-1.867,1.493-2.521,2.127a5.853,5.853,0,0,0-1.049,1.34,6.286,6.286,0,0,0-.618,1.751h6.972l.28-1.323h-5.233a4.978,4.978,0,0,1,.786-1.022,16.708,16.708,0,0,1,1.591-1.387,22.066,22.066,0,0,0,3-2.641,3.635,3.635,0,0,0,.829-2.242,3.2,3.2,0,0,0-.408-1.548A2.8,2.8,0,0,0,611.459,536.193Z" transform="translate(-540.453 -180.824)" fill="#21409a"/>
          <path id="Trazado_2949" data-name="Trazado 2949" d="M623.012,535.779a3.119,3.119,0,0,0-1.248.242,4.345,4.345,0,0,0-1.145.763,6,6,0,0,0-1.124,1.435,12.046,12.046,0,0,0-1.428,5.464,4.429,4.429,0,0,0,.905,3,2.843,2.843,0,0,0,2.222,1.033,3.438,3.438,0,0,0,2.288-.853,7.328,7.328,0,0,0,2.042-3.374,12.225,12.225,0,0,0,.622-3.836,4.173,4.173,0,0,0-.9-2.88A2.888,2.888,0,0,0,623.012,535.779Zm1.264,6.9a6.967,6.967,0,0,1-1.487,3.13,2.032,2.032,0,0,1-1.524.758,1.572,1.572,0,0,1-1.444-.838,3.33,3.33,0,0,1-.358-1.682,12.678,12.678,0,0,1,.406-2.776,10.2,10.2,0,0,1,1.124-3.031,3,3,0,0,1,.953-1.013,2.074,2.074,0,0,1,1.073-.295,1.6,1.6,0,0,1,1.272.557,2.763,2.763,0,0,1,.483,1.818A14.981,14.981,0,0,1,624.277,542.683Z" transform="translate(-544.378 -180.824)" fill="#21409a"/>
        </g>
      </g>
      <g id="Grupo_3257" data-name="Grupo 3257" transform="translate(163.583 151.534)">
        <g id="Grupo_3194" data-name="Grupo 3194" transform="translate(183.516 207.746)">
          <path id="Trazado_2950" data-name="Trazado 2950" d="M446.762,515.609a2.525,2.525,0,0,1,.393,1.306,2.411,2.411,0,0,1-.325,1.227,3.015,3.015,0,0,1-1.668,1.333,3.9,3.9,0,0,1-4.756-2.287,2.769,2.769,0,0,1,1.449-3.331,3.256,3.256,0,0,1,1.87-.2,3.052,3.052,0,0,1-.408-1.328,2.886,2.886,0,0,1,.422-1.522,4.1,4.1,0,0,1,2.4-1.891,3.864,3.864,0,0,1,3.223.424,3.357,3.357,0,0,1,1.652,2.02,3.081,3.081,0,0,1-.335,2.467,3.723,3.723,0,0,1-1.7,1.6A3.291,3.291,0,0,1,446.762,515.609Zm-1.146,1.757a1.611,1.611,0,0,0,.188-1.305,1.871,1.871,0,0,0-.933-1.077,2.231,2.231,0,0,0-1.714-.286,2.006,2.006,0,0,0-1.293.984,1.628,1.628,0,0,0-.189,1.305,1.859,1.859,0,0,0,.928,1.084,2.427,2.427,0,0,0,1.179.335,1.916,1.916,0,0,0,1.1-.3A2.216,2.216,0,0,0,445.616,517.366Zm3.847-4.377a1.993,1.993,0,0,0,.266-.939,1.737,1.737,0,0,0-.265-.985,2.277,2.277,0,0,0-.826-.786,2.223,2.223,0,0,0-2.225,0,3.331,3.331,0,0,0-1.446,1.34,1.806,1.806,0,0,0-.21,1.437,1.935,1.935,0,0,0,.959,1.161,2.446,2.446,0,0,0,2.021.225A2.986,2.986,0,0,0,449.464,512.99Z" transform="translate(-432.457 -504.499)"/>
          <path id="Trazado_2951" data-name="Trazado 2951" d="M438.53,503.444l-6.1,6.808a9.323,9.323,0,0,1,3.718.385l-.9,1.011a11.94,11.94,0,0,0-2.436-.092,10.814,10.814,0,0,0-2,.265,4.353,4.353,0,0,0-.924.371l-.735-.425,8.1-9.058Z" transform="translate(-429.153 -502.708)"/>
        </g>
        <g id="Grupo_3256" data-name="Grupo 3256">
          <g id="Grupo_3210" data-name="Grupo 3210" transform="translate(0.312 123.353)">
            <path id="Trazado_2952" data-name="Trazado 2952" d="M178.45,388.721a.385.385,0,0,1-.18-.046l-9.583-5.345a.37.37,0,1,1,.361-.647l9.584,5.345a.37.37,0,0,1-.181.693Z" transform="translate(-168.496 -382.636)" fill="#231f20"/>
            <g id="Grupo_3195" data-name="Grupo 3195" transform="translate(10.9 5.401)">
              <path id="Trazado_2953" data-name="Trazado 2953" d="M184.737,391.636a1.326,1.326,0,1,1,.429,1.934A1.405,1.405,0,0,1,184.737,391.636Z" transform="translate(-184.161 -390.473)" fill="#231f20"/>
              <path id="Trazado_2954" data-name="Trazado 2954" d="M185.6,393.938a1.568,1.568,0,0,1-.766-.2,1.774,1.774,0,0,1-.572-2.436,1.808,1.808,0,0,1,2.375-.795,1.776,1.776,0,0,1,.572,2.438A1.87,1.87,0,0,1,185.6,393.938Zm.271-2.887a1.148,1.148,0,0,0-.963.612,1.04,1.04,0,0,0,.286,1.431,1.068,1.068,0,0,0,1.368-.508,1.04,1.04,0,0,0-.287-1.43A.818.818,0,0,0,185.867,391.051Z" transform="translate(-184.005 -390.32)" fill="#231f20"/>
            </g>
            <path id="Trazado_2955" data-name="Trazado 2955" d="M199.69,400.566a.361.361,0,0,1-.179-.049l-9.584-5.343a.37.37,0,1,1,.361-.646l9.583,5.342a.372.372,0,0,1-.181.7Z" transform="translate(-174.808 -386.155)" fill="#231f20"/>
            <g id="Grupo_3196" data-name="Grupo 3196" transform="translate(25.829 13.727)">
              <path id="Trazado_2956" data-name="Trazado 2956" d="M205.978,403.48a1.326,1.326,0,1,1,.428,1.934A1.405,1.405,0,0,1,205.978,403.48Z" transform="translate(-205.401 -402.318)" fill="#231f20"/>
              <path id="Trazado_2957" data-name="Trazado 2957" d="M206.836,405.782a1.558,1.558,0,0,1-.765-.2,1.776,1.776,0,0,1-.572-2.436,1.81,1.81,0,0,1,2.374-.8,1.6,1.6,0,0,1,.784,1.075,1.94,1.94,0,0,1-.211,1.363A1.87,1.87,0,0,1,206.836,405.782Zm.271-2.886a1.147,1.147,0,0,0-.962.612,1.039,1.039,0,0,0,.286,1.43,1.064,1.064,0,0,0,1.366-.507,1.2,1.2,0,0,0,.136-.843.88.88,0,0,0-.422-.59A.819.819,0,0,0,207.107,402.9Z" transform="translate(-205.245 -402.166)" fill="#231f20"/>
            </g>
            <path id="Trazado_2958" data-name="Trazado 2958" d="M220.931,412.409a.366.366,0,0,1-.181-.046l-9.583-5.342a.371.371,0,0,1,.361-.648l9.583,5.344a.37.37,0,0,1-.181.693Z" transform="translate(-181.119 -389.675)" fill="#231f20"/>
            <g id="Grupo_3197" data-name="Grupo 3197" transform="translate(40.757 22.049)">
              <path id="Trazado_2959" data-name="Trazado 2959" d="M227.218,415.325a1.325,1.325,0,1,1,.429,1.932A1.4,1.4,0,0,1,227.218,415.325Z" transform="translate(-226.64 -414.16)" fill="#231f20"/>
              <path id="Trazado_2960" data-name="Trazado 2960" d="M228.076,417.626a1.561,1.561,0,0,1-.765-.2,1.6,1.6,0,0,1-.784-1.075,1.933,1.933,0,0,1,.212-1.361,1.81,1.81,0,0,1,2.374-.8,1.778,1.778,0,0,1,.573,2.438A1.87,1.87,0,0,1,228.076,417.626Zm.272-2.887a1.148,1.148,0,0,0-.963.613,1.2,1.2,0,0,0-.135.841.873.873,0,0,0,.42.588,1.062,1.062,0,0,0,1.368-.507,1.04,1.04,0,0,0-.286-1.43A.826.826,0,0,0,228.348,414.739Z" transform="translate(-226.483 -414.007)" fill="#231f20"/>
            </g>
            <path id="Trazado_2961" data-name="Trazado 2961" d="M242.171,424.254a.366.366,0,0,1-.18-.049l-9.583-5.343a.37.37,0,0,1,.361-.647l9.584,5.343a.372.372,0,0,1-.181.7Z" transform="translate(-187.431 -393.194)" fill="#231f20"/>
            <g id="Grupo_3198" data-name="Grupo 3198" transform="translate(55.687 30.365)">
              <path id="Trazado_2962" data-name="Trazado 2962" d="M248.458,427.168a1.326,1.326,0,1,1,.429,1.934A1.406,1.406,0,0,1,248.458,427.168Z" transform="translate(-247.882 -425.995)" fill="#231f20"/>
              <path id="Trazado_2963" data-name="Trazado 2963" d="M249.317,429.467a1.57,1.57,0,0,1-.766-.2,1.776,1.776,0,0,1-.572-2.437,1.87,1.87,0,0,1,1.61-.993,1.577,1.577,0,0,1,.765.2,1.607,1.607,0,0,1,.784,1.076,1.934,1.934,0,0,1-.212,1.362A1.871,1.871,0,0,1,249.317,429.467Zm.271-2.887a1.144,1.144,0,0,0-.962.611,1.04,1.04,0,0,0,.286,1.43,1.064,1.064,0,0,0,1.366-.507,1.2,1.2,0,0,0,.135-.842.876.876,0,0,0-.42-.59A.819.819,0,0,0,249.589,426.58Z" transform="translate(-247.726 -425.838)" fill="#231f20"/>
            </g>
            <path id="Trazado_2964" data-name="Trazado 2964" d="M263.412,436.1a.37.37,0,0,1-.18-.047l-9.584-5.343a.371.371,0,0,1,.362-.648l9.583,5.345a.368.368,0,0,1,.143.5A.373.373,0,0,1,263.412,436.1Z" transform="translate(-193.742 -396.714)" fill="#231f20"/>
            <g id="Grupo_3199" data-name="Grupo 3199" transform="translate(70.616 38.689)">
              <path id="Trazado_2965" data-name="Trazado 2965" d="M269.7,439.013a1.326,1.326,0,1,1,.43,1.933A1.406,1.406,0,0,1,269.7,439.013Z" transform="translate(-269.122 -437.838)" fill="#231f20"/>
              <path id="Trazado_2966" data-name="Trazado 2966" d="M270.557,441.31a1.586,1.586,0,0,1-.765-.2,1.776,1.776,0,0,1-.574-2.437,1.871,1.871,0,0,1,1.61-1,1.572,1.572,0,0,1,.766.2,1.6,1.6,0,0,1,.783,1.075,1.944,1.944,0,0,1-.212,1.364A1.869,1.869,0,0,1,270.557,441.31Zm.271-2.887a1.147,1.147,0,0,0-.962.613,1.04,1.04,0,0,0,.287,1.431,1.064,1.064,0,0,0,1.366-.51,1.2,1.2,0,0,0,.135-.841.883.883,0,0,0-.42-.59A.826.826,0,0,0,270.828,438.423Z" transform="translate(-268.966 -437.681)" fill="#231f20"/>
            </g>
            <path id="Trazado_2967" data-name="Trazado 2967" d="M284.652,447.942a.367.367,0,0,1-.181-.047l-9.583-5.344a.37.37,0,0,1,.361-.647l9.583,5.345a.37.37,0,0,1-.181.694Z" transform="translate(-200.053 -400.233)" fill="#231f20"/>
            <g id="Grupo_3200" data-name="Grupo 3200" transform="translate(85.543 47.025)">
              <path id="Trazado_2968" data-name="Trazado 2968" d="M290.939,450.856a1.326,1.326,0,1,1,.429,1.934A1.407,1.407,0,0,1,290.939,450.856Z" transform="translate(-290.361 -449.694)" fill="#231f20"/>
              <path id="Trazado_2969" data-name="Trazado 2969" d="M291.8,453.16a1.568,1.568,0,0,1-.766-.2,1.6,1.6,0,0,1-.783-1.075,1.931,1.931,0,0,1,.211-1.361,1.812,1.812,0,0,1,2.374-.8,1.6,1.6,0,0,1,.784,1.077,1.932,1.932,0,0,1-.211,1.361A1.872,1.872,0,0,1,291.8,453.16Zm.271-2.888a1.147,1.147,0,0,0-.963.611,1.2,1.2,0,0,0-.135.841.879.879,0,0,0,.421.59,1.062,1.062,0,0,0,1.367-.507,1.2,1.2,0,0,0,.135-.843.877.877,0,0,0-.42-.589A.823.823,0,0,0,292.069,450.272Z" transform="translate(-290.205 -449.542)" fill="#231f20"/>
            </g>
            <path id="Trazado_2970" data-name="Trazado 2970" d="M305.893,459.786a.383.383,0,0,1-.181-.046l-9.583-5.344a.371.371,0,0,1,.361-.648l9.583,5.344a.371.371,0,0,1-.181.694Z" transform="translate(-206.365 -403.753)" fill="#231f20"/>
            <g id="Grupo_3201" data-name="Grupo 3201" transform="translate(100.474 55.35)">
              <path id="Trazado_2971" data-name="Trazado 2971" d="M312.18,462.7a1.326,1.326,0,1,1,.429,1.934A1.4,1.4,0,0,1,312.18,462.7Z" transform="translate(-311.604 -461.538)" fill="#231f20"/>
              <path id="Trazado_2972" data-name="Trazado 2972" d="M313.039,465a1.574,1.574,0,0,1-.766-.2,1.778,1.778,0,0,1-.572-2.438,1.811,1.811,0,0,1,2.374-.794,1.776,1.776,0,0,1,.572,2.438A1.869,1.869,0,0,1,313.039,465Zm.271-2.887a1.149,1.149,0,0,0-.963.613,1.041,1.041,0,0,0,.286,1.43A1.064,1.064,0,0,0,314,463.65a1.04,1.04,0,0,0-.286-1.43A.818.818,0,0,0,313.311,462.116Z" transform="translate(-311.448 -461.386)" fill="#231f20"/>
            </g>
            <path id="Trazado_2973" data-name="Trazado 2973" d="M327.133,471.63a.361.361,0,0,1-.18-.046l-9.583-5.344a.37.37,0,0,1,.361-.647l9.583,5.345a.37.37,0,0,1-.181.693Z" transform="translate(-212.677 -407.272)" fill="#231f20"/>
            <path id="Trazado_2974" data-name="Trazado 2974" d="M348.374,483.475a.376.376,0,0,1-.179-.048l-9.584-5.344a.37.37,0,1,1,.361-.647l9.583,5.343a.371.371,0,0,1-.18.7Z" transform="translate(-218.988 -410.792)" fill="#231f20"/>
            <g id="Grupo_3202" data-name="Grupo 3202" transform="translate(130.331 71.998)">
              <path id="Trazado_2975" data-name="Trazado 2975" d="M354.661,486.389a1.326,1.326,0,1,1,.429,1.934A1.4,1.4,0,0,1,354.661,486.389Z" transform="translate(-354.083 -485.225)" fill="#231f20"/>
              <path id="Trazado_2976" data-name="Trazado 2976" d="M355.519,488.691a1.586,1.586,0,0,1-.766-.2,1.607,1.607,0,0,1-.783-1.075,1.94,1.94,0,0,1,.212-1.361,1.808,1.808,0,0,1,2.374-.8,1.6,1.6,0,0,1,.784,1.075,1.941,1.941,0,0,1-.212,1.363A1.869,1.869,0,0,1,355.519,488.691Zm.272-2.887a1.148,1.148,0,0,0-.964.613,1.2,1.2,0,0,0-.134.841.876.876,0,0,0,.421.59,1.065,1.065,0,0,0,1.367-.51,1.2,1.2,0,0,0,.135-.841.878.878,0,0,0-.422-.59A.815.815,0,0,0,355.791,485.8Z" transform="translate(-353.927 -485.073)" fill="#231f20"/>
            </g>
            <path id="Trazado_2977" data-name="Trazado 2977" d="M369.614,495.318a.37.37,0,0,1-.18-.047l-9.583-5.345a.37.37,0,1,1,.359-.647l9.584,5.345a.37.37,0,0,1-.181.694Z" transform="translate(-225.3 -414.311)" fill="#231f20"/>
            <g id="Grupo_3203" data-name="Grupo 3203" transform="translate(145.261 80.324)">
              <path id="Trazado_2978" data-name="Trazado 2978" d="M375.9,498.232a1.326,1.326,0,1,1,.429,1.934A1.407,1.407,0,0,1,375.9,498.232Z" transform="translate(-375.325 -497.071)" fill="#231f20"/>
              <path id="Trazado_2979" data-name="Trazado 2979" d="M376.76,500.536a1.574,1.574,0,0,1-.767-.2,1.775,1.775,0,0,1-.571-2.437,1.81,1.81,0,0,1,2.374-.794,1.775,1.775,0,0,1,.573,2.436A1.869,1.869,0,0,1,376.76,500.536Zm.272-2.887a1.145,1.145,0,0,0-.964.613,1.038,1.038,0,0,0,.287,1.429,1.063,1.063,0,0,0,1.367-.507,1.04,1.04,0,0,0-.287-1.431A.821.821,0,0,0,377.032,497.648Z" transform="translate(-375.169 -496.918)" fill="#231f20"/>
            </g>
            <path id="Trazado_2980" data-name="Trazado 2980" d="M390.855,507.163a.364.364,0,0,1-.18-.048l-9.584-5.343a.37.37,0,1,1,.361-.646l9.583,5.342a.371.371,0,0,1-.18.694Z" transform="translate(-231.611 -417.831)" fill="#231f20"/>
            <g id="Grupo_3204" data-name="Grupo 3204" transform="translate(160.188 88.638)">
              <path id="Trazado_2981" data-name="Trazado 2981" d="M397.141,510.076a1.326,1.326,0,1,1,.429,1.934A1.405,1.405,0,0,1,397.141,510.076Z" transform="translate(-396.563 -508.903)" fill="#231f20"/>
              <path id="Trazado_2982" data-name="Trazado 2982" d="M398,512.376a1.573,1.573,0,0,1-.765-.2,1.608,1.608,0,0,1-.784-1.075,1.946,1.946,0,0,1,.212-1.364,1.869,1.869,0,0,1,1.609-.992,1.589,1.589,0,0,1,.767.2,1.776,1.776,0,0,1,.571,2.438A1.867,1.867,0,0,1,398,512.376Zm.271-2.889a1.145,1.145,0,0,0-.961.613,1.2,1.2,0,0,0-.135.841.879.879,0,0,0,.421.59,1.065,1.065,0,0,0,1.367-.507,1.039,1.039,0,0,0-.286-1.43A.826.826,0,0,0,398.27,509.487Z" transform="translate(-396.407 -508.747)" fill="#231f20"/>
            </g>
            <path id="Trazado_2983" data-name="Trazado 2983" d="M412.095,519.006a.363.363,0,0,1-.18-.046l-9.583-5.343a.37.37,0,1,1,.361-.647l9.583,5.343a.37.37,0,0,1-.18.693Z" transform="translate(-237.923 -421.35)" fill="#231f20"/>
            <g id="Grupo_3205" data-name="Grupo 3205" transform="translate(175.117 96.973)">
              <path id="Trazado_2984" data-name="Trazado 2984" d="M418.382,521.921a1.326,1.326,0,1,1,.43,1.932A1.405,1.405,0,0,1,418.382,521.921Z" transform="translate(-417.804 -520.758)" fill="#231f20"/>
              <path id="Trazado_2985" data-name="Trazado 2985" d="M419.24,524.224a1.57,1.57,0,0,1-.766-.2,1.6,1.6,0,0,1-.783-1.075,1.93,1.93,0,0,1,.212-1.36,1.808,1.808,0,0,1,2.374-.8,1.775,1.775,0,0,1,.573,2.437A1.87,1.87,0,0,1,419.24,524.224Zm.272-2.887a1.149,1.149,0,0,0-.964.613,1.2,1.2,0,0,0-.134.841.874.874,0,0,0,.42.588,1.067,1.067,0,0,0,1.369-.508,1.04,1.04,0,0,0-.288-1.43A.806.806,0,0,0,419.512,521.336Z" transform="translate(-417.647 -520.606)" fill="#231f20"/>
            </g>
            <path id="Trazado_2986" data-name="Trazado 2986" d="M433.338,530.851a.366.366,0,0,1-.181-.047l-9.583-5.344a.37.37,0,1,1,.361-.647l9.583,5.344a.37.37,0,0,1-.18.694Z" transform="translate(-244.235 -424.869)" fill="#231f20"/>
            <g id="Grupo_3206" data-name="Grupo 3206" transform="translate(190.049 105.297)">
              <path id="Trazado_2987" data-name="Trazado 2987" d="M439.625,533.766a1.325,1.325,0,1,1,.428,1.932A1.406,1.406,0,0,1,439.625,533.766Z" transform="translate(-439.048 -532.602)" fill="#231f20"/>
              <path id="Trazado_2988" data-name="Trazado 2988" d="M440.483,536.068a1.574,1.574,0,0,1-.767-.2,1.776,1.776,0,0,1-.571-2.437,1.809,1.809,0,0,1,2.374-.8,1.778,1.778,0,0,1,.572,2.438A1.87,1.87,0,0,1,440.483,536.068Zm.271-2.887a1.144,1.144,0,0,0-.962.613,1.038,1.038,0,0,0,.287,1.429,1.064,1.064,0,0,0,1.366-.508,1.04,1.04,0,0,0-.287-1.432A.816.816,0,0,0,440.754,533.181Z" transform="translate(-438.892 -532.449)" fill="#231f20"/>
            </g>
            <path id="Trazado_2989" data-name="Trazado 2989" d="M454.578,542.695a.364.364,0,0,1-.18-.048l-9.584-5.342a.371.371,0,0,1,.361-.648L454.758,542a.37.37,0,0,1-.18.694Z" transform="translate(-250.546 -428.389)" fill="#231f20"/>
            <g id="Grupo_3207" data-name="Grupo 3207" transform="translate(204.978 113.622)">
              <path id="Trazado_2990" data-name="Trazado 2990" d="M460.865,545.609a1.326,1.326,0,1,1,.429,1.934A1.406,1.406,0,0,1,460.865,545.609Z" transform="translate(-460.288 -544.446)" fill="#231f20"/>
              <path id="Trazado_2991" data-name="Trazado 2991" d="M461.722,547.911a1.573,1.573,0,0,1-.764-.2,1.777,1.777,0,0,1-.573-2.437,1.812,1.812,0,0,1,2.375-.8,1.777,1.777,0,0,1,.572,2.438A1.873,1.873,0,0,1,461.722,547.911Zm.272-2.887a1.147,1.147,0,0,0-.961.613,1.04,1.04,0,0,0,.285,1.43,1.067,1.067,0,0,0,1.368-.509,1.042,1.042,0,0,0-.287-1.431A.827.827,0,0,0,461.994,545.024Z" transform="translate(-460.132 -544.294)" fill="#231f20"/>
            </g>
            <path id="Trazado_2992" data-name="Trazado 2992" d="M475.819,554.539a.366.366,0,0,1-.181-.046l-9.583-5.345a.37.37,0,0,1,.361-.646L476,553.846a.37.37,0,0,1-.18.693Z" transform="translate(-256.858 -431.908)" fill="#231f20"/>
            <g id="Grupo_3208" data-name="Grupo 3208" transform="translate(219.906 121.936)">
              <path id="Trazado_2993" data-name="Trazado 2993" d="M482.105,557.453a1.326,1.326,0,1,1,.429,1.933A1.406,1.406,0,0,1,482.105,557.453Z" transform="translate(-481.528 -556.279)" fill="#231f20"/>
              <path id="Trazado_2994" data-name="Trazado 2994" d="M482.964,559.752a1.573,1.573,0,0,1-.767-.2,1.6,1.6,0,0,1-.757-.973,1.94,1.94,0,0,1,.186-1.464,1.869,1.869,0,0,1,1.609-.993,1.581,1.581,0,0,1,.765.2,1.78,1.78,0,0,1,.574,2.44A1.872,1.872,0,0,1,482.964,559.752Zm.271-2.887a1.143,1.143,0,0,0-.962.613,1.2,1.2,0,0,0-.12.9.873.873,0,0,0,.406.53,1.063,1.063,0,0,0,1.367-.508,1.043,1.043,0,0,0-.286-1.432A.825.825,0,0,0,483.234,556.865Z" transform="translate(-481.372 -556.123)" fill="#231f20"/>
            </g>
            <path id="Trazado_2995" data-name="Trazado 2995" d="M497.059,566.383a.376.376,0,0,1-.181-.046l-9.583-5.344a.371.371,0,1,1,.36-.648l9.583,5.345a.371.371,0,0,1-.179.694Z" transform="translate(-263.169 -435.427)" fill="#231f20"/>
            <g id="Grupo_3209" data-name="Grupo 3209" transform="translate(115.403 63.674)">
              <path id="Trazado_2996" data-name="Trazado 2996" d="M333.421,474.544a1.325,1.325,0,1,1,.428,1.934A1.4,1.4,0,0,1,333.421,474.544Z" transform="translate(-332.844 -473.382)" fill="#231f20"/>
              <path id="Trazado_2997" data-name="Trazado 2997" d="M334.278,476.848a1.565,1.565,0,0,1-.765-.2,1.775,1.775,0,0,1-.571-2.437,1.808,1.808,0,0,1,2.374-.794,1.6,1.6,0,0,1,.784,1.075,1.934,1.934,0,0,1-.212,1.362A1.87,1.87,0,0,1,334.278,476.848Zm.272-2.887a1.144,1.144,0,0,0-.962.612,1.037,1.037,0,0,0,.285,1.429,1.063,1.063,0,0,0,1.367-.507,1.2,1.2,0,0,0,.135-.843.872.872,0,0,0-.421-.588A.82.82,0,0,0,334.55,473.961Z" transform="translate(-332.688 -473.23)" fill="#231f20"/>
            </g>
          </g>
          <g id="Grupo_3227" data-name="Grupo 3227" transform="translate(22.853)">
            <path id="Trazado_2998" data-name="Trazado 2998" d="M200.624,228.6l267.255-20.393Z" transform="translate(-200.583 -207.453)" fill="#fff"/>
            <g id="Grupo_3226" data-name="Grupo 3226">
              <path id="Trazado_2999" data-name="Trazado 2999" d="M200.936,237.049a.371.371,0,0,1-.028-.74l10.941-.835a.37.37,0,1,1,.056.738l-10.941.836Z" transform="translate(-200.565 -215.554)" fill="#231f20"/>
              <g id="Grupo_3211" data-name="Grupo 3211" transform="translate(12.674 18.206)">
                <path id="Trazado_3000" data-name="Trazado 3000" d="M219.13,235.142a1.326,1.326,0,1,1,1.425,1.375A1.406,1.406,0,0,1,219.13,235.142Z" transform="translate(-218.754 -233.193)" fill="#231f20"/>
                <path id="Trazado_3001" data-name="Trazado 3001" d="M220.308,236.736a1.794,1.794,0,0,1-1.7-1.722,1.94,1.94,0,0,1,.38-1.325,1.605,1.605,0,0,1,1.162-.648,1.778,1.778,0,0,1,1.823,1.717,1.938,1.938,0,0,1-.38,1.326,1.6,1.6,0,0,1-1.162.647C220.387,236.734,220.347,236.736,220.308,236.736Zm-.044-2.959a.9.9,0,0,0-.692.36,1.2,1.2,0,0,0-.23.822,1.055,1.055,0,0,0,.966,1.037l.063,0a.879.879,0,0,0,.629-.359,1.2,1.2,0,0,0,.231-.82A1.054,1.054,0,0,0,220.264,233.777Z" transform="translate(-218.598 -233.036)" fill="#231f20"/>
              </g>
              <path id="Trazado_3002" data-name="Trazado 3002" d="M225.185,235.2a.37.37,0,0,1-.028-.739l10.941-.836a.37.37,0,1,1,.056.739l-10.941.836Z" transform="translate(-207.771 -215.004)" fill="#231f20"/>
              <g id="Grupo_3212" data-name="Grupo 3212" transform="translate(29.718 16.906)">
                <path id="Trazado_3003" data-name="Trazado 3003" d="M243.379,233.293a1.326,1.326,0,1,1,1.425,1.375A1.406,1.406,0,0,1,243.379,233.293Z" transform="translate(-243.004 -231.343)" fill="#231f20"/>
                <path id="Trazado_3004" data-name="Trazado 3004" d="M244.557,234.886a1.794,1.794,0,0,1-1.7-1.721,1.942,1.942,0,0,1,.379-1.326,1.605,1.605,0,0,1,1.162-.648,1.782,1.782,0,0,1,1.823,1.717,1.938,1.938,0,0,1-.38,1.325,1.6,1.6,0,0,1-1.162.648C244.636,234.883,244.6,234.886,244.557,234.886Zm-.045-2.959a.9.9,0,0,0-.69.361,1.2,1.2,0,0,0-.23.82,1.053,1.053,0,0,0,.965,1.037h.062a.879.879,0,0,0,.629-.359,1.2,1.2,0,0,0,.231-.821A1.054,1.054,0,0,0,244.512,231.927Z" transform="translate(-242.848 -231.187)" fill="#231f20"/>
              </g>
              <path id="Trazado_3005" data-name="Trazado 3005" d="M249.434,233.348a.37.37,0,0,1-.028-.739l10.941-.836a.365.365,0,0,1,.4.341.371.371,0,0,1-.341.4l-10.941.835Z" transform="translate(-214.976 -214.454)" fill="#231f20"/>
              <g id="Grupo_3213" data-name="Grupo 3213" transform="translate(46.762 15.605)">
                <path id="Trazado_3006" data-name="Trazado 3006" d="M267.628,231.443a1.326,1.326,0,1,1,1.425,1.375A1.406,1.406,0,0,1,267.628,231.443Z" transform="translate(-267.253 -229.492)" fill="#231f20"/>
                <path id="Trazado_3007" data-name="Trazado 3007" d="M268.806,233.035a1.793,1.793,0,0,1-1.7-1.721,1.939,1.939,0,0,1,.379-1.326,1.608,1.608,0,0,1,1.163-.648,1.779,1.779,0,0,1,1.822,1.717,1.932,1.932,0,0,1-.38,1.325,1.606,1.606,0,0,1-1.162.648C268.886,233.032,268.845,233.035,268.806,233.035Zm-.044-2.958a.9.9,0,0,0-.692.36,1.2,1.2,0,0,0-.23.821,1.052,1.052,0,0,0,.965,1.036h.063a.872.872,0,0,0,.628-.358,1.2,1.2,0,0,0,.231-.82A1.054,1.054,0,0,0,268.763,230.077Z" transform="translate(-267.096 -229.336)" fill="#231f20"/>
              </g>
              <path id="Trazado_3008" data-name="Trazado 3008" d="M273.683,231.5a.37.37,0,0,1-.028-.739l10.941-.834a.367.367,0,0,1,.4.341.372.372,0,0,1-.342.4l-10.941.834Z" transform="translate(-222.182 -213.905)" fill="#231f20"/>
              <g id="Grupo_3214" data-name="Grupo 3214" transform="translate(63.805 14.305)">
                <path id="Trazado_3009" data-name="Trazado 3009" d="M291.878,229.593a1.326,1.326,0,1,1,1.425,1.375A1.4,1.4,0,0,1,291.878,229.593Z" transform="translate(-291.502 -227.643)" fill="#231f20"/>
                <path id="Trazado_3010" data-name="Trazado 3010" d="M293.056,231.184a1.852,1.852,0,1,1,1.661-1.978,1.938,1.938,0,0,1-.38,1.326,1.6,1.6,0,0,1-1.162.647C293.135,231.183,293.095,231.184,293.056,231.184Zm-.044-2.958a1.042,1.042,0,0,0-.921,1.18,1.054,1.054,0,0,0,.966,1.037l.062,0a.873.873,0,0,0,.63-.358,1.2,1.2,0,0,0,.23-.82A1.053,1.053,0,0,0,293.012,228.227Z" transform="translate(-291.346 -227.486)" fill="#231f20"/>
              </g>
              <path id="Trazado_3011" data-name="Trazado 3011" d="M297.933,229.647a.37.37,0,0,1-.028-.739l10.941-.834a.365.365,0,0,1,.4.341.369.369,0,0,1-.341.4l-10.941.835Z" transform="translate(-229.388 -213.355)" fill="#231f20"/>
              <g id="Grupo_3215" data-name="Grupo 3215" transform="translate(80.849 13.004)">
                <path id="Trazado_3012" data-name="Trazado 3012" d="M316.126,227.742a1.326,1.326,0,1,1,1.426,1.375A1.406,1.406,0,0,1,316.126,227.742Z" transform="translate(-315.751 -225.791)" fill="#231f20"/>
                <path id="Trazado_3013" data-name="Trazado 3013" d="M317.3,229.334a1.7,1.7,0,1,1,.119,0C317.384,229.332,317.344,229.334,317.3,229.334Zm-.044-2.958a1.042,1.042,0,0,0-.921,1.181,1.054,1.054,0,0,0,.966,1.037l.063,0a1.039,1.039,0,0,0,.86-1.177A1.054,1.054,0,0,0,317.261,226.376Z" transform="translate(-315.595 -225.635)" fill="#231f20"/>
              </g>
              <path id="Trazado_3014" data-name="Trazado 3014" d="M322.181,227.8a.37.37,0,0,1-.027-.739l10.941-.835a.381.381,0,0,1,.4.341.371.371,0,0,1-.342.4l-10.941.835Z" transform="translate(-236.593 -212.805)" fill="#231f20"/>
              <g id="Grupo_3216" data-name="Grupo 3216" transform="translate(97.892 11.703)">
                <path id="Trazado_3015" data-name="Trazado 3015" d="M340.375,225.891a1.326,1.326,0,1,1,1.425,1.375A1.406,1.406,0,0,1,340.375,225.891Z" transform="translate(-340 -223.941)" fill="#231f20"/>
                <path id="Trazado_3016" data-name="Trazado 3016" d="M341.553,227.483a1.852,1.852,0,1,1,1.661-1.977,1.937,1.937,0,0,1-.38,1.326,1.609,1.609,0,0,1-1.162.648C341.633,227.482,341.593,227.483,341.553,227.483Zm-.044-2.958a1.041,1.041,0,0,0-.921,1.181,1.053,1.053,0,0,0,.964,1.037l.063,0a.874.874,0,0,0,.63-.358,1.191,1.191,0,0,0,.229-.819A1.053,1.053,0,0,0,341.51,224.526Z" transform="translate(-339.844 -223.785)" fill="#231f20"/>
              </g>
              <path id="Trazado_3017" data-name="Trazado 3017" d="M346.429,225.947a.371.371,0,0,1-.028-.74l10.942-.835a.383.383,0,0,1,.4.341.37.37,0,0,1-.342.4l-10.943.836Z" transform="translate(-243.798 -212.255)" fill="#231f20"/>
              <g id="Grupo_3217" data-name="Grupo 3217" transform="translate(114.936 10.403)">
                <path id="Trazado_3018" data-name="Trazado 3018" d="M364.625,224.04a1.326,1.326,0,1,1,1.425,1.376A1.406,1.406,0,0,1,364.625,224.04Z" transform="translate(-364.25 -222.091)" fill="#231f20"/>
                <path id="Trazado_3019" data-name="Trazado 3019" d="M365.8,225.634a1.794,1.794,0,0,1-1.7-1.722,1.936,1.936,0,0,1,.38-1.325,1.606,1.606,0,0,1,1.162-.648,1.777,1.777,0,0,1,1.823,1.717,1.941,1.941,0,0,1-.38,1.326,1.606,1.606,0,0,1-1.163.647C365.883,225.632,365.843,225.634,365.8,225.634Zm-.044-2.959a.9.9,0,0,0-.692.361,1.193,1.193,0,0,0-.229.82,1.054,1.054,0,0,0,.964,1.037l.063,0a.876.876,0,0,0,.629-.359,1.19,1.19,0,0,0,.23-.82A1.053,1.053,0,0,0,365.76,222.675Z" transform="translate(-364.093 -221.935)" fill="#231f20"/>
              </g>
              <path id="Trazado_3020" data-name="Trazado 3020" d="M370.679,224.1a.371.371,0,0,1-.028-.74l10.942-.836a.383.383,0,0,1,.4.342.369.369,0,0,1-.342.4l-10.941.836Z" transform="translate(-251.004 -211.705)" fill="#231f20"/>
              <path id="Trazado_3021" data-name="Trazado 3021" d="M394.928,222.246a.37.37,0,0,1-.027-.739l10.941-.836a.381.381,0,0,1,.4.341.371.371,0,0,1-.342.4l-10.941.835Z" transform="translate(-258.21 -211.155)" fill="#231f20"/>
              <g id="Grupo_3218" data-name="Grupo 3218" transform="translate(149.023 7.803)">
                <path id="Trazado_3022" data-name="Trazado 3022" d="M413.124,220.341a1.325,1.325,0,1,1,1.425,1.375A1.406,1.406,0,0,1,413.124,220.341Z" transform="translate(-412.748 -218.391)" fill="#231f20"/>
                <path id="Trazado_3023" data-name="Trazado 3023" d="M414.3,221.934a1.8,1.8,0,0,1-1.7-1.722,1.694,1.694,0,1,1,3.364-.256,1.928,1.928,0,0,1-.38,1.325,1.6,1.6,0,0,1-1.161.648C414.381,221.933,414.341,221.934,414.3,221.934Zm-.045-2.959a1.041,1.041,0,0,0-.92,1.182,1.053,1.053,0,0,0,.965,1.036l.062,0a.875.875,0,0,0,.629-.358,1.2,1.2,0,0,0,.23-.821A1.054,1.054,0,0,0,414.257,218.975Z" transform="translate(-412.592 -218.235)" fill="#231f20"/>
              </g>
              <path id="Trazado_3024" data-name="Trazado 3024" d="M419.178,220.395a.37.37,0,0,1-.028-.739l10.943-.835a.379.379,0,0,1,.4.341.371.371,0,0,1-.342.4l-10.941.834Z" transform="translate(-265.415 -210.606)" fill="#231f20"/>
              <g id="Grupo_3219" data-name="Grupo 3219" transform="translate(166.069 6.502)">
                <path id="Trazado_3025" data-name="Trazado 3025" d="M437.375,218.491a1.325,1.325,0,1,1,1.425,1.375A1.405,1.405,0,0,1,437.375,218.491Z" transform="translate(-437 -216.541)" fill="#231f20"/>
                <path id="Trazado_3026" data-name="Trazado 3026" d="M438.552,220.084a1.7,1.7,0,1,1,.12-.006C438.633,220.082,438.593,220.084,438.552,220.084Zm-.044-2.959a1.041,1.041,0,0,0-.921,1.181,1.052,1.052,0,0,0,.964,1.036l.063,0a1.039,1.039,0,0,0,.86-1.178A1.054,1.054,0,0,0,438.509,217.125Z" transform="translate(-436.844 -216.384)" fill="#231f20"/>
              </g>
              <path id="Trazado_3027" data-name="Trazado 3027" d="M443.429,218.545a.37.37,0,0,1-.028-.739l10.942-.834a.379.379,0,0,1,.4.341.372.372,0,0,1-.342.4l-10.941.834Z" transform="translate(-272.621 -210.056)" fill="#231f20"/>
              <g id="Grupo_3220" data-name="Grupo 3220" transform="translate(183.112 5.201)">
                <path id="Trazado_3028" data-name="Trazado 3028" d="M461.623,216.641a1.326,1.326,0,1,1,1.425,1.375A1.407,1.407,0,0,1,461.623,216.641Z" transform="translate(-461.248 -214.69)" fill="#231f20"/>
                <path id="Trazado_3029" data-name="Trazado 3029" d="M462.8,218.233a1.852,1.852,0,1,1,1.662-1.978,1.945,1.945,0,0,1-.38,1.325,1.6,1.6,0,0,1-1.162.648C462.881,218.231,462.841,218.233,462.8,218.233Zm-.044-2.958a1.042,1.042,0,0,0-.921,1.181,1.053,1.053,0,0,0,.965,1.037l.063,0a.874.874,0,0,0,.63-.358,1.2,1.2,0,0,0,.231-.82A1.054,1.054,0,0,0,462.757,215.275Z" transform="translate(-461.091 -214.533)" fill="#231f20"/>
              </g>
              <path id="Trazado_3030" data-name="Trazado 3030" d="M467.677,216.7a.37.37,0,0,1-.027-.739l10.941-.834a.384.384,0,0,1,.4.34.372.372,0,0,1-.342.4l-10.941.835Z" transform="translate(-279.827 -209.507)" fill="#231f20"/>
              <g id="Grupo_3221" data-name="Grupo 3221" transform="translate(200.155 3.901)">
                <path id="Trazado_3031" data-name="Trazado 3031" d="M485.872,214.79a1.326,1.326,0,1,1,1.425,1.376A1.405,1.405,0,0,1,485.872,214.79Z" transform="translate(-485.497 -212.84)" fill="#231f20"/>
                <path id="Trazado_3032" data-name="Trazado 3032" d="M487.05,216.384a1.8,1.8,0,0,1-1.7-1.722,1.935,1.935,0,0,1,.38-1.326,1.6,1.6,0,0,1,1.162-.649,1.781,1.781,0,0,1,1.825,1.717,1.95,1.95,0,0,1-.38,1.326,1.6,1.6,0,0,1-1.163.647C487.13,216.381,487.09,216.384,487.05,216.384Zm-.044-2.96a.9.9,0,0,0-.692.36,1.193,1.193,0,0,0-.229.821,1.053,1.053,0,0,0,.964,1.037l.062,0a.874.874,0,0,0,.63-.358,1.194,1.194,0,0,0,.23-.819A1.053,1.053,0,0,0,487.007,213.424Z" transform="translate(-485.34 -212.683)" fill="#231f20"/>
              </g>
              <path id="Trazado_3033" data-name="Trazado 3033" d="M491.927,214.845a.37.37,0,0,1-.027-.739l10.94-.835a.379.379,0,0,1,.4.341.372.372,0,0,1-.342.4l-10.94.835Z" transform="translate(-287.033 -208.956)" fill="#231f20"/>
              <g id="Grupo_3222" data-name="Grupo 3222" transform="translate(217.199 2.6)">
                <path id="Trazado_3034" data-name="Trazado 3034" d="M510.122,212.939a1.325,1.325,0,1,1,1.425,1.376A1.405,1.405,0,0,1,510.122,212.939Z" transform="translate(-509.747 -210.989)" fill="#231f20"/>
                <path id="Trazado_3035" data-name="Trazado 3035" d="M511.3,214.531a1.793,1.793,0,0,1-1.7-1.72,1.937,1.937,0,0,1,.38-1.326,1.608,1.608,0,0,1,1.162-.648,1.775,1.775,0,0,1,1.823,1.717,1.938,1.938,0,0,1-.38,1.325,1.6,1.6,0,0,1-1.162.648C511.38,214.53,511.34,214.531,511.3,214.531Zm-.044-2.958a.9.9,0,0,0-.692.36,1.193,1.193,0,0,0-.23.821,1.053,1.053,0,0,0,.965,1.037l.062,0a.869.869,0,0,0,.629-.358,1.2,1.2,0,0,0,.231-.819A1.054,1.054,0,0,0,511.257,211.574Z" transform="translate(-509.59 -210.833)" fill="#231f20"/>
              </g>
              <path id="Trazado_3036" data-name="Trazado 3036" d="M516.177,212.995a.371.371,0,0,1-.027-.74l10.941-.835a.384.384,0,0,1,.4.342.37.37,0,0,1-.342.4l-10.941.835Z" transform="translate(-294.238 -208.406)" fill="#231f20"/>
              <g id="Grupo_3223" data-name="Grupo 3223" transform="translate(234.244 1.3)">
                <path id="Trazado_3037" data-name="Trazado 3037" d="M534.372,211.089a1.325,1.325,0,1,1,1.424,1.376A1.4,1.4,0,0,1,534.372,211.089Z" transform="translate(-533.997 -209.139)" fill="#231f20"/>
                <path id="Trazado_3038" data-name="Trazado 3038" d="M535.549,212.682a1.852,1.852,0,1,1,1.662-1.978,1.944,1.944,0,0,1-.38,1.325,1.6,1.6,0,0,1-1.162.648C535.628,212.68,535.589,212.682,535.549,212.682Zm-.044-2.959a1.043,1.043,0,0,0-.919,1.182,1.054,1.054,0,0,0,.964,1.037l.063,0a.873.873,0,0,0,.628-.358,1.2,1.2,0,0,0,.231-.82A1.055,1.055,0,0,0,535.5,209.723Z" transform="translate(-533.841 -208.983)" fill="#231f20"/>
              </g>
              <path id="Trazado_3039" data-name="Trazado 3039" d="M540.426,211.144a.37.37,0,0,1-.027-.739l10.941-.835a.379.379,0,0,1,.4.341.372.372,0,0,1-.342.4l-10.941.834Z" transform="translate(-301.443 -207.857)" fill="#231f20"/>
              <g id="Grupo_3224" data-name="Grupo 3224" transform="translate(251.287)">
                <path id="Trazado_3040" data-name="Trazado 3040" d="M558.621,209.239a1.325,1.325,0,1,1,1.424,1.375A1.4,1.4,0,0,1,558.621,209.239Z" transform="translate(-558.246 -207.29)" fill="#231f20"/>
                <path id="Trazado_3041" data-name="Trazado 3041" d="M559.8,210.832a1.791,1.791,0,0,1-1.7-1.721,1.937,1.937,0,0,1,.379-1.326,1.607,1.607,0,0,1,1.161-.647,1.78,1.78,0,0,1,1.825,1.717,1.946,1.946,0,0,1-.38,1.325,1.6,1.6,0,0,1-1.162.648C559.877,210.831,559.838,210.832,559.8,210.832Zm-.044-2.959a.9.9,0,0,0-.691.362,1.193,1.193,0,0,0-.229.82,1.052,1.052,0,0,0,.964,1.036l.063,0a.878.878,0,0,0,.629-.358,1.2,1.2,0,0,0,.23-.82A1.055,1.055,0,0,0,559.754,207.872Z" transform="translate(-558.089 -207.133)" fill="#231f20"/>
              </g>
              <path id="Trazado_3042" data-name="Trazado 3042" d="M564.674,209.293a.37.37,0,0,1-.027-.739l10.94-.836a.384.384,0,0,1,.4.342.371.371,0,0,1-.342.4l-10.941.835Z" transform="translate(-308.649 -207.307)" fill="#231f20"/>
              <g id="Grupo_3225" data-name="Grupo 3225" transform="translate(131.98 9.103)">
                <path id="Trazado_3043" data-name="Trazado 3043" d="M388.875,222.191a1.325,1.325,0,1,1,1.425,1.375A1.406,1.406,0,0,1,388.875,222.191Z" transform="translate(-388.5 -220.24)" fill="#231f20"/>
                <path id="Trazado_3044" data-name="Trazado 3044" d="M390.052,223.784a1.794,1.794,0,0,1-1.7-1.722,1.932,1.932,0,0,1,.379-1.325,1.605,1.605,0,0,1,1.162-.648,1.774,1.774,0,0,1,1.823,1.717,1.938,1.938,0,0,1-.38,1.325,1.6,1.6,0,0,1-1.163.648C390.131,223.782,390.092,223.784,390.052,223.784Zm-.044-2.959a.9.9,0,0,0-.691.361,1.2,1.2,0,0,0-.229.82,1.053,1.053,0,0,0,.964,1.036h.062a.88.88,0,0,0,.63-.358,1.2,1.2,0,0,0,.23-.821A1.054,1.054,0,0,0,390.008,220.825Z" transform="translate(-388.343 -220.084)" fill="#231f20"/>
              </g>
            </g>
          </g>
          <g id="Grupo_3243" data-name="Grupo 3243" transform="translate(235.131 0.72)">
            <path id="Trazado_3045" data-name="Trazado 3045" d="M588.483,217.882a.373.373,0,0,1-.328-.2l-.232-.434c-.048-.082-.106-.19-.168-.311a7.681,7.681,0,0,0-.455-.789l-.375-.595a26.072,26.072,0,0,0-1.822-2.648l-.653-.867c-.131-.158-.281-.319-.429-.478l-.246-.269c-.162-.169-.32-.346-.475-.519a9.962,9.962,0,0,0-.759-.788l-1.35-1.182a.37.37,0,1,1,.486-.557l1.354,1.182a10.847,10.847,0,0,1,.82.85c.15.167.3.34.468.511l.246.268c.157.169.315.341.467.522l.656.869a27.253,27.253,0,0,1,1.865,2.711l.367.581a8.368,8.368,0,0,1,.493.854c.058.11.108.208.157.292l.241.447a.371.371,0,0,1-.327.545Z" transform="translate(-525.907 -208.157)" fill="#231f20"/>
            <g id="Grupo_3228" data-name="Grupo 3228" transform="translate(62.18 10.44)">
              <path id="Trazado_3046" data-name="Trazado 3046" d="M592.463,223.7a1.383,1.383,0,1,1,1.151,2.508,1.383,1.383,0,1,1-1.151-2.508Z" transform="translate(-591.213 -223.168)" fill="#231f20"/>
              <path id="Trazado_3047" data-name="Trazado 3047" d="M592.817,226.55a1.762,1.762,0,0,1-1.616-.981,1.843,1.843,0,0,1,.94-2.36,1.875,1.875,0,0,1,.831-.2,1.728,1.728,0,0,1,1.63,2.355,1.817,1.817,0,0,1-1,1.023A1.977,1.977,0,0,1,592.817,226.55Zm.155-2.8a1.119,1.119,0,0,0-.5.12,1.1,1.1,0,0,0-.6,1.387,1.122,1.122,0,0,0,1.438.448,1.089,1.089,0,0,0,.6-.609.982.982,0,0,0-.023-.77A.994.994,0,0,0,592.973,223.752Z" transform="translate(-591.056 -223.011)" fill="#231f20"/>
            </g>
            <path id="Trazado_3048" data-name="Trazado 3048" d="M598.747,240.912a.37.37,0,0,1-.359-.28l-.441-1.741c-.168-.668-.408-1.475-.663-2.329-.141-.475-.287-.966-.428-1.459-.294-.925-.613-1.852-.9-2.672-.13-.379-.252-.734-.361-1.057l-.654-1.654a.37.37,0,1,1,.688-.271l.661,1.671c.115.339.237.693.366,1.071.283.824.6,1.757.9,2.7.143.5.29.989.43,1.462.257.862.5,1.677.671,2.359l.44,1.74a.371.371,0,0,1-.268.451A.367.367,0,0,1,598.747,240.912Z" transform="translate(-530.025 -214.414)" fill="#231f20"/>
            <g id="Grupo_3229" data-name="Grupo 3229" transform="translate(67.61 27.491)">
              <path id="Trazado_3049" data-name="Trazado 3049" d="M600.49,247.836a1.383,1.383,0,1,1,.586,2.7,1.383,1.383,0,1,1-.586-2.7Z" transform="translate(-598.939 -247.426)" fill="#231f20"/>
              <path id="Trazado_3050" data-name="Trazado 3050" d="M600.591,250.78a1.764,1.764,0,0,1-1.771-1.356,1.824,1.824,0,0,1,1.429-2.106,1.8,1.8,0,0,1,2.184,1.311,1.7,1.7,0,0,1-.244,1.3,1.863,1.863,0,0,1-1.2.808A2,2,0,0,1,600.591,250.78Zm.1-2.771a1.187,1.187,0,0,0-.272.031,1.014,1.014,0,1,0,.425,1.972,1.125,1.125,0,0,0,.725-.485.975.975,0,0,0,.141-.741A1.014,1.014,0,0,0,600.69,248.009Z" transform="translate(-598.783 -247.27)" fill="#231f20"/>
            </g>
            <path id="Trazado_3051" data-name="Trazado 3051" d="M603.948,265.809a.37.37,0,0,1-.367-.323l-.563-4.253L602.8,259.8c-.237-1.588-.461-2.93-.651-3.883l-.327-1.771a.37.37,0,1,1,.727-.136l.327,1.768c.241,1.213.49,2.8.656,3.91l.324,2.085.464,3.618a.37.37,0,0,1-.32.415Z" transform="translate(-532.073 -221.692)" fill="#231f20"/>
            <g id="Grupo_3230" data-name="Grupo 3230" transform="translate(70.38 45.183)">
              <path id="Trazado_3052" data-name="Trazado 3052" d="M604.586,272.976a1.383,1.383,0,1,1,.285,2.745,1.383,1.383,0,1,1-.285-2.745Z" transform="translate(-602.88 -272.597)" fill="#231f20"/>
              <path id="Trazado_3053" data-name="Trazado 3053" d="M604.56,275.943a1.791,1.791,0,0,1-1.828-1.559,1.854,1.854,0,0,1,3.682-.382,1.7,1.7,0,0,1-.384,1.26,1.868,1.868,0,0,1-1.281.673C604.686,275.94,604.622,275.943,604.56,275.943Zm.047-2.762a1.257,1.257,0,0,0-.136.008,1.014,1.014,0,1,0,.207,2.008,1.131,1.131,0,0,0,.777-.4.969.969,0,0,0,.221-.714A1.043,1.043,0,0,0,604.608,273.181Z" transform="translate(-602.723 -272.441)" fill="#231f20"/>
            </g>
            <path id="Trazado_3054" data-name="Trazado 3054" d="M606.35,291.164a.425.425,0,0,1-.372-.414c-.032-.916-.124-3.3-.282-5.674-.074-1.458-.192-2.89-.279-3.936l-.145-1.792a.371.371,0,0,1,.34-.4.375.375,0,0,1,.4.34l.145,1.79c.082.991.206,2.489.281,3.954.158,2.376.25,4.772.282,5.691h0a.36.36,0,0,1,.006.067A.37.37,0,0,1,606.35,291.164Z" transform="translate(-533.1 -229.192)" fill="#231f20"/>
            <g id="Grupo_3231" data-name="Grupo 3231" transform="translate(71.508 63.057)">
              <path id="Trazado_3055" data-name="Trazado 3055" d="M606.3,298.4a1.423,1.423,0,0,1,1.519,1.342A1.484,1.484,0,1,1,606.3,298.4Z" transform="translate(-604.485 -298.028)" fill="#231f20"/>
              <path id="Trazado_3056" data-name="Trazado 3056" d="M606.171,301.373a1.752,1.752,0,1,1-.044-3.5h0a1.754,1.754,0,1,1,.081,3.5Zm.019-2.761a1.077,1.077,0,0,0-1.12,1.042,1.058,1.058,0,0,0,1.1.977V301l.025-.37a1.071,1.071,0,0,0,1.092-1.042A1.052,1.052,0,0,0,606.19,298.612Z" transform="translate(-604.328 -297.872)" fill="#231f20"/>
            </g>
            <path id="Trazado_3057" data-name="Trazado 3057" d="M606.79,316.637h-.006a.371.371,0,0,1-.364-.377l.092-5.747v-3.949c0-1.067-.022-1.78-.022-1.782a.371.371,0,0,1,.357-.383.357.357,0,0,1,.383.358s.024.724.022,1.808v3.952l-.091,5.754A.371.371,0,0,1,606.79,316.637Z" transform="translate(-533.442 -236.755)" fill="#231f20"/>
            <g id="Grupo_3232" data-name="Grupo 3232" transform="translate(71.389 80.965)">
              <path id="Trazado_3058" data-name="Trazado 3058" d="M606.214,323.88a1.384,1.384,0,1,1-1.529,1.326A1.429,1.429,0,0,1,606.214,323.88Z" transform="translate(-604.315 -323.509)" fill="#231f20"/>
              <path id="Trazado_3059" data-name="Trazado 3059" d="M606.026,326.853h-.082a1.751,1.751,0,1,1,.063-3.5,1.945,1.945,0,0,1,1.385.59,1.7,1.7,0,0,1,.466,1.228A1.787,1.787,0,0,1,606.026,326.853Zm.02-2.76a1.014,1.014,0,1,0-.071,2.019l.052.372v-.37a1.049,1.049,0,0,0,1.092-.97.96.96,0,0,0-.266-.694,1.156,1.156,0,0,0-.8-.356Z" transform="translate(-604.158 -323.352)" fill="#231f20"/>
            </g>
            <path id="Trazado_3060" data-name="Trazado 3060" d="M605.4,342.09a.37.37,0,0,1-.37-.37.29.29,0,0,1,0-.051c.007-.074.076-.762.14-1.765l.279-3.945.321-5.736a.359.359,0,0,1,.391-.348.37.37,0,0,1,.348.39l-.321,5.741-.279,3.948C605.772,342.09,605.772,342.09,605.4,342.09Z" transform="translate(-533.028 -244.325)" fill="#231f20"/>
            <g id="Grupo_3233" data-name="Grupo 3233" transform="translate(70.241 98.839)">
              <path id="Trazado_3061" data-name="Trazado 3061" d="M604.65,349.313a1.434,1.434,0,0,1,1.354,1.51,1.42,1.42,0,0,1-1.595,1.239,1.383,1.383,0,1,1,.24-2.749Z" transform="translate(-602.682 -348.938)" fill="#231f20"/>
              <path id="Trazado_3062" data-name="Trazado 3062" d="M604.407,352.285c-.062,0-.126,0-.189-.009a1.816,1.816,0,0,1-1.686-1.912,1.788,1.788,0,0,1,1.994-1.575,1.886,1.886,0,0,1,1.251.617,1.7,1.7,0,0,1,.441,1.293A1.774,1.774,0,0,1,604.407,352.285Zm-.053-2.764a1.042,1.042,0,0,0-1.084.907,1.074,1.074,0,0,0,1.018,1.109,1.045,1.045,0,0,0,1.191-.9.965.965,0,0,0-.253-.734,1.155,1.155,0,0,0-.764-.374C604.425,349.523,604.391,349.521,604.355,349.521Z" transform="translate(-602.526 -348.782)" fill="#231f20"/>
            </g>
            <path id="Trazado_3063" data-name="Trazado 3063" d="M602.634,367.446a.256.256,0,0,1-.051,0,.368.368,0,0,1-.316-.417l.283-2.088.441-3.61c.146-1.147.294-2.466.44-3.918l.186-1.789a.373.373,0,0,1,.407-.329.369.369,0,0,1,.33.406l-.186,1.786c-.147,1.46-.294,2.783-.442,3.936L603,367.125A.37.37,0,0,1,602.634,367.446Z" transform="translate(-532.207 -251.876)" fill="#231f20"/>
            <g id="Grupo_3234" data-name="Grupo 3234" transform="translate(68.139 116.622)">
              <path id="Trazado_3064" data-name="Trazado 3064" d="M601.729,374.627a1.382,1.382,0,1,1-1.654,1.153A1.439,1.439,0,0,1,601.729,374.627Z" transform="translate(-599.693 -374.241)" fill="#231f20"/>
              <path id="Trazado_3065" data-name="Trazado 3065" d="M601.416,377.59a2.032,2.032,0,0,1-.29-.022,1.753,1.753,0,1,1,2.088-1.469A1.779,1.779,0,0,1,601.416,377.59Zm-.068-2.766a1.043,1.043,0,0,0-1.063.85,1.114,1.114,0,1,0,1.236-.837A1.334,1.334,0,0,0,601.349,374.824Z" transform="translate(-599.536 -374.084)" fill="#231f20"/>
            </g>
            <path id="Trazado_3066" data-name="Trazado 3066" d="M598.538,392.631a.524.524,0,0,1-.073,0,.371.371,0,0,1-.291-.436c.005-.028.558-2.847,1.024-5.646.245-1.4.495-2.835.65-3.89l.278-1.778a.371.371,0,1,1,.732.114l-.277,1.775c-.157,1.063-.408,2.5-.649,3.887-.471,2.824-1.025,5.654-1.032,5.682A.37.37,0,0,1,598.538,392.631Z" transform="translate(-530.99 -259.386)" fill="#231f20"/>
            <path id="Trazado_3067" data-name="Trazado 3067" d="M593.054,417.57a.446.446,0,0,1-.091-.011.37.37,0,0,1-.268-.449l.438-1.742c.241-.917.511-2.092.8-3.335l.115-.5c.659-2.761,1.234-5.575,1.239-5.6a.371.371,0,1,1,.727.148c-.006.027-.585,2.854-1.245,5.625l-.115.5c-.287,1.249-.557,2.429-.8,3.353l-.438,1.738A.371.371,0,0,1,593.054,417.57Z" transform="translate(-529.36 -266.834)" fill="#231f20"/>
            <g id="Grupo_3235" data-name="Grupo 3235" transform="translate(61.053 151.72)">
              <path id="Trazado_3068" data-name="Trazado 3068" d="M591.805,424.591a1.425,1.425,0,0,1,1.083,1.714,1.483,1.483,0,1,1-1.083-1.714Z" transform="translate(-589.611 -424.174)" fill="#231f20"/>
              <path id="Trazado_3069" data-name="Trazado 3069" d="M591.348,427.529a2,2,0,0,1-.507-.067,1.915,1.915,0,0,1-1.157-.881,1.677,1.677,0,0,1-.172-1.284,1.847,1.847,0,0,1,2.229-1.218,1.913,1.913,0,0,1,1.178.886,1.661,1.661,0,0,1,.169,1.286A1.784,1.784,0,0,1,591.348,427.529Zm-.1-2.773a1.036,1.036,0,0,0-1.023.739.943.943,0,0,0,.1.718,1.164,1.164,0,0,0,.708.533,1.089,1.089,0,0,0,1.34-.693.93.93,0,0,0-.1-.72,1.172,1.172,0,0,0-.721-.538A1.3,1.3,0,0,0,591.251,424.755Z" transform="translate(-589.454 -424.02)" fill="#231f20"/>
            </g>
            <path id="Trazado_3070" data-name="Trazado 3070" d="M586.056,442.147a.377.377,0,0,1-.111-.017.369.369,0,0,1-.242-.464l.567-1.8c.314-.989.742-2.345,1.125-3.682l1.584-5.522a.37.37,0,0,1,.715.195l-1,3.519-.591,2.014c-.385,1.345-.815,2.705-1.131,3.7l-.567,1.8A.368.368,0,0,1,586.056,442.147Z" transform="translate(-527.281 -274.192)" fill="#231f20"/>
            <g id="Grupo_3236" data-name="Grupo 3236" transform="translate(55.94 168.882)">
              <path id="Trazado_3071" data-name="Trazado 3071" d="M584.616,449.036a1.383,1.383,0,1,1-1.844.84A1.444,1.444,0,0,1,584.616,449.036Z" transform="translate(-582.335 -448.592)" fill="#231f20"/>
              <path id="Trazado_3072" data-name="Trazado 3072" d="M584.082,451.951a1.94,1.94,0,0,1-.619-.1,1.805,1.805,0,0,1-1.2-2.243,1.844,1.844,0,0,1,2.31-1.075,1.871,1.871,0,0,1,1.1.936,1.693,1.693,0,0,1,.1,1.308A1.766,1.766,0,0,1,584.082,451.951Zm-.115-2.778a1.03,1.03,0,0,0-1,.668,1.067,1.067,0,0,0,.733,1.306,1.084,1.084,0,0,0,1.375-.609.959.959,0,0,0-.058-.74,1.14,1.14,0,0,0-.671-.565A1.263,1.263,0,0,0,583.966,449.173Z" transform="translate(-582.179 -448.438)" fill="#231f20"/>
            </g>
            <path id="Trazado_3073" data-name="Trazado 3073" d="M577.543,466.261a.372.372,0,0,1-.347-.5l2.04-5.374,1.33-3.715c.313-.866.524-1.487.578-1.648l.086-.252.28-.042a.371.371,0,0,1,.371.371.366.366,0,0,1-.023.129c-.07.2-.28.829-.595,1.692l-1.331,3.721-2.042,5.381A.372.372,0,0,1,577.543,466.261Z" transform="translate(-524.751 -281.424)" fill="#231f20"/>
            <g id="Grupo_3237" data-name="Grupo 3237" transform="translate(49.762 185.683)">
              <path id="Trazado_3074" data-name="Trazado 3074" d="M575.893,472.973a1.383,1.383,0,1,1-1.886.724A1.431,1.431,0,0,1,575.893,472.973Z" transform="translate(-573.545 -472.495)" fill="#231f20"/>
              <path id="Trazado_3075" data-name="Trazado 3075" d="M575.3,475.868a1.892,1.892,0,0,1-.733-.146,1.817,1.817,0,0,1-1.059-2.318,1.837,1.837,0,0,1,2.367-.931,1.884,1.884,0,0,1,1.042,1.007,1.694,1.694,0,0,1,.02,1.314A1.741,1.741,0,0,1,575.3,475.868Zm-.145-2.792a1.009,1.009,0,0,0-.959.6,1.115,1.115,0,0,0,2.056.836.967.967,0,0,0-.014-.744,1.155,1.155,0,0,0-.637-.609A1.21,1.21,0,0,0,575.154,473.076Z" transform="translate(-573.388 -472.341)" fill="#231f20"/>
            </g>
            <path id="Trazado_3076" data-name="Trazado 3076" d="M567.433,489.771a.377.377,0,0,1-.161-.036.371.371,0,0,1-.173-.495c.013-.027,1.257-2.615,2.4-5.21.68-1.486,1.281-2.9,1.58-3.617l.7-1.656a.371.371,0,1,1,.682.292l-.7,1.652c-.3.715-.9,2.142-1.586,3.632-1.143,2.6-2.393,5.2-2.406,5.229A.37.37,0,0,1,567.433,489.771Z" transform="translate(-521.747 -288.498)" fill="#231f20"/>
            <g id="Grupo_3238" data-name="Grupo 3238" transform="translate(42.462 202.036)">
              <path id="Trazado_3077" data-name="Trazado 3077" d="M565.6,496.281a1.417,1.417,0,0,1,.721,1.891,1.483,1.483,0,1,1-.721-1.891Z" transform="translate(-563.16 -495.762)" fill="#231f20"/>
              <path id="Trazado_3078" data-name="Trazado 3078" d="M564.915,499.136a1.945,1.945,0,0,1-.86-.2,1.907,1.907,0,0,1-.937-1.028,1.675,1.675,0,0,1,.06-1.358,1.85,1.85,0,0,1,2.427-.753,1.9,1.9,0,0,1,.978,1.091,1.673,1.673,0,0,1-.088,1.3A1.745,1.745,0,0,1,564.915,499.136Zm-.149-2.8a1.019,1.019,0,0,0-.926.54.95.95,0,0,0-.03.763,1.171,1.171,0,0,0,.576.626,1.093,1.093,0,0,0,1.448-.417.938.938,0,0,0,.047-.73,1.166,1.166,0,0,0-.6-.663A1.194,1.194,0,0,0,564.766,496.341Z" transform="translate(-563.003 -495.608)" fill="#231f20"/>
            </g>
            <path id="Trazado_3079" data-name="Trazado 3079" d="M555.608,512.488a.362.362,0,0,1-.186-.05.37.37,0,0,1-.134-.506l.9-1.555,1.915-3.449,1.843-3.488c.464-.865.764-1.476.812-1.574l.13-.264.293.053a.37.37,0,0,1,.251.2.376.376,0,0,1,0,.325l-.332-.165.327.175c-.049.1-.354.72-.822,1.595l-1.845,3.493L555.93,512.3A.372.372,0,0,1,555.608,512.488Z" transform="translate(-518.233 -295.353)" fill="#231f20"/>
            <g id="Grupo_3239" data-name="Grupo 3239" transform="translate(33.922 217.765)">
              <path id="Trazado_3080" data-name="Trazado 3080" d="M553.538,518.714a1.384,1.384,0,1,1-1.427,2.362,1.382,1.382,0,1,1,1.427-2.362Z" transform="translate(-551.009 -518.137)" fill="#231f20"/>
              <path id="Trazado_3081" data-name="Trazado 3081" d="M552.764,521.527a1.936,1.936,0,0,1-1.865-1.463,1.67,1.67,0,0,1,.2-1.272,1.839,1.839,0,0,1,2.472-.548,1.914,1.914,0,0,1,.879,1.162,1.694,1.694,0,0,1-.183,1.3A1.743,1.743,0,0,1,552.764,521.527Zm-.176-2.815a.985.985,0,0,0-.857.465.939.939,0,0,0-.11.716,1.169,1.169,0,0,0,.528.716,1.1,1.1,0,0,0,1.485-.288.958.958,0,0,0,.1-.732,1.162,1.162,0,0,0-.538-.707A1.181,1.181,0,0,0,552.588,518.712Z" transform="translate(-550.852 -517.986)" fill="#231f20"/>
            </g>
            <path id="Trazado_3082" data-name="Trazado 3082" d="M541.68,534.088a.364.364,0,0,1-.22-.074.369.369,0,0,1-.078-.517l1.068-1.444c.408-.56.888-1.254,1.4-1.99.28-.406.57-.824.862-1.241.527-.771,1.039-1.557,1.5-2.258.243-.372.469-.721.675-1.031.3-.445.535-.817.7-1.084l.261-.422a.37.37,0,1,1,.631.389l-.26.42c-.162.269-.407.653-.708,1.107-.206.309-.432.656-.673,1.027-.461.7-.978,1.5-1.51,2.274-.294.42-.583.837-.864,1.242-.513.741-1,1.441-1.409,2.006l-1.069,1.446A.372.372,0,0,1,541.68,534.088Z" transform="translate(-514.095 -301.964)" fill="#231f20"/>
            <g id="Grupo_3240" data-name="Grupo 3240" transform="translate(23.832 232.54)">
              <path id="Trazado_3083" data-name="Trazado 3083" d="M539.316,539.838a1.382,1.382,0,1,1-1.71,2.163,1.382,1.382,0,1,1,1.71-2.163Z" transform="translate(-536.653 -539.157)" fill="#231f20"/>
              <path id="Trazado_3084" data-name="Trazado 3084" d="M538.4,542.564a1.89,1.89,0,0,1-1.182-.424,1.814,1.814,0,0,1-.366-2.514,1.873,1.873,0,0,1,2.533-.233,1.849,1.849,0,0,1,.727,1.245,1.7,1.7,0,0,1-.351,1.276A1.724,1.724,0,0,1,538.4,542.564Zm-.194-2.833a.97.97,0,0,0-.773.354,1.114,1.114,0,0,0,1.747,1.369.96.96,0,0,0,.2-.724,1.115,1.115,0,0,0-.44-.747A1.218,1.218,0,0,0,538.205,539.731Z" transform="translate(-536.497 -539.009)" fill="#231f20"/>
            </g>
            <path id="Trazado_3085" data-name="Trazado 3085" d="M524.788,553.605a.367.367,0,0,1-.273-.119.372.372,0,0,1,.023-.524l1.325-1.212c.746-.72,1.759-1.737,2.77-2.786,1.768-1.877,3.451-3.887,3.771-4.271l.111-.133.189-.019a.371.371,0,0,1,.283.609l-.284-.24.27.255c-.452.543-2.064,2.461-3.8,4.309-1.021,1.058-2.04,2.083-2.8,2.815l-1.33,1.22A.365.365,0,0,1,524.788,553.605Z" transform="translate(-509.075 -308.112)" fill="#231f20"/>
            <g id="Grupo_3241" data-name="Grupo 3241" transform="translate(11.494 245.405)">
              <path id="Trazado_3086" data-name="Trazado 3086" d="M521.942,558.384a1.425,1.425,0,0,1-.139,2.033,1.4,1.4,0,0,1-2.014-.311,1.466,1.466,0,0,1,.166-2A1.436,1.436,0,0,1,521.942,558.384Z" transform="translate(-519.1 -557.463)" fill="#231f20"/>
              <path id="Trazado_3087" data-name="Trazado 3087" d="M520.82,560.937a1.864,1.864,0,0,1-1.486-.76,1.753,1.753,0,1,1,3.174-.821,1.727,1.727,0,0,1-.627,1.195A1.61,1.61,0,0,1,520.82,560.937Zm-.213-2.9a.889.889,0,0,0-.574.2,1.094,1.094,0,0,0-.1,1.494,1.057,1.057,0,0,0,1.475.25,1,1,0,0,0,.366-.694,1.1,1.1,0,0,0-.268-.818A1.2,1.2,0,0,0,520.607,558.04Z" transform="translate(-518.943 -557.312)" fill="#231f20"/>
            </g>
            <path id="Trazado_3088" data-name="Trazado 3088" d="M502.81,567.3a.276.276,0,0,1-.221-.081l.235-.285-.05-.367c.048-.008.739-.117,1.748-.311l1.73-.518c.383-.129.782-.3,1.205-.478.237-.1.479-.2.72-.3a11.756,11.756,0,0,0,1.2-.59c.222-.119.441-.238.659-.346a14.177,14.177,0,0,0,1.374-.8l1.262-.8a3.593,3.593,0,0,0,.379-.256.388.388,0,0,1,.616.276c0,.167-.026.262-.588.6l-1.274.8a14.522,14.522,0,0,1-1.444.838c-.208.1-.418.217-.633.333a12.386,12.386,0,0,1-1.276.627c-.238.095-.473.195-.706.294-.418.176-.848.358-1.271.5l-1.777.531A16.35,16.35,0,0,1,502.81,567.3Z" transform="translate(-502.589 -313.33)" fill="#231f20"/>
            <g id="Grupo_3242" data-name="Grupo 3242" transform="translate(65.097 134.27)">
              <path id="Trazado_3089" data-name="Trazado 3089" d="M597.471,399.749a1.384,1.384,0,1,1-.542,2.705,1.382,1.382,0,1,1,.542-2.705Z" transform="translate(-595.364 -399.349)" fill="#231f20"/>
              <path id="Trazado_3090" data-name="Trazado 3090" d="M597.092,402.7a1.868,1.868,0,0,1-.394-.042,1.9,1.9,0,0,1-1.206-.806,1.675,1.675,0,0,1-.25-1.272,1.793,1.793,0,0,1,2.144-1.352,1.815,1.815,0,0,1,1.484,2.078A1.8,1.8,0,0,1,597.092,402.7Zm-.084-2.768a1.03,1.03,0,0,0-1.04.793.953.953,0,0,0,.141.721,1.17,1.17,0,0,0,.737.488,1.091,1.091,0,0,0,1.3-.772,1.073,1.073,0,0,0-.9-1.207A1.212,1.212,0,0,0,597.008,399.933Z" transform="translate(-595.207 -399.193)" fill="#231f20"/>
            </g>
          </g>
          <g id="Grupo_3249" data-name="Grupo 3249" transform="translate(0 21.722)">
            <path id="Trazado_3091" data-name="Trazado 3091" d="M200.515,250.7h0a.37.37,0,0,1-.368-.373l.018-2.557c.008-1,.018-2.2-.006-3.392l-.072-5.96a.371.371,0,0,1,.742-.008l.071,5.957c.024,1.2.014,2.4.006,3.409l-.018,2.555A.37.37,0,0,1,200.515,250.7Z" transform="translate(-177.57 -238.039)" fill="#231f20"/>
            <g id="Grupo_3244" data-name="Grupo 3244" transform="translate(21.064 13.809)">
              <path id="Trazado_3092" data-name="Trazado 3092" d="M200.045,258.214a1.431,1.431,0,1,1-.063,2.859,1.43,1.43,0,1,1,.063-2.859Z" transform="translate(-198.177 -257.843)" fill="#231f20"/>
              <path id="Trazado_3093" data-name="Trazado 3093" d="M199.867,261.287h-.051a1.857,1.857,0,0,1-1.313-.581,1.743,1.743,0,0,1-.481-1.26,1.814,1.814,0,0,1,1.844-1.76,1.909,1.909,0,0,1,1.358.575,1.756,1.756,0,0,1,.5,1.264A1.831,1.831,0,0,1,199.867,261.287Zm.015-2.86a1.082,1.082,0,0,0-1.12,1.039,1.008,1.008,0,0,0,.28.731,1.116,1.116,0,0,0,.793.348l.032.372v-.37a1.092,1.092,0,0,0,1.115-1.042,1.016,1.016,0,0,0-.292-.73,1.148,1.148,0,0,0-.806-.346Z" transform="translate(-198.021 -257.686)" fill="#231f20"/>
            </g>
            <path id="Trazado_3094" data-name="Trazado 3094" d="M199.369,277.081a.371.371,0,0,1-.371-.371.386.386,0,0,1,0-.049c.008-.07.086-.785.165-1.832l.254-4.084c.119-1.766.186-3.1.2-4.074l.06-1.865a.385.385,0,0,1,.382-.358.37.37,0,0,1,.358.382l-.06,1.862c-.018.983-.085,2.326-.206,4.1l-.254,4.086C199.74,277.081,199.74,277.081,199.369,277.081Z" transform="translate(-177.247 -245.886)" fill="#231f20"/>
            <g id="Grupo_3245" data-name="Grupo 3245" transform="translate(19.955 32.331)">
              <path id="Trazado_3095" data-name="Trazado 3095" d="M198.585,284.574a1.458,1.458,0,0,1,1.335,1.576,1.434,1.434,0,0,1-1.61,1.271,1.48,1.48,0,0,1-1.335-1.577A1.451,1.451,0,0,1,198.585,284.574Z" transform="translate(-196.599 -284.195)" fill="#231f20"/>
              <path id="Trazado_3096" data-name="Trazado 3096" d="M198.325,287.643c-.07,0-.142,0-.213-.011a1.852,1.852,0,0,1-1.662-1.981,1.816,1.816,0,0,1,2.013-1.6,1.86,1.86,0,0,1,1.264.667,1.787,1.787,0,0,1-1.4,2.928Zm-.045-2.863a1.068,1.068,0,0,0-1.092.941,1.108,1.108,0,0,0,1.007,1.173,1.064,1.064,0,0,0,1.2-.938,1.052,1.052,0,0,0-.238-.771,1.125,1.125,0,0,0-.763-.4C198.355,284.782,198.317,284.78,198.28,284.78Z" transform="translate(-196.443 -284.038)" fill="#231f20"/>
            </g>
            <path id="Trazado_3097" data-name="Trazado 3097" d="M195.847,303.294a.493.493,0,0,1-.063,0,.372.372,0,0,1-.3-.427l.994-5.877.795-5.891a.371.371,0,0,1,.734.1l-.8,5.9-1,5.886A.37.37,0,0,1,195.847,303.294Z" transform="translate(-176.201 -253.709)" fill="#231f20"/>
            <g id="Grupo_3246" data-name="Grupo 3246" transform="translate(17.16 50.677)">
              <path id="Trazado_3098" data-name="Trazado 3098" d="M194.758,310.7a1.439,1.439,0,0,1,1.167,1.688,1.481,1.481,0,0,1-2.9-.575A1.473,1.473,0,0,1,194.758,310.7Z" transform="translate(-192.623 -310.297)" fill="#231f20"/>
              <path id="Trazado_3099" data-name="Trazado 3099" d="M194.337,313.742a2,2,0,0,1-.381-.038,1.8,1.8,0,1,1,1.908-2.747,1.76,1.76,0,0,1,.267,1.342A1.824,1.824,0,0,1,194.337,313.742Zm-.026-2.861a1.065,1.065,0,1,0,1.1,1.271,1.031,1.031,0,0,0-.157-.782,1.1,1.1,0,0,0-.717-.467A1.143,1.143,0,0,0,194.311,310.881Z" transform="translate(-192.467 -310.141)" fill="#231f20"/>
            </g>
            <path id="Trazado_3100" data-name="Trazado 3100" d="M189.429,329.009a.369.369,0,0,1-.349-.493l.616-1.756c.228-.67.476-1.5.739-2.375.15-.5.3-1.013.462-1.526.261-.921.492-1.87.7-2.707.109-.449.212-.87.309-1.245l.375-1.8a.365.365,0,0,1,.438-.289.371.371,0,0,1,.287.439l-.379,1.821c-.1.392-.2.808-.311,1.253-.206.845-.439,1.8-.706,2.743-.16.519-.313,1.031-.462,1.529-.266.887-.517,1.723-.749,2.4l-.618,1.761A.37.37,0,0,1,189.429,329.009Z" transform="translate(-174.294 -261.444)" fill="#231f20"/>
            <g id="Grupo_3247" data-name="Grupo 3247" transform="translate(12.156 68.523)">
              <path id="Trazado_3101" data-name="Trazado 3101" d="M187.856,336.145a1.431,1.431,0,0,1,.879,1.859,1.463,1.463,0,0,1-1.9.808,1.447,1.447,0,0,1-.865-1.856A1.478,1.478,0,0,1,187.856,336.145Z" transform="translate(-185.503 -335.686)" fill="#231f20"/>
              <path id="Trazado_3102" data-name="Trazado 3102" d="M187.222,339.132a1.878,1.878,0,0,1-.682-.129,1.82,1.82,0,0,1-1.075-2.336,1.873,1.873,0,0,1,3.427-.039,1.727,1.727,0,0,1,.03,1.358A1.805,1.805,0,0,1,187.222,339.132Zm-.048-2.866a1.049,1.049,0,0,0-.366,2.046,1.109,1.109,0,0,0,1.425-.6,1,1,0,0,0-.018-.785,1.149,1.149,0,0,0-1.042-.664Z" transform="translate(-185.347 -335.531)" fill="#231f20"/>
            </g>
            <path id="Trazado_3103" data-name="Trazado 3103" d="M179.449,353.663a.374.374,0,0,1-.149-.031.37.37,0,0,1-.19-.488l.752-1.7c.154-.354.33-.75.519-1.173.351-.793.745-1.677,1.117-2.572l1.585-3.778c.436-1.016.692-1.707.694-1.711a.37.37,0,1,1,.694.257s-.261.706-.706,1.742l-1.584,3.775c-.373.9-.77,1.792-1.124,2.587-.187.422-.362.816-.516,1.172l-.753,1.7A.37.37,0,0,1,179.449,353.663Z" transform="translate(-171.328 -268.92)" fill="#231f20"/>
            <g id="Grupo_3248" data-name="Grupo 3248" transform="translate(4.919 85.609)">
              <path id="Trazado_3104" data-name="Trazado 3104" d="M177.644,360.49a1.43,1.43,0,1,1-1.942.69A1.464,1.464,0,0,1,177.644,360.49Z" transform="translate(-175.207 -359.994)" fill="#231f20"/>
              <path id="Trazado_3105" data-name="Trazado 3105" d="M176.929,363.448a1.889,1.889,0,0,1-.782-.171,1.857,1.857,0,0,1-.982-1.044,1.766,1.766,0,0,1,.043-1.358,1.877,1.877,0,0,1,2.431-.874,1.853,1.853,0,0,1,.985,1.042,1.765,1.765,0,0,1-.044,1.361A1.812,1.812,0,0,1,176.929,363.448Zm-.068-2.875a1.069,1.069,0,0,0-.979.61,1.026,1.026,0,0,0-.023.789,1.123,1.123,0,0,0,2.047.123,1.03,1.03,0,0,0,.025-.793,1.116,1.116,0,0,0-.6-.626A1.139,1.139,0,0,0,176.861,360.573Z" transform="translate(-175.05 -359.842)" fill="#231f20"/>
            </g>
            <path id="Trazado_3106" data-name="Trazado 3106" d="M168.422,377.722a.355.355,0,0,1-.156-.034.37.37,0,0,1-.179-.492l5.012-10.808a.37.37,0,1,1,.673.31l-5.013,10.812A.37.37,0,0,1,168.422,377.722Z" transform="translate(-168.051 -276.113)" fill="#231f20"/>
          </g>
          <g id="Grupo_3250" data-name="Grupo 3250" transform="translate(227.503 12.803)">
            <path id="Trazado_3107" data-name="Trazado 3107" d="M507.952,232.009a2.511,2.511,0,0,1,1.055.863,2.4,2.4,0,0,1,.415,1.2,3.016,3.016,0,0,1-.639,2.037,3.9,3.9,0,0,1-5.223.759,2.771,2.771,0,0,1-.658-3.573,3.257,3.257,0,0,1,1.44-1.208,3.074,3.074,0,0,1-1.08-.874,2.889,2.889,0,0,1-.5-1.5,4.108,4.108,0,0,1,.931-2.908,3.861,3.861,0,0,1,2.91-1.447,3.351,3.351,0,0,1,2.5.753,3.087,3.087,0,0,1,1.1,2.234,3.721,3.721,0,0,1-.517,2.276A3.3,3.3,0,0,1,507.952,232.009Zm.031,2.1a1.608,1.608,0,0,0-.573-1.189,1.87,1.87,0,0,0-1.374-.372,2.239,2.239,0,0,0-1.584.72,2.017,2.017,0,0,0-.522,1.539,1.626,1.626,0,0,0,.572,1.189,1.851,1.851,0,0,0,1.374.38,2.421,2.421,0,0,0,1.167-.38,1.917,1.917,0,0,0,.746-.866A2.217,2.217,0,0,0,507.983,234.106Zm.746-5.781a2.012,2.012,0,0,0-.3-.927,1.728,1.728,0,0,0-.772-.667,2.245,2.245,0,0,0-1.122-.192,2.22,2.22,0,0,0-1.844,1.245,3.32,3.32,0,0,0-.452,1.919,1.806,1.806,0,0,0,.628,1.309,1.931,1.931,0,0,0,1.444.429,2.459,2.459,0,0,0,1.8-.942A2.987,2.987,0,0,0,508.728,228.326Z" transform="translate(-494.94 -225.349)"/>
            <path id="Trazado_3108" data-name="Trazado 3108" d="M494.867,226.5l-1.26,9.056a9.3,9.3,0,0,1,3.3-1.758l-.183,1.342a11.852,11.852,0,0,0-2.072,1.284,11.019,11.019,0,0,0-1.509,1.335,4.541,4.541,0,0,0-.56.824l-.846.058L493.4,226.6Z" transform="translate(-491.736 -225.69)"/>
          </g>
          <g id="Grupo_3251" data-name="Grupo 3251" transform="translate(285.51 122.669)">
            <path id="Trazado_3109" data-name="Trazado 3109" d="M579.176,400.523a2.519,2.519,0,0,1-1.132.777,2.418,2.418,0,0,1-1.275.061,3.036,3.036,0,0,1-1.788-1.192,3.924,3.924,0,0,1,.744-5.259,2.712,2.712,0,0,1,2.207-.439,2.679,2.679,0,0,1,1.43.813,3.283,3.283,0,0,1,.76,1.734,3.1,3.1,0,0,1,1.149-.8,2.917,2.917,0,0,1,1.586-.058,4.129,4.129,0,0,1,2.547,1.72,3.877,3.877,0,0,1,.575,3.22,3.369,3.369,0,0,1-1.433,2.2,3.1,3.1,0,0,1-2.468.434,3.761,3.761,0,0,1-2.052-1.142A3.324,3.324,0,0,1,579.176,400.523Zm-2.032-.563a1.621,1.621,0,0,0,1.309-.214,1.888,1.888,0,0,0,.748-1.223,2.254,2.254,0,0,0-.248-1.733,2.021,2.021,0,0,0-1.338-.939,1.639,1.639,0,0,0-1.311.216,1.864,1.864,0,0,0-.754,1.22,2.43,2.43,0,0,0,.036,1.233,1.928,1.928,0,0,0,.626.965A2.177,2.177,0,0,0,577.144,399.96Zm5.371,2.355a2.01,2.01,0,0,0,.98-.03,1.747,1.747,0,0,0,.864-.556,2.273,2.273,0,0,0,.5-1.031,2.233,2.233,0,0,0-.68-2.132,3.366,3.366,0,0,0-1.725-.978,1.814,1.814,0,0,0-1.443.237,1.946,1.946,0,0,0-.822,1.273,2.471,2.471,0,0,0,.4,2.008A3.006,3.006,0,0,0,582.516,402.315Z" transform="translate(-574.267 -385.448)"/>
            <path id="Trazado_3110" data-name="Trazado 3110" d="M587.8,391.814a6.375,6.375,0,0,1-1.609-1,5.971,5.971,0,0,1-1.1-1.339q-.491-.79-1.567-2.974a18.208,18.208,0,0,0-.988-1.834,4.524,4.524,0,0,0-1.026-1.133,2.173,2.173,0,0,0-.841-.377,1.888,1.888,0,0,0-1.489.269,1.954,1.954,0,0,0-.865,1.271,2.082,2.082,0,0,0,.253,1.555,3.449,3.449,0,0,0,1.632,1.276l-.515,1.36a3.925,3.925,0,0,1-2.18-1.74,3.682,3.682,0,0,1-.348-2.68,3.985,3.985,0,0,1,.81-1.708,2.843,2.843,0,0,1,1.425-.957,3.285,3.285,0,0,1,1.63-.067,3.706,3.706,0,0,1,2.052,1.318,22.394,22.394,0,0,1,1.974,3.565,17.116,17.116,0,0,0,1.034,1.889,5.034,5.034,0,0,0,.846,1.005l1.145-5.212,1.257.568Z" transform="translate(-575.092 -381.664)"/>
          </g>
          <g id="Grupo_3253" data-name="Grupo 3253" transform="translate(52.327 133.715)">
            <path id="Trazado_3111" data-name="Trazado 3111" d="M243.241,418.064a.742.742,0,0,1-.131-1.471l82.555-14.974a.741.741,0,1,1,.265,1.458l-82.556,14.976A.778.778,0,0,1,243.241,418.064Z" transform="translate(-242.501 -398.635)" fill="#231f20"/>
            <g id="Grupo_3252" data-name="Grupo 3252" transform="translate(79.64)">
              <path id="Trazado_3112" data-name="Trazado 3112" d="M357.348,405.849l15.034-7.1-16.571-1.369Z" transform="translate(-355.811 -397.379)" fill="#231f20"/>
            </g>
          </g>
          <g id="Grupo_3255" data-name="Grupo 3255" transform="translate(77.424 16.292)">
            <path id="Trazado_3113" data-name="Trazado 3113" d="M282.864,236.536a.724.724,0,0,1-.176-.021.741.741,0,0,1-.545-.895l1.149-4.739a.741.741,0,1,1,1.439.349l-1.149,4.739A.74.74,0,0,1,282.864,236.536Z" transform="translate(-279.371 -230.313)" fill="#231f20"/>
            <g id="Grupo_3254" data-name="Grupo 3254" transform="translate(0 1.614)">
              <path id="Trazado_3114" data-name="Trazado 3114" d="M278.209,232.609l.4,16.623,7.967-14.595Z" transform="translate(-278.209 -232.609)" fill="#231f20"/>
            </g>
          </g>
          <path id="Trazado_3115" data-name="Trazado 3115" d="M308.519,333.215a6.44,6.44,0,0,1-3.386-.926l-44.306-26.871,28.511-47.028,44.315,26.867c3.556,2.158,4.385,7.391,2.331,14.735C331.93,314.5,317.882,333.215,308.519,333.215Zm-46.675-28.047,43.673,26.487a5.711,5.711,0,0,0,3,.818c9.073,0,22.763-18.41,26.753-32.681,1.955-6.994,1.244-11.933-2-13.9l-43.681-26.482Z" transform="translate(-195.619 -222.364)" fill="#231f20"/>
        </g>
      </g>
      <g id="Grupo_3266" data-name="Grupo 3266" transform="translate(183.719 23.599)">
        <g id="Grupo_3260" data-name="Grupo 3260" transform="translate(0 266.771)">
          <path id="Trazado_3116" data-name="Trazado 3116" d="M474.8,447.663l-.006-.616-.608-.106c-33.632-5.858-35.752-14.028-35.014-22.588.306-3.526.372-10.884.375-11.2l.006-.723-.723-.022s-17.07-.551-33.342-1.083l-.05,1.48c14.3.468,29.2.949,32.62,1.059-.025,1.979-.115,7.524-.361,10.357-.933,10.794,4.72,18.6,35.626,24.068.1,14.066-.752,54.186-2,61.034-1.364.132-7.038-1.358-13.048-2.937-15.3-4.022-40.918-10.75-66.324-11.575-13.284-.439-20.578,1.923-25.109,5.212l-.55-.3a90.2,90.2,0,0,0-14.078-6.44l-.7-.251-.505,1.392.7.253a88.6,88.6,0,0,1,13.866,6.344h0a28.216,28.216,0,0,0-5.73,7.35c-2.368,3.917-4.24,7.012-10.114,7.086l-.331.007c-6.538.129-30.572.389-65.322-1.756-46.888-2.9-80.666-6.044-85.854-6.537L201.594,406.2l49.634,1.61.048-1.48L200.9,404.691l-.74-.025L196.7,508.516l.692.068c.352.034,35.782,3.466,86.6,6.606,24.93,1.54,44.358,1.843,55.785,1.843,4.527,0,7.8-.048,9.657-.084l.318-.006c6.7-.085,8.966-3.833,11.364-7.8,3.658-6.05,8.21-13.581,30.786-12.845,25.237.819,50.751,7.522,65.995,11.527,9.8,2.574,13.237,3.429,14.345,2.747a1.022,1.022,0,0,0,.472-.654C474.127,503.359,474.92,459.995,474.8,447.663Z" transform="translate(-196.7 -404.666)" fill="#ed1c24"/>
          <rect id="Rectngulo_915" data-name="Rectngulo 915" width="1.481" height="41.147" transform="translate(159.39 6.619) rotate(-88.141)" fill="#ed1c24"/>
          <rect id="Rectngulo_916" data-name="Rectngulo 916" width="1.481" height="41.147" transform="translate(109.355 4.995) rotate(-88.142)" fill="#ed1c24"/>
          <rect id="Rectngulo_917" data-name="Rectngulo 917" width="1.481" height="41.144" transform="translate(59.323 3.372) rotate(-88.144)" fill="#ed1c24"/>
          <g id="Grupo_3258" data-name="Grupo 3258" transform="translate(62.737 8.26)">
            <path id="Trazado_3117" data-name="Trazado 3117" d="M285.978,424.471l1.483-.094c-.018.207-.027.33-.029.372a2.289,2.289,0,0,0,.235,1.061,1.952,1.952,0,0,0,.7.837,1.851,1.851,0,0,0,.966.313,2.5,2.5,0,0,0,1.389-.415,3.314,3.314,0,0,0,1.177-1.3,3.911,3.911,0,0,0,.492-1.729,2.118,2.118,0,0,0-.531-1.58,2.06,2.06,0,0,0-1.511-.635,2.524,2.524,0,0,0-1.21.26,3.509,3.509,0,0,0-1.087.871l-1.265-.129,1.972-5.884,5.751.187-.325,1.306-4.473-.146-.983,2.927a3.878,3.878,0,0,1,1.043-.5,3.3,3.3,0,0,1,1.086-.143,2.971,2.971,0,0,1,2.187.95,3.276,3.276,0,0,1,.786,2.436,5.213,5.213,0,0,1-.677,2.449,4.253,4.253,0,0,1-1.692,1.681,4.381,4.381,0,0,1-2.265.533,3.494,3.494,0,0,1-1.777-.509,2.876,2.876,0,0,1-1.127-1.281,3.558,3.558,0,0,1-.337-1.6C285.964,424.657,285.969,424.578,285.978,424.471Z" transform="translate(-285.96 -416.418)" fill="#ed1c24"/>
            <path id="Trazado_3118" data-name="Trazado 3118" d="M300.581,428.235a15.14,15.14,0,0,1,.913-2.794,22.7,22.7,0,0,1,2.092-3.886,16.8,16.8,0,0,1,2.811-3.284l-5.872-.19.326-1.307,7.517.245-.317,1.306a15.264,15.264,0,0,0-3.483,4.161,21.606,21.606,0,0,0-2.468,5.8Z" transform="translate(-290.288 -416.524)" fill="#ed1c24"/>
          </g>
          <g id="Grupo_3259" data-name="Grupo 3259" transform="translate(7.818 46.569)">
            <path id="Trazado_3119" data-name="Trazado 3119" d="M208.621,470.923a6.333,6.333,0,0,1,1.743.671,5.857,5.857,0,0,1,1.315,1.085q.617.67,2.057,2.573a17.741,17.741,0,0,0,1.29,1.579,4.479,4.479,0,0,0,1.2.9,2.157,2.157,0,0,0,.885.211,1.935,1.935,0,0,0,2.009-1.894,2.006,2.006,0,0,0-.526-1.444,3.414,3.414,0,0,0-1.814-.931l.255-1.394a3.886,3.886,0,0,1,2.43,1.279,3.535,3.535,0,0,1,.821,2.5,3.818,3.818,0,0,1-.477,1.78,2.8,2.8,0,0,1-1.212,1.171,3.266,3.266,0,0,1-1.572.353,3.686,3.686,0,0,1-2.23-.9,22.14,22.14,0,0,1-2.558-3.065,16.821,16.821,0,0,0-1.345-1.626,4.963,4.963,0,0,0-1-.813l-.174,5.2-1.323-.321Z" transform="translate(-207.992 -470.923)" fill="#ed1c24"/>
            <path id="Trazado_3120" data-name="Trazado 3120" d="M214.9,486.518a4.751,4.751,0,0,1,.719,1.224,2.994,2.994,0,0,1,.214,1.193,2.876,2.876,0,0,1-.989,2.157,3.455,3.455,0,0,1-2.494.782,4.953,4.953,0,0,1-3.386-1.394,3.492,3.492,0,0,1-1.139-2.733,3.1,3.1,0,0,1,1.151-2.37,4.429,4.429,0,0,1,3.088-.862,11.8,11.8,0,0,1,3.651.737,8.372,8.372,0,0,1,2.358,1.253,4.863,4.863,0,0,1,1.335,1.534,3.571,3.571,0,0,1,.383,1.793,2.636,2.636,0,0,1-.816,1.917,3.264,3.264,0,0,1-2.177.785l-.084-1.334a2.309,2.309,0,0,0,1.4-.491,1.406,1.406,0,0,0,.461-1.018,2.11,2.11,0,0,0-.464-1.31,4.037,4.037,0,0,0-1.461-1.165A8.593,8.593,0,0,0,214.9,486.518Zm-3.5-.614a2.414,2.414,0,0,0-1.695.555,1.818,1.818,0,0,0-.725,1.358,2.035,2.035,0,0,0,.375,1.152,3.205,3.205,0,0,0,1.223,1.063,3.728,3.728,0,0,0,1.664.475,2.474,2.474,0,0,0,1.742-.526,1.826,1.826,0,0,0,.694-1.385,2.332,2.332,0,0,0-.885-1.8A3.566,3.566,0,0,0,211.4,485.9Z" transform="translate(-207.824 -474.96)" fill="#ed1c24"/>
          </g>
        </g>
        <g id="Grupo_3265" data-name="Grupo 3265" transform="translate(9.288)">
          <path id="Trazado_3121" data-name="Trazado 3121" d="M480.178,147.906c-1.68,0-5.315-1.185-13.1-3.8-14.752-4.947-39.446-13.227-64.244-15.615-22.168-2.137-27.12,5.091-31.1,10.9-2.614,3.814-5.065,7.416-11.693,7.081l-.243-.011c-6.408-.271-29.987-1.489-64.373-5.836-49.823-6.3-84.479-11.924-84.823-11.981l-.685-.11,9.966-103.425L270.1,29.95l-.143,1.475-48.74-4.7L211.523,127.3c5.1.819,38.139,6.056,84.085,11.861,34.329,4.342,57.856,5.557,64.249,5.826l.256.011c5.77.292,7.819-2.677,10.4-6.438,4.2-6.127,9.427-13.753,32.464-11.535,24.966,2.4,49.759,10.718,64.573,15.685,5.8,1.943,11.316,3.762,12.627,3.739,1.666-6.764,5.035-46.75,5.826-60.788-30.077-7.383-35.147-15.523-33.547-26.24.418-2.809.858-8.337,1.008-10.31L319.243,36.139l.141-1.475L455.044,47.771l-.053.72c-.022.311-.553,7.648-1.073,11.145-1.269,8.5.3,16.791,33.029,24.728l.6.145-.033.614c-.662,12.31-4.178,55.535-5.985,62a1.017,1.017,0,0,1-.515.626A1.779,1.779,0,0,1,480.178,147.906Z" transform="translate(-209.915 -25.112)" fill="#ed1c24"/>
          <path id="Trazado_3122" data-name="Trazado 3122" d="M442.741,173.913l-1.5-.967a73.3,73.3,0,0,0-11.934-6.4l-.678-.3.6-1.356.678.3a74.629,74.629,0,0,1,12.144,6.514l1.493.963Z" transform="translate(-274.905 -66.647)" fill="#ed1c24"/>
          <rect id="Rectngulo_918" data-name="Rectngulo 918" width="1.482" height="40.58" transform="translate(64.743 6.843) rotate(-84.498)" fill="#ed1c24"/>
          <g id="Grupo_3261" data-name="Grupo 3261" transform="translate(80.072 11.802)">
            <path id="Trazado_3123" data-name="Trazado 3123" d="M325.964,46.611a4.788,4.788,0,0,1,1.25-.663,3.036,3.036,0,0,1,1.2-.166,2.9,2.9,0,0,1,2.119,1.055,3.375,3.375,0,0,1,.69,2.487A4.857,4.857,0,0,1,329.7,52.61a3.518,3.518,0,0,1-2.773,1.02,3.119,3.119,0,0,1-2.326-1.224,4.324,4.324,0,0,1-.748-3.076,11.5,11.5,0,0,1,.871-3.57,8.256,8.256,0,0,1,1.34-2.277,4.858,4.858,0,0,1,1.583-1.258,3.611,3.611,0,0,1,1.806-.31,2.651,2.651,0,0,1,1.884.876,3.2,3.2,0,0,1,.7,2.175L330.71,45a2.249,2.249,0,0,0-.438-1.4,1.414,1.414,0,0,0-1-.492,2.125,2.125,0,0,0-1.323.407,3.976,3.976,0,0,0-1.219,1.4A8.5,8.5,0,0,0,325.964,46.611Zm-.743,3.427a2.37,2.37,0,0,0,.492,1.691,1.837,1.837,0,0,0,1.329.765,2.063,2.063,0,0,0,1.168-.328A3.176,3.176,0,0,0,329.316,51a3.651,3.651,0,0,0,.536-1.622,2.427,2.427,0,0,0-.462-1.737,1.842,1.842,0,0,0-1.358-.736,2.351,2.351,0,0,0-1.829.805A3.5,3.5,0,0,0,325.221,50.038Z" transform="translate(-323.838 -41.903)" fill="#ed1c24"/>
            <path id="Trazado_3124" data-name="Trazado 3124" d="M336.292,50.779l1.465-.039c-.026.2-.039.328-.042.37a2.326,2.326,0,0,0,.19,1.07,1.956,1.956,0,0,0,.662.862,1.8,1.8,0,0,0,.94.349,2.446,2.446,0,0,0,1.385-.363,3.3,3.3,0,0,0,1.209-1.257,3.968,3.968,0,0,0,.549-1.71,2.137,2.137,0,0,0-.463-1.6,2.016,2.016,0,0,0-1.464-.692,2.455,2.455,0,0,0-1.2.217,3.458,3.458,0,0,0-1.1.829l-1.243-.176,2.165-5.807,5.661.4-.37,1.293-4.4-.31L339.15,47.1a3.829,3.829,0,0,1,1.046-.463,3.265,3.265,0,0,1,1.075-.1,2.922,2.922,0,0,1,2.12,1.03,3.318,3.318,0,0,1,.685,2.465,5.3,5.3,0,0,1-.758,2.422,4.239,4.239,0,0,1-1.732,1.618,4.291,4.291,0,0,1-2.253.448,3.434,3.434,0,0,1-1.732-.575,2.865,2.865,0,0,1-1.062-1.323,3.6,3.6,0,0,1-.272-1.607C336.271,50.963,336.279,50.884,336.292,50.779Z" transform="translate(-327.529 -42.18)" fill="#ed1c24"/>
          </g>
          <g id="Grupo_3263" data-name="Grupo 3263" transform="translate(186.098 18.177)">
            <rect id="Rectngulo_919" data-name="Rectngulo 919" width="8.98" height="1.481" transform="translate(6.408 8.939) rotate(-84.497)" fill="#ed1c24"/>
            <g id="Grupo_3262" data-name="Grupo 3262" transform="translate(0 6.15)">
              <path id="Trazado_3125" data-name="Trazado 3125" d="M474.69,59.725l6.126,13.443,8.58-12.026Z" transform="translate(-474.69 -59.725)" fill="#ed1c24"/>
            </g>
          </g>
          <g id="Grupo_3264" data-name="Grupo 3264" transform="translate(10.992 47.734)">
            <path id="Trazado_3126" data-name="Trazado 3126" d="M227.362,93.026a6.185,6.185,0,0,1,1.669.785,5.829,5.829,0,0,1,1.221,1.172q.56.708,1.848,2.7a17.952,17.952,0,0,0,1.163,1.663,4.436,4.436,0,0,0,1.12.981,2.12,2.12,0,0,0,.857.27,1.845,1.845,0,0,0,1.41-.427,1.9,1.9,0,0,0,.7-1.328,2.033,2.033,0,0,0-.42-1.476,3.363,3.363,0,0,0-1.724-1.051l.347-1.375a3.822,3.822,0,0,1,2.3,1.44,3.572,3.572,0,0,1,.639,2.553,3.872,3.872,0,0,1-.591,1.744,2.769,2.769,0,0,1-1.274,1.087,3.175,3.175,0,0,1-1.57.247,3.6,3.6,0,0,1-2.133-1.043,22.051,22.051,0,0,1-2.31-3.23,16.553,16.553,0,0,0-1.213-1.711,4.987,4.987,0,0,0-.931-.879l-.523,5.174-1.281-.408Z" transform="translate(-225.884 -93.026)" fill="#ed1c24"/>
            <path id="Trazado_3127" data-name="Trazado 3127" d="M229.41,106.517l0,1.465c-.2-.032-.328-.049-.37-.053a2.347,2.347,0,0,0-1.075.158,1.961,1.961,0,0,0-.881.636,1.8,1.8,0,0,0-.377.93,2.445,2.445,0,0,0,.321,1.394,3.288,3.288,0,0,0,1.221,1.247,3.965,3.965,0,0,0,1.692.6,2.134,2.134,0,0,0,1.612-.415,2.024,2.024,0,0,0,.735-1.444,2.47,2.47,0,0,0-.181-1.21,3.45,3.45,0,0,0-.795-1.127l.213-1.238,5.738,2.34-.57,5.646-1.282-.408.444-4.392L233,109.485a3.822,3.822,0,0,1,.431,1.059,3.25,3.25,0,0,1,.07,1.077,2.922,2.922,0,0,1-1.1,2.089,3.308,3.308,0,0,1-2.482.61,5.293,5.293,0,0,1-2.4-.832,4.231,4.231,0,0,1-1.565-1.78,4.278,4.278,0,0,1-.38-2.265,3.41,3.41,0,0,1,.628-1.713,2.861,2.861,0,0,1,1.354-1.023,3.621,3.621,0,0,1,1.616-.223C229.226,106.491,229.306,106.5,229.41,106.517Z" transform="translate(-225.554 -97.02)" fill="#ed1c24"/>
          </g>
        </g>
      </g>
      <g id="Grupo_3277" data-name="Grupo 3277" transform="translate(163.107 20.021)">
        <path id="Trazado_3128" data-name="Trazado 3128" d="M347.323,408.946,167.374,392.565l.25-.863c.7-2.407,69.779-240.759,70.161-242.173,1.625-6.216,4.947-8.4,8.464-10.707,5.667-3.721,12.09-7.939,12.09-32.709,0-26.105-5.188-52.919-8.288-68.94-.93-4.8-1.664-8.6-2.061-11.3-.485-3.3-.512-4.918.64-5.141,6.513-1.258,49.33-.569,61.495-.012l.619.028.081.614c4.706,35.58,12.684,38.1,21.15,37.623,3.489-.2,14.52-.009,14.986,0l.727.013v.728s0,31.657,0,48.779h-1.482c0-15.587,0-43.223,0-48.051-2.572-.039-11.225-.158-14.147.011-10.705.6-18.217-5.614-22.622-38.292-13.889-.6-53.506-1.112-60.263-.032-.259,1.379.945,7.6,2.329,14.754,3.11,16.073,8.315,42.972,8.315,69.221,0,25.568-6.778,30.02-12.758,33.946-3.415,2.242-6.362,4.178-7.845,9.846-.25.959-64.641,223.13-69.921,241.346l176.556,16.074c.046-6.69.355-52.913.355-66.621h1.482c0,14.722-.356,66.911-.361,67.437Z" transform="translate(-167.374 -20.021)" fill="#231f20"/>
        <g id="Grupo_3267" data-name="Grupo 3267" transform="translate(87.384 109.635)">
          <path id="Trazado_3129" data-name="Trazado 3129" d="M292.58,176.588c2.138,3.246,2.667,3.828,5.967,11.823Z" transform="translate(-291.962 -176.18)" fill="#fff"/>
          <path id="Trazado_3130" data-name="Trazado 3130" d="M297.6,188.521c-3.05-7.392-3.713-8.395-5.488-11.076l-.411-.622,1.236-.816.41.621c1.832,2.769,2.517,3.8,5.621,11.329Z" transform="translate(-291.701 -176.007)" fill="#231f20"/>
        </g>
        <g id="Grupo_3268" data-name="Grupo 3268" transform="translate(178.833 265.159)">
          <path id="Trazado_3131" data-name="Trazado 3131" d="M422.867,397.281v0Z" transform="translate(-422.126 -397.281)" fill="#fff"/>
          <rect id="Rectngulo_920" data-name="Rectngulo 920" width="1.482" height="43.271" transform="translate(0 0)" fill="#231f20"/>
        </g>
        <g id="Grupo_3270" data-name="Grupo 3270" transform="translate(156.059 92.368)">
          <path id="Trazado_3132" data-name="Trazado 3132" d="M417.209,162.482H417.2l-12.987-.136a.741.741,0,0,1,.008-1.482h.007l12.987.136a.741.741,0,0,1-.008,1.482Z" transform="translate(-393.592 -154.24)" fill="#231f20"/>
          <g id="Grupo_3269" data-name="Grupo 3269">
            <path id="Trazado_3133" data-name="Trazado 3133" d="M402.28,151.44l-12.869,7.254,12.716,7.52Z" transform="translate(-389.411 -151.44)" fill="#231f20"/>
          </g>
        </g>
        <g id="Grupo_3271" data-name="Grupo 3271" transform="translate(84.569 359.37)">
          <path id="Trazado_3134" data-name="Trazado 3134" d="M291.5,543.432l.858-3.1-4.663-.418.413-1.482,6.991-7.114,1.154.1-2.123,7.713,1.605.143-.361,1.326-1.606-.145-.857,3.1Zm1.219-4.418,1.394-5.067-4.654,4.775Z" transform="translate(-287.696 -531.323)" fill="#ed1c24"/>
          <path id="Trazado_3135" data-name="Trazado 3135" d="M301,540.1a12.222,12.222,0,0,1,.678-3.145,11.77,11.77,0,0,1,1.161-2.5,6.176,6.176,0,0,1,1.216-1.417,4.141,4.141,0,0,1,1.181-.7,2.824,2.824,0,0,1,1.239-.148,2.785,2.785,0,0,1,2.106,1.25,4.689,4.689,0,0,1,.643,3.118,13.837,13.837,0,0,1-.918,4,7.769,7.769,0,0,1-2.269,3.384,3.2,3.2,0,0,1-2.308.7,2.752,2.752,0,0,1-2.088-1.285A4.988,4.988,0,0,1,301,540.1Zm1.335.509a3.779,3.779,0,0,0,.214,1.809,1.554,1.554,0,0,0,1.345,1.011,1.91,1.91,0,0,0,1.55-.667,7.493,7.493,0,0,0,1.707-3.175,16.888,16.888,0,0,0,.762-3.515,3.123,3.123,0,0,0-.325-1.961,1.547,1.547,0,0,0-1.2-.7,1.9,1.9,0,0,0-1.072.218,3.041,3.041,0,0,0-1.015.985,11.17,11.17,0,0,0-1.344,3.1A14.453,14.453,0,0,0,302.33,540.614Z" transform="translate(-291.64 -531.577)" fill="#ed1c24"/>
        </g>
        <g id="Grupo_3272" data-name="Grupo 3272" transform="translate(48.19 210.569)">
          <path id="Trazado_3136" data-name="Trazado 3136" d="M239.829,339.258a5.4,5.4,0,0,1-.349-1.461,3.513,3.513,0,0,1,.115-1.284,3.04,3.04,0,0,1,1.5-1.936,3.106,3.106,0,0,1,2.547-.1,4.871,4.871,0,0,1,2.806,2.388,4.013,4.013,0,0,1,.344,3.128,3.25,3.25,0,0,1-1.709,2.107,3.969,3.969,0,0,1-3.125.017,11.093,11.093,0,0,1-3.227-1.787,8.47,8.47,0,0,1-1.879-1.954,5.368,5.368,0,0,1-.846-1.955,4.128,4.128,0,0,1,.116-1.948,2.8,2.8,0,0,1,1.273-1.74,2.946,2.946,0,0,1,2.25-.191l-.275,1.394a2.072,2.072,0,0,0-1.442.107,1.5,1.5,0,0,0-.7.919,2.429,2.429,0,0,0,.088,1.473,4.24,4.24,0,0,0,1.061,1.61A8.377,8.377,0,0,0,239.829,339.258Zm3.121,1.618a2.17,2.17,0,0,0,1.737-.092,1.9,1.9,0,0,0,1.04-1.188,2.367,2.367,0,0,0-.047-1.293,3.435,3.435,0,0,0-.865-1.435,3.571,3.571,0,0,0-1.435-.958,2.227,2.227,0,0,0-1.774.048,1.916,1.916,0,0,0-1.017,1.227,2.67,2.67,0,0,0,.354,2.1A3.477,3.477,0,0,0,242.95,340.876Z" transform="translate(-235.937 -323.416)"/>
          <path id="Trazado_3137" data-name="Trazado 3137" d="M245.727,329.36a10.284,10.284,0,0,1-2.691-1.4,10.759,10.759,0,0,1-2-1.774,6.389,6.389,0,0,1-1.013-1.593,4.915,4.915,0,0,1-.376-1.4,3.566,3.566,0,0,1,.14-1.34,3,3,0,0,1,1.592-1.945,3.811,3.811,0,0,1,2.958.009,11.738,11.738,0,0,1,3.407,1.849A7.622,7.622,0,0,1,250.3,324.9a3.908,3.908,0,0,1,.124,2.584,2.935,2.935,0,0,1-1.62,1.917A4.028,4.028,0,0,1,245.727,329.36Zm.754-1.293a3.02,3.02,0,0,0,1.68.172,1.594,1.594,0,0,0,1.209-1.193,2.294,2.294,0,0,0-.261-1.78,7.073,7.073,0,0,0-2.492-2.5,14.205,14.205,0,0,0-3.006-1.576,2.526,2.526,0,0,0-1.844-.091,1.661,1.661,0,0,0-.9,1.109,2.368,2.368,0,0,0-.039,1.177,3.272,3.272,0,0,0,.668,1.286,10.2,10.2,0,0,0,2.5,2.1A12.088,12.088,0,0,0,246.481,328.067Z" transform="translate(-237.035 -319.613)"/>
        </g>
        <g id="Grupo_3273" data-name="Grupo 3273" transform="translate(161.725 212.006)">
          <path id="Trazado_3138" data-name="Trazado 3138" d="M402.68,340.893a2.551,2.551,0,0,1-.9,1.039,2.194,2.194,0,0,1-1.186.346,2.8,2.8,0,0,1-1.923-.814,3.753,3.753,0,0,1-1.195-2.934,3.8,3.8,0,0,1,.81-2.567,2.524,2.524,0,0,1,1.984-.937,2.447,2.447,0,0,1,1.509.507,3.386,3.386,0,0,1,1.071,1.59,3.133,3.133,0,0,1,.916-1.063,2.634,2.634,0,0,1,1.479-.414,3.823,3.823,0,0,1,2.745,1.182,4.192,4.192,0,0,1,1.2,3.14,3.67,3.67,0,0,1-.893,2.552,2.882,2.882,0,0,1-2.231.988,3.377,3.377,0,0,1-3.386-2.615Zm-2.027-.12a1.5,1.5,0,0,0,1.186-.51,2.052,2.052,0,0,0,.451-1.407,2.44,2.44,0,0,0-.589-1.7,1.878,1.878,0,0,0-1.451-.656,1.512,1.512,0,0,0-1.185.51,2.033,2.033,0,0,0-.459,1.407,2.679,2.679,0,0,0,.289,1.241,1.924,1.924,0,0,0,.786.842A2,2,0,0,0,400.653,340.773Zm5.531,1.2a1.82,1.82,0,0,0,.915-.248,1.763,1.763,0,0,0,.7-.756,2.5,2.5,0,0,0,.26-1.157,2.367,2.367,0,0,0-1.079-2.013,3.054,3.054,0,0,0-1.822-.609,1.686,1.686,0,0,0-1.308.56,2.126,2.126,0,0,0-.509,1.475,2.662,2.662,0,0,0,.789,1.948A2.771,2.771,0,0,0,406.185,341.969Z" transform="translate(-397.472 -325.63)"/>
          <path id="Trazado_3139" data-name="Trazado 3139" d="M406.364,330.035l-.131-1.436a2.251,2.251,0,0,0,1.368-.591,1.53,1.53,0,0,0,.408-1.064,2.351,2.351,0,0,0-.7-1.631,6.166,6.166,0,0,0-2.965-1.634,6.658,6.658,0,0,1,.758,1.367,3.405,3.405,0,0,1,.226,1.221,3.193,3.193,0,0,1-.706,2.027,3.123,3.123,0,0,1-2.63,1.18,4.556,4.556,0,0,1-3.323-1.371,3.892,3.892,0,0,1-1.187-2.882,3.391,3.391,0,0,1,1.054-2.551,4.115,4.115,0,0,1,2.977-1.013,10.516,10.516,0,0,1,3.692.679,6.74,6.74,0,0,1,3.159,2.175,4.09,4.09,0,0,1,.828,2.51,2.831,2.831,0,0,1-2.826,3.014ZM401.828,328a2.373,2.373,0,0,0,1.722-.619,1.981,1.981,0,0,0,.641-1.475,2.313,2.313,0,0,0-.4-1.259,3.572,3.572,0,0,0-2.823-1.525,2.582,2.582,0,0,0-1.221.3,2,2,0,0,0-.849.806,2.089,2.089,0,0,0-.286,1.033,2.187,2.187,0,0,0,.249,1,3.05,3.05,0,0,0,.735.908,3.2,3.2,0,0,0,1.115.626A3.6,3.6,0,0,0,401.828,328Z" transform="translate(-397.474 -321.657)"/>
        </g>
        <g id="Grupo_3274" data-name="Grupo 3274" transform="translate(178.833 205.309)">
          <path id="Trazado_3140" data-name="Trazado 3140" d="M422.867,312.129v0Z" transform="translate(-422.126 -312.129)" fill="#fff"/>
          <rect id="Rectngulo_921" data-name="Rectngulo 921" width="1.482" height="43.263" fill="#231f20"/>
        </g>
        <g id="Grupo_3275" data-name="Grupo 3275" transform="translate(178.833 149.783)">
          <path id="Trazado_3141" data-name="Trazado 3141" d="M422.867,233.128v0Z" transform="translate(-422.126 -233.128)" fill="#fff"/>
          <rect id="Rectngulo_922" data-name="Rectngulo 922" width="1.482" height="43.269" transform="translate(0 0)" fill="#231f20"/>
        </g>
        <g id="Grupo_3276" data-name="Grupo 3276" transform="translate(178.833 95.698)">
          <path id="Trazado_3142" data-name="Trazado 3142" d="M422.867,156.178v0Z" transform="translate(-422.126 -156.178)" fill="#fff"/>
          <rect id="Rectngulo_923" data-name="Rectngulo 923" width="1.482" height="43.269" transform="translate(0 0)" fill="#231f20"/>
        </g>
      </g>
    </g>
  </g>
</svg>
