<svg xmlns="http://www.w3.org/2000/svg" width="163" height="167" viewBox="0 0 163 167">
  <g id="Grupo_3537" data-name="Grupo 3537" transform="translate(-160 -2665)">
    <g id="Elipse_569" data-name="Elipse 569" transform="translate(160 2669)" fill="#fff" stroke="#8d7a72" stroke-width="2" stroke-dasharray="6">
      <circle cx="81.5" cy="81.5" r="81.5" stroke="none"/>
      <circle cx="81.5" cy="81.5" r="80.5" fill="none"/>
    </g>
    <g id="Grupo_3535" data-name="Grupo 3535" transform="translate(-308 1907)">
      <g id="Elipse_542" data-name="Elipse 542" transform="translate(579 758)" fill="#f3f7fa" stroke="#cea774" stroke-width="1">
        <circle cx="26" cy="26" r="26" stroke="none"/>
        <circle cx="26" cy="26" r="25.5" fill="none"/>
      </g>
      <circle id="Elipse_543" data-name="Elipse 543" cx="21" cy="21" r="21" transform="translate(584 763)" fill="#745f57"/>
    </g>
    <path id="Trazado_3459" data-name="Trazado 3459" d="M3.22-3h-6.5L-4.52,0H-7.84L-1.6-14H1.6L7.86,0H4.46ZM2.2-5.46-.02-10.82-2.24-5.46Z" transform="translate(298 2697)" fill="#fff"/>
    <g id="Grupo_3536" data-name="Grupo 3536" transform="translate(-161.777 95)">
      <g id="Grupo_3534" data-name="Grupo 3534" transform="translate(369.713 2625)">
        <g id="Grupo_3524" data-name="Grupo 3524" transform="translate(0 50.732)">
          <g id="Grupo_3523" data-name="Grupo 3523">
            <g id="Grupo_3522" data-name="Grupo 3522">
              <path id="Trazado_3365" data-name="Trazado 3365" d="M197.5,87.8A40.414,40.414,0,0,1,163.7,69.747a1.467,1.467,0,0,1,2.515-1.51c.1.166,10.277,16.626,31.292,16.626a1.466,1.466,0,1,1,0,2.933Z" transform="translate(-163.489 -67.527)" fill="#a88b6a"/>
            </g>
          </g>
        </g>
        <g id="Grupo_3527" data-name="Grupo 3527" transform="translate(2.674 0)">
          <g id="Grupo_3526" data-name="Grupo 3526">
            <g id="Grupo_3525" data-name="Grupo 3525">
              <path id="Trazado_3366" data-name="Trazado 3366" d="M166.78,54.822a1.466,1.466,0,0,1-.977-2.56l17.234-15.373c.676-.774,4.037-3.955,13.616-3.955a1.466,1.466,0,1,1,0,2.933c-8.814,0-11.393,2.936-11.418,2.965a2.1,2.1,0,0,1-.167.175L167.755,54.449A1.464,1.464,0,0,1,166.78,54.822Z" transform="translate(-165.312 -32.933)" fill="#a88b6a"/>
            </g>
          </g>
        </g>
        <g id="Grupo_3530" data-name="Grupo 3530" transform="translate(32.356 0)">
          <g id="Grupo_3529" data-name="Grupo 3529">
            <g id="Grupo_3528" data-name="Grupo 3528">
              <path id="Trazado_3367" data-name="Trazado 3367" d="M216.891,54.822a1.464,1.464,0,0,1-.975-.372L198.6,39.006a1.4,1.4,0,0,1-.186-.2s-2.3-2.61-9.931-2.911v14.44a1.466,1.466,0,0,1-2.933,0V34.4a1.467,1.467,0,0,1,1.466-1.466c9.579,0,12.939,3.181,13.615,3.955l17.234,15.373a1.466,1.466,0,0,1-.977,2.56Z" transform="translate(-185.552 -32.933)" fill="#a88b6a"/>
            </g>
          </g>
        </g>
        <g id="Grupo_3533" data-name="Grupo 3533" transform="translate(32.356 47.675)">
          <g id="Grupo_3532" data-name="Grupo 3532">
            <g id="Grupo_3531" data-name="Grupo 3531">
              <path id="Trazado_3368" data-name="Trazado 3368" d="M187.018,88.767a1.467,1.467,0,0,1-1.466-1.466V66.909a1.466,1.466,0,0,1,2.933,0v18.9c20.076-.738,29.726-16.435,29.824-16.6a1.466,1.466,0,0,1,2.515,1.509A40.413,40.413,0,0,1,187.018,88.767Z" transform="translate(-185.552 -65.443)" fill="#a88b6a"/>
            </g>
          </g>
        </g>
        <circle id="Elipse_568" data-name="Elipse 568" cx="13.867" cy="13.867" r="13.867" transform="translate(20.545 26.047)" fill="none" stroke="#a88b6a" stroke-miterlimit="10" stroke-width="2"/>
      </g>
    </g>
  </g>
</svg>
