<svg xmlns="http://www.w3.org/2000/svg" xmlns:xlink="http://www.w3.org/1999/xlink" width="169.666" height="165.163" viewBox="0 0 169.666 165.163">
  <defs>
    <radialGradient id="radial-gradient" cx="0.521" cy="0.454" r="0.59" gradientTransform="translate(0.088) scale(0.824 1)" gradientUnits="objectBoundingBox">
      <stop offset="0.406" stop-color="#ffe89a"/>
      <stop offset="0.541" stop-color="#fee797"/>
      <stop offset="0.635" stop-color="#fee48e"/>
      <stop offset="0.717" stop-color="#fde07e"/>
      <stop offset="0.791" stop-color="#fdda68"/>
      <stop offset="0.86" stop-color="#fbd24c"/>
      <stop offset="0.909" stop-color="#fbcb34"/>
    </radialGradient>
    <radialGradient id="radial-gradient-2" cx="0.5" cy="0.5" r="0.5" gradientTransform="translate(0)" gradientUnits="objectBoundingBox">
      <stop offset="0.2" stop-color="#ffe89a"/>
      <stop offset="0.355" stop-color="#fee797"/>
      <stop offset="0.462" stop-color="#fee48e"/>
      <stop offset="0.556" stop-color="#fde07e"/>
      <stop offset="0.641" stop-color="#fdda68"/>
      <stop offset="0.72" stop-color="#fbd24c"/>
      <stop offset="0.776" stop-color="#fbcb34"/>
    </radialGradient>
    <radialGradient id="radial-gradient-3" cx="0.479" cy="0.454" r="0.59" gradientTransform="matrix(-0.824, 0, 0, 1, 95.987, 0)" xlink:href="#radial-gradient"/>
    <radialGradient id="radial-gradient-4" cx="0.5" cy="0.5" r="0.5" gradientTransform="matrix(-1, 0, 0, 1, 370.201, 0)" xlink:href="#radial-gradient-2"/>
    <radialGradient id="radial-gradient-5" cx="0.5" cy="0.5" r="0.449" gradientTransform="matrix(1.076, -0.23, 0.285, 1.089, 10.373, -3.217)" xlink:href="#radial-gradient-2"/>
  </defs>
  <g id="Grupo_3332" data-name="Grupo 3332" transform="translate(-124.979 -196.283)">
    <path id="Trazado_3158" data-name="Trazado 3158" d="M211.241,391.836v-.009c-29.714-.518-74.786-.229-86.262.138,2.927,29.193,19.177,86.65,24.989,92.683,3.616.539,43.245.322,60.593.314,17.3.008,55.48.225,59.1-.314,5.812-6.033,22.061-63.49,24.989-92.683C283.535,391.61,240.623,391.909,211.241,391.836Z" transform="translate(0 -123.567)" fill="#716558"/>
    <path id="Trazado_3159" data-name="Trazado 3159" d="M294.882,399.656l-83.136-.289v-.01l-1.428,0-1.429,0v.01l-83.136.277.115.945,84.45-.285,84.45.284Z" transform="translate(-0.506 -130.994)" fill="#716558" opacity="0.7" style="mix-blend-mode: multiply;isolation: isolate"/>
    <g id="Grupo_3327" data-name="Grupo 3327" transform="translate(124.979 267.979)" opacity="0.1" style="mix-blend-mode: multiply;isolation: isolate">
      <path id="Trazado_3160" data-name="Trazado 3160" d="M143.152,497.979c5.756,25.885,13.673,52.294,17.295,56.278,2.278.36,19.71.383,35.917.356C192.776,538.307,169.757,507.888,143.152,497.979Z" transform="translate(-136.864 -461.154)" fill="#716558"/>
      <path id="Trazado_3161" data-name="Trazado 3161" d="M220.989,421.473c41.552-3.319,58.82-16.689,67.3-29.625-16.618-.16-51.684.049-76.852-.013v-.009c-29.783-.518-74.96-.229-86.463.138.147,1.465.329,3,.54,4.6C143.522,407.66,177.552,424.944,220.989,421.473Z" transform="translate(-124.979 -391.546)" fill="#716558"/>
      <path id="Trazado_3162" data-name="Trazado 3162" d="M437.148,543.823c13.672.007,26.556-.052,28.529-.364,3.889-4.278,12.731-34.411,18.532-61.99C460.678,491.752,441.039,524.3,437.148,543.823Z" transform="translate(-319.594 -450.357)" fill="#716558"/>
    </g>
    <path id="Trazado_3163" data-name="Trazado 3163" d="M288.091,382.271a2.719,2.719,0,0,0-1.557-1.7c-.532-.082.089-3.593.779-3.175A4.031,4.031,0,0,1,288.091,382.271Z" transform="translate(-102.152 -116.769)" fill="#56493c"/>
    <path id="Trazado_3164" data-name="Trazado 3164" d="M326.15,257.314c-7-16.279-34.014-25.2-49.746,7.781l4.049,13.257c1.455-29.985,34.239-45.271,47.569-.851C330.15,274.766,326.3,258.987,326.15,257.314Z" transform="translate(-94.396 -30.377)" fill="#56493c"/>
    <path id="Trazado_3165" data-name="Trazado 3165" d="M263.568,340.548c-3.735,0-6.765,2.5-6.765,5.576s3.029,5.575,6.765,5.575,6.764-2.5,6.764-5.575S267.3,340.548,263.568,340.548Zm0,9.771c-2.811,0-5.09-1.878-5.09-4.2s2.279-4.2,5.09-4.2,5.089,1.878,5.089,4.2S266.379,350.319,263.568,350.319Z" transform="translate(-83.244 -92.973)" fill="url(#radial-gradient)"/>
    <path id="Trazado_3166" data-name="Trazado 3166" d="M271.349,419.869l-5.039,4.863-5.7-4.863-.12-28.262,11.009.009Z" transform="translate(-85.626 -125.558)" fill="#716558" opacity="0.5" style="mix-blend-mode: multiply;isolation: isolate"/>
    <path id="Trazado_3167" data-name="Trazado 3167" d="M272.366,399.772l-4.2,3.942-4.753-3.942V362.114h8.958Z" transform="translate(-87.509 -106.468)" fill="#716558"/>
    <g id="Grupo_3328" data-name="Grupo 3328" transform="translate(176.893 261.138)">
      <path id="Trazado_3168" data-name="Trazado 3168" d="M283.643,468.253a.311.311,0,0,1-.233-.1.315.315,0,0,1,.022-.444l.363-.328v-.489a.314.314,0,1,1,.628,0v.629a.313.313,0,0,1-.1.233l-.465.422A.317.317,0,0,1,283.643,468.253Z" transform="translate(-277.408 -435.855)" fill="#9a8479"/>
      <path id="Trazado_3169" data-name="Trazado 3169" d="M279.662,472.661a.314.314,0,0,1-.211-.547l.689-.622a.314.314,0,0,1,.422.466l-.689.623A.317.317,0,0,1,279.662,472.661Z" transform="translate(-274.805 -439.018)" fill="#9a8479"/>
      <path id="Trazado_3170" data-name="Trazado 3170" d="M275.4,476.059a.311.311,0,0,1-.2-.068l-.491-.393a.314.314,0,0,1,.392-.491l.283.225.268-.242a.314.314,0,0,1,.422.466l-.467.422A.312.312,0,0,1,275.4,476.059Z" transform="translate(-271.694 -441.371)" fill="#9a8479"/>
      <path id="Trazado_3171" data-name="Trazado 3171" d="M271.07,472.653a.312.312,0,0,1-.2-.069l-.8-.642a.314.314,0,0,1,.393-.491l.8.642a.315.315,0,0,1-.2.56Z" transform="translate(-268.661 -438.999)" fill="#9a8479"/>
      <path id="Trazado_3172" data-name="Trazado 3172" d="M267.021,468.224a.315.315,0,0,1-.2-.069l-.491-.392a.313.313,0,0,1-.118-.246v-.629a.314.314,0,1,1,.628,0v.478l.373.3a.314.314,0,0,1-.2.56Z" transform="translate(-266.217 -435.855)" fill="#9a8479"/>
      <path id="Trazado_3173" data-name="Trazado 3173" d="M266.53,411.489a.314.314,0,0,1-.313-.315v-1.309a.314.314,0,0,1,.628,0v1.309A.314.314,0,0,1,266.53,411.489Zm0-2.617a.314.314,0,0,1-.313-.314v-1.309a.314.314,0,1,1,.628,0v1.309A.314.314,0,0,1,266.53,408.872Zm0-2.616a.314.314,0,0,1-.313-.314v-1.309a.314.314,0,1,1,.628,0v1.309A.314.314,0,0,1,266.53,406.255Zm0-2.617a.314.314,0,0,1-.313-.314v-1.309a.314.314,0,1,1,.628,0v1.309A.314.314,0,0,1,266.53,403.639Zm0-2.617a.314.314,0,0,1-.313-.314V399.4a.314.314,0,1,1,.628,0v1.309A.314.314,0,0,1,266.53,401.022Zm0-2.616a.314.314,0,0,1-.313-.315v-1.308a.314.314,0,1,1,.628,0v1.308A.314.314,0,0,1,266.53,398.406Zm0-2.616a.314.314,0,0,1-.313-.315v-1.309a.314.314,0,1,1,.628,0v1.309A.314.314,0,0,1,266.53,395.789Zm0-2.617a.314.314,0,0,1-.313-.315V391.55a.314.314,0,1,1,.628,0v1.308A.314.314,0,0,1,266.53,393.173Zm0-2.617a.314.314,0,0,1-.313-.315v-1.308a.314.314,0,1,1,.628,0v1.308A.314.314,0,0,1,266.53,390.556Zm0-2.617a.314.314,0,0,1-.313-.315v-1.308a.314.314,0,1,1,.628,0v1.308A.314.314,0,0,1,266.53,387.939Zm0-2.617a.314.314,0,0,1-.313-.314V383.7a.314.314,0,1,1,.628,0v1.309A.314.314,0,0,1,266.53,385.322Z" transform="translate(-266.217 -381.449)" fill="#9a8479"/>
      <path id="Trazado_3174" data-name="Trazado 3174" d="M266.53,379.044a.314.314,0,0,1-.313-.314V378.1a.314.314,0,0,1,.313-.315h.629a.314.314,0,1,1,0,.629h-.314v.314A.314.314,0,0,1,266.53,379.044Z" transform="translate(-266.217 -377.787)" fill="#9a8479"/>
      <path id="Trazado_3175" data-name="Trazado 3175" d="M274.39,378.416h-1.026a.314.314,0,1,1,0-.629h1.026a.314.314,0,0,1,0,.629Zm-2.052,0h-1.026a.314.314,0,0,1,0-.629h1.026a.314.314,0,0,1,0,.629Z" transform="translate(-269.344 -377.787)" fill="#9a8479"/>
      <path id="Trazado_3176" data-name="Trazado 3176" d="M283.8,379.044a.313.313,0,0,1-.313-.314v-.314h-.314a.314.314,0,1,1,0-.629h.628a.314.314,0,0,1,.315.315v.629A.314.314,0,0,1,283.8,379.044Z" transform="translate(-277.101 -377.787)" fill="#9a8479"/>
      <path id="Trazado_3177" data-name="Trazado 3177" d="M284.989,411.489a.314.314,0,0,1-.314-.315v-1.308a.314.314,0,0,1,.628,0v1.308A.314.314,0,0,1,284.989,411.489Zm0-2.617a.313.313,0,0,1-.314-.314v-1.309a.314.314,0,1,1,.628,0v1.309A.314.314,0,0,1,284.989,408.872Zm0-2.616a.314.314,0,0,1-.314-.314v-1.309a.314.314,0,0,1,.628,0v1.309A.314.314,0,0,1,284.989,406.255Zm0-2.617a.314.314,0,0,1-.314-.314v-1.309a.314.314,0,0,1,.628,0v1.309A.314.314,0,0,1,284.989,403.639Zm0-2.616a.314.314,0,0,1-.314-.314V399.4a.314.314,0,1,1,.628,0v1.309A.314.314,0,0,1,284.989,401.022Zm0-2.617a.314.314,0,0,1-.314-.315v-1.308a.314.314,0,0,1,.628,0v1.308A.314.314,0,0,1,284.989,398.406Zm0-2.616a.314.314,0,0,1-.314-.315v-1.308a.314.314,0,1,1,.628,0v1.308A.314.314,0,0,1,284.989,395.789Zm0-2.617a.314.314,0,0,1-.314-.315V391.55a.314.314,0,1,1,.628,0v1.308A.314.314,0,0,1,284.989,393.173Zm0-2.617a.313.313,0,0,1-.314-.314v-1.308a.314.314,0,1,1,.628,0v1.308A.314.314,0,0,1,284.989,390.556Zm0-2.617a.313.313,0,0,1-.314-.315v-1.308a.314.314,0,0,1,.628,0v1.308A.314.314,0,0,1,284.989,387.939Zm0-2.616a.314.314,0,0,1-.314-.314V383.7a.314.314,0,1,1,.628,0v1.309A.314.314,0,0,1,284.989,385.323Z" transform="translate(-278.289 -381.449)" fill="#9a8479"/>
    </g>
    <path id="Trazado_3178" data-name="Trazado 3178" d="M252.924,382.123c.017-.838,0-2.5,0-3.427-9.233,4.014-5.574,25.136,1.082,42.8l2.927-.7C255.729,417.381,245.6,389.148,252.924,382.123Z" transform="translate(-77.365 -117.092)" fill="#56493c"/>
    <path id="Trazado_3179" data-name="Trazado 3179" d="M258.951,376.983v.47c1.967,1.745-.073,5.138-2.88,8.841A73.507,73.507,0,0,1,242.9,399.488a14.312,14.312,0,0,0,1.656,3.124c.1.083.193.206.412,0,.739-.7,16.106-21.4,16.428-22.566A9.783,9.783,0,0,0,258.951,376.983Z" transform="translate(-74.369 -116.268)" fill="#9a8479"/>
    <path id="Trazado_3180" data-name="Trazado 3180" d="M260.946,379.909c.956.906,2.742,3.642,1.739,6.15s-10.767,15.669-16.768,18.466a20.608,20.608,0,0,1-1.564-2.889c6.993-5.772,12.238-11.34,15.207-16.208C261.989,381.441,261.153,380.538,260.946,379.909Z" transform="translate(-75.284 -118.167)" fill="#615348"/>
    <path id="Trazado_3181" data-name="Trazado 3181" d="M274.175,383.868a2.5,2.5,0,1,1-2.5-2.5A2.5,2.5,0,0,1,274.175,383.868Z" transform="translate(-91.229 -119.346)" fill="#716558" opacity="0.2" style="mix-blend-mode: multiply;isolation: isolate"/>
    <path id="Trazado_3182" data-name="Trazado 3182" d="M274.7,384.994a1.909,1.909,0,1,1-1.909-1.908A1.908,1.908,0,0,1,274.7,384.994Z" transform="translate(-92.342 -120.471)" fill="url(#radial-gradient-2)"/>
    <path id="Trazado_3183" data-name="Trazado 3183" d="M423.6,340.548c3.735,0,6.763,2.5,6.763,5.576s-3.028,5.575-6.763,5.575-6.764-2.5-6.764-5.575S419.869,340.548,423.6,340.548Zm0,9.771c2.811,0,5.089-1.878,5.089-4.2s-2.278-4.2-5.089-4.2-5.09,1.878-5.09,4.2S420.793,350.319,423.6,350.319Z" transform="translate(-184.304 -92.973)" fill="url(#radial-gradient-3)"/>
    <path id="Trazado_3184" data-name="Trazado 3184" d="M420.584,420.294l5.04,4.916,5.7-4.836.12-28.036-11.009.016Z" transform="translate(-186.683 -126.032)" fill="#716558" opacity="0.5" style="mix-blend-mode: multiply;isolation: isolate"/>
    <path id="Trazado_3185" data-name="Trazado 3185" d="M423.443,399.772l4.2,3.942,4.753-3.942V362.114h-8.958Z" transform="translate(-188.677 -106.468)" fill="#716558"/>
    <g id="Grupo_3329" data-name="Grupo 3329" transform="translate(235.715 261.138)">
      <path id="Trazado_3186" data-name="Trazado 3186" d="M427.031,468.253a.315.315,0,0,1-.211-.081l-.465-.422a.313.313,0,0,1-.1-.233v-.629a.314.314,0,1,1,.629,0v.489l.363.328a.314.314,0,0,1-.211.547Z" transform="translate(-426.25 -435.855)" fill="#9a8479"/>
      <path id="Trazado_3187" data-name="Trazado 3187" d="M430.592,472.661a.317.317,0,0,1-.211-.081l-.689-.623a.314.314,0,0,1,.422-.466l.689.622a.315.315,0,0,1-.211.547Z" transform="translate(-428.434 -439.018)" fill="#9a8479"/>
      <path id="Trazado_3188" data-name="Trazado 3188" d="M434.349,476.059a.312.312,0,0,1-.211-.081l-.467-.422a.314.314,0,1,1,.422-.466l.267.242.283-.225a.314.314,0,1,1,.392.491l-.49.393A.313.313,0,0,1,434.349,476.059Z" transform="translate(-431.036 -441.371)" fill="#9a8479"/>
      <path id="Trazado_3189" data-name="Trazado 3189" d="M438.968,472.653a.315.315,0,0,1-.2-.56l.8-.642a.314.314,0,0,1,.393.491l-.8.642A.312.312,0,0,1,438.968,472.653Z" transform="translate(-434.363 -438.999)" fill="#9a8479"/>
      <path id="Trazado_3190" data-name="Trazado 3190" d="M443.607,468.224a.314.314,0,0,1-.2-.56l.373-.3v-.478a.314.314,0,1,1,.628,0v.629a.315.315,0,0,1-.117.246l-.492.392A.312.312,0,0,1,443.607,468.224Z" transform="translate(-437.396 -435.855)" fill="#9a8479"/>
      <path id="Trazado_3191" data-name="Trazado 3191" d="M445.025,411.489a.314.314,0,0,1-.314-.315v-1.309a.314.314,0,0,1,.628,0v1.309A.314.314,0,0,1,445.025,411.489Zm0-2.617a.314.314,0,0,1-.314-.314v-1.309a.314.314,0,1,1,.628,0v1.309A.314.314,0,0,1,445.025,408.872Zm0-2.616a.314.314,0,0,1-.314-.314v-1.309a.314.314,0,0,1,.628,0v1.309A.314.314,0,0,1,445.025,406.255Zm0-2.617a.314.314,0,0,1-.314-.314v-1.309a.314.314,0,1,1,.628,0v1.309A.314.314,0,0,1,445.025,403.639Zm0-2.617a.314.314,0,0,1-.314-.314V399.4a.314.314,0,1,1,.628,0v1.309A.314.314,0,0,1,445.025,401.022Zm0-2.616a.314.314,0,0,1-.314-.315v-1.308a.314.314,0,0,1,.628,0v1.308A.314.314,0,0,1,445.025,398.406Zm0-2.616a.314.314,0,0,1-.314-.315v-1.309a.314.314,0,1,1,.628,0v1.309A.314.314,0,0,1,445.025,395.789Zm0-2.617a.314.314,0,0,1-.314-.315V391.55a.314.314,0,1,1,.628,0v1.308A.314.314,0,0,1,445.025,393.173Zm0-2.617a.314.314,0,0,1-.314-.315v-1.308a.314.314,0,0,1,.628,0v1.308A.314.314,0,0,1,445.025,390.556Zm0-2.617a.314.314,0,0,1-.314-.315v-1.308a.314.314,0,0,1,.628,0v1.308A.314.314,0,0,1,445.025,387.939Zm0-2.617a.314.314,0,0,1-.314-.314V383.7a.314.314,0,1,1,.628,0v1.309A.314.314,0,0,1,445.025,385.322Z" transform="translate(-438.324 -381.449)" fill="#9a8479"/>
      <path id="Trazado_3192" data-name="Trazado 3192" d="M443.837,379.044a.314.314,0,0,1-.314-.314v-.314h-.314a.314.314,0,1,1,0-.629h.628a.314.314,0,0,1,.314.315v.629A.314.314,0,0,1,443.837,379.044Z" transform="translate(-437.135 -377.787)" fill="#9a8479"/>
      <path id="Trazado_3193" data-name="Trazado 3193" d="M434.425,378.416H433.4a.314.314,0,0,1,0-.629h1.025a.314.314,0,0,1,0,.629Zm-2.052,0h-1.026a.314.314,0,0,1,0-.629h1.026a.314.314,0,1,1,0,.629Z" transform="translate(-429.378 -377.787)" fill="#9a8479"/>
      <path id="Trazado_3194" data-name="Trazado 3194" d="M426.565,379.044a.314.314,0,0,1-.315-.314V378.1a.315.315,0,0,1,.315-.315h.629a.314.314,0,0,1,0,.629h-.315v.314A.314.314,0,0,1,426.565,379.044Z" transform="translate(-426.25 -377.787)" fill="#9a8479"/>
      <path id="Trazado_3195" data-name="Trazado 3195" d="M426.565,411.489a.315.315,0,0,1-.315-.315v-1.308a.314.314,0,0,1,.629,0v1.308A.314.314,0,0,1,426.565,411.489Zm0-2.617a.314.314,0,0,1-.315-.314v-1.309a.314.314,0,0,1,.629,0v1.309A.314.314,0,0,1,426.565,408.872Zm0-2.616a.315.315,0,0,1-.315-.314v-1.309a.314.314,0,0,1,.629,0v1.309A.314.314,0,0,1,426.565,406.255Zm0-2.617a.315.315,0,0,1-.315-.314v-1.309a.314.314,0,0,1,.629,0v1.309A.314.314,0,0,1,426.565,403.639Zm0-2.616a.315.315,0,0,1-.315-.314V399.4a.314.314,0,0,1,.629,0v1.309A.314.314,0,0,1,426.565,401.022Zm0-2.617a.315.315,0,0,1-.315-.315v-1.308a.314.314,0,0,1,.629,0v1.308A.314.314,0,0,1,426.565,398.406Zm0-2.616a.315.315,0,0,1-.315-.315v-1.308a.314.314,0,1,1,.629,0v1.308A.314.314,0,0,1,426.565,395.789Zm0-2.617a.315.315,0,0,1-.315-.315V391.55a.314.314,0,1,1,.629,0v1.308A.314.314,0,0,1,426.565,393.173Zm0-2.617a.314.314,0,0,1-.315-.314v-1.308a.314.314,0,0,1,.629,0v1.308A.314.314,0,0,1,426.565,390.556Zm0-2.617a.315.315,0,0,1-.315-.315v-1.308a.314.314,0,0,1,.629,0v1.308A.314.314,0,0,1,426.565,387.939Zm0-2.616a.315.315,0,0,1-.315-.314V383.7a.314.314,0,0,1,.629,0v1.309A.314.314,0,0,1,426.565,385.323Z" transform="translate(-426.25 -381.449)" fill="#9a8479"/>
    </g>
    <path id="Trazado_3196" data-name="Trazado 3196" d="M296.709,196.283c-33.971,1.174-32.6,53.157-32.6,53.157l8.71.338c1.043-45.93,20.269-48.782,24.766-48.754,5.354.216,20.6,2.824,21.646,48.754l8.71-.338S331.266,196.724,296.709,196.283Z" transform="translate(-86.211 0)" fill="#716558"/>
    <path id="Trazado_3197" data-name="Trazado 3197" d="M429.1,383.868a2.5,2.5,0,1,0,2.5-2.5A2.5,2.5,0,0,0,429.1,383.868Z" transform="translate(-192.423 -119.346)" fill="#716558" opacity="0.2" style="mix-blend-mode: multiply;isolation: isolate"/>
    <path id="Trazado_3198" data-name="Trazado 3198" d="M430.824,384.994a1.909,1.909,0,1,0,1.908-1.908A1.908,1.908,0,0,0,430.824,384.994Z" transform="translate(-193.563 -120.471)" fill="url(#radial-gradient-4)"/>
    <g id="Grupo_3330" data-name="Grupo 3330" transform="translate(177.32 234.055)">
      <path id="Trazado_3199" data-name="Trazado 3199" d="M284.173,334.389h-.015l-.628-.03a.314.314,0,0,1-.3-.329.323.323,0,0,1,.329-.3l.328.016.029-.326a.314.314,0,1,1,.626.057l-.057.626A.314.314,0,0,1,284.173,334.389Z" transform="translate(-277.732 -322.539)" fill="#9a8479"/>
      <path id="Trazado_3200" data-name="Trazado 3200" d="M275.205,335.092h-.016l-.974-.046a.314.314,0,1,1,.03-.628l.974.046a.314.314,0,0,1-.015.628ZM273.257,335h-.015l-.974-.046a.314.314,0,1,1,.03-.628l.974.046a.314.314,0,0,1-.015.628Z" transform="translate(-270.366 -323.317)" fill="#9a8479"/>
      <path id="Trazado_3201" data-name="Trazado 3201" d="M268.281,333.582h-.015l-.629-.03a.313.313,0,0,1-.3-.347l.065-.625a.315.315,0,0,1,.626.066l-.031.294.3.014a.314.314,0,0,1-.014.628Z" transform="translate(-267.338 -321.992)" fill="#9a8479"/>
      <path id="Trazado_3202" data-name="Trazado 3202" d="M268.26,315.857l-.033,0a.314.314,0,0,1-.28-.345l.145-1.383a.31.31,0,0,1,.345-.28.315.315,0,0,1,.281.346l-.145,1.383A.314.314,0,0,1,268.26,315.857Zm.289-2.767h-.032a.316.316,0,0,1-.281-.345l.146-1.383a.314.314,0,1,1,.624.065l-.145,1.384A.315.315,0,0,1,268.55,313.091Zm.29-2.766-.033,0a.314.314,0,0,1-.28-.345l.145-1.383a.314.314,0,1,1,.624.065l-.145,1.383A.315.315,0,0,1,268.84,310.325Z" transform="translate(-267.736 -306.305)" fill="#9a8479"/>
      <path id="Trazado_3203" data-name="Trazado 3203" d="M270.775,303.762l-.033,0a.313.313,0,0,1-.28-.345l.065-.625a.319.319,0,0,1,.328-.281l.628.031a.314.314,0,0,1,.3.329.319.319,0,0,1-.329.3l-.33-.016-.036.33A.313.313,0,0,1,270.775,303.762Z" transform="translate(-269.381 -302.509)" fill="#9a8479"/>
      <path id="Trazado_3204" data-name="Trazado 3204" d="M278.893,303.522h-.016l-1.572-.076a.314.314,0,0,1,.031-.628l1.571.076a.315.315,0,0,1-.015.629Z" transform="translate(-273.662 -302.711)" fill="#9a8479"/>
      <path id="Trazado_3205" data-name="Trazado 3205" d="M286.976,304.544h-.028a.314.314,0,0,1-.285-.341l.027-.3-.3-.015a.314.314,0,1,1,.03-.628l.628.03a.315.315,0,0,1,.222.108.311.311,0,0,1,.076.235l-.057.626A.314.314,0,0,1,286.976,304.544Z" transform="translate(-279.601 -302.999)" fill="#9a8479"/>
      <path id="Trazado_3206" data-name="Trazado 3206" d="M285.886,316.7h-.028a.314.314,0,0,1-.284-.341l.124-1.383a.318.318,0,0,1,.341-.285.314.314,0,0,1,.285.341l-.125,1.383A.314.314,0,0,1,285.886,316.7Zm.25-2.766h-.028a.314.314,0,0,1-.284-.341l.125-1.383a.315.315,0,0,1,.627.057l-.126,1.383A.313.313,0,0,1,286.136,313.931Zm.251-2.765h-.029a.315.315,0,0,1-.285-.341l.125-1.383a.318.318,0,0,1,.341-.285.314.314,0,0,1,.285.341l-.125,1.383A.315.315,0,0,1,286.387,311.165Z" transform="translate(-279.263 -306.855)" fill="#9a8479"/>
    </g>
    <g id="Grupo_3331" data-name="Grupo 3331" transform="translate(234.969 234.289)">
      <path id="Trazado_3207" data-name="Trazado 3207" d="M426.8,335.046a.314.314,0,0,1-.313-.291l-.048-.627a.315.315,0,0,1,.627-.048l.024.322.322-.016a.314.314,0,1,1,.031.628l-.629.03Z" transform="translate(-425.653 -323.195)" fill="#9a8479"/>
      <path id="Trazado_3208" data-name="Trazado 3208" d="M433.247,335.778a.314.314,0,0,1-.015-.629l1.571-.076a.314.314,0,1,1,.031.628l-1.572.076Z" transform="translate(-429.901 -324.034)" fill="#9a8479"/>
      <path id="Trazado_3209" data-name="Trazado 3209" d="M442.329,334.238a.314.314,0,0,1-.014-.628l.3-.015-.023-.3a.315.315,0,0,1,.627-.048l.047.627a.313.313,0,0,1-.077.232.316.316,0,0,1-.22.106l-.628.03Z" transform="translate(-435.841 -322.647)" fill="#9a8479"/>
      <path id="Trazado_3210" data-name="Trazado 3210" d="M442.708,316.516a.315.315,0,0,1-.313-.29l-.1-1.383a.314.314,0,1,1,.626-.047l.105,1.383a.314.314,0,0,1-.29.337Zm-.211-2.765a.316.316,0,0,1-.313-.29l-.1-1.383a.314.314,0,1,1,.627-.048l.1,1.383a.314.314,0,0,1-.289.338Zm-.209-2.765a.314.314,0,0,1-.313-.291l-.106-1.383a.314.314,0,1,1,.627-.048l.105,1.383a.313.313,0,0,1-.289.337Z" transform="translate(-435.745 -306.964)" fill="#9a8479"/>
      <path id="Trazado_3211" data-name="Trazado 3211" d="M440.6,304.422a.314.314,0,0,1-.313-.29l-.025-.322-.322.016a.314.314,0,0,1-.031-.628l.628-.03a.32.32,0,0,1,.329.29l.048.627a.316.316,0,0,1-.291.337Z" transform="translate(-434.27 -303.166)" fill="#9a8479"/>
      <path id="Trazado_3212" data-name="Trazado 3212" d="M430.841,304.18a.314.314,0,0,1-.015-.629l1.571-.076a.314.314,0,1,1,.03.628l-1.571.076Z" transform="translate(-428.327 -303.368)" fill="#9a8479"/>
      <path id="Trazado_3213" data-name="Trazado 3213" d="M424.532,305.2a.315.315,0,0,1-.313-.291l-.047-.627a.314.314,0,0,1,.3-.338l.629-.031a.314.314,0,1,1,.03.628l-.305.015.023.3a.314.314,0,0,1-.289.337Z" transform="translate(-424.171 -303.657)" fill="#9a8479"/>
      <path id="Trazado_3214" data-name="Trazado 3214" d="M425.453,317.356a.315.315,0,0,1-.313-.29l-.1-1.383a.314.314,0,1,1,.627-.048l.105,1.383a.314.314,0,0,1-.29.337Zm-.211-2.766a.314.314,0,0,1-.313-.29l-.105-1.383a.314.314,0,0,1,.627-.048l.1,1.383a.314.314,0,0,1-.289.337Zm-.21-2.766a.314.314,0,0,1-.313-.29l-.106-1.382a.315.315,0,0,1,.627-.048l.1,1.383a.314.314,0,0,1-.289.337Z" transform="translate(-424.46 -307.514)" fill="#9a8479"/>
    </g>
    <path id="Trazado_3215" data-name="Trazado 3215" d="M252.757,437.374a1.661,1.661,0,1,1-2.036-1.454A1.777,1.777,0,0,1,252.757,437.374Z" transform="translate(-78.812 -154.519)" fill="#716558" opacity="0.2" style="mix-blend-mode: multiply;isolation: isolate"/>
    <path id="Trazado_3216" data-name="Trazado 3216" d="M253.006,438.065a1.391,1.391,0,1,1-1.7-1.187A1.471,1.471,0,0,1,253.006,438.065Z" transform="translate(-79.311 -155.15)" fill="url(#radial-gradient-5)"/>
    <path id="Trazado_3217" data-name="Trazado 3217" d="M268.131,504.564a4.271,4.271,0,0,1-3.125,5.164l-6.285,1.731a4.271,4.271,0,0,1-5.329-2.835l-3.366-12.22a4.268,4.268,0,0,1,3.125-5.163l6.285-1.732a4.271,4.271,0,0,1,5.329,2.835Z" transform="translate(-78.779 -188.64)" fill="#56493c"/>
    <path id="Trazado_3218" data-name="Trazado 3218" d="M269.089,506.369a3.773,3.773,0,0,1-2.635,4.639l-5.409,1.489a3.772,3.772,0,0,1-4.638-2.635l-3.06-11.112a3.771,3.771,0,0,1,2.635-4.638l5.409-1.49a3.772,3.772,0,0,1,4.638,2.635Z" transform="translate(-80.925 -190.71)" fill="#615348"/>
  </g>
</svg>
