<svg xmlns="http://www.w3.org/2000/svg" width="178" height="168.975" viewBox="0 0 178 168.975">
  <g id="Grupo_3339" data-name="Grupo 3339" transform="translate(-767.764 -742.731)">
    <path id="Trazado_3219" data-name="Trazado 3219" d="M872.007,941.969c-1.743-.2-3.491-.336-5.244-.4A1.967,1.967,0,0,0,864.9,943.6a1.992,1.992,0,0,0,2.032,1.866c1.422.051,2.837.153,4.25.315a2.007,2.007,0,0,0,2.319-1.492A1.965,1.965,0,0,0,872.007,941.969Z" transform="translate(-16.654 -34.092)" fill="#c7c2bf"/>
    <path id="Trazado_3220" data-name="Trazado 3220" d="M926.228,800.854H785.18a3.8,3.8,0,0,0-3.754,3.222l-13.371,87.1a24.646,24.646,0,0,0,24.361,28.386h128.7A24.646,24.646,0,0,0,945.376,890.6l-15.408-86.611A3.8,3.8,0,0,0,926.228,800.854Z" transform="translate(0 -9.966)" fill="#4d1522"/>
    <path id="Trazado_3221" data-name="Trazado 3221" d="M917.21,800.854H802.883a3.17,3.17,0,0,0-3.044,2.834L789,880.3c-1.858,13.13,7.5,24.967,19.746,24.967H913.063c12.433,0,21.846-12.192,19.668-25.475l-12.49-76.179A3.161,3.161,0,0,0,917.21,800.854Z" transform="translate(-3.601 -9.966)" fill="#61192a"/>
    <g id="Grupo_3333" data-name="Grupo 3333" transform="translate(787.557 786.403)">
      <path id="Trazado_3222" data-name="Trazado 3222" d="M910.97,901.509h-2.149a.829.829,0,1,1,0-1.657l2.469,0a.8.8,0,0,1,.846.811.828.828,0,0,1-.81.846Zm-4.636,0h-2.487a.829.829,0,1,1,0-1.657h2.487a.829.829,0,1,1,0,1.657Zm-4.975,0h-2.487a.829.829,0,1,1,0-1.657h2.487a.829.829,0,0,1,0,1.657Zm-4.974,0H893.9a.829.829,0,0,1,0-1.657h2.487a.829.829,0,0,1,0,1.657Zm-4.975,0h-2.487a.829.829,0,0,1,0-1.657h2.487a.829.829,0,0,1,0,1.657Zm-4.975,0h-2.487a.829.829,0,1,1,0-1.657h2.487a.829.829,0,1,1,0,1.657Zm-4.975,0h-2.487a.829.829,0,1,1,0-1.657h2.487a.829.829,0,1,1,0,1.657Zm-4.974,0H874a.829.829,0,0,1,0-1.657h2.487a.829.829,0,0,1,0,1.657Zm-4.975,0h-2.487a.829.829,0,0,1,0-1.657h2.487a.829.829,0,0,1,0,1.657Zm-4.974,0h-2.487a.829.829,0,1,1,0-1.657h2.487a.829.829,0,1,1,0,1.657Zm-4.975,0h-2.487a.829.829,0,1,1,0-1.657h2.487a.829.829,0,1,1,0,1.657Zm-4.974,0H854.1a.829.829,0,0,1,0-1.657h2.487a.829.829,0,0,1,0,1.657Zm-4.975,0h-2.487a.829.829,0,1,1,0-1.657h2.487a.829.829,0,0,1,0,1.657Zm-4.975,0h-2.486a.829.829,0,1,1,0-1.657h2.486a.829.829,0,1,1,0,1.657Zm-4.974,0H839.18a.829.829,0,1,1,0-1.657h2.487a.829.829,0,0,1,0,1.657Zm-4.975,0h-2.487a.829.829,0,0,1,0-1.657h2.487a.829.829,0,1,1,0,1.657Zm-4.975,0h-2.487a.829.829,0,1,1,0-1.657h2.487a.829.829,0,0,1,0,1.657Zm-4.975,0h-2.487a.829.829,0,1,1,0-1.657h2.487a.829.829,0,1,1,0,1.657Zm-4.975,0h-2.487a.829.829,0,0,1,0-1.657h2.487a.829.829,0,1,1,0,1.657Zm-4.975,0h-2.487a.829.829,0,0,1,0-1.657h2.487a.829.829,0,0,1,0,1.657Zm-4.974,0h-.291a17.791,17.791,0,0,1-2.3-.148.828.828,0,0,1,.214-1.642,16.433,16.433,0,0,0,2.082.133h.291a.829.829,0,1,1,0,1.657Zm101.96-.233a.829.829,0,0,1-.136-1.646,16.021,16.021,0,0,0,2.3-.56.828.828,0,1,1,.511,1.576,17.818,17.818,0,0,1-2.533.619A.783.783,0,0,1,913.78,901.276Zm-106.872-.405a.8.8,0,0,1-.226-.032,18.034,18.034,0,0,1-2.448-.888.829.829,0,0,1,.676-1.513,16.476,16.476,0,0,0,2.223.808.829.829,0,0,1-.225,1.626ZM918.5,899.756a.829.829,0,0,1-.365-1.573A17.551,17.551,0,0,0,920.185,897a.828.828,0,1,1,.925,1.374,18.926,18.926,0,0,1-2.248,1.3A.819.819,0,0,1,918.5,899.756Zm-116.118-.9a.827.827,0,0,1-.439-.126,19.977,19.977,0,0,1-2.1-1.519.828.828,0,1,1,1.055-1.277,18.127,18.127,0,0,0,1.927,1.39.829.829,0,0,1-.44,1.531Zm120.231-1.861a.829.829,0,0,1-.548-1.45,19.4,19.4,0,0,0,1.685-1.684.829.829,0,1,1,1.241,1.1,21.07,21.07,0,0,1-1.831,1.829A.822.822,0,0,1,922.611,896.993Zm-124.06-1.3a.824.824,0,0,1-.6-.26,21.666,21.666,0,0,1-1.655-1.984.828.828,0,1,1,1.331-.985,20.611,20.611,0,0,0,1.53,1.833.828.828,0,0,1-.6,1.4ZM925.9,893.282a.828.828,0,0,1-.679-1.3,21.39,21.39,0,0,0,1.255-2.039.828.828,0,0,1,1.457.79,23.308,23.308,0,0,1-1.35,2.2A.83.83,0,0,1,925.9,893.282Zm-130.3-1.573a.827.827,0,0,1-.718-.414,23.259,23.259,0,0,1-1.162-2.3.828.828,0,1,1,1.517-.664,21.9,21.9,0,0,0,1.08,2.136.829.829,0,0,1-.717,1.243Zm132.668-2.794a.829.829,0,0,1-.767-1.141,22.954,22.954,0,0,0,.785-2.266.828.828,0,0,1,1.592.458,24.259,24.259,0,0,1-.842,2.433A.828.828,0,0,1,928.266,888.915ZM793.6,887.166a.829.829,0,0,1-.789-.578,24.378,24.378,0,0,1-.647-2.49.828.828,0,1,1,1.622-.332,22.9,22.9,0,0,0,.6,2.321.829.829,0,0,1-.539,1.041A.819.819,0,0,1,793.6,887.166Zm136.044-3.02a.815.815,0,0,1-.147-.013.828.828,0,0,1-.669-.961,23.007,23.007,0,0,0,.3-2.38.828.828,0,1,1,1.652.12,24.919,24.919,0,0,1-.319,2.552A.829.829,0,0,1,929.643,884.146ZM792.6,882.3a.828.828,0,0,1-.824-.746c-.082-.83-.124-1.675-.124-2.51a.852.852,0,0,1,.828-.856.8.8,0,0,1,.828.8v.074c0,.764.039,1.553.116,2.328a.827.827,0,0,1-.742.906C792.656,882.3,792.628,882.3,792.6,882.3Zm137.408-3.109a.828.828,0,0,1-.828-.805c-.022-.795-.085-1.6-.187-2.4a.829.829,0,0,1,1.644-.21c.109.85.176,1.712.2,2.561a.829.829,0,0,1-.806.851Zm-137.4-1.858c-.028,0-.056,0-.085,0a.829.829,0,0,1-.74-.908q.042-.41.1-.821l.225-1.672a.828.828,0,1,1,1.642.221l-.225,1.672c-.035.257-.065.512-.091.768A.829.829,0,0,1,792.612,877.336Zm136.829-3.08a.829.829,0,0,1-.818-.7l-.384-2.458a.828.828,0,1,1,1.637-.256l.384,2.458a.825.825,0,0,1-.819.956Zm-136.176-1.851a.86.86,0,0,1-.113-.007.828.828,0,0,1-.71-.932l.332-2.465a.829.829,0,1,1,1.643.221l-.333,2.466A.828.828,0,0,1,793.265,872.405Zm135.407-3.063a.829.829,0,0,1-.818-.7l-.384-2.458a.829.829,0,0,1,1.638-.255l.384,2.457a.83.83,0,0,1-.691.947A.855.855,0,0,1,928.672,869.342ZM793.93,867.475a.861.861,0,0,1-.112-.007.828.828,0,0,1-.711-.932l.333-2.466a.829.829,0,0,1,1.642.222l-.332,2.466A.829.829,0,0,1,793.93,867.475Zm133.975-3.048a.829.829,0,0,1-.819-.7l-.384-2.457a.829.829,0,0,1,1.638-.256l.384,2.458a.829.829,0,0,1-.691.946A.843.843,0,0,1,927.905,864.427ZM794.6,862.545a.861.861,0,0,1-.113-.007.828.828,0,0,1-.71-.932l.332-2.465a.829.829,0,0,1,1.642.222l-.332,2.464A.829.829,0,0,1,794.6,862.545Zm132.542-3.032a.83.83,0,0,1-.819-.7l-.384-2.458a.829.829,0,1,1,1.637-.256l.385,2.458a.829.829,0,0,1-.82.957Zm-131.877-1.9a1.012,1.012,0,0,1-.112-.007.829.829,0,0,1-.711-.932l.333-2.465a.829.829,0,1,1,1.642.222l-.332,2.464A.829.829,0,0,1,795.26,857.615ZM926.368,854.6a.829.829,0,0,1-.818-.7l-.384-2.458a.829.829,0,0,1,1.637-.255l.384,2.458a.829.829,0,0,1-.691.946A.851.851,0,0,1,926.368,854.6Zm-130.444-1.911a.861.861,0,0,1-.112-.007.829.829,0,0,1-.711-.932l.333-2.465a.828.828,0,1,1,1.642.221l-.332,2.466A.829.829,0,0,1,795.924,852.686Zm129.676-3a.829.829,0,0,1-.818-.7l-.384-2.457a.829.829,0,1,1,1.638-.256l.384,2.458a.83.83,0,0,1-.691.947A.948.948,0,0,1,925.6,849.682Zm-129.011-1.926a.839.839,0,0,1-.112-.007.828.828,0,0,1-.711-.932l.332-2.465a.829.829,0,1,1,1.643.221l-.332,2.466A.83.83,0,0,1,796.589,847.756Zm128.243-2.988a.83.83,0,0,1-.819-.7l-.385-2.458a.829.829,0,0,1,1.638-.256l.385,2.458a.83.83,0,0,1-.691.947A.875.875,0,0,1,924.833,844.768Zm-127.579-1.942a.859.859,0,0,1-.112-.008.828.828,0,0,1-.71-.932l.331-2.465a.829.829,0,0,1,1.643.222l-.332,2.465A.828.828,0,0,1,797.254,842.826Zm126.81-2.973a.83.83,0,0,1-.819-.7l-.383-2.457a.828.828,0,1,1,1.637-.255l.384,2.458a.829.829,0,0,1-.691.946A.875.875,0,0,1,924.064,839.853ZM797.918,837.9a.859.859,0,0,1-.112-.007.828.828,0,0,1-.71-.932l.332-2.465a.829.829,0,1,1,1.642.222l-.332,2.464A.829.829,0,0,1,797.918,837.9ZM923.3,834.938a.829.829,0,0,1-.818-.7l-.385-2.458a.829.829,0,1,1,1.637-.256l.384,2.457a.829.829,0,0,1-.691.947A.946.946,0,0,1,923.3,834.938Zm-124.712-1.972a1.036,1.036,0,0,1-.112-.007.83.83,0,0,1-.711-.932l.333-2.466a.829.829,0,0,1,1.642.222l-.332,2.465A.829.829,0,0,1,798.584,832.966Zm123.944-2.942a.829.829,0,0,1-.818-.7l-.385-2.457a.829.829,0,0,1,1.638-.256l.384,2.458a.831.831,0,0,1-.691.947A.861.861,0,0,1,922.528,830.024Zm-123.28-1.988a.881.881,0,0,1-.112-.007.83.83,0,0,1-.71-.932l.332-2.465a.829.829,0,0,1,1.643.221l-.333,2.466A.829.829,0,0,1,799.248,828.037Zm122.512-2.928a.829.829,0,0,1-.819-.7l-.384-2.458a.829.829,0,0,1,1.638-.255l.384,2.458a.828.828,0,0,1-.691.946A.866.866,0,0,1,921.76,825.109Zm-121.847-2a.88.88,0,0,1-.112-.007.829.829,0,0,1-.71-.932l.332-2.464a.829.829,0,0,1,1.643.221l-.333,2.465A.829.829,0,0,1,799.913,823.107Zm121.079-2.913a.83.83,0,0,1-.819-.7l-.384-2.458a.829.829,0,1,1,1.637-.256l.384,2.458a.829.829,0,0,1-.691.947A.849.849,0,0,1,920.992,820.194Zm-120.414-2.017a.86.86,0,0,1-.112-.007.828.828,0,0,1-.71-.932l.332-2.465a.829.829,0,1,1,1.642.222l-.332,2.465A.829.829,0,0,1,800.578,818.177Zm119.646-2.9a.83.83,0,0,1-.818-.7l-.384-2.458a.828.828,0,1,1,1.637-.255l.384,2.457a.829.829,0,0,1-.691.947A.842.842,0,0,1,920.224,815.28Zm-118.981-2.032a.83.83,0,0,1-.822-.939l.333-2.466a.829.829,0,0,1,1.642.222l-.332,2.465A.83.83,0,0,1,801.243,813.248Zm118.212-2.883a.829.829,0,0,1-.818-.7l-.384-2.457a.829.829,0,0,1,1.638-.256l.384,2.457a.829.829,0,0,1-.691.946A.871.871,0,0,1,919.455,810.365Zm-117.548-2.047a1.034,1.034,0,0,1-.112-.007.83.83,0,0,1-.71-.932l.332-2.466a.829.829,0,0,1,1.643.222l-.333,2.465A.829.829,0,0,1,801.907,808.317Zm116.781-2.867a.829.829,0,0,1-.819-.7l-.385-2.457a.829.829,0,0,1,1.638-.256l.384,2.458a.829.829,0,0,1-.691.947A.844.844,0,0,1,918.688,805.451Zm-116.115-2.063a.859.859,0,0,1-.112-.007.829.829,0,0,1-.71-.932l.332-2.464a.829.829,0,1,1,1.643.221l-.333,2.465A.829.829,0,0,1,802.572,803.387Zm115.347-2.852a.83.83,0,0,1-.819-.7l-.106-.681a2.7,2.7,0,0,0-.531-1.254.829.829,0,1,1,1.3-1.022,4.365,4.365,0,0,1,.864,2.019l.107.681a.83.83,0,0,1-.69.947A.855.855,0,0,1,917.919,800.536Zm-114.4-2a.829.829,0,0,1-.707-1.259,3.761,3.761,0,0,1,2.53-1.786.829.829,0,1,1,.286,1.633,2.1,2.1,0,0,0-1.4,1.014A.829.829,0,0,1,803.523,798.538ZM914.987,797.1h-.032l.031-.828-.062.828h-2.487a.829.829,0,1,1,0-1.657l2.582,0a.828.828,0,0,1-.031,1.656Zm-5.038,0h-2.487a.829.829,0,1,1,0-1.657h2.487a.829.829,0,1,1,0,1.657Zm-4.974,0h-2.487a.829.829,0,1,1,0-1.657h2.487a.829.829,0,0,1,0,1.657Zm-4.975,0h-2.487a.829.829,0,1,1,0-1.657H900a.829.829,0,1,1,0,1.657Zm-4.975,0h-2.487a.829.829,0,0,1,0-1.657h2.487a.829.829,0,1,1,0,1.657Zm-4.974,0h-2.487a.829.829,0,0,1,0-1.657h2.487a.829.829,0,0,1,0,1.657Zm-4.974,0H882.59a.829.829,0,0,1,0-1.657h2.487a.829.829,0,1,1,0,1.657Zm-4.975,0h-2.487a.829.829,0,1,1,0-1.657H880.1a.829.829,0,1,1,0,1.657Zm-4.975,0h-2.487a.829.829,0,1,1,0-1.657h2.487a.829.829,0,1,1,0,1.657Zm-4.975,0h-2.487a.829.829,0,0,1,0-1.657h2.487a.829.829,0,1,1,0,1.657Zm-4.975,0h-2.486a.829.829,0,1,1,0-1.657h2.486a.829.829,0,1,1,0,1.657Zm-4.974,0h-2.487a.829.829,0,1,1,0-1.657h2.487a.829.829,0,1,1,0,1.657Zm-4.975,0h-2.487a.829.829,0,1,1,0-1.657h2.487a.829.829,0,1,1,0,1.657Zm-4.975,0h-2.487a.829.829,0,1,1,0-1.657h2.487a.829.829,0,0,1,0,1.657Zm-4.975,0h-2.487a.829.829,0,0,1,0-1.657h2.487a.829.829,0,0,1,0,1.657Zm-4.975,0H837.82a.829.829,0,1,1,0-1.657h2.487a.829.829,0,1,1,0,1.657Zm-4.974,0h-2.487a.829.829,0,1,1,0-1.657h2.487a.829.829,0,1,1,0,1.657Zm-4.975,0h-2.487a.829.829,0,1,1,0-1.657h2.487a.829.829,0,0,1,0,1.657Zm-4.975,0H822.9a.829.829,0,0,1,0-1.657h2.487a.829.829,0,1,1,0,1.657Zm-4.975,0h-2.487a.829.829,0,1,1,0-1.657h2.487a.829.829,0,1,1,0,1.657Zm-4.975,0h-2.487a.829.829,0,1,1,0-1.657h2.487a.829.829,0,1,1,0,1.657Zm-4.974,0h-2.487a.829.829,0,0,1,0-1.657h2.487a.829.829,0,1,1,0,1.657Z" transform="translate(-791.653 -795.441)" fill="#40131e"/>
    </g>
    <path id="Trazado_3223" data-name="Trazado 3223" d="M903.254,864.245h0a358.3,358.3,0,0,1-87.933.167l-2.214-.269a35.378,35.378,0,0,1-16.7-6.606A34.746,34.746,0,0,1,783.336,822.2l4.125-19.234a3.361,3.361,0,0,1,3.287-2.656H924.7a3.362,3.362,0,0,1,3.267,2.567l4.448,18.289c4.777,19.641-7.892,39.624-27.841,42.887Q903.92,864.161,903.254,864.245Z" transform="translate(-2.534 -9.873)" fill="#47121f"/>
    <path id="Trazado_3224" data-name="Trazado 3224" d="M903.254,858.593h0a358.3,358.3,0,0,1-87.933.167l-2.214-.269a35.377,35.377,0,0,1-16.7-6.606,34.745,34.745,0,0,1-13.072-35.335l4.125-19.234a3.361,3.361,0,0,1,3.287-2.656H924.7a3.362,3.362,0,0,1,3.267,2.567l4.448,18.289c4.777,19.641-7.892,39.624-27.841,42.886Q903.92,858.509,903.254,858.593Z" transform="translate(-2.534 -8.903)" fill="#751b31"/>
    <g id="Grupo_3334" data-name="Grupo 3334" transform="translate(783 786.026)">
      <path id="Trazado_3225" data-name="Trazado 3225" d="M859.775,859.1a.844.844,0,0,1-.848-.828.812.812,0,0,1,.81-.829c.85,0,1.664,0,2.479-.009h.006a.829.829,0,0,1,.006,1.657Q861,859.1,859.775,859.1Zm-2.523-.009h-.006q-1.246-.009-2.492-.027a.829.829,0,0,1-.816-.84.811.811,0,0,1,.84-.817q1.24.019,2.48.027a.829.829,0,0,1-.006,1.657Zm7.458-.027a.829.829,0,0,1-.012-1.657q1.239-.018,2.479-.045a.859.859,0,0,1,.847.811.829.829,0,0,1-.811.846q-1.245.027-2.491.045Zm-12.428-.046h-.018q-1.247-.026-2.491-.063a.829.829,0,0,1,.024-1.657h.025q1.238.037,2.478.063a.829.829,0,0,1-.017,1.657Zm17.4-.06a.829.829,0,0,1-.023-1.657q1.24-.035,2.478-.08a.829.829,0,0,1,.06,1.656q-1.244.045-2.49.081Zm-22.365-.084h-.031q-1.244-.046-2.49-.1a.829.829,0,0,1,.071-1.656q1.24.054,2.478.1a.828.828,0,0,1-.029,1.656Zm27.333-.1a.828.828,0,0,1-.035-1.656q1.237-.054,2.476-.116a.829.829,0,0,1,.084,1.655q-1.245.063-2.489.116Zm-32.3-.119H842.3q-1.244-.063-2.487-.135a.828.828,0,1,1,.094-1.654q1.239.07,2.477.133a.829.829,0,0,1-.041,1.656Zm37.263-.131a.828.828,0,0,1-.046-1.656q1.239-.072,2.476-.152a.838.838,0,0,1,.88.774.83.83,0,0,1-.773.88q-1.243.081-2.487.152Zm-42.227-.157-.055,0q-1.243-.081-2.485-.171a.828.828,0,1,1,.119-1.652q1.237.09,2.474.17a.829.829,0,0,1-.054,1.656Zm47.187-.167a.828.828,0,0,1-.059-1.655q1.238-.09,2.474-.188a.829.829,0,1,1,.131,1.652q-1.242.1-2.485.188Zm-52.144-.192-.066,0q-1.243-.1-2.483-.207a.828.828,0,1,1,.144-1.65q1.234.107,2.47.2a.829.829,0,0,1-.065,1.656Zm57.1-.2a.828.828,0,0,1-.071-1.654q1.235-.108,2.47-.223a.819.819,0,0,1,.9.747.827.827,0,0,1-.746.9q-1.24.118-2.482.225Zm-62.055-.229a.613.613,0,0,1-.078,0q-1.239-.117-2.48-.242a.829.829,0,0,1,.167-1.649q1.234.125,2.467.242a.828.828,0,0,1-.077,1.653Zm67-.235a.829.829,0,0,1-.083-1.653q1.233-.126,2.466-.259a.828.828,0,0,1,.179,1.647q-1.239.136-2.478.261C894.532,857.348,894.5,857.349,894.477,857.349Zm-71.949-.267a.857.857,0,0,1-.091-.005q-1.238-.135-2.476-.278a.829.829,0,0,1,.191-1.646q1.233.144,2.465.278a.828.828,0,0,1-.089,1.652Zm76.89-.271a.828.828,0,0,1-.094-1.651q1.232-.143,2.462-.294a.818.818,0,0,1,.923.721.828.828,0,0,1-.721.923q-1.235.153-2.473.3A.969.969,0,0,1,899.418,856.811Zm-81.829-.3a.822.822,0,0,1-.1-.006l-1.361-.165q-.569-.07-1.132-.156a.829.829,0,0,1,.252-1.638q.537.083,1.078.148l1.361.165a.829.829,0,0,1-.1,1.651Zm86.757-.352a.829.829,0,0,1-.147-1.644c.793-.143,1.588-.319,2.364-.521a.829.829,0,0,1,.418,1.6c-.815.213-1.652.4-2.486.549A.835.835,0,0,1,904.346,856.158Zm-91.664-.432a.841.841,0,0,1-.186-.021c-.821-.188-1.649-.411-2.459-.659a.829.829,0,1,1,.487-1.584c.772.238,1.56.448,2.342.628a.829.829,0,0,1-.184,1.636Zm96.468-.822a.829.829,0,0,1-.269-1.612c.755-.259,1.515-.554,2.256-.875a.829.829,0,0,1,.659,1.521c-.781.337-1.58.647-2.375.921A.834.834,0,0,1,909.15,854.9Zm-101.217-.639a.82.82,0,0,1-.3-.056c-.785-.306-1.571-.646-2.336-1.011a.828.828,0,1,1,.713-1.5c.728.347,1.477.671,2.226.963a.828.828,0,0,1-.3,1.6Zm105.773-1.333a.829.829,0,0,1-.389-1.561c.711-.376,1.416-.784,2.094-1.212a.829.829,0,0,1,.885,1.4c-.715.451-1.456.88-2.2,1.275A.823.823,0,0,1,913.706,852.932Zm-110.257-.805a.822.822,0,0,1-.41-.109c-.737-.422-1.466-.872-2.163-1.341a.829.829,0,1,1,.925-1.375c.664.447,1.356.877,2.06,1.278a.829.829,0,0,1-.412,1.548ZM917.9,850.284a.829.829,0,0,1-.5-1.494c.646-.48,1.28-.991,1.887-1.517a.828.828,0,1,1,1.087,1.25c-.638.554-1.306,1.092-1.984,1.6A.828.828,0,0,1,917.9,850.284Zm-118.576-.931a.825.825,0,0,1-.512-.177c-.669-.527-1.321-1.085-1.94-1.656A.828.828,0,0,1,798,846.3c.587.543,1.207,1.071,1.842,1.572a.828.828,0,0,1-.514,1.479Zm122.323-2.325a.828.828,0,0,1-.589-1.412c.562-.567,1.113-1.168,1.638-1.785a.829.829,0,0,1,1.262,1.075c-.553.65-1.132,1.28-1.722,1.877A.828.828,0,0,1,921.649,847.028Zm-125.973-1.045a.824.824,0,0,1-.607-.265c-.577-.624-1.136-1.275-1.659-1.937a.828.828,0,0,1,1.3-1.027c.5.628,1.027,1.247,1.575,1.838a.828.828,0,0,1-.608,1.392Zm129.19-2.737a.828.828,0,0,1-.667-1.317c.472-.646.929-1.321,1.356-2.008a.828.828,0,0,1,1.407.875c-.448.721-.929,1.432-1.426,2.111A.824.824,0,0,1,924.867,843.247Zm-132.272-1.158a.827.827,0,0,1-.688-.365c-.471-.7-.921-1.428-1.341-2.169a.829.829,0,0,1,1.442-.817c.4.7.827,1.4,1.273,2.06a.829.829,0,0,1-.687,1.292Zm134.9-3.058a.83.83,0,0,1-.733-1.214c.373-.71.724-1.445,1.047-2.187a.828.828,0,1,1,1.52.66c-.337.778-.708,1.551-1.1,2.3A.828.828,0,0,1,927.492,839.03Zm-137.347-1.262a.827.827,0,0,1-.751-.476c-.359-.764-.694-1.553-1-2.344a.829.829,0,0,1,1.549-.591c.287.752.606,1.5.947,2.23a.828.828,0,0,1-.4,1.1A.819.819,0,0,1,790.146,837.768Zm139.326-3.294a.827.827,0,0,1-.783-1.1c.266-.758.506-1.537.716-2.316a.828.828,0,1,1,1.6.428c-.219.819-.472,1.639-.751,2.435A.828.828,0,0,1,929.472,834.475Zm-141.1-1.346a.829.829,0,0,1-.794-.592c-.241-.81-.455-1.639-.635-2.467a.828.828,0,0,1,1.619-.353c.172.787.375,1.577.6,2.346a.827.827,0,0,1-.558,1.03A.811.811,0,0,1,788.376,833.128Zm142.385-3.452a.85.85,0,0,1-.156-.014.83.83,0,0,1-.658-.97c.152-.79.274-1.6.366-2.4a.817.817,0,0,1,.918-.728.828.828,0,0,1,.728.917c-.1.84-.226,1.688-.384,2.519A.829.829,0,0,1,930.761,829.676Zm-143.446-1.4a.829.829,0,0,1-.819-.712c-.118-.834-.207-1.685-.264-2.531a.828.828,0,1,1,1.653-.112c.056.806.14,1.616.253,2.409a.829.829,0,0,1-.7.937A.811.811,0,0,1,787.315,828.276Zm144.014-3.536h-.034a.828.828,0,0,1-.795-.861q.026-.651.026-1.307,0-.557-.018-1.115a.828.828,0,1,1,1.655-.057q.02.588.02,1.172c0,.46-.008.917-.027,1.375A.828.828,0,0,1,931.328,824.74Zm-144.347-1.419h-.005a.829.829,0,0,1-.824-.833c.006-.846.042-1.7.109-2.544a.829.829,0,1,1,1.652.132c-.064.8-.1,1.617-.1,2.423A.828.828,0,0,1,786.982,823.322Zm144.175-3.546a.829.829,0,0,1-.823-.739c-.086-.8-.2-1.6-.35-2.4a.829.829,0,1,1,1.63-.3c.153.836.278,1.683.368,2.52a.828.828,0,0,1-.735.912A.84.84,0,0,1,931.156,819.776Zm-143.779-1.4a.829.829,0,0,1-.819-.954c.1-.676.229-1.356.374-2.025l.1-.465a.829.829,0,1,1,1.62.35l-.1.465c-.137.636-.257,1.285-.356,1.927A.829.829,0,0,1,787.378,818.371Zm142.885-3.48a.829.829,0,0,1-.8-.632l-.59-2.415a.829.829,0,0,1,1.611-.394l.59,2.415a.83.83,0,0,1-.609,1A.809.809,0,0,1,930.262,814.891Zm-141.9-1.391a.827.827,0,0,1-.81-1l.523-2.429a.829.829,0,0,1,1.621.349l-.524,2.43A.829.829,0,0,1,788.366,813.5Zm140.716-3.438a.83.83,0,0,1-.8-.632l-.59-2.414a.829.829,0,0,1,1.611-.394l.59,2.414a.829.829,0,0,1-.609,1A.811.811,0,0,1,929.082,810.062Zm-139.67-1.421a.8.8,0,0,1-.175-.019.828.828,0,0,1-.635-.984l.524-2.43a.829.829,0,0,1,1.62.35l-.524,2.43A.829.829,0,0,1,789.412,808.641Zm138.49-3.409a.827.827,0,0,1-.8-.631l-.59-2.415a.829.829,0,0,1,1.61-.394l.59,2.415a.827.827,0,0,1-.806,1.025ZM790.46,803.781a.778.778,0,0,1-.175-.019.828.828,0,0,1-.636-.984l.523-2.43a.829.829,0,1,1,1.62.35l-.523,2.43A.83.83,0,0,1,790.46,803.781ZM926.723,800.4a.828.828,0,0,1-.8-.631l-.59-2.414a.829.829,0,1,1,1.61-.394l.59,2.414a.829.829,0,0,1-.608,1A.807.807,0,0,1,926.723,800.4ZM791.506,798.92a.84.84,0,0,1-.175-.018.828.828,0,0,1-.635-.985l.182-.847a4.027,4.027,0,0,1,.906-1.8.829.829,0,1,1,1.246,1.093,2.369,2.369,0,0,0-.532,1.059l-.182.848A.829.829,0,0,1,791.506,798.92Z" transform="translate(-786.153 -794.985)" fill="#4f1322"/>
    </g>
    <path id="Trazado_3226" data-name="Trazado 3226" d="M866.358,840.866h0a9.284,9.284,0,0,0-1.526,8.276l4.318,14.567a3.27,3.27,0,0,0,3.136,2.341h2.893a3.27,3.27,0,0,0,3.137-2.341l4.317-14.567a9.284,9.284,0,0,0-1.525-8.276h0c-1.945-2.544-4.371-5.941-7.409-5.941C871.068,834.925,868.128,838.551,866.358,840.866Z" transform="translate(-16.577 -15.807)" fill="#4d1522"/>
    <path id="Trazado_3227" data-name="Trazado 3227" d="M867.12,842.958h0a8.21,8.21,0,0,0-1.4,7.435l3.955,13.088c.377,1.248-1.949,9.56-.621,9.56h9.391c1.327,0-.748-8.313-.371-9.56l3.955-13.088a8.205,8.205,0,0,0-1.4-7.435h0c-1.782-2.286-3.91-5.337-7.115-5.337C871.11,837.621,868.742,840.878,867.12,842.958Z" transform="translate(-16.736 -16.27)" fill="#691c2f"/>
    <g id="Grupo_3335" data-name="Grupo 3335" transform="translate(849.726 822.525)">
      <path id="Trazado_3228" data-name="Trazado 3228" d="M867.612,848.57h.034a.829.829,0,0,0,0-1.657h-.034A.829.829,0,0,0,867.612,848.57Z" transform="translate(-866.708 -840.388)" fill="#47121f"/>
      <path id="Trazado_3229" data-name="Trazado 3229" d="M869.612,844.9a.829.829,0,0,0,0-1.657A.829.829,0,0,0,869.612,844.9Z" transform="translate(-867.051 -839.759)" fill="#47121f"/>
      <path id="Trazado_3230" data-name="Trazado 3230" d="M872.013,840.488l-.035.035a.829.829,0,0,0,1.172,1.172l.035-.035A.829.829,0,0,0,872.013,840.488Z" transform="translate(-867.552 -839.245)" fill="#47121f"/>
      <path id="Trazado_3231" data-name="Trazado 3231" d="M876.32,839.038a.829.829,0,0,0,0,1.657A.829.829,0,0,0,876.32,839.038Z" transform="translate(-868.201 -839.038)" fill="#47121f"/>
      <path id="Trazado_3232" data-name="Trazado 3232" d="M879.7,842.861a.829.829,0,0,0,0-1.657A.829.829,0,0,0,879.7,842.861Z" transform="translate(-868.78 -839.409)" fill="#47121f"/>
      <path id="Trazado_3233" data-name="Trazado 3233" d="M882.153,845.861a.829.829,0,0,0,0-1.657A.829.829,0,0,0,882.153,845.861Z" transform="translate(-869.202 -839.924)" fill="#47121f"/>
      <path id="Trazado_3234" data-name="Trazado 3234" d="M883.9,847.954a.829.829,0,0,0,0,1.657A.829.829,0,0,0,883.9,847.954Z" transform="translate(-869.502 -840.567)" fill="#47121f"/>
      <path id="Trazado_3235" data-name="Trazado 3235" d="M883.119,852.35a.829.829,0,0,0,0,1.657A.829.829,0,0,0,883.119,852.35Z" transform="translate(-869.367 -841.321)" fill="#47121f"/>
      <path id="Trazado_3236" data-name="Trazado 3236" d="M881.445,856.361a.829.829,0,0,0,0,1.657A.829.829,0,0,0,881.445,856.361Z" transform="translate(-869.08 -842.008)" fill="#47121f"/>
      <path id="Trazado_3237" data-name="Trazado 3237" d="M880.479,859.97a.829.829,0,0,0,0,1.657A.829.829,0,0,0,880.479,859.97Z" transform="translate(-868.914 -842.627)" fill="#47121f"/>
      <path id="Trazado_3238" data-name="Trazado 3238" d="M879.062,866.278a.829.829,0,0,0,0-1.657A.829.829,0,0,0,879.062,866.278Z" transform="translate(-868.672 -843.424)" fill="#47121f"/>
      <path id="Trazado_3239" data-name="Trazado 3239" d="M878.729,868.371a.829.829,0,0,0,0,1.657A.829.829,0,0,0,878.729,868.371Z" transform="translate(-868.614 -844.067)" fill="#47121f"/>
      <path id="Trazado_3240" data-name="Trazado 3240" d="M879.513,872.871a.829.829,0,0,0,0,1.657A.829.829,0,0,0,879.513,872.871Z" transform="translate(-868.749 -844.839)" fill="#47121f"/>
      <path id="Trazado_3241" data-name="Trazado 3241" d="M879.513,877.371a.829.829,0,0,0,0,1.657A.829.829,0,0,0,879.513,877.371Z" transform="translate(-868.749 -845.611)" fill="#47121f"/>
      <path id="Trazado_3242" data-name="Trazado 3242" d="M875.668,877.371a.829.829,0,0,0,0,1.657A.829.829,0,0,0,875.668,877.371Z" transform="translate(-868.09 -845.611)" fill="#47121f"/>
      <path id="Trazado_3243" data-name="Trazado 3243" d="M871.569,877.371a.829.829,0,0,0,0,1.657A.829.829,0,0,0,871.569,877.371Z" transform="translate(-867.387 -845.611)" fill="#47121f"/>
      <path id="Trazado_3244" data-name="Trazado 3244" d="M871.945,872.49a.829.829,0,0,0,0,1.657A.829.829,0,0,0,871.945,872.49Z" transform="translate(-867.451 -844.773)" fill="#47121f"/>
      <path id="Trazado_3245" data-name="Trazado 3245" d="M867.521,850.7h-.034a.829.829,0,0,0,0,1.657h.034A.829.829,0,0,0,867.521,850.7Z" transform="translate(-866.687 -841.038)" fill="#47121f"/>
      <path id="Trazado_3246" data-name="Trazado 3246" d="M868.653,854.746a.829.829,0,0,0,0,1.657A.829.829,0,0,0,868.653,854.746Z" transform="translate(-866.887 -841.731)" fill="#47121f"/>
      <path id="Trazado_3247" data-name="Trazado 3247" d="M870.768,859.831V859.8a.829.829,0,0,0-1.657,0v.035A.829.829,0,0,0,870.768,859.831Z" transform="translate(-867.103 -842.46)" fill="#47121f"/>
      <path id="Trazado_3248" data-name="Trazado 3248" d="M871.111,867.555v.035a.829.829,0,0,0,1.657,0v-.035A.829.829,0,0,0,871.111,867.555Z" transform="translate(-867.445 -843.79)" fill="#47121f"/>
    </g>
    <path id="Trazado_3249" data-name="Trazado 3249" d="M870.111,863.676v.034a.829.829,0,0,0,1.657,0v-.034A.829.829,0,0,0,870.111,863.676Z" transform="translate(-17.548 -20.6)" fill="#47121f"/>
    <g id="Grupo_3336" data-name="Grupo 3336" transform="translate(848.636 841.651)">
      <path id="Trazado_3250" data-name="Trazado 3250" d="M882.383,880.683H865.372v-9.821a8.509,8.509,0,1,1,17.011,0Zm-15.61-1.44h14.208v-8.381a7.107,7.107,0,1,0-14.208,0Z" transform="translate(-865.372 -862.121)" fill="#e8e2df"/>
    </g>
    <path id="Trazado_3251" data-name="Trazado 3251" d="M877.118,918.983h0a4.631,4.631,0,0,1-6.127,0h0a14.839,14.839,0,0,1-4.963-10.94V887.621h16.053v20.422A14.84,14.84,0,0,1,877.118,918.983Z" transform="translate(-16.848 -24.842)" fill="#47121f"/>
    <path id="Trazado_3252" data-name="Trazado 3252" d="M877.025,916.807h0a3.648,3.648,0,0,1-5.178,0h0a14.451,14.451,0,0,1-4.194-10.181V887.621H881.22v19.005A14.451,14.451,0,0,1,877.025,916.807Z" transform="translate(-17.127 -24.842)" fill="#61192a"/>
    <rect id="Rectángulo_936" data-name="Rectángulo 936" width="18.78" height="9.114" rx="1.549" transform="translate(847.914 857.164)" fill="#47121f"/>
    <rect id="Rectángulo_937" data-name="Rectángulo 937" width="15.224" height="7.491" rx="1.063" transform="translate(849.594 857.82)" fill="#61192a"/>
    <path id="Trazado_3253" data-name="Trazado 3253" d="M924.909,796.031H800.783a.88.88,0,0,0-.88.881h0a.879.879,0,0,0,.88.88H924.909a.879.879,0,0,0,.88-.88h0A.88.88,0,0,0,924.909,796.031Z" transform="translate(-5.51 -9.139)" fill="#8f4255"/>
    <path id="Trazado_3254" data-name="Trazado 3254" d="M875.461,860.871h0a.727.727,0,0,0-.725.725v6.421a.727.727,0,0,0,.725.725h0a.727.727,0,0,0,.725-.725V861.6A.727.727,0,0,0,875.461,860.871Z" transform="translate(-18.341 -20.256)" fill="#e8e2df"/>
    <rect id="Rectángulo_938" data-name="Rectángulo 938" width="27.894" height="3.015" rx="0.792" transform="translate(794.392 782.928)" fill="#4d1522"/>
    <rect id="Rectángulo_939" data-name="Rectángulo 939" width="27.894" height="3.015" rx="0.792" transform="translate(886.361 782.928)" fill="#4d1522"/>
    <path id="Trazado_3255" data-name="Trazado 3255" d="M895.968,768.7c-8.828-17.287-18.648-26.031-29.142-25.971-15.906.08-27.745,20.288-30.787,26.029-2.517,1.064-2.138,5.572,1.16,5.572a2.839,2.839,0,0,0,2.676-3.765c3.022-4.949,13.772-20.818,27-20.884,8.811,0,17.385,5.339,25.419,20.941a2.828,2.828,0,0,0,2.69,3.708C898.349,774.331,898.674,769.63,895.968,768.7Z" transform="translate(-11.425)" fill="#4c1723"/>
    <g id="Grupo_3337" data-name="Grupo 3337" transform="translate(819.231 771.085)">
      <path id="Trazado_3256" data-name="Trazado 3256" d="M830.935,790.975a1.727,1.727,0,0,1-.387-.044c-.691-.157-.776-1.418-.563-1.927l4.759-11.371a1.436,1.436,0,0,1,1.637-.637c.691.157,1.078.7.865,1.206l-5.061,12.092A1.329,1.329,0,0,1,830.935,790.975Z" transform="translate(-829.882 -776.952)" fill="#e8e2df"/>
    </g>
    <g id="Grupo_3338" data-name="Grupo 3338" transform="translate(882.52 771.085)">
      <path id="Trazado_3257" data-name="Trazado 3257" d="M912.638,790.975a1.718,1.718,0,0,0,.386-.044c.691-.157.848-1.248.636-1.757l-4.83-11.541a1.437,1.437,0,0,0-1.637-.637c-.691.157-1.079.7-.866,1.206l5.061,12.092A1.331,1.331,0,0,0,912.638,790.975Z" transform="translate(-906.268 -776.952)" fill="#e8e2df"/>
    </g>
  </g>
</svg>
