<svg xmlns="http://www.w3.org/2000/svg" width="591" height="264.343" viewBox="0 0 591 264.343">
  <g id="Grupo_3558" data-name="Grupo 3558" transform="translate(-46 -625.855)">
    <circle id="Elipse_553" data-name="Elipse 553" cx="93" cy="93" r="93" transform="translate(451 644)" fill="#fff"/>
    <circle id="Elipse_552" data-name="Elipse 552" cx="93" cy="93" r="93" transform="translate(248 644)" fill="#fff"/>
    <circle id="Elipse_551" data-name="Elipse 551" cx="93" cy="93" r="93" transform="translate(46 644)" fill="#fff"/>
    <g id="Grupo_3344" data-name="Grupo 3344" transform="translate(268.802 635.209)">
      <path id="Trazado_3260" data-name="Trazado 3260" d="M430.162,644.67c-2.78.891-43.138,13.193-49.785-20.828a2.126,2.126,0,0,1,.007-.832l22.287-105.94a2.025,2.025,0,0,1,2.678-1.485l24.395,8.924a2.015,2.015,0,0,0,1.159.07l73.669-17.3A2.026,2.026,0,0,1,507,508.744l15.4,59.033s6.931,24.756-10.508,35.386c-.06.036-.122.071-.185.1l-81.249,41.285A1.921,1.921,0,0,1,430.162,644.67Z" transform="translate(-380.34 -444.136)" fill="none" stroke="#977c72" stroke-miterlimit="10" stroke-width="1"/>
      <path id="Trazado_3261" data-name="Trazado 3261" d="M396.509,519.341l83.38-20.14,19.377,11.411-75.178,17.35Z" transform="translate(-373.524 -447.519)" fill="none" stroke="#977c72" stroke-miterlimit="10" stroke-width="1"/>
      <path id="Trazado_3262" data-name="Trazado 3262" d="M403.611,534.4s9.688-59.124,49.684-69.807,40.494,31.053,40.494,31.053l.994,18.879-8.944-2.732s9.938-57.882-35.275-43.971c0,0-27.575,2.981-34.53,66.577Z" transform="translate(-370.53 -462.845)" fill="none" stroke="#977c72" stroke-miterlimit="10" stroke-width="1"/>
      <path id="Trazado_3263" data-name="Trazado 3263" d="M466.252,496.724a9.283,9.283,0,1,0,9.283,9.282A9.285,9.285,0,0,0,466.252,496.724Z" transform="translate(-348.038 -448.564)" fill="none" stroke="#977c72" stroke-miterlimit="10" stroke-width="1"/>
      <path id="Trazado_3264" data-name="Trazado 3264" d="M409.005,514.113a9.283,9.283,0,1,0,9.281,9.283A9.286,9.286,0,0,0,409.005,514.113Z" transform="translate(-372.17 -441.234)" fill="none" stroke="#977c72" stroke-miterlimit="10" stroke-width="1"/>
      <line id="Línea_93" data-name="Línea 93" y1="84.075" x2="15.625" transform="translate(13.704 115.573)" fill="none" stroke="#977c72" stroke-miterlimit="10" stroke-width="1"/>
      <path id="Trazado_3265" data-name="Trazado 3265" d="M401.877,524.433l-2.9,11.946a3.066,3.066,0,0,0,1.632,3.477l2.407,1.175a2.546,2.546,0,0,0,3.591-1.676l2.633-10.634a3.694,3.694,0,0,0-2.112-4.276l-2.817-1.224A1.777,1.777,0,0,0,401.877,524.433Z" transform="translate(-372.518 -437.457)" fill="none" stroke="#977c72" stroke-miterlimit="10" stroke-width="1"/>
    </g>
    <g id="Grupo_3346" data-name="Grupo 3346" transform="translate(472.409 626.362)">
      <g id="Grupo_3343" data-name="Grupo 3343" transform="translate(0 0)">
        <path id="Trazado_3258" data-name="Trazado 3258" d="M583.169,511.934l-1.109-47.692c-.171-5.629-7.946-4.464-7.946-4.464l-.967.27.213-1.109c.753-5.715-7.69-3.469-7.69-3.469l-24.095,6.2c-9.453,3.483-10.931,10.932-10.931,10.932l-19.162,56.818-5.445,1.564,4.066,1.237,13.832,4.236,71.005-19.873Zm-39.532-35.268s-2.26,32.524-3.213,44.423L521.589,526.5l14.77-48.929c1.535-6.312,4.123-9.922,6.1-11.884a9.99,9.99,0,0,1,4.307-2.5l16.419-4.748c.057,0,.1-.014.156-.014a4.277,4.277,0,0,1,4.677,3.1l-16.817,4.8c.938-.227,1.592-.384-.711.4C543.85,468.975,543.636,476.666,543.636,476.666Zm3.952,42.361,2.9-41.366a18.24,18.24,0,0,1,3.3-8.43,4.894,4.894,0,0,1,2.459-1.777l11.841-3.824a1.12,1.12,0,0,1-.057.284l-14.869,53.506Zm27.677-7.96-12.68,3.639,10.107-52.269c4.563-.455,4.563,2.3,4.563,2.3Z" transform="translate(-473.257 -455.036)" fill="none" stroke="#977c72" stroke-miterlimit="10" stroke-width="1"/>
        <path id="Trazado_3259" data-name="Trazado 3259" d="M607.673,603.653c-21.849,13.917-79.492,39.746-79.492,39.746s-19.19,3.511-32.681-4.25c-6.155-3.54-11.116-9.425-12.524-19.091l32.78-107.325,4.066,1.237,13.831,4.236,71.005-19.873,2.53,1a23.632,23.632,0,0,1,4.464,7.449l14.912,61.253S629.536,589.75,607.673,603.653Z" transform="translate(-482.977 -436.786)" fill="none" stroke="#977c72" stroke-miterlimit="10" stroke-width="1"/>
      </g>
      <path id="Trazado_3272" data-name="Trazado 3272" d="M9161.613-417.526l26.342-116.683" transform="translate(-9143.447 620.722)" fill="none" stroke="#977c72" stroke-width="1"/>
    </g>
    <g id="Grupo_3347" data-name="Grupo 3347" transform="translate(75.292 629.001)">
      <g id="Grupo_3345" data-name="Grupo 3345" transform="translate(0 0)">
        <path id="Trazado_3266" data-name="Trazado 3266" d="M288.784,529.45a14.881,14.881,0,0,0-10.123-1.279l-11.3,2.544c2.088-9.382,8.2-36.9,10.477-48.531.212-1.123.4-2.09.54-2.886.071-.426.127-.8.185-1.109,1.336-8.444-6.041-5.871-6.041-5.871l-24.336,6.2a14.33,14.33,0,0,0-11.927,10.192L219,541.619l-15.5,3.483a1.7,1.7,0,0,1,.64.128l24.395,8.927a2.116,2.116,0,0,0,1.151.071l58.565-13.746.569-11.017ZM256.87,494.922l-3.27,38.893-25.346,5.714,14.045-46.1a28.878,28.878,0,0,1,3.609-7.9,15.492,15.492,0,0,1,9.155-6.383L268.8,475.7c5.457-1.649,4.633,4.307,4.633,4.307l-.226.725-3.669,1.024C257.367,483,256.87,494.922,256.87,494.922Zm6.708,3.724c1.237-11.429,5.46-13.917,5.46-13.917l3.225-.938L262.527,515.6Z" transform="translate(-179.127 -471.95)" fill="none" stroke="#977c72" stroke-miterlimit="10" stroke-width="1"/>
        <line id="Línea_94" data-name="Línea 94" x1="7.136" y1="3.668" transform="translate(117.105 61.31)" fill="none" stroke="#977c72" stroke-miterlimit="10" stroke-width="1"/>
        <line id="Línea_95" data-name="Línea 95" x1="0.043" y2="0.014" transform="translate(24.336 73.151)" fill="none" stroke="#977c72" stroke-miterlimit="10" stroke-width="1"/>
        <path id="Trazado_3267" data-name="Trazado 3267" d="M317.9,631.587a.745.745,0,0,1-.185.1l-81.239,41.281a1.349,1.349,0,0,1-.3.128c-2.773.9-43.13,13.192-49.783-20.825a2.135,2.135,0,0,1,0-.839L208.687,545.5a2.053,2.053,0,0,1,2.047-1.621,1.7,1.7,0,0,1,.64.128l24.395,8.927a2.115,2.115,0,0,0,1.151.071l58.565-13.746.569-11.017,2.333-45.73s-.256-4.62-6.711-3.469l-6.609,1.919c.212-1.123.4-2.09.54-2.886l10.788-3.014s8.2-1.99,6.953,6.212l.114,50.763v5.345l7.135-1.677a2.014,2.014,0,0,1,2.417,1.464l15.4,59.036S335.346,620.954,317.9,631.587Z" transform="translate(-186.356 -470.728)" fill="none" stroke="#977c72" stroke-miterlimit="10" stroke-width="1"/>
        <path id="Trazado_3268" data-name="Trazado 3268" d="M237.388,539.287,234.8,555.369a1.252,1.252,0,0,0,1.574,1.406l1.517-.425a4.568,4.568,0,0,0,3.277-3.666l2.508-15.432a.973.973,0,0,0-1.254-1.085l-3.224,1.019A2.645,2.645,0,0,0,237.388,539.287Z" transform="translate(-165.94 -444.901)" fill="none" stroke="#977c72" stroke-miterlimit="10" stroke-width="1"/>
        <path id="Trazado_3269" data-name="Trazado 3269" d="M264.069,530.429l-2.584,16.083a1.252,1.252,0,0,0,1.575,1.4l1.517-.425a4.566,4.566,0,0,0,3.277-3.665l2.508-15.433a.974.974,0,0,0-1.255-1.085l-3.223,1.019A2.644,2.644,0,0,0,264.069,530.429Z" transform="translate(-154.694 -448.635)" fill="none" stroke="#977c72" stroke-miterlimit="10" stroke-width="1"/>
        <path id="Trazado_3270" data-name="Trazado 3270" d="M245.82,540.054l-9.7,2.442a1.923,1.923,0,0,1-2.378-2.081l.644-5.709a3.252,3.252,0,0,1,2.523-2.807l8.9-1.984a2.3,2.3,0,0,1,2.795,2.361l-.243,4.688A3.367,3.367,0,0,1,245.82,540.054Z" transform="translate(-166.388 -447.541)" fill="none" stroke="#977c72" stroke-miterlimit="10" stroke-width="1"/>
        <path id="Trazado_3271" data-name="Trazado 3271" d="M272.156,531.561l-9.7,2.442a1.923,1.923,0,0,1-2.38-2.08l.645-5.709a3.249,3.249,0,0,1,2.523-2.809l8.9-1.984a2.3,2.3,0,0,1,2.795,2.363l-.243,4.687A3.365,3.365,0,0,1,272.156,531.561Z" transform="translate(-155.288 -451.121)" fill="none" stroke="#977c72" stroke-miterlimit="10" stroke-width="1"/>
      </g>
      <path id="Trazado_3273" data-name="Trazado 3273" d="M8803.136-417.395l17.621-117.845" transform="translate(-8791.717 617.953)" fill="none" stroke="#977c72" stroke-width="1"/>
    </g>
    <path id="Trazado_3452" data-name="Trazado 3452" d="M8.118-23.1V0H5.742V-20.988H.3V-23.1Z" transform="translate(121 890)" fill="#f4564b"/>
    <path id="Trazado_3453" data-name="Trazado 3453" d="M17.49-2.112V0H1.287V-1.683l9.6-9.405a12.426,12.426,0,0,0,2.458-3.085,5.876,5.876,0,0,0,.643-2.624,3.872,3.872,0,0,0-1.4-3.184A6.217,6.217,0,0,0,8.58-21.12a7.917,7.917,0,0,0-6.3,2.574L.594-20A8.863,8.863,0,0,1,4.043-22.44,12.4,12.4,0,0,1,8.778-23.3a8.648,8.648,0,0,1,5.594,1.666,5.557,5.557,0,0,1,2.062,4.57,7.84,7.84,0,0,1-.792,3.432,14.39,14.39,0,0,1-3,3.795L4.785-2.112Z" transform="translate(329 890)" fill="#f4564b"/>
    <path id="Trazado_3454" data-name="Trazado 3454" d="M9.57-13.2A8.551,8.551,0,0,1,15.1-11.236a6,6,0,0,1,1.9,4.6,6.5,6.5,0,0,1-.957,3.515A6.523,6.523,0,0,1,13.2-.693,10.66,10.66,0,0,1,8.613.2,13.772,13.772,0,0,1,3.878-.61,9.612,9.612,0,0,1,.3-2.772L1.452-4.653a8.485,8.485,0,0,0,3.069,1.93,11.214,11.214,0,0,0,4.092.743A6.88,6.88,0,0,0,13-3.217a4.129,4.129,0,0,0,1.551-3.416A4.048,4.048,0,0,0,13-10,7.5,7.5,0,0,0,8.316-11.22H6.666v-1.749l6.4-8.019H1.254V-23.1H16.1v1.683Z" transform="translate(535 890)" fill="#f4564b"/>
  </g>
</svg>
