<svg xmlns="http://www.w3.org/2000/svg" width="471.047" height="357.643" viewBox="0 0 471.047 357.643">
  <g id="Grupo_3567" data-name="Grupo 3567" transform="translate(-576.633 -3.475)">
    <rect id="Rectángulo_1030" data-name="Rectángulo 1030" width="3" height="11" transform="translate(599 191)" fill="#745f57" opacity="0.427"/>
    <path id="Trazado_7449" data-name="Trazado 7449" d="M224.416,92.543c123.941,0,224.416-49.774,224.416,50.168S348.357,323.673,224.416,323.673,0,242.654,0,142.712,100.474,92.543,224.416,92.543Z" transform="matrix(0.996, 0.087, -0.087, 0.996, 607.541, -0.442)" fill="#ebebeb" opacity="0.468"/>
    <path id="Trazado_7450" data-name="Trazado 7450" d="M146.228,90.164c80.759,0,146.228-40.22,146.228,40.539s-40.249,146.79-121.008,146.79S29.039,212.688,29.039,131.929,65.468,90.164,146.228,90.164Z" transform="matrix(0.469, -0.883, 0.883, 0.469, 492.233, 224.07)" fill="#fff" opacity="0.278"/>
    <rect id="Rectángulo_1018" data-name="Rectángulo 1018" width="3" height="11" transform="translate(606 195) rotate(90)" fill="#745f57" opacity="0.427"/>
    <rect id="Rectángulo_1021" data-name="Rectángulo 1021" width="3" height="11" transform="translate(667 89) rotate(90)" fill="#745f57" opacity="0.427"/>
    <rect id="Rectángulo_1022" data-name="Rectángulo 1022" width="3" height="11" transform="translate(663 96) rotate(180)" fill="#745f57" opacity="0.427"/>
    <g id="Grupo_3566" data-name="Grupo 3566" transform="translate(720.738 24.354)" opacity="0.8">
      <g id="Grupo_2691" data-name="Grupo 2691" transform="translate(0 0)">
        <g id="Grupo_2676" data-name="Grupo 2676" transform="translate(6.559)">
          <g id="Grupo_2675" data-name="Grupo 2675">
            <path id="Trazado_1505" data-name="Trazado 1505" d="M255.738,196.257s2.711,2.882,4.264,4.156a29.875,29.875,0,0,0,7.037,3.379c1.165.334,6.152,2.773,6.649,3.993a14.423,14.423,0,0,1,0,7.092c-.66,2-4.373,1.833-5.484,1.554s-6.043-3.154-6.377-3.27-4.156-2.991-6.983-3.216-7.659-.334-9.648-1.934-1.048-8.374-1.048-8.374l.225-4.824Z" transform="translate(-199.168 -1.082)" fill="#6b2912"/>
            <path id="Trazado_1506" data-name="Trazado 1506" d="M259.38,189.4l1.3,7.154s1.864,20.864,2.773,26.433,2.33,12.638,2.33,13.889-3.325,3.658-6.983,3.325-4.738-2.159-6.152-4.156-4.661-17.182-6.323-21.229-4.164-20.678-3.659-23.839S259.38,189.4,259.38,189.4Z" transform="translate(-208.162 -40.423)" fill="#323232"/>
            <path id="Trazado_1507" data-name="Trazado 1507" d="M253.355,195.554s.722,6.323,2.214,7.372,10.478,9.927,11.419,10.758,5.212,2.99,3.27,5.43-5.1,2.664-6.315,2.882-6.929.225-7.154.334-5.818-4.381-6.812-6.152-3.107-5.158-4.606-5.6-3.713-1.88-3.713-3.325.225-8.482.225-8.816S253.355,195.554,253.355,195.554Z" transform="translate(-214.527 3.94)" fill="#6b2912"/>
            <path id="Trazado_1508" data-name="Trazado 1508" d="M268.307,189.281a93.342,93.342,0,0,1,1.111,22.946c-.893,13.415-2.664,26.775-3.332,30.356s-10.642,4.568-14.743,1.134-8.311-28.934-8.311-28.934-2.773-21.734,0-28.274S264.423,180.853,268.307,189.281Z" transform="translate(-213.57 -86.455)" fill="#404040"/>
            <path id="Trazado_1509" data-name="Trazado 1509" d="M283.37,192.277s-1.336,9.2-6.1,14.409-5.771,6.626-5.771,6.626,2.556,28.3,3.993,33.952-2.237,13.081-9.1,13.081-12.18-8.537-14.013-13.415-3.822-14.192-7.923-22.286-7.092-21.066-6.1-27.824a28.132,28.132,0,0,1,7.3-14.992C248.447,178.971,283.37,192.277,283.37,192.277Z" transform="translate(-238.164 -91.666)" fill="#4d4d4d"/>
            <path id="Trazado_1510" data-name="Trazado 1510" d="M261.892,192.211s-.046,16.056,0,20.048,2.16,22.728,2.16,22.728-1.911,3.659-5.329,4.319-7.752-2.439-7.752-2.439-6.315-18.844-7.76-22.721-3.091-20.258-2.99-21.936S257.961,188.343,261.892,192.211Z" transform="translate(-224.283 -33.272)" fill="#4d4d4d"/>
            <path id="Trazado_1511" data-name="Trazado 1511" d="M259.519,177.035a26.6,26.6,0,0,1,5.072,8.731c2.074,5.655,5.321,10.642,7.061,12.312a37.492,37.492,0,0,1,3.581,4.156s4.9,4.568-2.33,8.482-6.533,5.981-10,1.158-6.3-10.976-7.379-12.056-9.065-13.384-9.562-15.209.248-7.9,2.913-8.816S259.519,177.035,259.519,177.035Z" transform="translate(-186.35 -131.333)" fill="#f6b486"/>
            <path id="Trazado_1512" data-name="Trazado 1512" d="M244.983,173.85s9.974.419,14.883,5.235,7.48,11.31,8.645,13.306c.6,1.033-3.387,1.989-7.068,4.4-3.449,2.268-6.541,6.051-8.063,5.492C250.218,201.122,244.983,173.85,244.983,173.85Z" transform="translate(-192.018 -142.945)" fill="#3d7dc0"/>
            <path id="Trazado_1513" data-name="Trazado 1513" d="M279.472,173.675s11.752,3.239,14.526,11.986.994,28.554.326,30.9-5.367,10.991-6.836,18.091-.365,11.527-.7,12.3-4.661,6.874-18.961,7.426-18.619-2.214-25.051-7.092-2.548-15.52-2.548-15.52a23.242,23.242,0,0,0,3.985-12.3c.225-7.317-.07-23.008,1.15-25.781s14.681-13.9,22.565-16.452S279.472,173.675,279.472,173.675Z" transform="translate(-232.052 -144.13)" fill="#589fed"/>
            <path id="Trazado_1514" data-name="Trazado 1514" d="M265.008,188.112s-4.435,6.206-4.327,10.642-3.216,5.872-8.645,3.884-7.76-2.563-9.422-6.828,3.527-10.238,3.534-15.007,1.678-8.319,3.231-7.55S265.008,188.112,265.008,188.112Z" transform="translate(-210.272 -147.7)" fill="#f6b486"/>
            <path id="Trazado_1515" data-name="Trazado 1515" d="M256.19,178.988s2.237,9.15,3.379,11.644,7.2,15.675,7.5,18.27-10,10.106-10.02,10.028a52.318,52.318,0,0,1-5.74-7.682c-1.911-3.488-7.395-12.972-8.226-16.374s-3.084-10.976-3.084-10.976Z" transform="translate(-225.781 -108.173)" fill="#fcd1b3"/>
            <path id="Trazado_1516" data-name="Trazado 1516" d="M266.709,172.883a29.943,29.943,0,0,0-10.58-2c-2.967-.132-7.441-.8-10,1.08a5.352,5.352,0,0,0-1.344,2.657,45.235,45.235,0,0,0-2.012,11.419c-.132,1.942-.21,3.9-.217,5.849a9.908,9.908,0,0,0,.994,3.783c1.693,4.668,4.684,10.991,9.741,12.8,4.653,1.662,8.754,2.99,12.747,1.771s5.655-6.54,7.208-13.524,2.548-4.769,2.105-11.2S274.795,176.432,266.709,172.883Z" transform="translate(-208.422 -164.512)" fill="#fcd1b3"/>
            <path id="Trazado_1517" data-name="Trazado 1517" d="M247.569,173.923s3.713-3.27,11.03-3.938,10.7,1.662,14.192,5.655,6.043,8.094,6.043,10.8a19.527,19.527,0,0,1-.443,4.435,5.889,5.889,0,0,0-5.212-.443c-2.6,1.22-6.595,1.717-8.979.948s-8.366,2.82-8.366,2.82a15.588,15.588,0,0,0-2.61,5.546c-.443,2.664-2.175,8.723-6.634,1.29s-5.119-15.038-4.008-18.254A33.269,33.269,0,0,1,247.569,173.923Z" transform="translate(-211.459 -169.871)" fill="#6a3120"/>
          </g>
          <path id="Trazado_1518" data-name="Trazado 1518" d="M268.78,185.309s-4.016,11.116-4.016,13.446.047,9.554-.886,10.976-15.427-7.092-19.947-6.455c-.59.085-3.985,3.736-3.985,3.736a39.775,39.775,0,0,1,4.537-9.383c3.324-5.189,6.432-7.954,8.863-14.052s4.66-11.97,4.66-11.97Z" transform="translate(-226.106 -158.125)" fill="#6a3120"/>
          <path id="Trazado_1519" data-name="Trazado 1519" d="M254.855,177.723s6.8,7.185,6.8,13.081.777,13.314.777,14.316-8.871-.777-11.978-.668-7.977,1.328-7.535,3.107-4.039-6.882-3.262-15.978S238.022,171.517,254.855,177.723Z" transform="translate(-228.649 -129.015)" fill="#3d7dc0"/>
        </g>
        <g id="Grupo_2689" data-name="Grupo 2689" transform="translate(0 71.818)">
          <g id="Grupo_2680" data-name="Grupo 2680" transform="translate(124.829 125.858)">
            <g id="Grupo_2677" data-name="Grupo 2677" transform="translate(71.712 41.943)">
              <path id="Trazado_1520" data-name="Trazado 1520" d="M266.441,204.121l-3.818,2.224v-3.379l3.818-2.246Z" transform="translate(-262.623 -200.72)" fill="#939394"/>
            </g>
            <g id="Grupo_2678" data-name="Grupo 2678" transform="translate(0 2.246)">
              <path id="Trazado_1521" data-name="Trazado 1521" d="M325.1,240.931l-71.712-41.92v-3.4L325.1,237.552Z" transform="translate(-253.39 -195.609)" fill="#5f5f5f"/>
            </g>
            <g id="Grupo_2679" data-name="Grupo 2679">
              <path id="Trazado_1522" data-name="Trazado 1522" d="M328.921,237.263l-3.818,2.246L253.39,197.566l3.817-2.246Z" transform="translate(-253.39 -195.32)" fill="#d9d9d9"/>
            </g>
          </g>
          <path id="Trazado_1523" data-name="Trazado 1523" d="M265.111,309.258l-3.222-1.839V184.788l3.222,1.84Z" transform="translate(-71.041 -140.739)" fill="#5f5f5f"/>
          <path id="Trazado_1524" data-name="Trazado 1524" d="M265.79,307.156l-3.485,2.1V186.628l3.485-1.84Z" transform="translate(-68.234 -140.739)" fill="#939394"/>
          <path id="Trazado_1525" data-name="Trazado 1525" d="M256.829,304.4l-3.221-1.839V179.929l3.221,1.84Z" transform="translate(-127.087 -173.62)" fill="#5f5f5f"/>
          <path id="Trazado_1526" data-name="Trazado 1526" d="M257.509,302.3l-3.486,2.1V181.77l3.486-1.84Z" transform="translate(-124.281 -173.62)" fill="#939394"/>
          <g id="Grupo_2684" data-name="Grupo 2684" transform="translate(8.375 193.097)">
            <g id="Grupo_2681" data-name="Grupo 2681" transform="translate(71.713 41.943)">
              <path id="Trazado_1527" data-name="Trazado 1527" d="M251.448,212.777,247.63,215v-3.378l3.818-2.246Z" transform="translate(-247.63 -209.376)" fill="#939394"/>
            </g>
            <g id="Grupo_2682" data-name="Grupo 2682" transform="translate(0 2.246)">
              <path id="Trazado_1528" data-name="Trazado 1528" d="M310.111,249.588,238.4,207.667v-3.4l71.713,41.944Z" transform="translate(-238.398 -204.265)" fill="#5f5f5f"/>
            </g>
            <g id="Grupo_2683" data-name="Grupo 2683">
              <path id="Trazado_1529" data-name="Trazado 1529" d="M313.928,245.919l-3.818,2.246L238.4,206.222l3.819-2.246Z" transform="translate(-238.398 -203.976)" fill="#d9d9d9"/>
            </g>
          </g>
          <path id="Trazado_1530" data-name="Trazado 1530" d="M250.119,317.913l-3.222-1.838V193.444l3.222,1.84Z" transform="translate(-172.502 -82.157)" fill="#5f5f5f"/>
          <path id="Trazado_1531" data-name="Trazado 1531" d="M250.8,315.813l-3.485,2.1V195.285l3.485-1.84Z" transform="translate(-169.695 -82.157)" fill="#939394"/>
          <path id="Trazado_1532" data-name="Trazado 1532" d="M241.837,313.055l-3.221-1.838V188.586l3.221,1.84Z" transform="translate(-228.548 -115.038)" fill="#5f5f5f"/>
          <path id="Trazado_1533" data-name="Trazado 1533" d="M242.517,310.954l-3.486,2.1V190.426l3.486-1.84Z" transform="translate(-225.742 -115.038)" fill="#939394"/>
          <path id="Trazado_1534" data-name="Trazado 1534" d="M373.155,200.186,247.383,272.761V257.57L373.155,185Z" transform="translate(-169.219 -139.338)" fill="#b0b0b0"/>
          <path id="Trazado_1535" data-name="Trazado 1535" d="M441.259,224.775,315.487,297.349,237.32,251.692l125.773-72.574Z" transform="translate(-237.32 -179.114)" fill="#eaeaea"/>
          <path id="Trazado_1536" data-name="Trazado 1536" d="M436.976,224.775,311.2,293.936l-73.249-41.9L358.81,179.117Z" transform="translate(-233.041 -179.117)" fill="#bababa"/>
          <path id="Trazado_1537" data-name="Trazado 1537" d="M238.617,247.082l72.6,42.437,116.847-67.426-72.6-42.436-38.814,22.4-10.572,6.1L275.546,225.79l-11.792,6.8Z" transform="translate(-228.545 -175.468)" fill="#3e607a"/>
          <g id="Grupo_2688" data-name="Grupo 2688" transform="translate(29.875 10.741)">
            <g id="Grupo_2685" data-name="Grupo 2685">
              <path id="Trazado_1538" data-name="Trazado 1538" d="M263.273,258.5l79.153-44.641-1.818-1.049L261.176,258.1l-20.01-11.55,98.113-65.886.256-.163,60.293,34.807L286.894,271.879l-.233.116Zm76.3-76.846-96.568,64.837,18.176,10.494,79.424-45.3,3.783,2.183-79.145,44.648,21.447,12.374,111.078-55.64Z" transform="translate(-241.166 -180.5)" fill="#fff"/>
            </g>
            <g id="Grupo_2686" data-name="Grupo 2686" transform="translate(110.076 27.855)">
              <path id="Trazado_1539" data-name="Trazado 1539" d="M258.623,200.289l-3.286-8.265,13.741-7.939,17.19,9.919-14.013,8.086Zm10.455-15.077-12.521,7.232,2.765,6.952,12.731,1.686,12.265-7.076Z" transform="translate(-255.337 -184.086)" fill="#fff"/>
            </g>
            <g id="Grupo_2687" data-name="Grupo 2687" transform="translate(79.16 10.005)">
              <path id="Trazado_1540" data-name="Trazado 1540" d="M254.643,197.991l-3.286-8.272,13.741-7.931,17.182,9.919-14.013,8.086ZM265.1,182.914l-12.521,7.224,2.758,6.96,12.739,1.686,12.257-7.076Z" transform="translate(-251.357 -181.788)" fill="#fff"/>
            </g>
          </g>
          <path id="Trazado_1541" data-name="Trazado 1541" d="M315.482,249.309,237.32,203.652V188.46l78.161,45.657Z" transform="translate(-237.318 -115.885)" fill="#787372"/>
        </g>
        <path id="Trazado_1542" data-name="Trazado 1542" d="M246.206,239.866h5.372l95.509-51.792-5.021-3.583-8.3-.521Z" transform="translate(-177.183 -74.46)" fill="#073347"/>
        <path id="Trazado_1543" data-name="Trazado 1543" d="M241.167,192.591l5.328,1.771,11.791-6.8-4.513-2.26Z" transform="translate(-211.284 -65.422)" fill="#787372"/>
        <path id="Trazado_1544" data-name="Trazado 1544" d="M241.853,192.393c5.212,1.74,12.863,4.4,16.11,5.841,5.142,2.33,10.393,8.063,15.792,11.574,5.391,3.55,12.156,2.214,12.156,2.214l5.88-3.216-19.108-13.788L253.644,185.6Z" transform="translate(-206.641 -63.453)" fill="#073347"/>
        <path id="Trazado_1545" data-name="Trazado 1545" d="M246.688,188.238s2.027.924,4.769,2.113l10.572-6.105c-2.812-1.181-4.994-1.957-4.994-1.957Z" transform="translate(-173.92 -85.84)" fill="#787372"/>
        <path id="Trazado_1546" data-name="Trazado 1546" d="M247.3,188.645c3.954,1.7,9.383,4.024,12.2,4.987,4.769,1.662,10.649,17,10.649,17l9.275,5.507s4.956-2.4,5.507-4.14c.59-1.7-12.017-19.4-15.559-23.062-2.113-2.183-7.473-4.7-11.5-6.4Z" transform="translate(-169.764 -84.134)" fill="#073347"/>
        <path id="Trazado_1547" data-name="Trazado 1547" d="M245.261,235.979l7.338,4.157,95.86-52.3-6.991-4.363Z" transform="translate(-183.576 -77.807)" fill="#fccc45"/>
        <path id="Trazado_1548" data-name="Trazado 1548" d="M246.206,236.335v3.077l95.86-52.3v-3.077Z" transform="translate(-177.183 -74.006)" fill="#a64900"/>
        <path id="Trazado_1549" data-name="Trazado 1549" d="M245.261,190.234v3.077l7.338,4.157v-3.077Z" transform="translate(-183.576 -32.063)" fill="#ce7400"/>
        <g id="Grupo_2690" data-name="Grupo 2690" transform="translate(36.967 72.43)">
          <path id="Trazado_1550" data-name="Trazado 1550" d="M251.26,183.9s5.476-5.484,9.142-4.614c4.412,6.6,7.488,17.5,9.314,24.313s3.6,12.863,4.326,13.469a8.619,8.619,0,0,0,2.773,1.554c.722.171,2.276.559,2.827.722a4.443,4.443,0,0,1,1.717,2.105c.28.722,1.888,6.377,2,7.038a8.827,8.827,0,0,1-.831,2.719L280.3,232.6a15.522,15.522,0,0,1-.715,1.717.793.793,0,0,1-.614.334s-.551,2.214-1.771,2.439-2-1.165-2-1.165l-.94-1.608a51.193,51.193,0,0,1-4.661-4.606c-1.771-2.105-2.548-2.323-2.773-3.433a51.11,51.11,0,0,0-1.825-6.7c-.885-2.385-3.55-8.6-4.544-10.649s-12.421-17.858-12.281-19.955S251.26,183.9,251.26,183.9Z" transform="translate(-200.771 -179.196)" fill="#fcd1b3"/>
          <path id="Trazado_1551" data-name="Trazado 1551" d="M251.748,184.351s4.047.5,4.49,1.274,3.441,5.6,3.6,6.68.831,7.457.831,7.457-.551,3.1-2.1,2.936-2.214-2.6-2.214-2.6l.163-5.546s-2.385-4.878-2.99-5.267S249.254,185.345,251.748,184.351Z" transform="translate(-182.468 -144.308)" fill="#ffdec7"/>
          <path id="Trazado_1552" data-name="Trazado 1552" d="M253.208,188.345l-.924,2.424s-4.093,14.821,1.818,12.172c1.274-.575,5.065-12.475,5.065-14.347C259.166,185.61,255.158,181.237,253.208,188.345Z" transform="translate(-182.359 -143.284)" fill="#eff2ef"/>
          <path id="Trazado_1553" data-name="Trazado 1553" d="M253.544,183.152c.443.668,12.972,15.528,20.514,21.843s9.92,8.537,11.193,8.925,5.88,1.056,8.257,1.608,8.211,4.264,9.041,4.715a49.8,49.8,0,0,1,5.538,3.705,20.625,20.625,0,0,1,1.779,2.5,7.192,7.192,0,0,1,0,1.553c-.062.5-.388,1.717-1.165,2.043a3.5,3.5,0,0,1-1.942,0s.334,1.111-1.057,1.554a3.772,3.772,0,0,1-2.6-.163l-1.328-.5s.326,1.942-.886,2.159a13.687,13.687,0,0,1-3.775-.334l-7.317-3.045a15.882,15.882,0,0,1-6.144-1.554,21.911,21.911,0,0,1-5.158-4.6,52.02,52.02,0,0,0-12.475-9.422c-7.931-4.381-21.012-19.015-22.285-19.846s-2.385-7.62-1.049-9.593S253.1,182.492,253.544,183.152Z" transform="translate(-242.079 -154.644)" fill="#ffdec7"/>
        </g>
        <path id="Trazado_1554" data-name="Trazado 1554" d="M254.793,188.894l.187.3c.6.971,2.454,3.946,2.913,4.692.551.886,1.942,2.6,1.942,3.208s.28,2.61-1.328,1.779-6.773-6.983-7.263-7.542a4.257,4.257,0,0,1-.715-2.882,29.183,29.183,0,0,0-.016-3.161S252.626,181.8,254.793,188.894Z" transform="translate(-148.041 -71.326)" fill="#ffdec7"/>
      </g>
    </g>
  </g>
</svg>
